<svg width="18" height="18" viewBox="0 0 18 18" fill="none" xmlns="http://www.w3.org/2000/svg">
<path fill-rule="evenodd" clip-rule="evenodd" d="M9 16.875C13.3492 16.875 16.875 13.3492 16.875 9C16.875 4.65076 13.3492 1.125 9 1.125C4.65076 1.125 1.125 4.65076 1.125 9C1.125 13.3492 4.65076 16.875 9 16.875ZM9 15.75C12.7279 15.75 15.75 12.7279 15.75 9C15.75 5.27208 12.7279 2.25 9 2.25C5.27208 2.25 2.25 5.27208 2.25 9C2.25 12.7279 5.27208 15.75 9 15.75Z" fill="#95D475"/>
<path d="M5.25535 8.84467C5.0357 9.06433 5.03568 9.4205 5.25535 9.64017L7.64184 12.0267C7.86151 12.2463 8.21768 12.2463 8.43733 12.0267L13.2103 7.25368C13.43 7.03403 13.43 6.67786 13.2103 6.45819C12.9906 6.23852 12.6345 6.23853 12.4148 6.45819L8.03959 10.8334L6.05085 8.84467C5.83118 8.625 5.47501 8.62502 5.25535 8.84467Z" fill="#95D475"/>
</svg>
 