<svg xmlns="http://www.w3.org/2000/svg" xmlns:xlink="http://www.w3.org/1999/xlink" width="180" height="50" viewBox="0 0 180 50" fill="none"><g opacity="1"  transform="translate(0 0)  rotate(0)"><mask id="bg-mask-0" fill="white"><use transform="translate(0 0)  rotate(NaN)" xlink:href="#path_0"></use></mask><g mask="url(#bg-mask-0)" ><path id="文字" fill-rule="evenodd" style="fill:#FFFFFF" opacity="1" d="M60.16,19.4h1.59v-11.11h1.74v12.95h-3.33zM51.1,20.68c0.33,-1.67 0.49,-3.11 0.49,-3.11c0.15,-1.44 0.15,-3.14 0.15,-3.14h1.74c0,1.79 -0.13,3.23 -0.13,3.23c-0.13,1.44 -0.42,3.02 -0.42,3.02zM51.14,11.99h2.93v-1.57c-1.28,0.06 -2.64,0.06 -2.64,0.06v-1.82c1.44,0 3.4,-0.11 3.4,-0.11c1.96,-0.12 3.4,-0.31 3.4,-0.31v1.83c-1.03,0.16 -2.29,0.25 -2.29,0.25v1.67h2.58v1.81h-2.58v7.44h-1.87v-7.44h-2.93zM58.01,14.43c0.49,2.59 0.53,5.8 0.53,5.8h-1.66c-0.05,-3.12 -0.55,-5.8 -0.55,-5.8zM59.24,9.08h1.63v9.14h-1.63zM77.06,13.76h-6.92v-5.34h6.92zM64.92,15.53c2.11,-1.26 2.94,-3.51 2.94,-3.51h1.9c-0.46,1.68 -1.48,3.05 -1.48,3.05v6.24h-1.81v-4.47c-0.72,0.51 -1.55,0.95 -1.55,0.95zM64.92,11.64c1.95,-1.29 2.69,-3.45 2.69,-3.45h1.8c-0.99,3.83 -4.49,5.7 -4.49,5.7zM69.55,16.4h5.25v-0.63h-4.97v-1.5h7.54v1.5h-0.78v0.63h1.17v1.5h-1.17v3.34h-3.07v-1.58h1.28v-1.76h-5.25zM71.97,18.29l0.97,2.63h-1.75l-0.98,-2.63zM75.25,11.7h-3.3v0.66h3.3zM75.25,9.83h-3.3v0.65h3.3zM78.88,14.49h1.96v-4.13h-1.57v-1.65h1.57v-0.71h1.82v0.71h5.28v-0.71h1.81v0.71h1.58v1.65h-1.58v4.13h1.97v1.71h-1.58c0.53,0.87 1.65,1.3 1.65,1.3v1.85c-1.61,-0.57 -2.54,-1.61 -2.54,-1.61v0.98h-3.1v0.81h4.98v1.67h-11.68v-1.67h5v-0.81h-3.1v-0.98c-0.94,1.04 -2.54,1.61 -2.54,1.61v-1.85c1.11,-0.43 1.64,-1.3 1.64,-1.3h-1.57zM84.45,16.55h1.7v0.55h2.61c-0.24,-0.35 -0.45,-0.9 -0.45,-0.9h-6.03c-0.21,0.55 -0.44,0.9 -0.44,0.9h2.61zM87.94,14.12h-5.28v0.57h5.28zM87.94,12.14h-5.28v0.61h5.28zM87.94,10.22h-5.28v0.54h5.28zM105.68,13.96c-1.54,-0.42 -2.85,-1.33 -2.85,-1.33v0.91h-2.67v1.4h4.42v1.77h-4.42v2.56h1.23l0.78,-1.93h1.75l-0.78,1.93h2.16v1.81h-12.09v-1.81h2.18l-0.78,-1.93h1.74l0.79,1.93h1.21v-2.56h-4.41v-1.77h4.41v-1.4h-2.67v-0.91c-1.31,0.91 -2.84,1.33 -2.84,1.33v-1.92c1.66,-0.66 2.63,-1.57 2.63,-1.57c0.97,-0.92 1.55,-2.18 1.55,-2.18h4.47c0.59,1.26 1.56,2.18 1.56,2.18c0.97,0.91 2.63,1.57 2.63,1.57zM100.43,10.1h-2.35c-0.53,0.92 -1.34,1.67 -1.34,1.67h5.03c-0.81,-0.75 -1.34,-1.67 -1.34,-1.67zM51,40.2c1.48,-0.04 2.48,-0.52 2.48,-0.52l-1.81,-0.93l0.45,-1.05h-1.12v-1.56h1.77l0.37,-0.85h1.75l-0.36,0.85h3.65v1.56h-0.95c-0.44,1 -1,1.72 -1,1.72l1.71,0.91v1.14c1.3,-1.87 2.02,-3.41 2.02,-3.41l-1.05,-3.17h-1.04l0.15,0.3h-1.56c-0.52,-1.09 -0.74,-2.31 -0.74,-2.31h-0.39v2.2h-1.62v-2.2h-0.38c-0.25,1.29 -0.74,2.31 -0.74,2.31h-1.58c0.58,-1.06 0.87,-2.31 0.87,-2.31h-0.88v-1.64h2.71v-2.42h1.62v2.42h2.71v1.64h-0.88c0.22,0.95 0.6,1.75 0.6,1.75c0.86,-2.79 1.15,-5.94 1.15,-5.94h1.72c-0.04,0.53 -0.15,1.42 -0.15,1.42h3.32v1.87h-0.52c-0.09,1.36 -0.3,2.67 -0.3,2.67c-0.3,1.64 -0.76,3.02 -0.76,3.02l1.65,3.98h-1.8l-0.87,-2.13c-0.37,0.8 -1.18,2.13 -1.18,2.13h-2.08v0.35l-2.82,-1.47c-1.65,1.25 -4.12,1.27 -4.12,1.27zM52.86,28.96l0.54,1.93h-1.53l-0.53,-1.93zM55.52,37.7h-1.64l-0.17,0.39l1.13,0.6c0.36,-0.4 0.68,-0.99 0.68,-0.99zM56.16,28.96h1.54l-0.53,1.93h-1.52zM61.66,31.98h-1.46l-0.18,0.95l0.91,3.18c0.53,-1.74 0.73,-4.13 0.73,-4.13zM65.21,29.41h5.21v-0.85h1.84v0.85h5.21v3.12h-1.69c-0.94,1.57 -2.22,3.15 -2.22,3.15h4.07v1.82h-4.81v4.3h-3.95v-1.83h2.11v-2.47h-5.92v-1.82h6.32c0.74,-0.83 1.28,-1.51 1.28,-1.51h-5.75v-1.64h-1.7zM75.65,31.19h-8.62v1.23h8.62zM84.84,36.26c-1.43,0.66 -2.5,1.09 -2.5,1.09v-2.13c1.3,-0.53 2.5,-1.12 2.5,-1.12v-5.25h1.84v4.31c2.25,-1.2 4.4,-2.63 4.4,-2.63v2.25c-2.03,1.38 -4.4,2.59 -4.4,2.59v4.38h5v1.93h-6.84zM78.88,33.61c1.62,-1.91 2.26,-4.76 2.26,-4.76h1.83c-0.31,1.91 -1.04,3.57 -1.04,3.57v9.45h-1.81v-6.53c-0.5,0.59 -1.24,1.23 -1.24,1.23zM104.97,38.1v3.64h-11.28v-3.64zM92.91,31.84h12.7v2.82h-1.62v2.94h-9.6v-2.94h-1.48zM93.12,29.31h2.77v-0.61h1.82v0.61h3.1v-0.61h1.81v0.61h2.78v1.71h-2.78v0.62h-1.81v-0.62h-3.1v0.62h-1.82v-0.62h-2.77zM103.79,33.52h-9.07v0.62h9.07zM103.15,39.55h-7.65v0.74h7.65zM102.17,35.51h-5.97v0.72h5.97zM111.83,32.11h2.82l-0.05,-3.34h1.74v3.34h2.77v9.69h-1.79v-1.86h-3.71v1.86h-1.78zM106.67,33.6c0.84,-2.36 1.05,-4.75 1.05,-4.75h1.92l-0.04,0.36c-0.01,0.11 -0.03,0.29 -0.03,0.29c-0.01,0.18 -0.05,0.43 -0.05,0.43h1.87v1.78h-2.17c-0.07,0.33 -0.23,0.96 -0.23,0.96h2.23v1.76h-1.34v1.27h1.51v1.78h-1.51v2.12l1.4,-0.35v1.9l-3.17,0.79v-4.46h-1.18v-1.78h1.18v-1.27h-0.76v-0.83zM113.31,28.92l0.6,2.76h-1.55l-0.6,-2.76zM117.32,36.98h-3.71v1.16h3.71zM117.32,33.91h-3.71v1.27h3.71zM117.61,28.92h1.55l-0.58,2.76h-1.57zM120.89,32.42h5.36v-0.75h0.66v-1.01l0.03,-0.01h-1.33l0.5,1.33h-1.88l-0.5,-1.32c-0.53,0.65 -1.26,1.11 -1.26,1.11c-0.72,0.46 -1.58,0.63 -1.58,0.63v-1.74c1.33,-0.6 1.93,-1.74 1.93,-1.74h4.31v1.62c1.16,-0.59 1.71,-1.62 1.71,-1.62h4.62v1.73h-1.82l0.51,1.33h-1.89l-0.5,-1.33c-0.7,0.84 -1.66,1.33 -1.66,1.33v0.44h5.36v3.09h-1.72v2.43h-7.71v0.51h8.62v3.35h-10.43v-6.29h-1.33zM131.64,33.97h-8.93v0.62h8.93zM130.83,39.78h-6.8v0.68h6.8zM129.93,35.96h-5.9v0.63h5.9zM144.37,36.24v0.97h2.75v1.68h-2.75v1.04h3.14v1.71h-8.12v-1.28l-4.61,0.79v-1.84l1.46,-0.25v-3.45h-1.19v-1.81h1.19v-2.78h-1.39v-1.84h4.34v1.84h-1.17v2.78h1.06v1.81h-1.06v3.14l1.37,-0.23v1.41h3.14v-1.04h-2.76v-1.68h2.76v-0.97h-2.54v-7.16h6.91v7.16zM142.66,33.45h-0.94v1.1h0.94zM142.66,30.76h-0.94v1.09h0.94zM145.17,33.45h-0.92v1.1h0.92zM145.17,30.76h-0.92v1.09h0.92zM148.67,35.45h5.52v-4.55h-5.22v-1.81h12.25v1.81h-5.22v4.55h5.52v1.82h-5.52v4.53h-1.81v-4.53h-5.52zM151.65,31.58l0.88,3.22h-1.86l-0.88,-3.22zM158.54,31.58h1.86l-0.88,3.22h-1.86zM174.26,41.6h-10.41v-6.12h10.41zM163.29,32.47h1.23l2.43,-3.62h2.37l-2.43,3.62h4.97l-0.91,-1.82h2.24l1.81,3.67h-11.71zM172.43,37.29h-6.75v2.51h6.75z"></path><g opacity="1"  transform="translate(-3 1)  rotate(0)"><mask id="bg-mask-1" fill="white"><use transform="translate(0 0)  rotate(0)" xlink:href="#path_1"></use></mask><g mask="url(#bg-mask-1)" ><path id="path-1" fill-rule="evenodd" style="fill:#324157" opacity="1" d="M0 48.0001L48 48.0001L48 0L0 0L0 48.0001Z"></path><g opacity="1"  transform="translate(8.880126953125 6.0001220703125)  rotate(0)"><path id="形状结合" fill-rule="evenodd" style="fill:#FF3E3E" opacity="1" d="M0.03 30.1716L10.23 35.3216C13.1 34.4816 15.42 33.0816 17.19 31.1316L8.24 26.8616L8.24 10.3816L0 6.03162L0.03 30.1716Z"></path><path id="路径" fill-rule="evenodd" fill="url(#linear_0)" opacity="1" d="M4.84753 3.85C11.5675 6.03 16.5675 8.71 19.9975 11.67C23.4375 14.62 25.3775 18.72 25.3775 23.2C25.3775 27.67 22.8575 31.46 20.3575 33.49C18.9475 34.63 16.2675 35.52 14.5575 35.93C14.5575 35.93 26.3475 35.37 31.4775 26.87C35.0275 20.98 33.9975 13.08 30.6775 8.22C28.4675 4.98 25.6075 2.24 22.0875 0L4.84753 3.85Z"></path><path id="形状结合" fill-rule="evenodd" fill="url(#linear_1)" opacity="1" d="M12.33 2.22589L0 4.9059C7.82 8.9159 12.88 11.7759 15.19 13.4859C18.66 16.0559 20.7 19.0659 20.93 23.4759C21.15 27.8859 18.69 31.406 16.2 33.436C14.78 34.576 13.19 35.406 11.43 35.926C11.43 35.926 11.8 35.986 12.49 35.996C13.61 35.986 14.66 35.916 15.64 35.796C16.61 35.656 17.74 35.426 18.99 35.076C19.67 34.886 20.32 34.666 20.94 34.416C24.79 32.736 26.97 29.8759 28.52 26.5559C31 21.2259 28.89 13.4859 24.04 9.33591C22.8 8.2859 21.28 7.1959 19.46 6.0759C17.55 4.9759 15.33 3.76589 12.8 2.46589L12.57 2.34589C12.49 2.30589 12.41 2.26589 12.33 2.22589Z"></path></g></g></g></g></g><defs><rect id="path_0" x="0" y="0" width="180" height="50" /><rect id="path_1" x="0" y="0" width="48" height="48" /><linearGradient id="linear_0" x1="75.639552%" y1="-8.66087659%" x2="76.639552%" y2="92.5622117%" gradientUnits="objectBoundingBox"><stop offset="0" stop-color="#324157" stop-opacity="0" /><stop offset="1" stop-color="#A0B5D5" stop-opacity="1" /></linearGradient><linearGradient id="linear_1" x1="23.2068831%" y1="-3.35448234%" x2="78.2253806%" y2="77.6381951%" gradientUnits="objectBoundingBox"><stop offset="0" stop-color="#6B89B5" stop-opacity="1" /><stop offset="1" stop-color="#FFFFFF" stop-opacity="1" /></linearGradient></defs></svg>