<?xml version="1.0" standalone="no"?><!DOCTYPE svg PUBLIC "-//W3C//DTD SVG 1.1//EN" "http://www.w3.org/Graphics/SVG/1.1/DTD/svg11.dtd"><svg t="1716254656519" class="icon" viewBox="0 0 1024 1024" version="1.1" xmlns="http://www.w3.org/2000/svg" p-id="4301" xmlns:xlink="http://www.w3.org/1999/xlink" width="200" height="200"><path d="M307.2 0a102.4 102.4 0 1 1 0 204.8 102.4 102.4 0 0 1 0-204.8z m409.6 0a102.4 102.4 0 1 1 0 204.8 102.4 102.4 0 0 1 0-204.8zM307.2 409.6a102.4 102.4 0 1 1 0 204.8 102.4 102.4 0 0 1 0-204.8z m409.6 0a102.4 102.4 0 1 1 0 204.8 102.4 102.4 0 0 1 0-204.8zM307.2 819.2a102.4 102.4 0 1 1 0 204.8 102.4 102.4 0 0 1 0-204.8z m409.6 0a102.4 102.4 0 1 1 0 204.8 102.4 102.4 0 0 1 0-204.8z" fill="#ACACAC" p-id="4302"></path></svg>