<svg width="24" height="24" viewBox="0 0 24 24" fill="none" xmlns="http://www.w3.org/2000/svg">
<path d="M0.5 12C0.5 5.64873 5.64873 0.5 12 0.5C18.3513 0.5 23.5 5.64873 23.5 12C23.5 18.3513 18.3513 23.5 12 23.5C5.64873 23.5 0.5 18.3513 0.5 12Z" fill="white"/>
<path d="M0.5 12C0.5 5.64873 5.64873 0.5 12 0.5C18.3513 0.5 23.5 5.64873 23.5 12C23.5 18.3513 18.3513 23.5 12 23.5C5.64873 23.5 0.5 18.3513 0.5 12Z" stroke="#DCDFE6"/>
<path fill-rule="evenodd" clip-rule="evenodd" d="M12 7.125C11.7929 7.125 11.625 7.29289 11.625 7.5V11.625H7.5C7.29289 11.625 7.125 11.7929 7.125 12C7.125 12.2071 7.29289 12.375 7.5 12.375H11.625V16.5C11.625 16.7071 11.7929 16.875 12 16.875C12.2071 16.875 12.375 16.7071 12.375 16.5V12.375H16.5C16.7071 12.375 16.875 12.2071 16.875 12C16.875 11.7929 16.7071 11.625 16.5 11.625H12.375V7.5C12.375 7.29289 12.2071 7.125 12 7.125Z" fill="#606266"/>
</svg>
