<svg width="20" height="20" viewBox="0 0 20 20" fill="none" xmlns="http://www.w3.org/2000/svg">
<path d="M0.5 10C0.5 4.7533 4.7533 0.5 10 0.5C15.2467 0.5 19.5 4.7533 19.5 10C19.5 15.2467 15.2467 19.5 10 19.5C4.7533 19.5 0.5 15.2467 0.5 10Z" fill="white"/>
<path d="M0.5 10C0.5 4.7533 4.7533 0.5 10 0.5C15.2467 0.5 19.5 4.7533 19.5 10C19.5 15.2467 15.2467 19.5 10 19.5C4.7533 19.5 0.5 15.2467 0.5 10Z" stroke="#DCDFE6"/>
<path fill-rule="evenodd" clip-rule="evenodd" d="M10 5.125C9.79289 5.125 9.625 5.29289 9.625 5.5V9.625H5.5C5.29289 9.625 5.125 9.79289 5.125 10C5.125 10.2071 5.29289 10.375 5.5 10.375H9.625V14.5C9.625 14.7071 9.79289 14.875 10 14.875C10.2071 14.875 10.375 14.7071 10.375 14.5V10.375H14.5C14.7071 10.375 14.875 10.2071 14.875 10C14.875 9.79289 14.7071 9.625 14.5 9.625H10.375V5.5C10.375 5.29289 10.2071 5.125 10 5.125Z" fill="#606266"/>
</svg>
