<svg width="71" height="13" viewBox="0 0 71 13" fill="none" xmlns="http://www.w3.org/2000/svg">
<path d="M0.152 0.575999H5.256C6.312 0.575999 7.16 0.832 7.784 1.344C8.392 1.856 8.696 2.56 8.696 3.456C8.696 4.096 8.52 4.656 8.184 5.12C7.832 5.536 7.368 5.84 6.792 6.032C7.544 6.16 8.12 6.48 8.536 6.96C8.952 7.44 9.176 8.048 9.176 8.816C9.176 9.936 8.776 10.768 7.992 11.312C7.32 11.76 6.392 12 5.224 12H0.152V0.575999ZM1.464 1.68V5.568H4.936C5.736 5.568 6.344 5.392 6.76 5.072C7.176 4.736 7.4 4.24 7.4 3.584C7.4 2.944 7.192 2.464 6.776 2.144C6.36 1.824 5.752 1.68 4.952 1.68H1.464ZM1.464 6.656V10.896H5.112C5.912 10.896 6.536 10.736 7.016 10.448C7.576 10.096 7.864 9.536 7.864 8.8C7.864 8.064 7.608 7.52 7.128 7.168C6.664 6.816 5.992 6.656 5.112 6.656H1.464ZM14.4201 3.504C15.6041 3.504 16.4681 3.808 17.0441 4.432C17.5241 4.976 17.7801 5.728 17.7801 6.688V12H16.5801V10.608C16.2601 11.056 15.8281 11.424 15.3161 11.712C14.7081 12.048 14.0201 12.224 13.2521 12.224C12.4201 12.224 11.7641 12.016 11.2681 11.6C10.7561 11.168 10.5001 10.608 10.5001 9.936C10.5001 8.992 10.8681 8.288 11.6361 7.808C12.3081 7.36 13.2681 7.12 14.5161 7.104L16.5001 7.072V6.64C16.5001 5.248 15.7801 4.56 14.3401 4.56C13.7321 4.56 13.2361 4.672 12.8521 4.928C12.4201 5.184 12.1481 5.584 12.0201 6.112L10.7561 6.016C10.9321 5.152 11.3641 4.496 12.0361 4.08C12.6441 3.696 13.4281 3.504 14.4201 3.504ZM16.5001 8.032L14.5961 8.064C12.7401 8.096 11.8121 8.704 11.8121 9.904C11.8121 10.288 11.9561 10.592 12.2761 10.848C12.5961 11.088 13.0121 11.216 13.5241 11.216C14.3081 11.216 14.9961 10.96 15.6041 10.448C16.1961 9.952 16.5001 9.376 16.5001 8.736V8.032ZM23.6296 3.504C25.6776 3.504 26.7176 4.64 26.7176 6.912V12H25.4376V7.008C25.4376 5.392 24.7016 4.592 23.2616 4.592C22.6856 4.592 22.1896 4.8 21.7736 5.216C21.3256 5.664 21.0856 6.256 21.0376 7.008V12H19.7576V3.728H21.0376V4.944C21.3256 4.48 21.6936 4.128 22.1416 3.888C22.5896 3.632 23.0856 3.504 23.6296 3.504ZM32.5671 3.504C34.6151 3.504 35.6551 4.64 35.6551 6.912V12H34.3751V7.008C34.3751 5.392 33.6391 4.592 32.1991 4.592C31.6231 4.592 31.1271 4.8 30.7111 5.216C30.2631 5.664 30.0231 6.256 29.9751 7.008V12H28.6951V3.728H29.9751V4.944C30.2631 4.48 30.6311 4.128 31.0791 3.888C31.5271 3.632 32.0231 3.504 32.5671 3.504ZM41.0406 3.504C42.3686 3.504 43.3766 3.952 44.0486 4.848C44.6566 5.648 44.9766 6.784 45.0086 8.224H38.4806C38.5446 9.152 38.7846 9.872 39.2326 10.384C39.6806 10.896 40.3046 11.152 41.0886 11.152C41.7606 11.152 42.3206 10.976 42.7366 10.64C43.0886 10.352 43.3606 9.92 43.5686 9.344H44.8486C44.6566 10.144 44.2886 10.784 43.7286 11.296C43.0406 11.904 42.1606 12.224 41.0886 12.224C39.9046 12.224 38.9446 11.824 38.2406 11.056C37.5046 10.256 37.1526 9.2 37.1526 7.856C37.1526 6.64 37.4886 5.616 38.1926 4.8C38.8966 3.936 39.8406 3.504 41.0406 3.504ZM41.0726 4.576C40.3366 4.576 39.7446 4.816 39.2966 5.296C38.8486 5.776 38.5926 6.416 38.5126 7.232H43.6806C43.5206 5.456 42.6406 4.576 41.0726 4.576ZM50.1396 3.504C50.5876 3.504 50.9716 3.568 51.2756 3.696V4.976C50.8596 4.848 50.4436 4.8 50.0436 4.8C49.4036 4.8 48.8596 5.072 48.4276 5.648C47.9796 6.192 47.7716 6.848 47.7716 7.616V12H46.5076V3.728H47.7716V5.168C47.9956 4.688 48.2836 4.304 48.6356 4.032C49.0676 3.68 49.5636 3.504 50.1396 3.504ZM61.4875 0.351999C62.8475 0.351999 63.8715 0.943999 64.5755 2.16C65.1835 3.184 65.4875 4.56 65.4875 6.288C65.4875 8.016 65.1835 9.392 64.5755 10.416C63.8715 11.616 62.8475 12.224 61.4875 12.224C60.1115 12.224 59.0875 11.616 58.3995 10.416C57.7915 9.392 57.4875 8.016 57.4875 6.288C57.4875 4.56 57.7915 3.184 58.3995 2.16C59.0875 0.943999 60.1115 0.351999 61.4875 0.351999ZM61.4875 1.472C60.4635 1.472 59.7275 2.016 59.2795 3.12C58.9595 3.888 58.7995 4.944 58.7995 6.288C58.7995 7.616 58.9595 8.672 59.2795 9.456C59.7275 10.544 60.4635 11.104 61.4875 11.104C62.5115 11.104 63.2475 10.544 63.6955 9.456C64.0155 8.672 64.1915 7.616 64.1915 6.288C64.1915 4.944 64.0155 3.888 63.6955 3.12C63.2475 2.016 62.5115 1.472 61.4875 1.472ZM69.9613 0.575999H70.9852V12H69.6733V2.176C68.9533 2.912 68.0573 3.424 66.9853 3.744V2.432C67.4973 2.288 68.0413 2.064 68.5853 1.744C69.1293 1.392 69.5773 1.008 69.9613 0.575999Z" fill="#606266"/>
</svg>
