<svg width="140" height="80" viewBox="0 0 140 80" fill="none" xmlns="http://www.w3.org/2000/svg">
<path d="M133 0H7C3.13401 0 0 3.13401 0 7V40V73C0 76.866 3.13401 80 7 80H133C136.866 80 140 76.866 140 73V7C140 3.13401 136.866 0 133 0Z" fill="#C7C9CC"/>
<path d="M61.0196 35.8615C63.1958 35.8615 65.0819 34.1205 65.0819 31.7992C65.0819 29.6229 63.3409 27.7368 61.0196 27.7368C58.8433 27.7368 56.9572 29.4778 56.9572 31.7992C57.1023 34.1205 58.8433 35.8615 61.0196 35.8615ZM79.01 33.3951L67.2582 50.0797L61.1647 41.5198L51.0088 55.8831H90.9068L79.01 33.3951Z" fill="white"/>
<path d="M94.9689 17H47.0912C45.9306 17 45.0601 17.8705 45.0601 19.0312V60.9604C45.0601 62.1211 45.9306 62.9916 47.0912 62.9916H94.9689C96.1296 62.9916 97.0001 62.1211 97.0001 60.9604V19.0312C97.0001 17.8705 96.1296 17 94.9689 17ZM92.9377 58.9292H49.1224V20.9173H93.0828V58.9292H92.9377Z" fill="white"/>
</svg>
