<svg width="142" height="82" viewBox="0 0 142 82" fill="none" xmlns="http://www.w3.org/2000/svg">
<path d="M8 0.5C3.85786 0.5 0.5 3.85787 0.5 8V41V74C0.5 78.1421 3.85787 81.5 8 81.5H134C138.142 81.5 141.5 78.1421 141.5 74V41V8C141.5 3.85786 138.142 0.5 134 0.5H8Z" fill="#C7C9CC" stroke="#DCDFE6" stroke-linecap="square"/>
<rect x="93" y="56" width="36" height="14" rx="7" fill="white"/>
<path d="M97.5559 59.86H98.8859L100.626 62.44L102.366 59.86H103.696L101.276 63.31L103.866 67H102.536L100.626 64.17L98.7159 67H97.3859L99.9559 63.31L97.5559 59.86ZM104.138 59.86H105.468L107.208 62.44L108.948 59.86H110.278L107.858 63.31L110.448 67H109.118L107.208 64.17L105.298 67H103.968L106.538 63.31L104.138 59.86ZM110.72 59.86H112.05L113.79 62.44L115.53 59.86H116.86L114.44 63.31L117.03 67H115.7L113.79 64.17L111.88 67H110.55L113.12 63.31L110.72 59.86ZM117.302 59.86H118.632L120.372 62.44L122.112 59.86H123.442L121.022 63.31L123.612 67H122.282L120.372 64.17L118.462 67H117.132L119.702 63.31L117.302 59.86Z" fill="#C7C9CC"/>
<path d="M7.61608 51.718H9.34508L11.6071 55.072L13.8691 51.718H15.5981L12.4521 56.203L15.8191 61H14.0901L11.6071 57.321L9.12408 61H7.39508L10.7361 56.203L7.61608 51.718ZM16.1727 51.718H17.9017L20.1637 55.072L22.4257 51.718H24.1547L21.0087 56.203L24.3757 61H22.6467L20.1637 57.321L17.6807 61H15.9517L19.2927 56.203L16.1727 51.718ZM24.7294 51.718H26.4584L28.7204 55.072L30.9824 51.718H32.7114L29.5654 56.203L32.9324 61H31.2034L28.7204 57.321L26.2374 61H24.5084L27.8494 56.203L24.7294 51.718ZM33.286 51.718H35.015L37.277 55.072L39.539 51.718H41.268L38.122 56.203L41.489 61H39.76L37.277 57.321L34.794 61H33.065L36.406 56.203L33.286 51.718ZM41.8426 51.718H43.5716L45.8336 55.072L48.0956 51.718H49.8246L46.6786 56.203L50.0456 61H48.3166L45.8336 57.321L43.3506 61H41.6216L44.9626 56.203L41.8426 51.718ZM50.3993 51.718H52.1283L54.3903 55.072L56.6523 51.718H58.3813L55.2353 56.203L58.6023 61H56.8733L54.3903 57.321L51.9073 61H50.1783L53.5193 56.203L50.3993 51.718Z" fill="white"/>
<rect x="7" y="66" width="52" height="3" rx="0.875" fill="white"/>
<path d="M1 8C1 4.13401 4.13401 1 8 1H134C137.866 1 141 4.13401 141 8V41H1V8Z" fill="white"/>
<rect x="7" y="17" width="24" height="11" rx="0.875" fill="#C7C9CC"/>
<rect x="33" y="17" width="10" height="11" rx="0.875" fill="#C7C9CC"/>
<rect x="45" y="17" width="10" height="11" rx="0.875" fill="#C7C9CC"/>
<path d="M106.7 19.0401C107.75 19.0401 108.66 18.2001 108.66 17.0801C108.66 16.0301 107.82 15.1201 106.7 15.1201C105.65 15.1201 104.74 15.9601 104.74 17.0801C104.81 18.2001 105.65 19.0401 106.7 19.0401ZM115.38 17.8501L109.71 25.9001L106.77 21.7701L101.87 28.7001H121.12L115.38 17.8501Z" fill="#C7C9CC"/>
<path d="M123.08 9.93994H99.98C99.42 9.93994 99 10.3599 99 10.9199V31.1499C99 31.7099 99.42 32.1299 99.98 32.1299H123.08C123.64 32.1299 124.06 31.7099 124.06 31.1499V10.9199C124.06 10.3599 123.64 9.93994 123.08 9.93994ZM122.1 30.1699H100.96V11.8299H122.17V30.1699H122.1Z" fill="#C7C9CC"/>
</svg>
