<svg width="140" height="80" viewBox="0 0 140 80" fill="none" xmlns="http://www.w3.org/2000/svg">
<rect width="140" height="80" rx="7" fill="#C6E2FF"/>
<rect x="27" y="60" width="85.75" height="14" rx="7" fill="#79BBFF"/>
<rect x="50" y="22" width="12.25" height="5.25" rx="1.3125" fill="#79BBFF"/>
<rect x="63.5625" y="22" width="12.25" height="5.25" rx="1.3125" fill="#79BBFF"/>
<rect x="77.125" y="22" width="12.25" height="5.25" rx="1.3125" fill="#79BBFF"/>
<rect x="12" y="48" width="30.625" height="2.625" rx="0.875" fill="#79BBFF"/>
<rect x="97" y="48" width="30.625" height="2.625" rx="0.875" fill="#79BBFF"/>
<path d="M44.6161 8.718H46.3451L48.6071 12.072L50.8691 8.718H52.5981L49.4521 13.203L52.8191 18H51.0901L48.6071 14.321L46.1241 18H44.3951L47.7361 13.203L44.6161 8.718ZM53.1727 8.718H54.9017L57.1637 12.072L59.4257 8.718H61.1547L58.0087 13.203L61.3757 18H59.6467L57.1637 14.321L54.6807 18H52.9517L56.2927 13.203L53.1727 8.718ZM61.7294 8.718H63.4584L65.7204 12.072L67.9824 8.718H69.7114L66.5654 13.203L69.9324 18H68.2034L65.7204 14.321L63.2374 18H61.5084L64.8494 13.203L61.7294 8.718ZM70.286 8.718H72.015L74.277 12.072L76.539 8.718H78.268L75.122 13.203L78.489 18H76.76L74.277 14.321L71.794 18H70.065L73.406 13.203L70.286 8.718ZM78.8426 8.718H80.5716L82.8336 12.072L85.0956 8.718H86.8246L83.6786 13.203L87.0456 18H85.3166L82.8336 14.321L80.3506 18H78.6216L81.9626 13.203L78.8426 8.718ZM87.3993 8.718H89.1283L91.3903 12.072L93.6523 8.718H95.3813L92.2353 13.203L95.6023 18H93.8733L91.3903 14.321L88.9073 18H87.1783L90.5193 13.203L87.3993 8.718Z" fill="#79BBFF"/>
<path d="M12.5068 36.432H13.7188L16.0348 39.768L18.3628 36.432H19.5748L16.6228 40.548L19.8028 45H18.5908L16.0348 41.328L13.4908 45H12.2788L15.4348 40.548L12.5068 36.432ZM20.1474 36.432H21.3594L23.6754 39.768L26.0034 36.432H27.2154L24.2634 40.548L27.4434 45H26.2314L23.6754 41.328L21.1314 45H19.9194L23.0754 40.548L20.1474 36.432ZM27.788 36.432H29L31.316 39.768L33.644 36.432H34.856L31.904 40.548L35.084 45H33.872L31.316 41.328L28.772 45H27.56L30.716 40.548L27.788 36.432ZM35.4286 36.432H36.6406L38.9566 39.768L41.2846 36.432H42.4966L39.5446 40.548L42.7246 45H41.5126L38.9566 41.328L36.4126 45H35.2006L38.3566 40.548L35.4286 36.432Z" fill="#79BBFF"/>
<path d="M97.5068 36.432H98.7188L101.035 39.768L103.363 36.432H104.575L101.623 40.548L104.803 45H103.591L101.035 41.328L98.4908 45H97.2788L100.435 40.548L97.5068 36.432ZM105.147 36.432H106.359L108.675 39.768L111.003 36.432H112.215L109.263 40.548L112.443 45H111.231L108.675 41.328L106.131 45H104.919L108.075 40.548L105.147 36.432ZM112.788 36.432H114L116.316 39.768L118.644 36.432H119.856L116.904 40.548L120.084 45H118.872L116.316 41.328L113.772 45H112.56L115.716 40.548L112.788 36.432ZM120.429 36.432H121.641L123.957 39.768L126.285 36.432H127.497L124.545 40.548L127.725 45H126.513L123.957 41.328L121.413 45H120.201L123.357 40.548L120.429 36.432Z" fill="#79BBFF"/>
<path d="M56.5559 63.86H57.8859L59.6259 66.44L61.3659 63.86H62.6959L60.2759 67.31L62.8659 71H61.5359L59.6259 68.17L57.7159 71H56.3859L58.9559 67.31L56.5559 63.86ZM63.138 63.86H64.468L66.208 66.44L67.948 63.86H69.278L66.858 67.31L69.448 71H68.118L66.208 68.17L64.298 71H62.968L65.538 67.31L63.138 63.86ZM69.72 63.86H71.05L72.79 66.44L74.53 63.86H75.86L73.44 67.31L76.03 71H74.7L72.79 68.17L70.88 71H69.55L72.12 67.31L69.72 63.86ZM76.302 63.86H77.632L79.372 66.44L81.112 63.86H82.442L80.022 67.31L82.612 71H81.282L79.372 68.17L77.462 71H76.132L78.702 67.31L76.302 63.86Z" fill="#ECF5FF"/>
</svg>
