 <svg width="140" height="80" viewBox="0 0 140 80" fill="none" xmlns="http://www.w3.org/2000/svg">
<path d="M133 0H7C3.13401 0 0 3.13401 0 7V40V73C0 76.866 3.13401 80 7 80H133C136.866 80 140 76.866 140 73V7C140 3.13401 136.866 0 133 0Z" fill="#C6E2FF"/>
<path d="M61.0193 35.8615C63.1956 35.8615 65.0817 34.1205 65.0817 31.7992C65.0817 29.6229 63.3407 27.7368 61.0193 27.7368C58.8431 27.7368 56.957 29.4778 56.957 31.7992C57.1021 34.1205 58.8431 35.8615 61.0193 35.8615ZM79.0097 33.3951L67.2579 50.0797L61.1644 41.5198L51.0085 55.8831H90.9066L79.0097 33.3951Z" fill="#79BBFF"/>
<path d="M94.9688 17H47.0912C45.9305 17 45.06 17.8705 45.06 19.0312V60.9604C45.06 62.1211 45.9305 62.9916 47.0912 62.9916H94.9688C96.1295 62.9916 97 62.1211 97 60.9604V19.0312C97 17.8705 96.1295 17 94.9688 17ZM92.9377 58.9292H49.1223V20.9173H93.0827V58.9292H92.9377Z" fill="#79BBFF"/>
</svg>
