<svg width="406" height="848" viewBox="0 0 406 848" fill="none" xmlns="http://www.w3.org/2000/svg">
<rect x="4" y="4" width="398" height="840" rx="24" fill="#0E123E"/>
<rect x="4" y="4" width="398" height="840" rx="24" stroke="#303133" stroke-width="8"/>
<rect x="20" y="122" width="366" height="210" rx="8" fill="white" fill-opacity="0.2"/>
<rect x="20.5" y="122.5" width="365" height="209" rx="7.5" stroke="white" stroke-opacity="0.3" stroke-linecap="square" stroke-dasharray="2 6"/>
<rect x="20" y="348" width="366" height="481" rx="8" fill="white" fill-opacity="0.2"/>
<rect x="20.5" y="348.5" width="365" height="480" rx="7.5" stroke="white" stroke-opacity="0.3" stroke-linecap="square" stroke-dasharray="2 6"/>
<rect x="32" y="417" width="342" height="160" rx="8" fill="white" fill-opacity="0.1"/>
<rect x="32.5" y="417.5" width="341" height="159" rx="7.5" stroke="white" stroke-opacity="0.3" stroke-linecap="square" stroke-dasharray="2 6"/>
<rect x="32" y="586" width="342" height="160" rx="8" fill="white" fill-opacity="0.1"/>
<rect x="32.5" y="586.5" width="341" height="159" rx="7.5" stroke="white" stroke-opacity="0.3" stroke-linecap="square" stroke-dasharray="2 6"/>
<path d="M32 763C32 758.582 35.5817 755 40 755H366C370.418 755 374 758.582 374 763V821C374 825.418 370.418 829 366 829H40C35.5817 829 32 825.418 32 821V763Z" fill="white" fill-opacity="0.1"/>
<path d="M33.5103 825.679C32.7971 824.692 32.3037 823.535 32.1019 822.281L32.5841 822.234L32.5356 821.736C32.5121 821.494 32.5 821.248 32.5 821V819.964V819.464H32V814.25H32.5V813.75V811.679V811.179H32V805.964H32.5V805.464V803.393V802.893H32V797.679H32.5V797.179V795.107V794.607H32V789.393H32.5V788.893V786.821V786.321H32V781.107H32.5V780.607V778.536V778.036H32V772.821H32.5V772.321V770.25V769.75H32V764.536H32.5V764.036V763C32.5 762.752 32.5121 762.506 32.5356 762.264L32.5841 761.766L32.1019 761.719C32.3037 760.465 32.7971 759.308 33.5103 758.321L33.8846 758.629L34.202 758.242C34.514 757.862 34.8625 757.514 35.2422 757.202L35.6285 756.885L35.321 756.51C36.3084 755.797 37.4652 755.304 38.7194 755.102L38.7663 755.584L39.264 755.536C39.506 755.512 39.7515 755.5 40 755.5H40.994H41.494V755H46.4574V755.5H46.9574H48.9452H49.4452V755H54.4086V755.5H54.9086H56.8964H57.3964V755H62.3598V755.5H62.8598H64.8476H65.3476V755H70.311V755.5H70.811H72.7988H73.2988V755H78.2622V755.5H78.7622H80.75H81.25V755H86.2134V755.5H86.7134H88.7012H89.2012V755H94.1646V755.5H94.6646H96.6524H97.1524V755H102.116V755.5H102.616H104.604H105.104V755H110.067V755.5H110.567H112.555H113.055V755H118.018V755.5H118.518H120.506H121.006V755H125.969V755.5H126.469H128.457H128.957V755H133.921V755.5H134.421H136.409H136.909V755H141.872V755.5H142.372H144.36H144.86V755H149.823V755.5H150.323H152.311H152.811V755H157.774V755.5H158.274H160.262H160.762V755H165.726V755.5H166.226H168.213H168.713V755H173.677V755.5H174.177H176.165H176.665V755H181.628V755.5H182.128H184.116H184.616V755H189.579V755.5H190.079H192.067H192.567V755H197.53V755.5H198.03H200.018H200.518V755H205.482V755.5H205.982H207.969H208.469V755H213.433V755.5H213.933H215.921H216.421V755H221.384V755.5H221.884H223.872H224.372V755H229.335V755.5H229.835H231.823H232.323V755H237.287V755.5H237.787H239.774H240.274V755H245.238V755.5H245.738H247.726H248.226V755H253.189V755.5H253.689H255.677H256.177V755H261.14V755.5H261.64H263.628H264.128V755H269.091V755.5H269.591H271.579H272.079V755H277.043V755.5H277.543H279.53H280.03V755H284.994V755.5H285.494H287.482H287.982V755H292.945V755.5H293.445H295.433H295.933V755H300.896V755.5H301.396H303.384H303.884V755H308.848V755.5H309.348H311.335H311.835V755H316.799V755.5H317.299H319.287H319.787V755H324.75V755.5H325.25H327.238H327.738V755H332.701V755.5H333.201H335.189H335.689V755H340.652V755.5H341.152H343.14H343.64V755H348.604V755.5H349.104H351.091H351.591V755H356.555V755.5H357.055H359.043H359.543V755H364.506V755.5H365.006H366C366.248 755.5 366.494 755.512 366.736 755.536L367.234 755.584L367.281 755.102C368.535 755.304 369.692 755.797 370.679 756.51L370.371 756.885L370.758 757.202C371.138 757.514 371.486 757.862 371.798 758.242L372.115 758.629L372.49 758.321C373.203 759.308 373.696 760.465 373.898 761.719L373.416 761.766L373.464 762.264C373.488 762.506 373.5 762.752 373.5 763V764.036V764.536H374V769.75H373.5V770.25V772.321V772.821H374V778.036H373.5V778.536V780.607V781.107H374V786.321H373.5V786.821V788.893V789.393H374V794.607H373.5V795.107V797.179V797.679H374V802.893H373.5V803.393V805.464V805.964H374V811.179H373.5V811.679V813.75V814.25H374V819.464H373.5V819.964V821C373.5 821.248 373.488 821.494 373.464 821.736L373.416 822.234L373.898 822.281C373.696 823.535 373.203 824.692 372.49 825.679L372.115 825.371L371.798 825.758C371.486 826.138 371.138 826.486 370.758 826.798L370.371 827.115L370.679 827.49C369.692 828.203 368.535 828.696 367.281 828.898L367.234 828.416L366.736 828.464C366.494 828.488 366.248 828.5 366 828.5H365.006H364.506V829H359.543V828.5H359.043H357.055H356.555V829H351.591V828.5H351.091H349.104H348.604V829H343.64V828.5H343.14H341.152H340.652V829H335.689V828.5H335.189H333.201H332.701V829H327.738V828.5H327.238H325.25H324.75V829H319.787V828.5H319.287H317.299H316.799V829H311.835V828.5H311.335H309.348H308.848V829H303.884V828.5H303.384H301.396H300.896V829H295.933V828.5H295.433H293.445H292.945V829H287.982V828.5H287.482H285.494H284.994V829H280.031V828.5H279.531H277.543H277.043V829H272.079V828.5H271.579H269.591H269.091V829H264.128V828.5H263.628H261.64H261.14V829H256.177V828.5H255.677H253.689H253.189V829H248.226V828.5H247.726H245.738H245.238V829H240.274V828.5H239.774H237.787H237.287V829H232.323V828.5H231.823H229.835H229.335V829H224.372V828.5H223.872H221.884H221.384V829H216.421V828.5H215.921H213.933H213.433V829H208.47V828.5H207.97H205.982H205.482V829H200.518V828.5H200.018H198.031H197.531V829H192.567V828.5H192.067H190.079H189.579V829H184.616V828.5H184.116H182.128H181.628V829H176.665V828.5H176.165H174.177H173.677V829H168.713V828.5H168.213H166.226H165.726V829H160.762V828.5H160.262H158.274H157.774V829H152.811V828.5H152.311H150.323H149.823V829H144.86V828.5H144.36H142.372H141.872V829H136.909V828.5H136.409H134.421H133.921V829H128.957V828.5H128.457H126.47H125.97V829H121.006V828.5H120.506H118.518H118.018V829H113.055V828.5H112.555H110.567H110.067V829H105.104V828.5H104.604H102.616H102.116V829H97.1524V828.5H96.6524H94.6646H94.1646V829H89.2012V828.5H88.7012H86.7134H86.2134V829H81.25V828.5H80.75H78.7622H78.2622V829H73.2988V828.5H72.7988H70.811H70.311V829H65.3476V828.5H64.8476H62.8598H62.3598V829H57.3964V828.5H56.8964H54.9085H54.4085V829H49.4451V828.5H48.9451H46.9573H46.4573V829H41.4939V828.5H40.9939H40C39.7515 828.5 39.506 828.488 39.264 828.464L38.7664 828.416L38.7194 828.898C37.4652 828.696 36.3085 828.203 35.321 827.49L35.6285 827.115L35.2422 826.798C34.8625 826.486 34.514 826.138 34.202 825.758L33.8846 825.371L33.5103 825.679Z" stroke="white" stroke-opacity="0.3" stroke-linecap="square" stroke-dasharray="2 6"/>
<path d="M160.721 76.009C160.908 76.468 161.095 76.978 161.265 77.539H167.997V78.661H152.986V77.539H159.956C159.786 77.063 159.582 76.638 159.378 76.247L160.721 76.009ZM165.277 91.649H163.849L163.56 90.544L164.92 90.595C165.617 90.595 165.974 90.323 165.974 89.779V85.155H155.026V91.7H153.853V84.084H167.147V90.034C167.147 91.105 166.518 91.649 165.277 91.649ZM155.757 79.766H165.26V83.064H155.757V79.766ZM164.07 82.112V80.718H156.947V82.112H164.07ZM157.168 86.243H163.849V89.643H157.168V86.243ZM162.761 88.725V87.161H158.273V88.725H162.761ZM169.731 78.95H171.958C171.72 78.066 171.465 77.25 171.176 76.519L172.4 76.315C172.638 77.08 172.876 77.964 173.114 78.95H175.103V80.106H169.731V78.95ZM171.125 81.109C171.482 83.047 171.805 85.291 172.094 87.807L171.091 88.062C170.836 85.767 170.513 83.557 170.122 81.432L171.125 81.109ZM175.086 87.96V89.133C173.522 89.745 171.822 90.238 170.003 90.646L169.697 89.439C170.7 89.269 171.686 89.048 172.638 88.776C173.046 86.294 173.335 83.676 173.522 80.888L174.627 81.041C174.423 83.71 174.1 86.175 173.692 88.453C174.168 88.283 174.644 88.13 175.086 87.96ZM183.161 79.409V76.808H184.317V80.48H176.225V76.808H177.398V79.409H179.659V76.145H180.849V79.409H183.161ZM175.494 81.908H185.167V83.03H180.696C180.577 83.591 180.407 84.135 180.203 84.662H184.674V90.357C184.674 91.207 184.317 91.632 183.603 91.632H182.821L182.532 90.527L183.229 90.578C183.45 90.578 183.569 90.425 183.569 90.119V85.75H182.039V91.36H181.002V85.75H179.625V91.377H178.588V85.75H177.092V91.632H175.987V84.662H179.013C179.217 84.135 179.387 83.591 179.489 83.03H175.494V81.908ZM199.617 83.013C200.535 85.461 201.351 88.249 202.082 91.394L200.858 91.7C200.722 91.088 200.586 90.493 200.45 89.932C198.223 90.374 195.809 90.782 193.191 91.156L192.953 89.966C193.31 89.864 193.514 89.728 193.582 89.541L197.254 76.519L198.478 76.689L194.755 89.711C196.863 89.405 198.665 89.099 200.161 88.793C199.685 86.923 199.141 85.121 198.529 83.387L199.617 83.013ZM187.122 80.701H190.148V78.202C189.298 78.338 188.397 78.44 187.479 78.525L187.224 77.352C189.655 77.148 191.814 76.774 193.684 76.23L194.109 77.369C193.259 77.607 192.341 77.811 191.389 77.998V80.701H194.143V81.874H191.389V82.554C192.239 83.37 193.089 84.288 193.939 85.308L193.259 86.345C192.545 85.223 191.916 84.339 191.389 83.659V91.649H190.148V83.897C189.451 85.512 188.516 86.974 187.36 88.3L186.816 86.923C188.329 85.444 189.417 83.761 190.063 81.874H187.122V80.701ZM216.243 87.212C215.172 86.634 214.356 85.988 213.778 85.274H209.477C208.797 85.988 207.93 86.634 206.876 87.212H210.582C210.718 86.787 210.82 86.328 210.888 85.852L212.01 85.971C211.942 86.413 211.857 86.821 211.755 87.212H216.243ZM214.968 85.274C215.92 86.141 217.382 86.821 219.32 87.331L218.861 88.317C217.909 87.994 217.076 87.654 216.362 87.28C216.345 89.133 216.158 90.323 215.801 90.833C215.427 91.343 214.747 91.615 213.795 91.615C213.2 91.615 212.707 91.581 212.333 91.547L212.044 90.51C212.656 90.578 213.234 90.612 213.744 90.612C214.492 90.595 214.917 90.34 215.019 89.847C215.121 89.337 215.172 88.793 215.172 88.215H211.364C211.058 88.81 210.701 89.32 210.276 89.762C209.426 90.612 207.947 91.275 205.805 91.768L205.363 90.714C207.216 90.323 208.559 89.762 209.392 89.014C209.664 88.776 209.885 88.504 210.089 88.215H206.57V87.365C205.856 87.705 205.091 88.028 204.258 88.334L203.731 87.314C205.601 86.736 207.029 86.056 208.049 85.274H204.224V84.288H209.035C209.256 83.982 209.426 83.693 209.562 83.387H206.111V79.018H208.049V78.049H203.986V77.029H208.049V76.043H209.239V77.029H213.761V76.043H214.951V77.029H219.014V78.049H214.951V79.018H216.94V83.387H210.667C210.531 83.71 210.395 84.016 210.225 84.288H218.793V85.274H214.968ZM213.761 78.049H209.239V79.018H213.761V78.049ZM215.784 82.52V81.619H207.267V82.52H215.784ZM207.267 80.803H215.784V79.885H207.267V80.803ZM234.144 81.262V91.717H232.937V91.02H224.063V91.717H222.856V81.262H227.463C227.599 80.718 227.718 80.14 227.786 79.545H220.969V78.355H225.304C225.049 77.692 224.76 77.063 224.42 76.485L225.61 76.043C225.95 76.689 226.273 77.454 226.562 78.355H230.336C230.727 77.607 231.067 76.825 231.356 75.992L232.563 76.417C232.291 77.148 232.002 77.794 231.679 78.355H236.031V79.545H229.078C228.976 80.14 228.874 80.718 228.738 81.262H234.144ZM224.063 89.915H232.937V88.096H224.063V89.915ZM224.063 87.008H232.937V85.24H224.063V87.008ZM224.063 84.152H232.937V82.384H224.063V84.152ZM250.753 79.834V87.875H249.529V81.024H241.403V87.909H240.179V79.834H244.48C244.65 79.239 244.769 78.627 244.854 77.981H238.02V76.825H252.98V77.981H246.146C246.044 78.627 245.925 79.256 245.755 79.834H250.753ZM246.622 87.909C248.815 88.657 250.821 89.541 252.623 90.595L251.875 91.751C249.937 90.544 247.965 89.592 245.942 88.912L246.622 87.909ZM244.871 82.044H246.129V84.747C246.061 86.617 245.449 88.096 244.327 89.218C243.239 90.255 241.454 91.054 238.972 91.632L238.275 90.544C240.74 90 242.457 89.286 243.426 88.385C244.344 87.45 244.82 86.243 244.871 84.747V82.044Z" fill="white"/>
<path d="M155.039 221.352H156.319V226.248C156.959 225.08 157.871 224.504 159.055 224.504C160.223 224.504 161.151 224.936 161.823 225.832C162.431 226.632 162.751 227.624 162.751 228.84C162.751 230.088 162.431 231.112 161.823 231.912C161.135 232.776 160.191 233.224 158.991 233.224C157.711 233.224 156.799 232.696 156.239 231.64V233H155.039V221.352ZM158.783 225.56C158.031 225.56 157.423 225.848 156.975 226.456C156.495 227.048 156.271 227.832 156.271 228.792V228.952C156.271 229.88 156.479 230.632 156.895 231.208C157.343 231.848 157.999 232.168 158.831 232.168C159.727 232.168 160.399 231.832 160.847 231.192C161.231 230.616 161.439 229.832 161.439 228.84C161.439 227.848 161.231 227.08 160.815 226.52C160.351 225.88 159.679 225.56 158.783 225.56ZM168.014 224.504C169.198 224.504 170.062 224.808 170.638 225.432C171.118 225.976 171.374 226.728 171.374 227.688V233H170.174V231.608C169.854 232.056 169.422 232.424 168.91 232.712C168.302 233.048 167.614 233.224 166.846 233.224C166.014 233.224 165.358 233.016 164.862 232.6C164.35 232.168 164.094 231.608 164.094 230.936C164.094 229.992 164.462 229.288 165.23 228.808C165.902 228.36 166.862 228.12 168.11 228.104L170.094 228.072V227.64C170.094 226.248 169.374 225.56 167.934 225.56C167.326 225.56 166.83 225.672 166.446 225.928C166.014 226.184 165.742 226.584 165.614 227.112L164.35 227.016C164.526 226.152 164.958 225.496 165.63 225.08C166.238 224.696 167.022 224.504 168.014 224.504ZM170.094 229.032L168.19 229.064C166.334 229.096 165.406 229.704 165.406 230.904C165.406 231.288 165.55 231.592 165.87 231.848C166.19 232.088 166.606 232.216 167.118 232.216C167.902 232.216 168.59 231.96 169.198 231.448C169.79 230.952 170.094 230.376 170.094 229.736V229.032ZM177.223 224.504C179.271 224.504 180.311 225.64 180.311 227.912V233H179.031V228.008C179.031 226.392 178.295 225.592 176.855 225.592C176.279 225.592 175.783 225.8 175.367 226.216C174.919 226.664 174.679 227.256 174.631 228.008V233H173.351V224.728H174.631V225.944C174.919 225.48 175.287 225.128 175.735 224.888C176.183 224.632 176.679 224.504 177.223 224.504ZM186.161 224.504C188.209 224.504 189.249 225.64 189.249 227.912V233H187.969V228.008C187.969 226.392 187.233 225.592 185.793 225.592C185.217 225.592 184.721 225.8 184.305 226.216C183.857 226.664 183.617 227.256 183.569 228.008V233H182.289V224.728H183.569V225.944C183.857 225.48 184.225 225.128 184.673 224.888C185.121 224.632 185.617 224.504 186.161 224.504ZM194.634 224.504C195.962 224.504 196.97 224.952 197.642 225.848C198.25 226.648 198.57 227.784 198.602 229.224H192.074C192.138 230.152 192.378 230.872 192.826 231.384C193.274 231.896 193.898 232.152 194.682 232.152C195.354 232.152 195.914 231.976 196.33 231.64C196.682 231.352 196.954 230.92 197.162 230.344H198.442C198.25 231.144 197.882 231.784 197.322 232.296C196.634 232.904 195.754 233.224 194.682 233.224C193.498 233.224 192.538 232.824 191.834 232.056C191.098 231.256 190.746 230.2 190.746 228.856C190.746 227.64 191.082 226.616 191.786 225.8C192.49 224.936 193.434 224.504 194.634 224.504ZM194.666 225.576C193.93 225.576 193.338 225.816 192.89 226.296C192.442 226.776 192.186 227.416 192.106 228.232H197.274C197.114 226.456 196.234 225.576 194.666 225.576ZM203.733 224.504C204.181 224.504 204.565 224.568 204.869 224.696V225.976C204.453 225.848 204.037 225.8 203.637 225.8C202.997 225.8 202.453 226.072 202.021 226.648C201.573 227.192 201.365 227.848 201.365 228.616V233H200.101V224.728H201.365V226.168C201.589 225.688 201.877 225.304 202.229 225.032C202.661 224.68 203.157 224.504 203.733 224.504ZM220.217 230.312C220.105 231.976 219.929 233.048 219.673 233.544C219.417 234.024 218.921 234.28 218.153 234.28H214.985C214.217 234.28 213.833 233.768 213.833 232.76V225.976H218.201V221.704H213.561V220.616H219.321V227.096H214.953V232.344C214.953 232.888 215.113 233.176 215.449 233.192H217.961C218.409 233.192 218.697 232.968 218.825 232.52C218.953 232.088 219.033 231.224 219.081 229.944L220.217 230.312ZM205.753 220.6H213.033V221.688H210.953V223.544H212.777V234.536H211.753V233.672H207.193V234.536H206.169V223.544H207.913V221.688H205.753V220.6ZM207.193 232.584H211.753V231.032H207.193V232.584ZM208.137 224.6H207.193V229.976H211.753V228.584H210.937C210.265 228.584 209.929 228.216 209.929 227.48V224.6H208.921V225.64C208.889 227.352 208.537 228.6 207.865 229.4L207.257 228.84C207.833 228.168 208.121 227.112 208.137 225.64V224.6ZM208.905 223.544H209.961V221.688H208.905V223.544ZM211.753 227.688V224.6H210.729V227.272C210.729 227.544 210.857 227.688 211.129 227.688H211.753ZM222.089 224.456H228.313L228.409 223.528H223.161V220.536H234.745V223.528H229.561L229.465 224.456H235.833V225.336H229.337C229.273 225.656 229.225 225.96 229.161 226.248H233.801V233.304H236.121V234.232H221.801V233.304H224.121V226.248H228.009C228.073 225.944 228.121 225.64 228.185 225.336H222.089V224.456ZM225.241 233.304H232.665V232.248H225.241V233.304ZM225.241 231.528H232.665V230.52H225.241V231.528ZM225.241 229.784H232.665V228.776H225.241V229.784ZM225.241 228.056H232.665V227.048H225.241V228.056ZM233.657 222.712V221.384H231.273V222.712H233.657ZM230.217 222.712V221.384H227.689V222.712H230.217ZM226.649 222.712V221.384H224.265V222.712H226.649ZM242.217 223.16C243.689 224.28 245.065 225.4 246.329 226.52C247.241 225.352 248.025 224.008 248.697 222.488L249.737 223.048C249.017 224.68 248.185 226.104 247.225 227.32C248.473 228.472 249.609 229.608 250.633 230.728L249.737 231.624C248.793 230.504 247.705 229.368 246.457 228.216C245.049 229.72 243.433 230.872 241.593 231.672L240.921 230.632C242.713 229.896 244.265 228.808 245.577 227.4C244.313 226.28 242.921 225.128 241.385 223.96L242.217 223.16ZM238.841 220.584H251.545V221.688H239.945V232.824H252.009V233.928H238.841V220.584Z" fill="#F4F4F5"/>
<path d="M154.032 489.72C154.288 490.264 154.544 490.888 154.784 491.576H160.4V492.68H157.616C157.424 493.528 157.168 494.344 156.832 495.112H160.736V496.216H149.248V498.584C149.184 501.08 148.608 503.08 147.504 504.584L146.624 503.8C147.552 502.552 148.048 500.808 148.08 498.584V495.112H151.36L150.688 492.68H147.76V491.576H153.616C153.392 490.968 153.12 490.424 152.832 489.928L154.032 489.72ZM152.496 495.112H155.728C156.08 494.344 156.352 493.528 156.512 492.68H151.824L152.496 495.112ZM165.584 490.6H174.4V495.832H165.584V490.6ZM173.248 494.744V491.688H166.736V494.744H173.248ZM169.088 497.416V504.36H167.968V503.544H164.592V504.36H163.456V497.416H169.088ZM164.592 502.456H167.968V498.52H164.592V502.456ZM176.528 497.416V504.36H175.376V503.544H171.872V504.36H170.736V497.416H176.528ZM171.872 502.456H175.376V498.52H171.872V502.456ZM183.776 490.264L184.784 490.872C184.032 492.2 183.28 493.288 182.528 494.136C181.728 495.064 180.656 495.976 179.328 496.872L178.704 495.864C179.792 495.24 180.784 494.424 181.664 493.416C182.432 492.52 183.136 491.48 183.776 490.264ZM184.304 497.4H181.072V496.296H190.624C190.576 498.296 190.48 499.912 190.32 501.144C190.16 502.36 189.904 503.224 189.536 503.704C189.184 504.168 188.608 504.424 187.808 504.472H184.896L184.576 503.336C185.504 503.368 186.384 503.384 187.216 503.384C188.08 503.384 188.64 503.016 188.912 502.28C189.2 501.512 189.376 499.896 189.456 497.4H185.472C185.088 499.144 184.56 500.536 183.872 501.56C183.056 502.712 181.824 503.736 180.192 504.648L179.456 503.688C180.928 502.888 182.048 502.008 182.8 501.048C183.472 500.12 183.968 498.904 184.304 497.4ZM188.288 490.056C189.216 492.52 190.864 494.472 193.248 495.896L192.48 496.808C190 495.208 188.272 493.144 187.296 490.616L188.288 490.056ZM202.592 495.256V497.096H201.408V494.184H201.312C200.352 495.624 198.528 496.872 195.856 497.912L195.232 496.92C197.712 496.12 199.408 495.208 200.304 494.184H195.248V493.112H201.408V489.912H202.592V493.112H208.752V494.184H202.592V494.472C204.736 495.112 206.72 495.864 208.512 496.744L207.888 497.704C206.16 496.696 204.384 495.88 202.592 495.256ZM201.792 500.504C201.472 501.128 201.088 501.688 200.608 502.168C199.568 503.192 197.824 503.992 195.376 504.584L194.928 503.512C197.12 503.032 198.704 502.344 199.68 501.448C200.064 501.08 200.4 500.664 200.656 500.2H195.12V499.128H201.12C201.28 498.648 201.392 498.152 201.456 497.608H202.64C202.576 498.152 202.464 498.664 202.336 499.128H208.88V500.2H202.8C204.304 501.816 206.4 502.936 209.104 503.576L208.528 504.6C205.552 503.816 203.296 502.456 201.792 500.504ZM198.096 490.152C198.56 490.792 198.976 491.544 199.328 492.376L198.352 492.632C198.032 491.896 197.616 491.176 197.104 490.488L198.096 490.152ZM205.856 490.12L206.864 490.376C206.528 491.24 206.08 491.992 205.536 492.664L204.576 492.312C205.072 491.736 205.504 491 205.856 490.12ZM225.264 500.312C225.152 501.976 224.976 503.048 224.72 503.544C224.464 504.024 223.968 504.28 223.2 504.28H220.032C219.264 504.28 218.88 503.768 218.88 502.76V495.976H223.248V491.704H218.608V490.616H224.368V497.096H220V502.344C220 502.888 220.16 503.176 220.496 503.192H223.008C223.456 503.192 223.744 502.968 223.872 502.52C224 502.088 224.08 501.224 224.128 499.944L225.264 500.312ZM210.8 490.6H218.08V491.688H216V493.544H217.824V504.536H216.8V503.672H212.24V504.536H211.216V493.544H212.96V491.688H210.8V490.6ZM212.24 502.584H216.8V501.032H212.24V502.584ZM213.184 494.6H212.24V499.976H216.8V498.584H215.984C215.312 498.584 214.976 498.216 214.976 497.48V494.6H213.968V495.64C213.936 497.352 213.584 498.6 212.912 499.4L212.304 498.84C212.88 498.168 213.168 497.112 213.184 495.64V494.6ZM213.952 493.544H215.008V491.688H213.952V493.544ZM216.8 497.688V494.6H215.776V497.272C215.776 497.544 215.904 497.688 216.176 497.688H216.8ZM227.136 494.456H233.36L233.456 493.528H228.208V490.536H239.792V493.528H234.608L234.512 494.456H240.88V495.336H234.384C234.32 495.656 234.272 495.96 234.208 496.248H238.848V503.304H241.168V504.232H226.848V503.304H229.168V496.248H233.056C233.12 495.944 233.168 495.64 233.232 495.336H227.136V494.456ZM230.288 503.304H237.712V502.248H230.288V503.304ZM230.288 501.528H237.712V500.52H230.288V501.528ZM230.288 499.784H237.712V498.776H230.288V499.784ZM230.288 498.056H237.712V497.048H230.288V498.056ZM238.704 492.712V491.384H236.32V492.712H238.704ZM235.264 492.712V491.384H232.736V492.712H235.264ZM231.696 492.712V491.384H229.312V492.712H231.696ZM247.264 493.16C248.736 494.28 250.112 495.4 251.376 496.52C252.288 495.352 253.072 494.008 253.744 492.488L254.784 493.048C254.064 494.68 253.232 496.104 252.272 497.32C253.52 498.472 254.656 499.608 255.68 500.728L254.784 501.624C253.84 500.504 252.752 499.368 251.504 498.216C250.096 499.72 248.48 500.872 246.64 501.672L245.968 500.632C247.76 499.896 249.312 498.808 250.624 497.4C249.36 496.28 247.968 495.128 246.432 493.96L247.264 493.16ZM243.888 490.584H256.592V491.688H244.992V502.824H257.056V503.928H243.888V490.584Z" fill="white"/>
<path d="M65.091 43.5803C62.8912 43.5803 61.173 42.2688 60.8327 40.343H62.9577C63.2233 41.2478 64.0783 41.8455 65.1242 41.8455C66.8922 41.8455 67.9547 40.1853 67.9215 37.2883C67.9215 37.2883 67.9132 37.2883 67.9049 37.2883H67.8966H67.8883C67.4235 38.4587 66.195 39.2473 64.6427 39.2473C62.3683 39.2473 60.6666 37.5623 60.6666 35.2878C60.6666 32.864 62.5509 31.1125 65.1408 31.1125C66.9005 31.1125 68.3283 31.9592 69.1251 33.4866C69.6896 34.4661 69.9801 35.7195 69.9801 37.2136C69.9801 41.2063 68.1622 43.5803 65.091 43.5803ZM65.1491 37.5706C66.5187 37.5706 67.5563 36.5745 67.5563 35.2546C67.5563 33.9182 66.5104 32.8723 65.1657 32.8723C63.8292 32.8723 62.775 33.9099 62.775 35.2214C62.775 36.5745 63.7877 37.5706 65.1491 37.5706ZM72.985 41.5881C72.3126 41.5881 71.7897 41.0652 71.7897 40.3928C71.7897 39.7205 72.3126 39.1975 72.985 39.1975C73.6491 39.1975 74.172 39.7205 74.172 40.3928C74.172 41.0652 73.6491 41.5881 72.985 41.5881ZM72.985 35.595C72.3126 35.595 71.7897 35.0637 71.7897 34.3997C71.7897 33.7273 72.3126 33.2043 72.985 33.2043C73.6491 33.2043 74.172 33.7273 74.172 34.3997C74.172 35.0637 73.6491 35.595 72.985 35.595ZM81.8668 43.3396V41.0735H75.8903V39.2307C76.9279 37.2717 78.2643 35.1384 80.8624 31.3616H83.9088V39.322H85.5192V41.0735H83.9088V43.3396H81.8668ZM77.8327 39.3137V39.3718H81.9V32.947H81.8668C79.9328 35.7527 78.7872 37.5208 77.8327 39.3137ZM89.8937 43.3396V33.4036H89.8439L86.7477 35.5784V33.5613L89.8771 31.3616H91.9938V43.3396H89.8937Z" fill="white"/>
<rect opacity="0.35" x="338.592" y="31.5" width="24" height="12" rx="3.8" stroke="white"/>
<path opacity="0.4" d="M364.092 35.7811V39.8566C364.896 39.5114 365.42 38.7085 365.42 37.8189C365.42 36.9293 364.896 36.1263 364.092 35.7811Z" fill="white"/>
<rect x="340.092" y="33" width="21" height="9" rx="2.5" fill="white"/>
<path fill-rule="evenodd" clip-rule="evenodd" d="M322.362 34.104C324.849 34.1041 327.241 35.0262 329.044 36.6797C329.179 36.8074 329.396 36.8058 329.53 36.6761L330.828 35.4126C330.895 35.3469 330.933 35.2578 330.932 35.1651C330.932 35.0724 330.893 34.9838 330.825 34.9188C326.094 30.5441 318.63 30.5441 313.899 34.9188C313.83 34.9837 313.791 35.0724 313.791 35.165C313.79 35.2577 313.828 35.3468 313.895 35.4126L315.193 36.6761C315.327 36.8059 315.544 36.8076 315.68 36.6797C317.482 35.0261 319.875 34.104 322.362 34.104ZM322.359 38.3243C323.716 38.3242 325.025 38.836 326.031 39.7601C326.167 39.8913 326.381 39.8884 326.514 39.7537L327.801 38.4344C327.869 38.3652 327.907 38.2713 327.906 38.1738C327.905 38.0762 327.865 37.9831 327.796 37.9153C324.732 35.0245 319.988 35.0245 316.924 37.9153C316.855 37.9831 316.815 38.0762 316.814 38.1738C316.813 38.2714 316.851 38.3653 316.919 38.4344L318.206 39.7537C318.339 39.8884 318.553 39.8913 318.689 39.7601C319.694 38.8366 321.002 38.3249 322.359 38.3243ZM324.883 41.1179C324.885 41.2232 324.848 41.3248 324.781 41.3986L322.604 43.8533C322.54 43.9255 322.453 43.9661 322.362 43.9661C322.272 43.9661 322.185 43.9255 322.121 43.8533L319.944 41.3986C319.877 41.3247 319.84 41.2231 319.842 41.1178C319.844 41.0124 319.884 40.9127 319.954 40.842C321.345 39.5282 323.38 39.5282 324.771 40.842C324.84 40.9127 324.881 41.0125 324.883 41.1179Z" fill="white"/>
<path fill-rule="evenodd" clip-rule="evenodd" d="M306.292 32.6821C306.292 32.049 305.814 31.5358 305.225 31.5358H304.158C303.569 31.5358 303.092 32.049 303.092 32.6821V42.616C303.092 43.2491 303.569 43.7622 304.158 43.7622H305.225C305.814 43.7622 306.292 43.2491 306.292 42.616V32.6821ZM298.857 33.9811H299.924C300.513 33.9811 300.991 34.5066 300.991 35.1548V42.5885C300.991 43.2367 300.513 43.7622 299.924 43.7622H298.857C298.268 43.7622 297.791 43.2367 297.791 42.5885V35.1548C297.791 34.5066 298.268 33.9811 298.857 33.9811ZM294.526 36.6302H293.459C292.87 36.6302 292.392 37.1623 292.392 37.8188V42.5736C292.392 43.23 292.87 43.7622 293.459 43.7622H294.526C295.115 43.7622 295.592 43.23 295.592 42.5736V37.8188C295.592 37.1623 295.115 36.6302 294.526 36.6302ZM289.225 39.0755H288.158C287.569 39.0755 287.092 39.6 287.092 40.2471V42.5905C287.092 43.2377 287.569 43.7622 288.158 43.7622H289.225C289.814 43.7622 290.292 43.2377 290.292 42.5905V40.2471C290.292 39.6 289.814 39.0755 289.225 39.0755Z" fill="white"/>
<rect x="37" y="369" width="80" height="28" rx="14" fill="white" fill-opacity="0.1"/>
<rect x="37" y="369" width="80" height="28" rx="14" stroke="white" stroke-opacity="0.3" stroke-dasharray="4 6"/>
<rect x="129" y="369" width="80" height="28" rx="14" fill="white" fill-opacity="0.1"/>
<rect x="129" y="369" width="80" height="28" rx="14" stroke="white" stroke-opacity="0.3" stroke-dasharray="4 6"/>
<rect x="221" y="369" width="80" height="28" rx="14" fill="white" fill-opacity="0.1"/>
<rect x="221" y="369" width="80" height="28" rx="14" stroke="white" stroke-opacity="0.3" stroke-dasharray="4 6"/>
</svg>
