<svg width="20" height="20" viewBox="0 0 20 20" fill="none" xmlns="http://www.w3.org/2000/svg">
<path d="M0.5 10C0.5 4.7533 4.7533 0.5 10 0.5C15.2467 0.5 19.5 4.7533 19.5 10C19.5 15.2467 15.2467 19.5 10 19.5C4.7533 19.5 0.5 15.2467 0.5 10Z" fill="white"/>
<path d="M0.5 10C0.5 4.7533 4.7533 0.5 10 0.5C15.2467 0.5 19.5 4.7533 19.5 10C19.5 15.2467 15.2467 19.5 10 19.5C4.7533 19.5 0.5 15.2467 0.5 10Z" stroke="#E4E7ED"/>
<path d="M5.125 10C5.125 9.79289 5.29289 9.625 5.5 9.625H14.5C14.7071 9.625 14.875 9.79289 14.875 10C14.875 10.2071 14.7071 10.375 14.5 10.375H5.5C5.29289 10.375 5.125 10.2071 5.125 10Z" fill="#C0C4CC"/>
</svg>
 