<svg width="18" height="18" viewBox="0 0 18 18" fill="none" xmlns="http://www.w3.org/2000/svg">
<path d="M11.25 15.75C11.25 16.0484 11.3685 16.3345 11.5795 16.5455C11.7905 16.7565 12.0766 16.875 12.375 16.875C12.6734 16.875 12.9595 16.7565 13.1705 16.5455C13.3815 16.3345 13.5 16.0484 13.5 15.75C13.5 15.4516 13.3815 15.1655 13.1705 14.9545C12.9595 14.7435 12.6734 14.625 12.375 14.625C12.0766 14.625 11.7905 14.7435 11.5795 14.9545C11.3685 15.1655 11.25 15.4516 11.25 15.75Z" fill="#C0C4CC"/>
<path d="M4.5 15.75C4.5 16.0484 4.61853 16.3345 4.82951 16.5455C5.04048 16.7565 5.32663 16.875 5.625 16.875C5.92337 16.875 6.20952 16.7565 6.42049 16.5455C6.63147 16.3345 6.75 16.0484 6.75 15.75C6.75 15.4516 6.63147 15.1655 6.42049 14.9545C6.20952 14.7435 5.92337 14.625 5.625 14.625C5.32663 14.625 5.04048 14.7435 4.82951 14.9545C4.61853 15.1655 4.5 15.4516 4.5 15.75Z" fill="#C0C4CC"/>
<path d="M11.25 11.25C11.25 11.5484 11.3685 11.8345 11.5795 12.0455C11.7905 12.2565 12.0766 12.375 12.375 12.375C12.6734 12.375 12.9595 12.2565 13.1705 12.0455C13.3815 11.8345 13.5 11.5484 13.5 11.25C13.5 10.9516 13.3815 10.6655 13.1705 10.4545C12.9595 10.2435 12.6734 10.125 12.375 10.125C12.0766 10.125 11.7905 10.2435 11.5795 10.4545C11.3685 10.6655 11.25 10.9516 11.25 11.25Z" fill="#C0C4CC"/>
<path d="M4.5 11.25C4.5 11.5484 4.61853 11.8345 4.82951 12.0455C5.04048 12.2565 5.32663 12.375 5.625 12.375C5.92337 12.375 6.20952 12.2565 6.42049 12.0455C6.63147 11.8345 6.75 11.5484 6.75 11.25C6.75 10.9516 6.63147 10.6655 6.42049 10.4545C6.20952 10.2435 5.92337 10.125 5.625 10.125C5.32663 10.125 5.04048 10.2435 4.82951 10.4545C4.61853 10.6655 4.5 10.9516 4.5 11.25Z" fill="#C0C4CC"/>
<path d="M11.25 6.75C11.25 7.04837 11.3685 7.33452 11.5795 7.54549C11.7905 7.75647 12.0766 7.875 12.375 7.875C12.6734 7.875 12.9595 7.75647 13.1705 7.54549C13.3815 7.33452 13.5 7.04837 13.5 6.75C13.5 6.45163 13.3815 6.16548 13.1705 5.95451C12.9595 5.74353 12.6734 5.625 12.375 5.625C12.0766 5.625 11.7905 5.74353 11.5795 5.95451C11.3685 6.16548 11.25 6.45163 11.25 6.75Z" fill="#C0C4CC"/>
<path d="M4.5 6.75C4.5 7.04837 4.61853 7.33452 4.82951 7.54549C5.04048 7.75647 5.32663 7.875 5.625 7.875C5.92337 7.875 6.20952 7.75647 6.42049 7.54549C6.63147 7.33452 6.75 7.04837 6.75 6.75C6.75 6.45163 6.63147 6.16548 6.42049 5.95451C6.20952 5.74353 5.92337 5.625 5.625 5.625C5.32663 5.625 5.04048 5.74353 4.82951 5.95451C4.61853 6.16548 4.5 6.45163 4.5 6.75Z" fill="#C0C4CC"/>
<path d="M11.25 2.25C11.25 2.54837 11.3685 2.83452 11.5795 3.0455C11.7905 3.25647 12.0766 3.375 12.375 3.375C12.6734 3.375 12.9595 3.25647 13.1705 3.0455C13.3815 2.83452 13.5 2.54837 13.5 2.25C13.5 1.95163 13.3815 1.66548 13.1705 1.4545C12.9595 1.24353 12.6734 1.125 12.375 1.125C12.0766 1.125 11.7905 1.24353 11.5795 1.4545C11.3685 1.66548 11.25 1.95163 11.25 2.25Z" fill="#C0C4CC"/>
<path d="M4.5 2.25C4.5 2.54837 4.61853 2.83452 4.82951 3.0455C5.04048 3.25647 5.32663 3.375 5.625 3.375C5.92337 3.375 6.20952 3.25647 6.42049 3.0455C6.63147 2.83452 6.75 2.54837 6.75 2.25C6.75 1.95163 6.63147 1.66548 6.42049 1.4545C6.20952 1.24353 5.92337 1.125 5.625 1.125C5.32663 1.125 5.04048 1.24353 4.82951 1.4545C4.61853 1.66548 4.5 1.95163 4.5 2.25Z" fill="#C0C4CC"/>
</svg>
