<?xml version="1.0" encoding="UTF-8"?>
<svg width="72px" height="72px" viewBox="0 0 72 72" version="1.1" xmlns="http://www.w3.org/2000/svg" xmlns:xlink="http://www.w3.org/1999/xlink">
    <title>编组</title>
    <defs>
        <linearGradient x1="97.2723498%" y1="57.3763489%" x2="8.23186842e-15%" y2="57.3763489%" id="linearGradient-1">
            <stop stop-color="#FFD7CE" offset="0%"></stop>
            <stop stop-color="#FFA6A6" offset="49.8933841%"></stop>
            <stop stop-color="#FFD7CE" offset="100%"></stop>
        </linearGradient>
        <linearGradient x1="31.7205406%" y1="51.3620756%" x2="118.404999%" y2="52.4339751%" id="linearGradient-2">
            <stop stop-color="#FFFFFF" offset="0%"></stop>
            <stop stop-color="#FFF7F7" offset="100%"></stop>
        </linearGradient>
        <linearGradient x1="69.0231379%" y1="44.5818797%" x2="44.495281%" y2="72.5529988%" id="linearGradient-3">
            <stop stop-color="#FF8D8D" offset="0%"></stop>
            <stop stop-color="#FF8D8D" stop-opacity="0" offset="100%"></stop>
        </linearGradient>
        <linearGradient x1="65.8362409%" y1="104.526103%" x2="26.721913%" y2="3.90197046%" id="linearGradient-4">
            <stop stop-color="#FFD7CE" offset="0%"></stop>
            <stop stop-color="#FFB3B3" offset="46.2587067%"></stop>
            <stop stop-color="#FFD7CE" offset="100%"></stop>
        </linearGradient>
        <path d="M18.6626817,35.7192081 C18.2840864,34.6043467 17.1911099,34.5456088 17.1911099,30.95384 C17.1911099,28.110798 13.8064768,22.3561221 12.7563096,18.6710153 C11.9928485,15.9916161 5.68635821,11.4947987 6.54428795,8.57842498 C7.2708653,6.10855947 5.57300884,6.30099358 4.09996196,5.68572479 C4.02166104,5.47564678 0.107548106,4.89043192 0.000523488351,3.27477508 C-0.0332883557,2.76434731 1.57760985,1.89048707 2.86092388,1.2060495 C4.52510093,0.31848396 6.03631922,-0.295705725 6.80716418,0.147598196 C7.35699692,0.463464496 8.0780671,1.04188633 9.01050851,1.95883154 C9.07472255,1.91751569 10.2894382,1.12851633 11.8105083,2.00414569 C12.6466287,2.48527537 13.5563276,3.48218673 14.3670299,5.41603484 C14.4446218,5.42403145 15.9121803,5.56530499 17.1911099,6.30099358 C18.6988021,7.16729356 19.834588,8.84924829 17.6325815,12.0585565 C17.8854243,12.3464347 22.6559925,17.8307799 24.716193,25.0330647 C25.6343728,28.2420469 26.5298132,32.1915624 25.5188685,34.3038072 C25.0792658,35.2223031 23.4113788,36.1458215 22.098133,36.9480213 C20.1724599,38.124324 18.4892929,39.0119821 18.2840864,39.0119821 C17.7186274,39.0119821 18.9698752,36.6238105 18.6626817,35.7192081 Z" id="path-5"></path>
        <linearGradient x1="128.224369%" y1="70.1678951%" x2="68.4692714%" y2="10.9197009%" id="linearGradient-7">
            <stop stop-color="#FF7B7B" offset="0%"></stop>
            <stop stop-color="#FFCBC5" stop-opacity="0" offset="100%"></stop>
        </linearGradient>
        <linearGradient x1="54.6680796%" y1="-27.8743836%" x2="57.3944196%" y2="83.8626338%" id="linearGradient-8">
            <stop stop-color="#FF7B7B" offset="0%"></stop>
            <stop stop-color="#FFCBC5" stop-opacity="0" offset="100%"></stop>
        </linearGradient>
        <linearGradient x1="47.2272093%" y1="44.8864087%" x2="65.0807899%" y2="83.1975093%" id="linearGradient-9">
            <stop stop-color="#FFFFFF" offset="0%"></stop>
            <stop stop-color="#FFC5C1" offset="41.7146045%"></stop>
            <stop stop-color="#FFA4A1" offset="100%"></stop>
        </linearGradient>
        <linearGradient x1="50%" y1="3.44253206%" x2="50%" y2="92.7575516%" id="linearGradient-10">
            <stop stop-color="#FF9B9B" offset="0%"></stop>
            <stop stop-color="#FF7878" offset="100%"></stop>
        </linearGradient>
    </defs>
    <g id="页面-1" stroke="none" stroke-width="1" fill="none" fill-rule="evenodd">
        <g id="我的定投" transform="translate(-68, -1295)">
            <g id="编组" transform="translate(68, 1295)">
                <rect id="矩形" fill="#FFFFFF" opacity="0" x="0" y="0" width="72" height="72"></rect>
                <path d="M61.4072572,53.3118687 C62.3798323,53.8716318 62.3851835,54.7899097 61.4192973,55.34834 L38.7611049,68.4667872 C37.7952187,69.0265503 36.2045834,69.0265503 35.2320082,68.4667872 L12.4266587,55.34834 C11.4540835,54.788577 11.4487323,53.870299 12.4146185,53.3118687 L35.0728109,40.1947542 C36.0386971,39.6349912 37.6293324,39.6349912 38.6019076,40.1947542 L61.4072572,53.3118687 Z" id="路径" fill="#FFD9D9" fill-rule="nonzero" opacity="0.503162202"></path>
                <path d="M69.3797681,43.3135294 C69.3797681,43.9450049 69.5314335,44.3722241 68.9321024,44.7200769 L38.1401314,62.5471977 C37.5381247,62.8950504 36.5642118,62.8950504 35.9608673,62.5485304 L4.96421401,44.7200769 C4.36086958,44.3735569 4.51002843,44.091593 4.51002843,43.3135294 L4.51002843,39.1573423 L35.7521717,25.6348219 C36.3515027,25.288302 37.3267535,25.288302 37.9300979,25.6348219 L69.3797681,39.1573423 L69.3797681,43.3135294 Z" id="路径备份" fill="url(#linearGradient-1)" fill-rule="nonzero"></path>
                <path d="M68.9254135,38.5290248 C69.5287579,38.8755447 69.5314335,39.4379733 68.9321024,39.7858261 L38.1401314,57.6129469 C37.5381247,57.9607997 36.5642118,57.9607997 35.9608673,57.6142797 L4.96421401,39.7858261 C4.36086958,39.4393061 4.35819399,38.8768775 4.95886284,38.527692 L35.7521717,20.7005712 C36.3515027,20.3540512 37.3267535,20.3540512 37.9300979,20.7005712 L68.9254135,38.5290248 Z" id="路径" fill="url(#linearGradient-2)" fill-rule="nonzero"></path>
                <path d="M53.2997314,41.2798096 L39.5995605,49.677495 C38.9426392,50.0572984 37.5131279,50.0572984 36.8514805,49.677495 L18.960177,39.2987336 C18.2985296,38.9189301 18.2953789,38.2942948 18.9523002,37.9129219 L33.4639591,28.9906803 C34.1208805,28.6108769 35.2031466,28.6108769 35.8647941,28.9906803 C44.1758665,33.4846911 49.8627005,36.6124459 52.925296,38.3739447 C53.3099186,38.5951662 53.4347304,39.5637879 53.2997314,41.2798096 Z" id="路径" fill="url(#linearGradient-3)" fill-rule="nonzero"></path>
                <g id="路径-2" transform="translate(27.8283, 6.4749)">
                    <mask id="mask-6" fill="white">
                        <use xlink:href="#path-5"></use>
                    </mask>
                    <use id="蒙版" fill="url(#linearGradient-4)" fill-rule="nonzero" xlink:href="#path-5"></use>
                    <polygon id="路径-4" fill="url(#linearGradient-7)" mask="url(#mask-6)" points="14.6661729 5.16398407 8.21661315 9.20036102 2.33863384 5.85282684 12.101085 1.46782861e-15"></polygon>
                    <polygon fill="url(#linearGradient-8)" mask="url(#mask-6)" points="19.4054551 11.160322 9.77264263 16.6657492 18.4867784 35.3824103 27.0725938 28.2532907"></polygon>
                    <polygon id="路径-3" fill="url(#linearGradient-9)" mask="url(#mask-6)" points="9.33538677 1.8289743 3.1729356 5.45578094 -1.67950581 2.97205731 5.92786724 -2.45569367"></polygon>
                </g>
                <path d="M41.0595291,45.3394754 C38.854847,44.7423948 36.5498304,43.7134969 34.3170547,42.4300402 C27.7979916,38.6809604 21.8943131,32.7594669 20.8441459,29.0743601 C19.4341126,24.125788 20.6648817,15.3055215 28.65953,15.1389253 C28.5244129,14.7764121 25.957189,7.90065581 29.2040116,9.76786545 C29.7538443,10.0837318 30.4749145,10.6621536 31.4073559,11.5790988 C31.4715699,11.5377829 32.6862855,10.7487836 34.2073557,11.6244129 C35.043476,12.1055426 35.9531749,13.102454 36.7638772,15.0363021 C36.8414692,15.0442987 38.3090276,15.1855722 39.5879573,15.9212608 C41.0956495,16.7875608 42.2314354,18.4695155 40.0294288,21.6788238 C40.2822716,21.9667019 45.0528399,27.4510472 47.1130404,34.6533319 C49.1745787,41.8582822 49.7043445,47.6798181 41.0595291,45.3394754 Z" id="路径" fill="url(#linearGradient-10)" fill-rule="nonzero"></path>
                <path d="M34.1809342,32.0370117 L34.1849476,28.9420351 L37.4424724,30.8159086 C37.8331079,31.0411466 38.1541781,30.8585572 38.1555447,30.4107468 C38.1568537,29.9629363 37.838459,29.4138354 37.4478236,29.1885974 L34.4511683,27.4653268 L37.406352,25.9659615 C37.6913019,25.8220224 37.7046798,25.3115718 37.4371213,24.8317749 C37.3160623,24.6066141 37.1380548,24.4168705 36.9207333,24.2813412 C36.7454825,24.1800508 36.5688939,24.1520626 36.4324391,24.2226994 L33.4705664,25.7233975 L30.7735766,20.8947747 C30.6529902,20.6697057 30.4754364,20.4799541 30.2585265,20.344341 C30.0832756,20.2430506 29.906687,20.2150624 29.7688944,20.2843664 C29.4839446,20.4283055 29.4705667,20.9400889 29.7381252,21.418553 L32.4819377,26.3311403 L29.5107004,24.6225301 C29.120065,24.3972922 28.7989948,24.5798815 28.797657,25.027692 C28.7963192,25.4755024 29.1147138,26.0246033 29.5053493,26.2498413 L32.7628741,28.1237148 L32.7588607,31.2186914 L29.5013359,29.3448179 C29.1107005,29.1195799 28.7896302,29.3021693 28.7882636,29.7499798 C28.7869547,30.1977902 29.1053493,30.7482239 29.4959847,30.9734619 L32.7535096,32.8473354 L32.7428072,36.4164913 C32.7414694,36.8643018 33.0598641,37.4134027 33.4504995,37.6386407 C33.8411349,37.8638787 34.1622051,37.6812893 34.1635429,37.2334788 L34.1742452,33.6643229 L37.4317701,35.5381964 C37.8224055,35.7634344 38.1434757,35.580845 38.1448135,35.1317018 C38.1474891,34.6865569 37.8290945,34.1361232 37.4384591,33.9108852 L34.1809342,32.0370117 Z" id="路径" stroke="#FFFFFF" stroke-width="0.5" fill="#FFFFFF" fill-rule="nonzero"></path>
            </g>
        </g>
    </g>
</svg>