<?xml version="1.0" encoding="UTF-8"?>
<svg width="514px" height="112px" viewBox="0 0 514 112" version="1.1" xmlns="http://www.w3.org/2000/svg" xmlns:xlink="http://www.w3.org/1999/xlink">
    <title>主标题</title>
    <g id="页面-1" stroke="none" stroke-width="1" fill="none" fill-rule="evenodd">
        <g id="2" transform="translate(-42, -238)">
            <g id="H5底图" transform="translate(0, 188)">
                <g id="年度账单" transform="translate(42, 50)">
                    <path d="M6.99782806,42.009963 C17.4196574,35.4371734 23.5643838,26.3300057 24.3647356,22.1811775 C25.2044322,17.670259 22.9873271,15.1277447 19.7615263,13.5133451 C16.3613579,11.8079102 12.4840908,12.0762773 9.96411841,13.5737638 C5.72085574,16.0805538 4.13571366,21.8497029 4.09793154,24.3742426 L4.10650686,24.5768305 C4.14587204,25.0354308 4.33832151,25.1441126 5.10309352,25.1130528 C7.90915278,24.9306577 9.06349217,23.7393653 10.0130642,21.3475574 L10.2131601,20.8317137 C11.3314858,18.0122963 14.2642853,12.5102687 18.2570449,14.7018157 C24.4504927,18.1088702 14.6965737,32.2098772 0.841754187,42.0924501 C-0.186848774,42.8599977 -0.267568591,43.2355992 0.571108813,44.1000797 L0.691169981,44.2210456 C1.3270749,44.8914694 2.18008993,45.5908272 3.24851625,46.1607193 C4.18069663,46.6606587 5.04964824,46.7385821 6.42994378,46.24166 L6.65221834,46.1584445 C10.0423299,44.8933529 18.0192069,42.7679898 21.8315109,42.4618902 C22.6760319,42.3709147 22.5427079,42.0709342 22.1478326,41.6418819 C20.7443976,40.1680045 18.4604945,39.4682813 15.2995208,39.857995 C13.0480312,40.1510386 9.91267575,40.9072505 6.99782806,42.009963 Z M83.9649821,4.96733171 C87.3842434,6.65216975 89.7343147,9.30431998 88.8442591,14.0079245 C87.9959079,18.3341301 81.4826645,27.8302286 70.435808,34.6835862 C73.5254675,33.5339219 85.7523643,30.1172114 88.1388822,29.8119954 C91.4894286,29.4061383 94.0787898,31.4912537 92.3301457,32.2760156 C90.5815017,33.0607775 88.8442591,33.0607775 85.3500706,34.1371429 C81.8558821,35.2135082 74.2038055,37.5503525 70.4320881,38.8802385 L70.0694711,39.0107681 C68.4675588,39.6230398 67.5017296,39.5617362 66.4616392,39.0126572 C65.4549699,38.4841163 64.6287096,37.848881 63.984123,37.2229943 L63.7509215,36.9889127 C62.7289822,35.9955592 62.7706867,35.6053923 63.9105366,34.7685163 C78.5962696,24.4636639 88.9351593,9.76139896 82.3702726,6.20603055 C78.1380557,3.91888838 75.0293677,9.6555502 73.8439728,12.5955269 L73.735288,12.8711182 C72.7076582,15.5407563 71.5043512,16.8631754 68.4274408,17.0589939 C67.5087182,17.0954173 67.3691991,16.9448766 67.3619963,16.2880728 C67.4020443,13.6550018 69.082252,7.63860591 73.5799953,5.02606282 C76.2510977,3.46550174 80.3608958,3.18739086 83.9649821,4.96733171 Z M48.0920874,11.1241285 C56.5718825,12.5531897 59.3347764,21.853109 58.1747523,28.9529421 L58.1326979,29.2000158 C56.7867505,36.92427 51.9602462,43.5944708 42.7339161,42.4573796 C37.1762372,41.7516494 33.3693017,38.5618292 31.5933481,34.7360178 C26.8432244,24.5441432 33.77444,14.0963155 39.5528988,11.2658809 C42.5498338,9.79364789 45.8030878,9.94994776 48.0920874,11.1241285 Z M103.87463,1.20244245 C106.701434,-0.340253161 111.278862,-0.437693245 114.464707,1.13771808 C118.48759,3.11200557 120.278228,6.03518834 118.197123,10.1238214 C117.246857,11.976173 114.708126,14.4651794 111.142725,16.1494285 C112.415643,16.2396285 113.735968,16.4321221 114.80461,16.8629738 C119.358189,18.7161498 120.42654,23.2078014 117.455408,28.3795304 C114.030129,34.3132351 105.761531,35.2833419 100.330756,33.5839043 C94.4823677,31.7586796 92.936165,27.9172029 93.1223184,25.9531537 C93.3048474,23.6666237 95.1851551,22.2374734 97.2641568,22.0302304 C97.9571573,21.9611882 98.307282,22.2495715 98.1504145,22.6962863 C96.5817393,27.1684809 98.1954299,30.8358204 101.235426,31.7636377 C105.351259,32.9755979 110.047088,30.4564041 112.23832,26.7131977 L112.369321,26.4827818 C114.273478,23.0735138 114.669489,19.2311821 111.930397,18.3223927 C108.42538,17.1650295 105.436127,20.733738 100.339166,17.8496245 C99.7574368,17.5301116 99.7064042,17.1047634 100.512488,16.8108326 C113.780042,12.1482632 116.953782,4.48012022 112.907196,2.45475019 C109.612443,0.791427944 106.863929,3.65336603 105.003016,6.784217 L104.683903,7.33920596 C103.45678,9.52804802 101.680983,10.9697084 98.8261273,10.9369716 L98.5269265,10.9282696 C97.5786176,10.9113783 97.2977929,10.6156472 97.4072522,10.0676682 C98.0640082,6.78206097 101.047825,2.74852124 103.87463,1.20244245 Z M35.8337574,24.006641 C33.5355834,31.9311752 37.178072,39.9290651 41.9561932,40.7211801 C46.4522411,41.4881286 51.7966157,36.5691768 53.1836068,28.6212747 C54.7347726,19.8553714 51.1896607,12.8884584 47.4116051,12.3226704 C44.0677697,11.8167772 38.1114096,16.2146448 35.8337574,24.006641 Z" id="形状" fill="#FFFE2D" fill-rule="nonzero"></path>
                    <path d="M66.2132799,26.2895238 C66.3327762,26.2895238 66.3855253,26.3522847 66.3715272,26.4778066 L65.7859559,31.7286864 L112.877158,31.7286864 C112.996654,31.7286864 113.049403,31.7914473 113.035405,31.9169692 L112.458749,37.0879077 C112.444751,37.2134296 112.378004,37.2761905 112.258507,37.2761905 L59.9501926,37.2761905 C59.8306964,37.2761905 59.7779473,37.2134296 59.7919453,37.0879077 L60.9751701,26.4778066 C60.9891681,26.3522847 61.0559153,26.2895238 61.1754115,26.2895238 L66.2132799,26.2895238 Z M109.835871,70.2361905 C109.954289,70.2361905 110.006562,70.3072303 109.99269,70.44931 L109.421355,76.3011662 C109.407483,76.4432459 109.341339,76.5142857 109.222921,76.5142857 L50.8205392,76.5142857 C50.7021216,76.5142857 50.6498486,76.4432459 50.6637203,76.3011662 L51.2350553,70.44931 C51.248927,70.3072303 51.3150716,70.2361905 51.4334893,70.2361905 L109.835871,70.2361905 Z M90.0657334,34.1371429 C90.1784609,34.1371429 90.2282221,34.2034034 90.215017,34.3359245 L84.6243781,90.4412183 C84.611173,90.5737394 84.5482066,90.64 84.4354791,90.64 L79.7198163,90.64 C79.606459,90.64 79.5563829,90.5737394 79.569588,90.4412183 L85.160227,34.3359245 C85.1734321,34.2034034 85.2367133,34.1371429 85.3500706,34.1371429 L90.0657334,34.1371429 Z M108.312981,49.832381 C108.432532,49.832381 108.485306,49.8966351 108.471302,50.0251433 L107.894377,55.3191094 C107.880373,55.4476177 107.813595,55.5118718 107.694043,55.5118718 L65.5560706,55.5118718 L63.6303694,73.1824757 C63.6163649,73.310984 63.5495868,73.3752381 63.4300351,73.3752381 L58.4288996,73.3752381 C58.3093479,73.3752381 58.2565743,73.310984 58.2705788,73.1824757 L60.7942108,50.0251433 C60.8082154,49.8966351 60.8749935,49.832381 60.9945452,49.832381 L108.312981,49.832381 Z M175.25487,30.9980952 C175.373073,30.9980952 175.42529,31.0631158 175.41152,31.1931569 L174.879812,36.2146336 C174.866042,36.3446748 174.800056,36.4096953 174.681852,36.4096953 L128.06936,36.4096953 L126.059183,55.3938848 C125.408317,61.5406896 124.273804,67.3525839 122.655644,72.8295678 C121.037484,78.3065517 118.802513,83.676742 115.950731,88.9401388 C115.869954,89.0704762 115.778193,89.1028718 115.675373,89.0382145 L111.616079,86.8892666 C111.506159,86.8151649 111.487136,86.7178157 111.55835,86.5972189 C114.226323,81.7239455 116.294372,76.7812926 117.762499,71.7692603 C119.230625,66.7572279 120.277314,61.2987695 120.902563,55.3938848 L123.465103,31.1931569 C123.472026,31.1277731 123.491811,31.0789169 123.524456,31.0465882 C123.557102,31.0142596 123.602976,30.9980952 123.662077,30.9980952 L175.25487,30.9980952 Z M152.436063,26.2895238 C152.553133,26.2895238 152.604773,26.3573902 152.590982,26.493123 L151.834919,33.9346747 C151.821205,34.0696535 151.755813,34.1371429 151.638743,34.1371429 L146.664884,34.1371429 C146.547814,34.1371429 146.496135,34.0696535 146.509849,33.9346747 L147.265913,26.493123 C147.279703,26.3573902 147.345133,26.2895238 147.462204,26.2895238 L152.436063,26.2895238 Z M173.731762,43.5542857 C173.85133,43.5542857 173.904111,43.6145872 173.890105,43.7351903 L173.385284,48.0819526 C173.371277,48.2025556 173.304489,48.2628571 173.184921,48.2628571 L128.411828,48.2628571 C128.29226,48.2628571 128.239479,48.2025556 128.253485,48.0819526 L128.758306,43.7351903 C128.772313,43.6145872 128.8391,43.5542857 128.958669,43.5542857 L173.731762,43.5542857 Z M143.122547,38.8457143 C143.243607,38.8457143 143.297085,38.9104607 143.282983,39.0399536 L141.614568,54.3599016 L160.893314,54.3599016 L162.561729,39.0399536 C162.575831,38.9104607 162.643076,38.8457143 162.763463,38.8457143 L167.645192,38.8457143 C167.76558,38.8457143 167.818722,38.9104607 167.804619,39.0399536 L165.624855,59.0552845 C165.617844,59.1196692 165.597433,59.1681386 165.563622,59.2006927 C165.529812,59.2332468 165.482978,59.2495238 165.423121,59.2495238 L136.019755,59.2495238 C135.959225,59.2495238 135.915769,59.2332468 135.889385,59.2006927 C135.863002,59.1681386 135.853316,59.1196692 135.860328,59.0552845 L138.040092,39.0399536 C138.054194,38.9104607 138.121439,38.8457143 138.241826,38.8457143 L143.122547,38.8457143 Z M170.75276,63.9580952 C170.795013,63.9580952 170.82332,63.9700284 170.837681,63.9938948 C170.852152,64.0177611 170.853355,64.0464753 170.841622,64.0800374 C170.829889,64.1135994 170.814474,64.1397032 170.795375,64.1583488 C165.790637,71.7575438 159.238067,77.7791358 151.137665,82.2231248 C143.037262,86.6671137 133.961905,89.4715963 123.911591,90.6365725 C123.749227,90.6552181 123.674967,90.5977897 123.688811,90.4642873 L123.698583,85.4803222 C123.712426,85.3468198 123.778437,85.2800686 123.896614,85.2800686 C131.331122,84.4022344 138.158387,82.6172924 144.37841,79.9252428 C150.598433,77.2331931 155.911978,73.7056347 160.319044,69.3425675 L127.920052,69.3425675 C127.801875,69.3425675 127.749708,69.2758163 127.763552,69.142314 L128.280363,64.1583488 C128.294206,64.0248464 128.360216,63.9580952 128.478393,63.9580952 L170.75276,63.9580952 Z M134.815784,68.7227307 C138.508704,72.5709554 143.394502,75.9128747 149.473178,78.7484884 C155.551854,81.5841022 162.618753,83.7532255 170.673875,85.2558584 C170.816601,85.2755502 170.87237,85.3531812 170.841184,85.4887514 L169.668085,90.4624361 C169.636899,90.5980063 169.562891,90.6559455 169.446061,90.6362538 C161.046663,89.0851488 153.591327,86.7851889 147.080052,83.7363739 C140.568778,80.687559 135.332416,77.0981673 131.370967,72.9681989 C131.280615,72.8523204 131.269829,72.7504534 131.33861,72.6625979 L134.56933,68.7659011 C134.616803,68.7174291 134.660367,68.685998 134.700024,68.6716079 C134.73968,68.6572177 134.778267,68.6742587 134.815784,68.7227307 Z M236.196309,29.3253768 C236.289866,29.4013289 236.292332,29.5014816 236.203707,29.6258346 C231.559116,35.9641178 226.699803,42.1404441 221.62577,48.1548136 C221.51254,48.2687419 221.421488,48.29257 221.352614,48.226298 L218.082574,44.8799347 C217.991682,44.7846222 217.988542,44.6941497 218.073155,44.6085174 C223.783642,37.8227121 228.546771,31.7610587 232.362542,26.4235571 C232.443608,26.2895238 232.527101,26.2560155 232.613021,26.3230321 L236.196309,29.3253768 Z M222.756656,54.5446342 C222.872883,54.5252812 222.932603,54.5822235 222.935815,54.7154611 C223.190749,60.7945185 224.168493,66.3326239 225.869048,71.3297773 C227.569602,76.3269307 229.999484,80.8739421 233.158694,84.9708114 C233.245498,85.0854404 233.247889,85.1855547 233.165866,85.2711542 L229.552772,89.0148323 C229.470675,89.1011762 229.386224,89.0870337 229.29942,88.9724047 C225.857971,84.5137842 223.194789,79.4833214 221.309873,73.8810163 C219.424958,68.2787113 218.325656,62.19984 218.011966,55.6444024 C218.012234,55.4828798 218.070481,55.392442 218.186708,55.373089 L222.756656,54.5446342 Z M236.110418,52.9714286 C236.228059,52.9714286 236.279989,53.0445913 236.266209,53.1909167 L235.716288,59.0300357 C235.702507,59.1763611 235.636796,59.2495238 235.519154,59.2495238 L204.477617,59.2495238 C204.359975,59.2495238 204.308045,59.1763611 204.321826,59.0300357 L204.871747,53.1909167 C204.885527,53.0445913 204.951238,52.9714286 205.06888,52.9714286 L236.110418,52.9714286 Z M217.847455,26.2895238 C217.969976,26.2895238 218.024061,26.3546886 218.009708,26.485018 L211.742602,83.3945906 L217.20986,83.3945906 C217.332381,83.3945906 217.386425,83.4601194 217.371993,83.5911769 L216.790119,88.874982 C216.775767,89.0053114 216.70733,89.0704762 216.584809,89.0704762 L206.005537,89.0704762 C205.883015,89.0704762 205.828931,89.0053114 205.843283,88.874982 L212.713912,26.485018 C212.728264,26.3546886 212.796701,26.2895238 212.919223,26.2895238 L217.847455,26.2895238 Z M205.680444,27.8590476 C205.800039,27.8590476 205.852832,27.9244967 205.838822,28.0553948 L201.177371,71.6093671 C201.163362,71.7402652 201.096559,71.8057143 200.976964,71.8057143 L196.897028,71.8057143 C196.777433,71.8057143 196.72464,71.7402652 196.73865,71.6093671 L200.79303,33.7275247 L186.951715,33.7275247 L182.897335,71.6093671 C182.883326,71.7402652 182.816523,71.8057143 182.696928,71.8057143 L178.616992,71.8057143 C178.497397,71.8057143 178.444604,71.7402652 178.458614,71.6093671 L183.120064,28.0553948 C183.134074,27.9244967 183.200877,27.8590476 183.320472,27.8590476 L205.680444,27.8590476 Z M195.030578,38.8457143 C195.150391,38.8457143 195.203281,38.9118283 195.189245,39.0440565 L192.976231,59.8932541 C192.259651,66.6442751 190.587948,72.4663751 187.96112,77.3595542 C185.334292,82.2527332 181.46488,86.6613221 176.352884,90.5853207 C176.250158,90.6702717 176.161955,90.6562363 176.088275,90.5432145 L173.925435,86.9409217 C173.887615,86.8936446 173.882178,86.8439668 173.909125,86.7918881 C173.936072,86.7398094 173.982175,86.6901315 174.047435,86.6428544 C177.133358,84.288603 179.660386,81.8301942 181.628519,79.2676281 C183.596651,76.7050619 185.129854,73.8636348 186.228128,70.7433467 C187.326403,67.6230587 188.09383,64.0063611 188.530411,59.8932541 L190.743426,39.0440565 C190.757461,38.9118283 190.824385,38.8457143 190.944199,38.8457143 L195.030578,38.8457143 Z M194.593007,73.4113196 C194.693963,73.3461057 194.772741,73.3692928 194.829341,73.480881 L201.254811,86.2660649 C201.303099,86.3682334 201.272299,86.4562721 201.162412,86.5301812 L197.310267,89.0343947 C197.209977,89.0996086 197.131532,89.0764215 197.074932,88.9648332 L190.649462,76.1796493 C190.601175,76.0774809 190.631975,75.9894422 190.741862,75.9155331 L194.593007,73.4113196 Z M247.374704,32.7620189 C247.381623,32.6975809 247.401764,32.6490715 247.435127,32.6164905 C247.46849,32.5839095 247.515036,32.567619 247.574765,32.567619 L296.962606,32.567619 C297.022335,32.567619 297.065383,32.5839095 297.091749,32.6164905 C297.118115,32.6490715 297.127839,32.6975809 297.12092,32.7620189 L293.623586,65.3332192 C293.616667,65.3976572 293.596526,65.4461666 293.563164,65.4787476 C293.529801,65.5113286 293.483255,65.527619 293.423526,65.527619 L244.035684,65.527619 C243.975955,65.527619 243.932908,65.5113286 243.906542,65.4787476 C243.880176,65.4461666 243.870452,65.3976572 243.877371,65.3332192 L247.374704,32.7620189 Z M291.037607,38.8457143 L252.309901,38.8457143 L249.960684,60.8190476 L288.688389,60.8190476 L291.037607,38.8457143 Z M296.962002,73.3752381 C297.081964,73.3752381 297.134919,73.4487952 297.120867,73.5959093 L296.563329,79.4326621 C296.549276,79.5797763 296.482269,79.6533333 296.362306,79.6533333 L239.472186,79.6533333 C239.352224,79.6533333 239.299269,79.5797763 239.313321,79.4326621 L239.870859,73.5959093 C239.884912,73.4487952 239.951919,73.3752381 240.071882,73.3752381 L296.962002,73.3752381 Z M274.148852,35.7066667 C274.263398,35.7066667 274.313924,35.7725735 274.300431,35.9043871 L268.717533,90.443378 C268.704115,90.5744593 268.640132,90.64 268.525586,90.64 L263.806794,90.64 C263.692248,90.64 263.641684,90.5744593 263.655102,90.443378 L269.238,35.9043871 C269.251493,35.7725735 269.315513,35.7066667 269.430059,35.7066667 L274.148852,35.7066667 Z M292.40278,46.6933333 C292.519176,46.6933333 292.570518,46.7511072 292.556807,46.866655 L292.039103,51.229546 C292.025468,51.3444518 291.960453,51.4019048 291.844057,51.4019048 L248.595602,51.4019048 C248.479206,51.4019048 248.427826,51.3444518 248.441461,51.229546 L248.959165,46.866655 C248.972876,46.7511072 249.037929,46.6933333 249.154325,46.6933333 L292.40278,46.6933333 Z M262.121699,24.7388477 C262.211407,24.6911394 262.280737,24.7340023 262.329688,24.8674364 L263.644423,33.8697638 C263.673107,33.974871 263.629773,34.0654422 263.51442,34.1414773 L259.098708,35.6878962 C259.009,35.7356045 258.939705,35.6923688 258.890825,35.5581893 L257.57609,26.555862 C257.547405,26.4507547 257.59074,26.3601835 257.706092,26.2841485 L262.121699,24.7388477 Z M289.412702,26.2841485 C289.514996,26.3601835 289.541491,26.4507547 289.492186,26.555862 L286.426974,35.5581893 C286.351603,35.6923688 286.273042,35.7356045 286.191292,35.6878962 L282.012939,34.1414773 C281.910645,34.0654422 281.88415,33.974871 281.933455,33.8697638 L284.998667,24.8674364 C285.073966,24.7340023 285.152491,24.6911394 285.234241,24.7388477 L289.412702,26.2841485 Z" id="形状结合" fill="#292455" fill-rule="nonzero"></path>
                    <path d="M134,110 C181.612059,92.1923231 218.235832,83.2884846 243.871318,83.2884846 C282.324548,83.2884846 272.077891,103.537919 243.871318,99.6322137 C221.374321,96.5171013 368.514303,74.8871367 480,73 M500,73.6575231 C502.772015,73.6575231 505.461193,73.7970558 508.082422,74 C509.404473,74.1023576 510.975781,74.1023576 512,74.3424769" id="形状" stroke="#FFFE2D" stroke-width="2.7468" stroke-linecap="round" stroke-linejoin="round"></path>
                </g>
            </g>
        </g>
    </g>
</svg>