<?xml version="1.0" encoding="UTF-8"?>
<svg width="164px" height="58px" viewBox="0 0 164 58" version="1.1" xmlns="http://www.w3.org/2000/svg" xmlns:xlink="http://www.w3.org/1999/xlink">
    <title>矩形</title>
    <g id="页面-1" stroke="none" stroke-width="1" fill="none" fill-rule="evenodd">
        <g id="H5封面" transform="translate(-50, -258)">
            <g id="利得基金logo" style="mix-blend-mode: multiply;" transform="translate(50, 258)">
                <g id="编组">
                    <rect id="矩形" fill="#D8D8D8" opacity="0" x="0" y="0" width="164" height="58"></rect>
                    <path d="M83.8153721,49.1261149 C84.2743092,49.1754149 84.6873526,49.3030149 85.0487655,49.5031149 C85.4130468,49.7061149 85.7314344,49.9468149 85.9981916,50.2281149 C86.2678171,50.5007149 86.500154,50.8226149 86.700939,51.2025149 C86.9017239,51.5795149 87.0250633,51.9942149 87.0738253,52.4495149 C87.1139823,52.7917149 87.1254558,53.1397149 87.1053773,53.4964149 C87.0852988,53.8560149 87.0738253,54.2127149 87.0738253,54.5636149 C87.0738253,54.9145149 87.0766937,55.2625149 87.0824304,55.6076149 C87.0824304,55.9469149 87.0738253,56.2949149 87.0566152,56.6487149 L85.6970141,56.6487149 C85.6836285,56.5752482 85.6766169,56.4927593 85.6759795,56.4029667 L85.679804,56.2630149 C85.6884091,56.1180149 85.6855407,55.9875149 85.6654622,55.8802149 C85.5249127,55.9585149 85.3901,56.0426149 85.2552872,56.1267149 C85.1204744,56.2137149 84.9770566,56.2920149 84.8307704,56.3645149 C84.5898284,56.4747149 84.3144662,56.5559149 84.0018153,56.6110149 C83.6862961,56.6690149 83.3449616,56.6806149 82.977812,56.6487149 C82.5102698,56.6081149 82.0886214,56.4921149 81.715735,56.2920149 C81.3428487,56.0977149 81.0101193,55.8570149 80.7204153,55.5757149 C80.4307112,55.2944149 80.1897693,54.9667149 79.994721,54.5926149 C79.7996728,54.2214149 79.6792018,53.8009149 79.6304397,53.3369149 C79.5902827,52.9744149 79.5902827,52.6409149 79.6361764,52.3335149 C79.6792018,52.0261149 79.7537791,51.7448149 79.8599083,51.4896149 C79.9660375,51.2315149 80.0865084,50.9966149 80.2270579,50.7878149 C80.3676074,50.5761149 80.5167619,50.3876149 80.6773899,50.2281149 C80.9068584,49.9961149 81.1707473,49.7873149 81.4776614,49.5988149 C81.7817072,49.4132149 82.117305,49.2798149 82.487323,49.1986149 C82.647951,49.1609149 82.8544726,49.1319149 83.106888,49.1174149 C83.3621718,49.1029149 83.597377,49.1058149 83.8153721,49.1261149 Z M54.9969924,45.5707149 L54.9969924,49.2595149 C54.9969924,49.8946149 54.985519,50.5239149 54.9654405,51.1561149 C54.945362,51.7854149 54.9539671,52.3799149 54.9969924,52.9309149 C55.0457545,53.6356149 55.2838281,54.1924149 55.7140816,54.5984149 C56.1414668,55.0073149 56.7094014,55.2364149 57.4178855,55.2857149 L57.4178855,56.6313149 C56.8499509,56.6603149 56.3537252,56.5907149 55.9320767,56.4167149 C55.5075599,56.2485149 55.146147,56.0165149 54.8478379,55.7207149 C54.5581339,55.4597149 54.294245,55.1291149 54.0561714,54.7318149 C53.8180978,54.3345149 53.6775484,53.8937149 53.6373914,53.4094149 C53.6058394,53.0991149 53.6001027,52.7772149 53.6144445,52.4524149 C53.6287863,52.1247149 53.6373914,51.7941149 53.6373914,51.4635149 L53.6373914,45.6287149 C53.634523,45.5910149 53.6402597,45.5707149 53.6517331,45.5707149 L54.9969924,45.5707149 Z M156.651554,45.4460149 C156.671632,46.0927149 156.680237,46.7365149 156.674501,47.3803149 C156.668764,48.0212149 156.665895,48.6679149 156.665895,49.3117149 C156.665895,49.9584149 156.677369,50.6051149 156.703184,51.2518149 C156.728999,51.8985149 156.714657,52.5365149 156.665895,53.1629149 C156.634344,53.6182149 156.528214,54.0445149 156.344639,54.4447149 C156.158196,54.8449149 155.920123,55.1958149 155.624682,55.5003149 C155.329241,55.8048149 154.987907,56.0542149 154.59781,56.2514149 C154.207714,56.4486149 153.788934,56.5675149 153.338602,56.6081149 C152.670275,56.6777149 152.087998,56.6023149 151.600378,56.3790149 C151.109889,56.1557149 150.691108,55.8744149 150.341169,55.5293149 C149.962546,55.1639149 149.667105,54.7376149 149.457715,54.2388149 C149.248325,53.7429149 149.173748,53.1281149 149.231115,52.3886149 C149.262667,51.9739149 149.371664,51.5766149 149.560976,51.1967149 C149.750287,50.8168149 149.994098,50.4775149 150.289539,50.1730149 C150.584979,49.8685149 150.923445,49.6220149 151.302068,49.4306149 C151.68356,49.2392149 152.076525,49.1232149 152.4867,49.0826149 C153.094791,49.0304149 153.616832,49.0797149 154.047086,49.2276149 C154.477339,49.3755149 154.881778,49.5901149 155.260401,49.8714149 C155.291953,49.1638149 155.300558,48.4446149 155.291953,47.7109149 C155.280479,46.9772149 155.280479,46.2464149 155.291953,45.5214149 C155.286216,45.4692149 155.291953,45.4460149 155.300558,45.4460149 L156.651554,45.4460149 Z M69.9239207,48.9724149 C70.2738602,49.0014149 70.6037212,49.0826149 70.9163721,49.2131149 C71.229023,49.3436149 71.5129903,49.5089149 71.768274,49.7119149 C72.0235578,49.9149149 72.2501579,50.1469149 72.4480746,50.4079149 C72.6488595,50.6718149 72.8123559,50.9444149 72.9443003,51.2257149 C72.9815889,51.3156149 73.0217459,51.4113149 73.0561662,51.5070149 C73.0905865,51.6027149 73.11927,51.6926149 73.1393485,51.7738149 C73.1795055,52.0261149 73.1823739,52.2784149 73.1479536,52.5307149 C73.11927,52.7743149 73.1164017,53.0266149 73.1450852,53.2789149 C72.1583705,53.2992149 71.1716558,53.3079149 70.1849411,53.3021149 C69.1982264,53.2963149 68.2086434,53.2963149 67.2104552,53.2963149 C67.3108477,53.7980149 67.5489213,54.2243149 67.9275444,54.5723149 C68.3061675,54.9203149 68.7794463,55.1204149 69.347381,55.1697149 C69.6456901,55.1900149 69.9554726,55.1929149 70.2738602,55.1871149 C70.5922478,55.1755149 70.9106354,55.1697149 71.229023,55.1697149 L73.1278751,55.1697149 C73.1479536,55.3901149 73.1536903,55.6250149 73.1422169,55.8715149 C73.1336118,56.1209149 73.1336118,56.3587149 73.1422169,56.5907149 L71.0798684,56.5907149 C70.7299289,56.5907149 70.3885945,56.5994149 70.04726,56.6139149 C69.7087939,56.6313149 69.3703278,56.6226149 69.0318617,56.5907149 C68.5843981,56.5414149 68.1684864,56.4109149 67.7841266,56.2050149 C67.3997668,55.9991149 67.0727741,55.7584149 66.8031486,55.4887149 C66.5134446,55.1958149 66.2725026,54.8652149 66.0774543,54.4911149 C65.8824061,54.1170149 65.7619351,53.6936149 65.713173,53.2209149 C65.6730161,52.8700149 65.6758844,52.5394149 65.7189098,52.2291149 C65.7648035,51.9217149 65.8393807,51.6404149 65.9426416,51.3823149 C66.0459024,51.1242149 66.1721101,50.8864149 66.3155279,50.6718149 C66.4589458,50.4543149 66.6167054,50.2629149 66.7859384,50.0889149 C66.9838551,49.8888149 67.2075869,49.7090149 67.4513972,49.5437149 C67.6952075,49.3842149 67.9763065,49.2479149 68.2946941,49.1377149 C68.5040841,49.0565149 68.7478944,48.9985149 69.026125,48.9637149 C69.3043556,48.9289149 69.6055331,48.9318149 69.9239207,48.9724149 Z M100.953803,45.4663149 C100.973882,46.1130149 100.982487,46.7539149 100.97675,47.3948149 C100.971014,48.0328149 100.968145,48.6766149 100.968145,49.3204149 C100.968145,49.9642149 100.979619,50.6080149 101.008302,51.2518149 C101.031249,51.8985149 101.019776,52.5336149 100.971014,53.1571149 C100.939462,53.6095149 100.833332,54.0329149 100.649758,54.4331149 C100.466183,54.8304149 100.225241,55.1813149 99.9326684,55.4829149 C99.6372277,55.7874149 99.2958932,56.0368149 98.9086651,56.2311149 C98.5185685,56.4283149 98.0997885,56.5472149 97.6523248,56.5878149 C96.9839977,56.6574149 96.4045897,56.5820149 95.916969,56.3616149 C95.42648,56.1383149 95.0105683,55.8570149 94.6606288,55.5148149 C94.2848741,55.1523149 93.9894333,54.7231149 93.7800433,54.2301149 C93.5706533,53.7371149 93.496076,53.1223149 93.5563115,52.3886149 C93.5878634,51.9768149 93.6968609,51.5795149 93.8861725,51.2025149 C94.0783524,50.8226149 94.3192943,50.4833149 94.6118667,50.1817149 C94.9073075,49.8801149 95.2429052,49.6336149 95.6215283,49.4422149 C95.997283,49.2508149 96.3931162,49.1348149 96.8004229,49.0971149 C97.4056461,49.0449149 97.9276871,49.0942149 98.3550722,49.2392149 C98.7853257,49.3842149 99.1868957,49.5988149 99.5655187,49.8801149 C99.5942023,49.1754149 99.6056757,48.4562149 99.5942023,47.7254149 C99.5855972,46.9975149 99.5855972,46.2667149 99.5942023,45.5417149 C99.5942023,45.4924149 99.5970707,45.4663149 99.6085441,45.4663149 L100.953803,45.4663149 Z M111.125088,45.3195749 L111.334639,45.3213149 L111.452526,45.3275312 L111.537168,45.3334949 L111.655526,45.3465312 L111.733088,45.3561149 L111.878526,45.3805312 L111.9665,45.3963977 L112.119526,45.4315312 L112.189157,45.4478274 L112.370526,45.5015312 L112.401056,45.5106758 C112.469897,45.5335586 112.536945,45.5583899 112.6022,45.5852149 L112.612526,45.5895312 L112.793752,45.6705836 L112.839526,45.6945312 L112.977238,45.7657399 L113.061526,45.8165312 L113.153193,45.8706836 L113.272526,45.9515312 L113.322157,45.9854149 L113.467526,46.0995312 L113.535691,46.1526482 L113.658526,46.2615312 L113.735838,46.3295482 L113.844526,46.4375312 L113.924512,46.5161149 L114.020526,46.6235312 L114.092116,46.7037101 L114.110526,46.7275312 L114.115526,46.7335312 L114.119526,46.7385312 L114.139526,46.7645312 L114.152526,46.7815312 L114.170526,46.8045312 L114.182526,46.8195312 L114.185526,46.8235312 L114.214526,46.8595312 L114.229526,46.8785312 L114.247191,46.9011885 L114.266526,46.9295312 L114.284526,46.9565312 L114.324526,47.0145312 L114.332526,47.0255312 L114.343526,47.0415312 L114.389599,47.1086893 L114.392526,47.1135312 L114.402526,47.1305312 L114.459526,47.2265312 L114.460526,47.2275312 L114.468526,47.2415312 L114.519203,47.3263517 L114.529526,47.3475312 L114.534526,47.3565312 L114.590526,47.4665312 L114.598526,47.4805312 L114.615526,47.5155312 L114.635865,47.5543149 L114.667526,47.6265312 L114.692526,47.6835312 L114.699526,47.6995312 L114.723363,47.7539315 L114.733526,47.7845312 L114.760526,47.8625312 L114.786526,47.9365312 L114.792526,47.9535312 L114.796599,47.9641815 L114.820526,48.0525312 L114.842526,48.1345312 L114.854526,48.1795312 L114.868526,48.2515312 L114.882526,48.3245312 L114.900604,48.4165815 L114.901526,48.4275312 L114.906526,48.4615312 L114.914526,48.5255312 L114.931531,48.6587315 L114.932526,48.6785312 L114.932526,48.6815312 L114.936526,48.7345312 L114.948516,48.9115149 L113.554494,48.9115149 L113.517526,48.7345312 L113.506763,48.6816502 L113.505526,48.6785312 L113.500526,48.6585312 L113.462526,48.5255312 L113.445318,48.4618789 L113.432526,48.4275312 L113.428526,48.4165312 L113.395526,48.3245312 L113.370158,48.252235 L113.339526,48.1845312 L113.337526,48.1795312 L113.317526,48.1345312 L113.281283,48.0527524 L113.232526,47.9635312 L113.227526,47.9535312 L113.218526,47.9365312 L113.178695,47.8634651 L113.127526,47.7845312 L113.107526,47.7535312 L113.071526,47.6995312 L113.062392,47.6844071 L113.017526,47.6265312 L112.960526,47.5535312 L112.932375,47.5156123 L112.900526,47.4805312 L112.887526,47.4665312 L112.788643,47.3571149 L112.778526,47.3475312 L112.755526,47.3255312 L112.650974,47.228222 L112.649526,47.2265312 L112.525526,47.1305312 L112.503814,47.1141275 L112.495526,47.1085312 L112.389526,47.0415312 L112.363526,47.0255312 L112.347235,47.0148075 L112.233526,46.9565312 L112.181307,46.930238 L112.107526,46.9005312 L112.052526,46.8785312 L112.006101,46.8603954 L111.885526,46.8235312 L111.871526,46.8195312 L111.821688,46.8052556 L111.709526,46.7815312 L111.628139,46.7647948 L111.525526,46.7515312 L111.425524,46.7389892 L111.328526,46.7335312 L111.213915,46.7278149 L111.042824,46.7337541 L110.996526,46.7385312 L110.877101,46.7516645 L110.807526,46.7645312 L110.716611,46.7816853 L110.631526,46.8045312 L110.575526,46.8195312 L110.561215,46.8239557 L110.462526,46.8595312 L110.410775,46.8786149 L110.360526,46.9005312 L110.294526,46.9295312 L110.234282,46.9574586 L110.124526,47.0145312 L110.103526,47.0255312 L110.074461,47.0417399 L109.965526,47.1085312 L109.957526,47.1135312 L109.930774,47.1314586 C109.885508,47.1622711 109.842841,47.1939899 109.802684,47.2266149 L109.801526,47.2275312 L109.784526,47.2415312 L109.683526,47.3255312 L109.657751,47.3476957 L109.648526,47.3565312 L109.535526,47.4665312 L109.522319,47.4811653 L109.491526,47.5155312 L109.458526,47.5535312 L109.396249,47.6268845 L109.353526,47.6835312 L109.341526,47.6995312 L109.301526,47.7535312 L109.279404,47.7847141 L109.229526,47.8625312 L109.182526,47.9365312 L109.171645,47.9545149 L109.166526,47.9635312 L109.120526,48.0525312 L109.078366,48.1351269 L109.057526,48.1845312 L109.030526,48.2515312 L109.001609,48.3254829 L108.973526,48.4165312 L108.970526,48.4275312 L108.959526,48.4615312 L108.941374,48.5255829 L108.913526,48.6585312 L108.909526,48.6785312 L108.908526,48.6815312 L108.89766,48.7354269 L108.875526,48.9105312 L108.870468,48.9550149 L108.866526,48.9945312 L108.846849,49.2862039 C108.841157,49.3982617 108.837661,49.5119961 108.836406,49.6274524 L108.835526,49.6415312 L108.839409,49.9790321 L108.845526,50.1355312 L108.856126,50.3412149 L108.867526,50.6335312 L108.877054,50.8352889 C108.885766,51.1673926 108.883854,51.5050815 108.870468,51.8492149 L109.031526,51.8565312 L109.173526,51.8635312 L109.194486,51.8645741 C109.304333,51.8680112 109.415987,51.8697297 109.52934,51.8696223 L109.816526,51.8645312 L109.874393,51.8637149 L110.395358,51.8571899 L110.909869,51.8637149 L110.909869,53.2586149 L110.736526,53.2665312 L110.606526,53.2725312 L110.584577,53.2739741 L110.25036,53.2790223 L109.962526,53.2735312 L109.905945,53.2731149 L109.384979,53.2665899 L108.870468,53.2731149 L108.870468,56.5327149 L107.459236,56.5327149 L107.459236,50.6341149 L107.456526,50.3405312 L107.455292,50.1360399 L107.451526,49.9785312 L107.444895,49.6423149 L107.444526,49.6265312 L107.440326,49.3166556 L107.439526,49.2855312 L107.444682,48.9955075 L107.446526,48.9545312 L107.456526,48.7345312 L107.458526,48.6815312 L107.461526,48.6585312 L107.478526,48.5255312 L107.487526,48.4615312 L107.491959,48.4276093 L107.493526,48.4165312 L107.512526,48.3245312 L107.526526,48.2515312 L107.540526,48.1845312 L107.554526,48.1345312 L107.577526,48.0525312 L107.601526,47.9635312 L107.604526,47.9535312 L107.609584,47.9374397 L107.636526,47.8625312 L107.664526,47.7845312 L107.675526,47.7535312 L107.694763,47.6997325 L107.701526,47.6835312 L107.726526,47.6265312 L107.759526,47.5535312 L107.775526,47.5155312 L107.791526,47.4805312 L107.797702,47.4673149 L107.854526,47.3565312 L107.859526,47.3475312 L107.870526,47.3255312 L107.915466,47.2422053 L107.922526,47.2275312 L107.923526,47.2265312 L107.981526,47.1305312 L107.991526,47.1135312 L107.994526,47.1085312 L108.034526,47.0415312 L108.045207,47.0264221 L108.052526,47.0145312 L108.092526,46.9565312 L108.110526,46.9295312 L108.130526,46.9005312 L108.145526,46.8785312 L108.158526,46.8595312 L108.183526,46.8235312 L108.198526,46.8045312 L108.216526,46.7815312 L108.229526,46.7645312 L108.240526,46.7515312 L108.250526,46.7385312 L108.254526,46.7335312 L108.259526,46.7275312 L108.278526,46.7035312 L108.341726,46.6239485 L108.438526,46.5155312 L108.509055,46.4378149 L108.618526,46.3295312 L108.68804,46.2620517 L108.814526,46.1525312 L108.877352,46.1000693 L109.031526,45.9845312 L109.07699,45.9517285 C109.145256,45.9045397 109.215244,45.8596013 109.286953,45.8168901 L109.378526,45.7655312 L109.507243,45.6954149 L109.558526,45.6705312 L109.734463,45.5896229 L109.746526,45.5845312 L109.940526,45.5105312 L109.9654,45.5019269 L110.145526,45.4475312 L110.20033,45.4323269 L110.368526,45.3955312 L110.439528,45.3808229 L110.618526,45.3555312 L110.683269,45.3474149 L110.848526,45.3325312 L110.908103,45.3282749 L111.097526,45.3205312 L111.125088,45.3195749 Z M122.781998,48.9260149 C122.810681,49.5930149 122.807813,50.2455149 122.767656,50.8806149 C122.727499,51.5186149 122.730367,52.1595149 122.781998,52.8062149 C122.833628,53.4413149 123.065965,53.9720149 123.479008,54.3896149 C123.892052,54.8101149 124.414093,55.0392149 125.045131,55.0798149 L125.211496,55.0798149 C125.509805,55.0711149 125.790904,55.0073149 126.051924,54.8913149 C126.312945,54.7753149 126.542413,54.6187149 126.748935,54.4215149 C126.952588,54.2243149 127.118953,53.9923149 127.245161,53.7226149 C127.3685,53.4558149 127.445946,53.1600149 127.477498,52.8352149 C127.506181,52.5104149 127.514786,52.1856149 127.500445,51.8579149 C127.486103,51.5302149 127.477498,51.2025149 127.477498,50.8806149 L127.477498,48.9260149 L128.871519,48.9260149 L128.871519,56.4921149 L127.477498,56.4921149 C127.466024,56.3616149 127.466024,56.2282149 127.477498,56.0890149 C127.486103,55.9527149 127.483234,55.8280149 127.463156,55.7178149 C127.293923,55.8280149 127.113216,55.9382149 126.923905,56.0455149 C126.734593,56.1528149 126.525203,56.2427149 126.301471,56.3181149 C126.07774,56.3935149 125.833929,56.4486149 125.575777,56.4834149 C125.317625,56.5182149 125.025053,56.5211149 124.706665,56.4921149 C124.247728,56.4428149 123.831816,56.3181149 123.461798,56.1209149 C123.09178,55.9237149 122.767656,55.6830149 122.486557,55.4017149 C122.216932,55.1291149 121.978858,54.8014149 121.775205,54.4244149 C121.568683,54.0445149 121.442475,53.6269149 121.393713,53.1745149 C121.373635,53.0034149 121.367898,52.8265149 121.379371,52.6438149 C121.387976,52.4611149 121.393713,52.2842149 121.393713,52.1131149 L121.393713,48.9753149 C121.387976,48.9405149 121.390845,48.9260149 121.402318,48.9260149 L122.781998,48.9260149 Z M139.475834,48.9231149 C139.934771,48.9753149 140.350683,49.0971149 140.720701,49.2943149 C141.090719,49.4915149 141.42058,49.7322149 141.710284,50.0135149 C141.971304,50.2861149 142.200773,50.6138149 142.401558,50.9995149 C142.602343,51.3823149 142.725682,51.8028149 142.774444,52.2581149 C142.794522,52.4292149 142.800259,52.6061149 142.788786,52.7888149 C142.777312,52.9715149 142.774444,53.1484149 142.774444,53.3195149 L142.774444,56.4747149 L141.394764,56.4747149 L141.394764,54.5201149 C141.394764,54.1373149 141.403369,53.7371149 141.417711,53.3224149 C141.432053,52.9077149 141.406238,52.5336149 141.334529,52.2001149 C141.274293,51.9362149 141.173901,51.6897149 141.033351,51.4577149 C140.89567,51.2257149 140.720701,51.0256149 140.517047,50.8574149 C140.310526,50.6921149 140.078189,50.5587149 139.820037,50.4630149 C139.559016,50.3673149 139.286522,50.3238149 138.996818,50.3325149 C138.546486,50.3441149 138.144916,50.4688149 137.78924,50.7124149 C137.433564,50.9560149 137.16107,51.2547149 136.971758,51.6085149 C136.882839,51.7796149 136.816867,51.9797149 136.77671,52.2059149 C136.736553,52.4321149 136.710738,52.6728149 136.702133,52.9251149 C136.693528,53.1774149 136.690659,53.4413149 136.693528,53.7139149 C136.699264,53.9865149 136.702133,54.2591149 136.702133,54.5317149 L136.702133,56.4573149 C136.481269,56.4776149 136.251801,56.4834149 136.013727,56.4718149 C135.772785,56.4631149 135.53758,56.4631149 135.308111,56.4718149 L135.308111,53.2586149 C135.308111,53.0759149 135.302375,52.8961149 135.29377,52.7192149 C135.285165,52.5423149 135.288033,52.3683149 135.308111,52.1972149 C135.336795,51.9333149 135.399899,51.6810149 135.494555,51.4316149 C135.58921,51.1851149 135.692471,50.9676149 135.801469,50.7878149 C136.039542,50.3847149 136.334983,50.0367149 136.679186,49.7496149 C137.023389,49.4625149 137.436432,49.2363149 137.915448,49.0739149 C138.116233,49.0130149 138.351438,48.9666149 138.629669,48.9376149 C138.905031,48.9086149 139.18613,48.9028149 139.475834,48.9231149 Z M83.147045,50.5413149 C82.576242,50.6138149 82.117305,50.8139149 81.7788389,51.1474149 C81.6583679,51.2576149 81.5436336,51.3910149 81.4346361,51.5476149 C81.3227702,51.7013149 81.2367195,51.8782149 81.1650106,52.0696149 C81.09617,52.2610149 81.0474079,52.4640149 81.0215927,52.6815149 C80.9986459,52.8990149 81.0101193,53.1281149 81.0588814,53.3688149 C81.1076434,53.6095149 81.1994308,53.8444149 81.3342436,54.0735149 C81.4690564,54.2997149 81.635421,54.5027149 81.8333377,54.6767149 C82.0341226,54.8536149 82.2635912,54.9928149 82.5217433,55.0914149 C82.7798954,55.1929149 83.058126,55.2422149 83.3593034,55.2422149 C83.6891644,55.2422149 83.9903419,55.1755149 84.2628358,55.0392149 C84.5353297,54.9029149 84.7734033,54.7347149 84.9713199,54.5317149 C85.1721049,54.3432149 85.3413379,54.1083149 85.4818874,53.8299149 C85.6224369,53.5515149 85.6855407,53.2325149 85.6740673,52.8700149 C85.6740673,52.5365149 85.6052267,52.2262149 85.4732823,51.9391149 C85.3384695,51.6520149 85.1864466,51.4229149 85.0172136,51.2518149 C84.819297,51.0314149 84.5554082,50.8429149 84.2255471,50.6921149 C83.8956861,50.5413149 83.5371415,50.4920149 83.147045,50.5413149 Z M152.693221,50.5094149 C152.122418,50.5790149 151.64914,50.8139149 151.267648,51.2054149 C150.886157,51.5998149 150.67103,52.0899149 150.622268,52.6786149 C150.590716,53.0411149 150.63661,53.3775149 150.757081,53.6878149 C150.877552,53.9952149 151.043916,54.2620149 151.259043,54.4853149 C151.47417,54.7086149 151.729454,54.8826149 152.024894,55.0073149 C152.320335,55.1349149 152.627249,55.1958149 152.945637,55.1958149 C153.295576,55.1958149 153.631174,55.1146149 153.95243,54.9522149 C154.270818,54.7898149 154.54618,54.5694149 154.769912,54.2852149 C154.993643,54.0039149 155.148535,53.6733149 155.234585,53.2992149 C155.320636,52.9251149 155.297689,52.5307149 155.165745,52.1160149 C155.085431,51.8724149 154.970697,51.6462149 154.821542,51.4345149 C154.672388,51.2228149 154.488813,51.0430149 154.273686,50.8951149 C154.058559,50.7472149 153.817617,50.6399149 153.547992,50.5703149 C153.278366,50.4978149 152.994399,50.4775149 152.693221,50.5094149 Z M97.184209,50.5055173 L97.0069446,50.5181149 C96.4390099,50.5877149 95.9657311,50.8197149 95.587108,51.2112149 C95.2084849,51.6027149 94.9933582,52.0928149 94.9445961,52.6786149 C94.9159125,53.0411149 94.9589379,53.3746149 95.0794089,53.6820149 C95.1970115,53.9894149 95.3662445,54.2533149 95.5785029,54.4737149 C95.7936297,54.6970149 96.0489134,54.8710149 96.3414858,54.9957149 C96.6369266,55.1233149 96.9409724,55.1871149 97.2622283,55.1871149 C97.6121678,55.1871149 97.9448972,55.1059149 98.2632848,54.9435149 C98.5816724,54.7811149 98.8541663,54.5607149 99.0778981,54.2794149 C99.3016299,53.9952149 99.4565212,53.6675149 99.5397035,53.2963149 C99.6257542,52.9222149 99.6028074,52.5278149 99.4737313,52.1218149 C99.3934173,51.8782149 99.2786831,51.6520149 99.1295285,51.4403149 C98.980374,51.2286149 98.7996675,51.0517149 98.5845408,50.9038149 C98.369414,50.7559149 98.128472,50.6486149 97.8588465,50.5790149 C97.6970712,50.5372549 97.5301328,50.5121989 97.3580314,50.5057261 L97.184209,50.5055173 Z M69.3330392,50.3905149 C68.8253401,50.4427149 68.40656,50.5993149 68.076699,50.8603149 C67.7497063,51.1213149 67.5001593,51.4548149 67.3280579,51.8579149 C68.0279369,51.8666149 68.7421577,51.8724149 69.4735887,51.8724149 C70.207888,51.8724149 70.9249772,51.8666149 71.6334613,51.8579149 C71.4728333,51.4548149 71.2204179,51.1213149 70.8704784,50.8516149 C70.5262756,50.5848149 70.0960221,50.4340149 69.5883229,50.3905149 C69.5080089,50.3731149 69.4248266,50.3731149 69.3330392,50.3905149 Z M97.5806159,19.8883149 C97.8731883,19.9898149 98.0997885,20.0478149 98.2575481,20.0681149 C98.7078801,20.1261149 99.0463462,20.3668149 99.2729464,20.7815149 C99.4995465,21.1991149 99.5339668,21.5906149 99.3762072,21.9560149 C99.2213159,22.3243149 99.0635563,22.5563149 98.9057967,22.6549149 C98.6533813,22.7535149 98.3780191,22.8434149 98.0825783,22.9217149 C97.7900059,23.0000149 97.5634058,23.0812149 97.4056461,23.1595149 C97.9162136,23.3596149 98.2977051,24.0324149 98.5529888,25.1837149 C100.299818,24.9633149 101.401267,24.7168149 101.851599,24.4384149 C101.98928,24.3601149 102.201539,24.3978149 102.485506,24.5573149 C102.769473,24.7168149 103.185385,24.8444149 103.736109,24.9430149 C104.67693,25.0242149 105.130131,25.5984149 105.089974,26.6714149 C105.069895,27.2485149 104.980976,27.5762149 104.81748,27.6690149 C104.501961,27.8865149 104.209388,28.0373149 103.934026,28.1156149 C103.641454,28.2142149 103.257094,28.1533149 102.786683,27.9358149 C102.316273,27.7792149 101.295138,27.8082149 99.7261467,28.0257149 C99.4335743,28.0460149 99.1582121,28.0866149 98.9029283,28.1446149 C99.1381336,30.9808149 99.1467387,33.3240149 98.9316119,35.1684149 C98.7336953,36.0790149 98.4153077,36.8098149 97.9735808,37.3550149 C97.5318538,37.9031149 97.0126813,38.2250149 96.4131947,38.3236149 C95.8137082,38.4251149 95.3289559,38.6426149 94.9560695,38.9790149 C94.5831832,39.3154149 94.2877424,39.4749149 94.0726157,39.4546149 C93.7771749,39.3357149 93.5534431,39.0776149 93.3956835,38.6803149 C93.1403997,37.9060149 92.7761184,37.1839149 92.3057079,36.5082149 C92.1106597,36.2124149 92.0618976,36.0123149 92.1594218,35.9137149 C92.2569459,35.8151149 92.6613842,35.8180149 93.3669999,35.9282149 C94.0726157,36.0355149 94.5745781,35.9804149 94.8671505,35.7629149 C95.0249101,35.7426149 95.2687204,35.4845149 95.6043181,34.9886149 C95.7219208,33.5415149 95.7391309,31.4361149 95.6616853,28.6782149 C94.1500613,28.9363149 92.9338781,29.2234149 92.0131356,29.5424149 C92.5609917,30.5342149 92.7589083,31.3288149 92.6011487,31.9233149 C92.5007562,32.2394149 92.3688118,32.4772149 92.2024471,32.6367149 C92.0360824,32.7962149 91.8668494,32.9847149 91.6890113,33.2022149 C91.5111731,33.4197149 91.1382868,33.4980149 90.5703521,33.4400149 C90.4125925,33.3791149 90.2404911,33.0920149 90.0540479,32.5758149 C89.8676048,32.0596149 89.7614756,31.6217149 89.7299236,31.2650149 C89.7012401,30.9083149 89.5979792,30.5806149 89.4201411,30.2819149 C88.7346039,30.4791149 88.0433299,30.7082149 87.3463192,30.9663149 C86.6493085,31.2244149 86.1674246,31.3027149 85.9035358,31.2041149 C85.639647,31.1055149 85.3040493,30.7662149 84.9024793,30.1920149 C84.5009094,29.6149149 84.3402814,29.1799149 84.417727,28.8812149 C84.4951727,28.5825149 84.8795325,28.2954149 85.5650697,28.0170149 C86.2534753,27.7386149 87.8339399,27.3210149 90.3064633,26.7671149 C92.7789868,26.2103149 94.517211,25.8536149 95.5182674,25.6941149 C95.4408218,25.4186149 95.3519028,25.0996149 95.2543786,24.7429149 C95.1568545,24.3833149 95.1453811,24.0672149 95.2256951,23.7888149 L91.8410342,24.7110149 C91.0551044,24.9488149 90.5158534,24.9981149 90.2204126,24.8589149 C89.6897666,24.5805149 89.2795916,24.2354149 88.9841509,23.8178149 C88.551029,23.2639149 88.4448998,22.7970149 88.6600266,22.4200149 C88.7575507,22.2808149 89.0615965,22.1764149 89.572164,22.1068149 C90.0798632,22.0372149 90.7768738,21.8748149 91.6603277,21.6167149 L94.8413353,20.7525149 C96.077597,20.4132149 96.7717393,20.1609149 96.9180255,19.9927149 C97.0643117,19.8245149 97.2851752,19.7897149 97.5806159,19.8883149 Z M119.862011,28.3447149 C120.378315,28.7594149 120.685229,29.1712149 120.782753,29.5859149 C121.327741,29.4670149 121.921491,29.3597149 122.564003,29.2611149 C122.759051,29.2031149 122.911074,29.2408149 123.017203,29.3800149 C123.123332,29.5192149 123.226593,29.6178149 123.324117,29.6758149 C123.421641,29.7367149 123.504824,29.8208149 123.573664,29.9281149 C123.642505,30.0354149 123.731424,30.1485149 123.837553,30.2674149 C123.943682,30.3863149 123.989576,30.5400149 123.969497,30.7256149 C123.949419,30.9141149 123.940814,31.0707149 123.940814,31.1983149 C123.940814,31.3259149 123.906394,31.4535149 123.837553,31.5811149 C123.768713,31.7087149 123.717082,31.8711149 123.676925,32.0683149 C123.656847,32.2655149 123.542112,32.3728149 123.326986,32.3931149 L120.550416,33.1036149 L120.432814,34.6986149 C120.412735,35.0727149 120.40413,35.2699149 120.40413,35.2902149 C121.628918,35.1510149 122.535319,35.1133149 123.120464,35.1713149 C123.70274,35.2293149 124.239123,35.2206149 124.726744,35.1423149 C125.504068,35.0234149 126.226894,35.3888149 126.895221,36.2327149 C127.618047,37.0012149 127.549207,37.7204149 126.691568,38.3903149 C126.32155,38.7064149 125.934322,38.8137149 125.524147,38.7151149 C125.056605,38.5788149 124.394014,38.5092149 123.536376,38.5092149 C119.446099,38.5092149 116.49456,38.7354149 114.681759,39.1878149 C114.156849,39.3067149 113.689307,39.2284149 113.279132,38.9529149 L112.607937,38.4512149 C112.450177,38.2946149 112.303891,38.0597149 112.169078,37.7436149 C112.031397,37.4275149 111.97403,37.1230149 111.994108,36.8272149 C112.014187,36.5314149 112.160473,36.3545149 112.432967,36.2965149 C113.818383,35.9398149 115.453346,35.6962149 117.343594,35.5570149 C117.343594,35.4178149 117.352199,35.2815149 117.372277,35.1423149 L117.429644,33.7242149 C117.076836,33.7648149 116.678135,33.8228149 116.230671,33.9011149 C115.783207,33.9794149 115.421795,33.8808149 115.149301,33.6053149 C115.031698,33.4893149 114.830913,33.3095149 114.549814,33.0746149 C114.265847,32.8397149 114.076535,32.2887149 113.979011,31.4216149 C113.938854,31.0475149 114.274452,30.8097149 114.985804,30.7111149 C115.694288,30.6125149 116.290907,30.5052149 116.767054,30.3863149 C117.246069,30.2674149 117.492748,30.2181149 117.512827,30.2384149 C117.492748,29.9803149 117.484143,29.7947149 117.484143,29.6758149 C117.36654,29.0465149 117.54151,28.5622149 118.009052,28.2287149 C118.221311,28.0489149 118.456516,27.9213149 118.708931,27.8430149 C118.961347,27.7647149 119.345706,27.9300149 119.862011,28.3447149 Z M70.4373565,9.23081487 C70.8503999,9.21341487 71.2921268,9.50051487 71.7625373,10.0950149 C72.0178211,10.3908149 72.1555022,10.7388149 72.1755807,11.1361149 L72.5025733,21.6515149 C72.5656772,23.8348926 72.5997394,25.7987774 72.60476,27.5435614 L72.6046184,28.4735351 C72.5975675,30.5927837 72.543474,32.3572408 72.4423378,33.7677149 C72.3821024,34.6000149 72.2157377,35.2554149 71.9403754,35.7310149 C71.3523623,36.8997149 70.5463541,37.5870149 69.5252191,37.7842149 C69.1121757,37.8828149 68.8282084,38.0713149 68.6704488,38.3497149 C68.4754005,38.6281149 68.2000383,38.7615149 67.8472304,38.7528149 C67.4944226,38.7412149 67.224797,38.4976149 67.0383538,38.0220149 C66.8519107,37.5464149 66.6396523,37.2303149 66.404447,37.0708149 C66.1692418,36.9113149 66.0430341,36.7025149 66.0229556,36.4444149 C66.0028771,36.1863149 65.825039,35.8934149 65.4923096,35.5657149 C65.1567118,35.2380149 65.0591877,35.0234149 65.1968688,34.9248149 C65.2370258,34.8059149 65.6099122,34.8552149 66.3155279,35.0727149 C67.0211437,35.2902149 67.5517897,35.3018149 67.9045976,35.1017149 C68.1426712,35.0408149 68.3032991,34.8639149 68.3922182,34.5652149 C68.4811373,34.2665149 68.5557145,33.8605149 68.6130817,33.3443149 C68.9658895,26.8570149 69.1322542,22.9420149 69.1121757,21.6022149 C69.0920972,20.2624149 69.0834922,18.6529149 69.0834922,16.7795149 C69.0834922,14.9032149 68.945811,13.0124149 68.6704488,11.1071149 C68.5700563,10.4314149 68.6589754,9.99641487 68.9343376,9.79631487 C69.5252191,9.43961487 70.0243132,9.25111487 70.4373565,9.23081487 Z M57.1626017,10.5677149 C57.4178855,10.7272149 57.7133262,10.8490149 58.0460556,10.9389149 C58.378785,11.0288149 58.6570156,11.2231149 58.8836158,11.5189149 C59.1102159,11.8176149 59.2163451,12.1859149 59.2077401,12.6209149 C59.1962666,13.0588149 59.0557172,13.3865149 58.7803549,13.6040149 C58.4074685,13.8418149 57.9169796,14.0999149 57.3088879,14.3783149 C57.3863336,14.5175149 57.35765,14.8075149 57.2199689,15.2425149 C57.0822878,15.6804149 57.0134472,16.4344149 57.0134472,17.5045149 C57.638749,17.2058149 58.1005544,17.0985149 58.3959951,17.1768149 C59.2593705,17.4146149 59.8789355,17.8525149 60.2489535,18.4731149 C60.3866347,18.7109149 60.380898,19.0009149 60.2346118,19.3373149 C60.0883256,19.6766149 59.729781,19.9231149 59.1618464,20.0826149 C58.5910434,20.2392149 57.8854276,20.4770149 57.0421308,20.7960149 C57.0421308,22.1068149 57.0622093,23.3364149 57.1023663,24.4877149 L57.5440932,24.5486149 C58.8377221,24.9459149 59.6322569,25.3606149 59.9276976,25.7985149 C60.1428243,26.2364149 60.2460852,26.5670149 60.2374801,26.7961149 C60.228875,27.0252149 60.2231383,27.2398149 60.2231383,27.4370149 C60.260427,27.8923149 60.0539053,28.2693149 59.6035733,28.5680149 C59.4458137,28.6869149 59.1073476,28.6086149 58.588175,28.3302149 C58.0690025,28.0518149 57.7219313,27.8256149 57.5440932,27.6458149 C57.3662551,27.4689149 57.2285739,27.3790149 57.1310498,27.3790149 C57.1310498,30.8329149 57.0908928,33.2341149 57.0134472,34.5826149 C56.9159231,35.5164149 56.6893229,36.1863149 56.336515,36.5923149 C55.9837071,36.9983149 55.6050841,37.3115149 55.2035141,37.5290149 C54.8019442,37.7465149 54.4233211,38.0046149 54.0705132,38.3033149 C53.3620291,38.8166149 52.814173,38.7586149 52.4212081,38.1235149 C52.2232915,37.8074149 52.1257674,37.5696149 52.1257674,37.4101149 C52.1257674,37.2506149 51.9680078,36.9461149 51.6553569,36.4879149 C51.3398377,36.0326149 51.2337085,35.7252149 51.3312326,35.5657149 C51.3713896,35.4062149 51.6180683,35.3366149 52.0684003,35.3569149 C53.1698492,35.4961149 53.7463889,35.3685149 53.8066244,34.9712149 C54.0619082,34.3361149 54.1709057,32.7846149 54.1307487,30.3138149 C54.0905917,27.8430149 54.0705132,26.0740149 54.0705132,25.0010149 C53.835308,25.3200149 53.5312622,25.7927149 53.1583758,26.4162149 C52.7826211,27.0426149 52.3581043,27.6226149 51.8762204,28.1591149 C51.3943364,28.6956149 50.6629055,29.6990149 49.6819275,31.1664149 C49.3291196,31.6449149 49.0767042,31.8972149 48.930418,31.9262149 C48.7841318,31.9552149 48.6607925,32.0712149 48.5632684,32.2684149 C48.4657442,32.4482149 48.2821694,32.5526149 48.0182806,32.5816149 C47.7515234,32.6106149 47.4933713,32.7730149 47.2380876,33.0717149 C46.9828038,33.3675149 46.7963607,33.4632149 46.678758,33.3530149 C46.5611554,33.2457149 46.5955757,32.9064149 46.7820189,32.3409149 C46.9684621,31.7754149 47.2036673,31.2766149 47.4876346,30.8387149 C47.7716019,30.4037149 48.0842528,29.8730149 48.4284556,29.2466149 C48.7726584,28.6202149 49.2860943,27.8430149 49.9744999,26.9092149 L52.7711476,22.5621149 C51.5721745,23.0580149 50.763298,23.4408149 50.3416495,23.7076149 C49.9171327,23.9773149 49.372145,24.0005149 48.7066862,23.7830149 C48.431324,23.7047149 48.1760402,23.5539149 47.940835,23.3364149 L47.2925864,22.7419149 C47.0745913,22.5447149 46.9397785,22.2054149 46.879543,21.7298149 C46.8221759,21.2542149 47.0286975,20.9381149 47.499108,20.7786149 C49.091046,20.1261149 50.8579537,19.5113149 52.7998312,18.9342149 C53.2128746,18.7544149 53.6431281,18.6152149 54.0963284,18.5166149 C54.0963284,17.1681149 54.0877234,16.1357149 54.0676449,15.4223149 C53.67468,15.4397149 53.3907127,15.4223149 53.2128746,15.3614149 C52.9002237,15.1816149 52.6248615,15.0482149 52.3896562,14.9583149 C52.154451,14.8684149 51.9278508,14.7234149 51.712724,14.5262149 C51.5704535,14.3522149 51.4759125,14.1707909 51.4291009,13.9834277 L51.3767821,13.7008749 C51.3299705,13.5152749 51.2354295,13.3389549 51.093159,13.1719149 C50.9181892,12.9660149 50.9038474,12.7311149 51.0501336,12.4730149 C51.1992882,12.2149149 51.4144149,12.0583149 51.6983822,11.9974149 C51.9823496,11.9365149 52.3036055,11.8669149 52.6564134,11.7886149 C52.8342515,11.6871149 53.0895352,11.6291149 53.4222646,11.6088149 C54.8937316,11.2927149 55.886183,10.9447149 56.3967505,10.5677149 C56.6520342,10.4082149 56.907318,10.4082149 57.1626017,10.5677149 Z M149.71013,15.6485149 C149.844943,15.7587149 149.971151,15.8370149 150.088754,15.8863149 C150.206356,15.9385149 150.318222,16.0168149 150.424351,16.1241149 C150.53048,16.2343149 150.682503,16.3271149 150.877552,16.4054149 C151.015233,16.4837149 151.101283,16.7041149 151.14144,17.0695149 C151.181597,17.4320149 151.181597,17.7713149 151.14144,18.0874149 C151.101283,18.4615149 150.995154,18.7080149 150.820184,18.8269149 C150.117437,19.2039149 149.446242,19.4968149 148.80373,19.7143149 C148.746363,20.5031149 148.717679,21.3789149 148.717679,22.3446149 C149.302824,22.2083149 149.853548,22.0836149 150.369852,21.9763149 C150.886157,21.8661149 151.207413,21.8835149 151.33362,22.0198149 C151.459828,22.1590149 151.580299,22.2663149 151.697902,22.3446149 C151.815504,22.4258149 151.913028,22.5041149 151.990474,22.5824149 L152.369097,22.9971149 C152.50391,23.1334149 152.558409,23.3074149 152.529725,23.5133149 C152.501042,23.7192149 152.495305,23.8816149 152.515383,24.0005149 C152.495305,24.1803149 152.452279,24.3572149 152.383439,24.5341149 C152.314598,24.7110149 152.271573,24.9082149 152.251494,25.1257149 C152.211337,25.3432149 152.065051,25.4824149 151.812636,25.5404149 L149.796181,26.1320149 C149.133591,26.3292149 148.754968,26.4365149 148.657444,26.4568149 L148.657444,31.2418149 C149.649895,30.1195149 150.421483,29.3162149 150.966471,28.8348149 C151.511458,28.3534149 151.970396,27.8662149 152.340414,27.3732149 C152.710432,26.8831149 153.023082,26.6598149 153.275498,26.7091149 C153.527913,26.7584149 153.883589,27.0745149 154.342527,27.6545149 C154.801464,28.2345149 154.99938,28.7304149 154.942013,29.1451149 C154.901856,29.5975149 154.560522,29.9049149 153.91801,30.0615149 C153.490625,30.2384149 153.160764,30.4327149 152.925558,30.6386149 C152.693221,30.8445149 152.148234,31.1200149 151.290595,31.4651149 C150.432956,31.8102149 149.821996,32.1002149 149.463452,32.3380149 C149.102039,32.5729149 148.852492,32.7324149 148.717679,32.8107149 C148.754968,33.0862149 148.783651,33.3211149 148.80373,33.5183149 L148.80373,33.5763149 C150.051465,33.4574149 151.015233,33.4168149 151.697902,33.4574149 C152.380571,33.4980149 153.003004,33.4690149 153.56807,33.3704149 C154.136005,33.2718149 154.626494,33.3443149 155.045274,33.5908149 C155.464054,33.8373149 155.874229,34.2027149 156.272931,34.6696149 C156.671632,35.1539149 156.81505,35.6498149 156.697447,36.1631149 C156.64008,36.4589149 156.376191,36.8127149 155.908649,37.2274149 C155.501343,37.5232149 155.062484,37.6305149 154.594942,37.5522149 C154.009797,37.3956149 153.192315,37.3173149 152.139629,37.3173149 C146.488966,37.4362149 142.826074,37.8016149 141.150954,38.4106149 C140.565809,38.5672149 140.0409,38.4802149 139.573358,38.1438149 L138.870611,37.6131149 C138.655484,37.4362149 138.460436,37.1694149 138.285466,36.8156149 C138.110496,36.4589149 138.021577,36.1109149 138.021577,35.7658149 C138.021577,35.4207149 138.196547,35.2177149 138.546486,35.1597149 C140.416655,34.6667149 142.67692,34.2636149 145.327281,33.9475149 C145.327281,33.9301149 145.335886,33.9185149 145.355965,33.9185149 C145.298598,32.9934149 145.269914,31.9001149 145.269914,30.6386149 L145.269914,27.2717149 L143.809921,27.5965149 C143.262065,27.7154149 142.814601,27.5965149 142.464661,27.2427149 C142.347059,27.1238149 142.183562,26.9904149 141.968436,26.8425149 C141.753309,26.6946149 141.598418,26.5322149 141.500894,26.3553149 C141.248478,26.0595149 141.090719,25.5375149 141.033351,24.7893149 C140.955906,24.3775149 141.325924,24.0904149 142.143405,23.9338149 C142.963756,23.7772149 143.660766,23.6090149 144.234438,23.4321149 C144.808109,23.2523149 145.163785,23.1653149 145.301466,23.1653149 C145.301466,22.9101149 145.310071,22.6752149 145.33015,22.4577149 L145.33015,20.5959149 C145.152312,20.5756149 144.914238,20.5727149 144.613061,20.5814149 C144.311883,20.5930149 143.993496,20.5176149 143.663635,20.3610149 C143.330905,20.1638149 142.998176,19.7607149 142.668315,19.1488149 C142.473267,18.7747149 142.375742,18.3194149 142.375742,17.7887149 C142.375742,17.2580149 142.608079,16.9999149 143.075621,17.0202149 C143.543164,17.0811149 144.512668,16.9535149 145.984135,16.6374149 C147.455602,16.3242149 148.522631,15.9994149 149.185221,15.6630149 C149.39748,15.5441149 149.572449,15.5412149 149.71013,15.6485149 Z M123.326986,8.08241487 C123.656847,8.14041487 123.92934,8.26221487 124.144467,8.45071487 C124.356726,8.63921487 124.531695,8.78131487 124.669377,8.87991487 C124.804189,8.97851487 124.921792,9.09741487 125.019316,9.23371487 C125.059473,9.21341487 125.142655,9.17861487 125.268863,9.12931487 C125.395071,9.08001487 125.512673,9.02201487 125.618803,8.95241487 C125.724932,8.88281487 125.899902,8.93211487 126.143712,9.10031487 C126.384654,9.26561487 126.771882,9.39031487 127.296791,9.46861487 C128.15443,9.60491487 128.553131,10.1472149 128.495764,11.0926149 C128.455607,11.6059149 128.378162,11.9017149 128.260559,11.9800149 C127.947908,12.1772149 127.663941,12.3164149 127.411526,12.3947149 C127.156242,12.4759149 126.806302,12.4063149 126.358839,12.1888149 C126.14658,12.0902149 125.765089,12.0815149 125.220101,12.1598149 L125.219773,12.1937026 C125.216813,12.4446838 125.193791,14.0251149 125.148392,16.9303149 C125.09963,20.0507149 125.105367,21.8487149 125.162734,22.3214149 C125.280336,22.2837149 125.578646,22.2605149 126.054793,22.2489149 C126.533808,22.2373149 127.084533,22.1503149 127.706966,21.9821149 C128.332268,21.8139149 128.779732,21.8110149 129.052226,21.9676149 C129.81234,22.3620149 130.337249,22.8173149 130.629822,23.3277149 C130.82487,23.8787149 130.678584,24.4181149 130.190963,24.9517149 C129.861102,25.3084149 129.379218,25.4447149 128.745311,25.3664149 C128.111405,25.2881149 127.377105,25.2910149 126.539545,25.3809149 C125.701985,25.4679149 125.145524,25.5433149 124.87303,25.6013149 C124.930397,25.6419149 124.979159,25.6709149 125.019316,25.6912149 C126.987009,27.6023149 129.382087,29.1973149 132.207418,30.4762149 C133.240026,30.9489149 133.813698,31.2650149 133.9313,31.4216149 C134.048903,31.5985149 134.413184,31.8392149 135.027013,32.1437149 C135.640841,32.4482149 135.838757,32.7991149 135.637973,33.1935149 C135.385557,33.6082149 135.121668,33.7561149 134.849174,33.6372149 C134.129217,33.3994149 133.696095,33.3124149 133.549809,33.3704149 C133.403523,33.4313149 133.136765,33.4110149 132.746669,33.3124149 C132.356572,33.2138149 132.112762,33.2341149 132.015238,33.3704149 C131.860347,33.6459149 131.693982,33.8663149 131.519012,34.0345149 C131.341174,34.2027149 130.796186,34.1070149 129.881181,33.7532149 C127.503313,32.8658149 125.225838,31.1432149 123.043018,28.5825149 C122.225537,27.5762149 121.637523,26.9672149 121.276111,26.7497149 C120.914698,26.5351149 120.665151,26.3582149 120.530338,26.2190149 C119.030187,26.4568149 117.693533,26.7033149 116.526112,26.9585149 C115.688552,27.8430149 114.810835,28.8580149 113.895829,30.0006149 C112.355521,31.7725149 111.024604,33.1964149 109.905945,34.2694149 C109.485372,34.6717899 109.120463,35.0138086 108.811218,35.295624 L108.520528,35.5573774 C108.157681,35.8796399 107.893792,36.0949649 107.728862,36.2037149 C107.183874,36.4821149 106.676175,36.8736149 106.208633,37.3869149 C105.525964,38.0974149 105.0785,38.3439149 104.863374,38.1264149 C104.728561,37.9466149 104.932214,37.3956149 105.477202,36.4705149 C106.02219,35.5454149 106.891302,34.4434149 108.078801,33.1616149 C109.266301,31.8827149 110.069441,30.9808149 110.488221,30.4588149 C110.907001,29.9397149 111.351596,29.4409149 111.819139,28.9682149 C112.286681,28.4955149 112.628015,28.1301149 112.843142,27.8749149 C112.123184,28.0924149 111.529435,28.3070149 111.061892,28.5245149 C110.59435,28.7420149 110.135413,28.7217149 109.68795,28.4665149 L109.016754,28.0518149 C108.801627,27.9155149 108.606579,27.6922149 108.431609,27.3877149 C108.25664,27.0803149 108.159115,26.7758149 108.139037,26.4713149 C108.118958,26.1639149 108.245166,25.9725149 108.51766,25.8942149 C110.017811,25.3432149 111.741693,24.8386149 113.689307,24.3862149 C113.689307,21.8661149 113.729464,18.6152149 113.80691,14.6364149 C113.514337,14.6364149 113.327894,14.6277149 113.250449,14.6074149 C112.917719,14.4682149 112.56778,14.1231149 112.197762,13.5721149 C111.807665,12.9631149 111.652774,12.5281149 111.730219,12.2729149 C111.827744,11.9597149 112.128921,11.7219149 112.63662,11.5653149 C112.909114,11.4464149 113.345104,11.3304149 113.950328,11.2115149 C114.007695,10.1095149 114.165454,9.46571487 114.41787,9.27721487 C114.673153,9.08871487 115.120617,9.14961487 115.763129,9.45411487 C116.405641,9.76151487 116.792869,10.1182149 116.93055,10.5329149 C118.585592,10.1211149 120.21195,9.84561487 121.809625,9.70641487 C121.866992,9.31201487 121.935833,9.04811487 122.013278,8.90891487 C122.383296,8.23901487 122.819286,7.96351487 123.326986,8.08241487 Z M83.1298349,16.1502149 C83.5400099,16.1792149 83.927238,16.4141149 84.2915193,16.8491149 C84.6529323,17.2870149 84.9225578,17.7713149 85.1003959,18.3078149 C85.1778416,18.6065149 85.0344237,19.0879149 84.6730108,19.7520149 C84.3087295,20.4161149 84.0190255,20.8743149 83.8038987,21.1208149 C83.588772,21.3702149 83.4510908,21.5442149 83.3908553,21.6428149 C83.8612658,22.1184149 83.9358431,22.7332149 83.6117188,23.4872149 C83.2875945,24.2412149 83.1240982,25.8884149 83.1240982,28.4288149 L83.1240982,31.4651149 C83.1240982,32.5178149 83.1929387,33.5647149 83.3306199,34.6058149 C83.468301,35.6469149 83.4367491,36.2095149 83.2417008,36.2878149 C82.576242,36.7025149 82.1918822,37.0215149 82.0943581,37.2390149 C81.8390744,37.7726149 81.5149501,37.7929149 81.1219852,37.2970149 C80.846623,37.0389149 80.6573114,36.4038149 80.5483139,35.3917149 C80.4393163,34.3796149 80.4020277,33.4284149 80.4307112,32.5352149 C80.4622632,31.6420149 80.4909467,30.4762149 80.5196303,29.0378149 C80.5511822,27.5994149 80.6429696,26.3466149 80.8007293,25.2736149 C80.4278429,25.7318149 80.0061944,26.3263149 79.5357839,27.0600149 C78.9678493,27.8140149 78.5490692,28.2316149 78.2851804,28.3099149 C78.0212916,28.3882149 77.8491902,28.5767149 77.7717446,28.8754149 C77.5939065,29.1538149 77.3013341,29.3104149 76.8882907,29.3510149 C76.4752474,29.3916149 76.0478622,29.6526149 75.6061353,30.1398149 C75.1644083,30.6270149 74.8173372,30.7691149 74.5620534,30.5719149 C74.3842153,30.4124149 74.4587926,29.8817149 74.7829169,28.9798149 C75.1070412,28.0750149 75.4455073,27.3413149 75.7983152,26.7758149 C76.1511231,26.2103149 76.4809841,25.6622149 76.7850299,25.1257149 C77.0890757,24.5892149 77.5451444,23.8845149 78.153236,23.0116149 C78.9391658,21.9618149 80.115192,20.1145149 81.6870515,17.4755149 C82.237776,16.5620149 82.7196599,16.1212149 83.1298349,16.1502149 Z M141.644311,28.9943149 C141.879517,29.1538149 142.111854,29.5482149 142.347059,30.1775149 C142.582264,30.8068149 142.923599,31.4970149 143.371062,32.2452149 C143.525953,32.5033149 143.580452,32.7440149 143.53169,32.9702149 C143.482928,33.1964149 143.371062,33.3646149 143.196092,33.4719149 C143.021123,33.5821149 142.854758,33.6256149 142.699867,33.6053149 C142.154879,33.5270149 141.756177,33.3008149 141.498025,32.9238149 C140.815356,32.1379149 140.405181,31.4883149 140.270369,30.9750149 C140.213001,30.5400149 140.187186,30.2355149 140.19866,30.0586149 C140.207265,29.8817149 140.278974,29.6352149 140.416655,29.3191149 C140.631782,28.7478149 141.041957,28.6405149 141.644311,28.9943149 Z M64.2560478,16.1966149 C64.844061,16.4141149 65.1194232,17.1275149 65.0763979,18.3368149 C64.8612711,20.4422149 64.8497977,22.7245149 65.0477143,25.1837149 C65.0477143,26.1175149 64.72359,26.5931149 64.0753414,26.6134149 C63.7598221,26.6337149 63.5045384,26.6018149 63.3094901,26.5235149 C62.7013985,26.0682149 62.3571957,25.5027149 62.2797501,24.8270149 C61.7892611,21.8690149 61.8093396,19.6592149 62.3399856,18.1889149 C62.4776667,17.6930149 62.6153478,17.3450149 62.7530289,17.1478149 C63.3238319,16.3967149 63.822926,16.0777149 64.2560478,16.1966149 Z M145.992902,8.68899203 L146.073054,8.70301487 C146.357021,8.78131487 146.595095,8.92921487 146.790143,9.14671487 C147.960433,9.38451487 149.314297,10.0631149 150.851736,11.1854149 C151.806899,11.8553149 152.518252,12.4614149 152.985794,13.0037149 C153.453336,13.5460149 153.95243,13.9694149 154.477339,14.2739149 C155.002249,14.5784149 155.441107,14.9003149 155.791047,15.2338149 C156.083619,15.5093149 156.883891,16.0371149 158.188993,16.8143149 C159.491227,17.5915149 160.452126,18.2469149 161.065955,18.7776149 C161.679783,19.3083149 162.124378,19.6447149 162.396872,19.7810149 C163.194275,20.3117149 163.633134,20.7844149 163.710579,21.1933149 C163.730658,21.4108149 163.572898,21.6225149 163.243037,21.8284149 C162.913176,22.0343149 162.580447,22.0575149 162.250586,21.9009149 C161.450123,21.5517549 160.862046,21.5663709 160.486355,21.9471207 L160.332497,22.1209686 C159.962874,22.496678 159.423342,22.4710549 158.713902,22.0488149 C156.981415,20.9845149 155.237454,19.7433149 153.484888,18.3252149 C151.729454,16.9071149 150.605058,15.8225149 150.108832,15.0743149 C149.612606,14.3261149 149.159406,13.8447149 148.749231,13.6272149 C148.43658,13.4503149 148.178428,13.2299149 147.974775,12.9631149 C147.768253,12.6963149 147.432655,12.5078149 146.965113,12.4005149 C146.497571,12.2932149 146.233682,12.2700149 146.176315,12.3280149 C145.648537,12.5252149 145.152312,12.9196149 144.68477,13.5112149 C143.16454,15.3643149 141.847965,17.0289149 140.737911,18.5050149 C139.863062,19.7462149 138.922241,20.8482149 137.918316,21.8139149 C136.914391,22.7796149 136.271879,23.3103149 135.99078,23.4089149 C135.706813,23.5104149 135.419977,23.6902149 135.127405,23.9570149 C134.837701,24.2238149 134.499235,24.3717149 134.120612,24.4007149 C133.741989,24.4297149 133.326077,24.6878149 132.878613,25.1692149 C132.43115,25.6535149 132.109894,25.7898149 131.914846,25.5839149 C131.719797,25.3780149 131.897635,24.8589149 132.454097,24.0324149 C133.010558,23.2059149 134.100533,21.7095149 135.726892,19.5432149 C137.35325,17.3769149 138.876347,15.5180149 140.299052,13.9607149 L142.315507,11.8640149 C143.0957,10.9969149 143.953339,10.1588149 144.888423,9.35261487 C145.303813,8.93501487 145.642398,8.71348842 145.907319,8.68962388 L145.992902,8.68899203 Z M121.654734,12.5977149 C120.21195,12.8123149 118.7118,13.1487149 117.154282,13.6011149 C117.114125,14.2333149 117.073968,14.6944149 117.036679,14.9902149 C116.999391,15.2860149 116.979312,15.4745149 116.979312,15.5528149 C117.329252,15.3759149 118.333177,15.1497149 119.988218,14.8742149 C120.123031,14.8336149 120.346763,14.9612149 120.659414,15.2570149 C120.679492,15.3353149 120.728254,15.4078149 120.8057,15.4774149 C120.883146,15.5470149 120.914698,15.6514149 120.894619,15.7877149 L120.894619,16.0226149 L120.719649,16.5852149 C120.702439,16.7244149 120.576232,16.8172149 120.341026,16.8665149 C120.108689,16.9158149 119.692778,17.0289149 119.099028,17.2058149 C118.505278,17.3827149 117.759505,17.5509149 116.864578,17.7075149 C116.807211,17.7075149 116.758449,18.3687149 116.718292,19.6882149 C116.853105,19.5722149 117.963159,19.3344149 120.048454,18.9806149 C120.283659,18.9429149 120.515996,19.0792149 120.751201,19.3953149 C120.808568,19.4736149 120.871672,19.5519149 120.940513,19.6302149 C121.006485,19.7085149 121.0323,19.8071149 121.012222,19.9260149 C120.992143,20.0449149 120.983538,20.1435149 120.983538,20.2218149 C120.983538,20.3030149 120.960591,20.3900149 120.911829,20.4886149 C120.863067,20.5872149 120.820042,20.6945149 120.779885,20.8134149 C120.779885,20.9526149 120.711044,21.0309149 120.576232,21.0512149 L119.027319,21.4050149 C118.384807,21.5616149 117.604614,21.7211149 116.689608,21.8777149 C116.66953,22.5882149 116.66953,23.2001149 116.689608,23.7105149 C118.034867,23.3161149 119.681304,22.9913149 121.628918,22.7361149 C121.588761,21.9473149 121.580156,20.8656149 121.600235,19.4852149 C121.617445,18.1077149 121.637523,15.9907149 121.657602,13.1342149 L121.654734,12.5977149 Z M98.699275,8.76681487 C99.270078,8.91471487 99.7060682,9.13511487 100.010114,9.42221487 C100.31416,9.71221487 100.457578,9.99351487 100.437499,10.2719149 C100.360054,11.3623149 100.210899,12.3947149 99.9957722,13.3662149 C99.5253617,15.5093149 98.8971916,16.9854149 98.1112619,17.8003149 C97.8588465,18.0004149 97.6896135,18.1425149 97.6121678,18.2324149 C97.5318538,18.3223149 97.46875,18.4412149 97.4199879,18.5891149 C97.3712259,18.7399149 97.2880435,18.8443149 97.1704409,18.9023149 C96.1693844,19.4388149 95.2773255,19.8158149 94.4913957,20.0333149 L92.3716802,20.5408149 C92.2139205,20.7409149 92.0274773,20.8482149 91.8123506,20.8685149 C91.3218616,20.9091149 90.9088182,20.5234149 90.5760889,19.7085149 L90.1945974,18.8762149 C90.0942049,18.6558149 90.0052859,18.2991149 89.9278402,17.8032149 C89.6323995,17.1884149 89.4660348,15.6659149 89.4258778,13.2328149 C89.3857208,10.8026149 89.6897666,9.37871487 90.3380153,8.96111487 C90.6506661,8.76101487 90.9575803,8.73781487 91.2501527,8.88571487 C91.5455934,9.03651487 91.7521151,9.17861487 91.8697177,9.31781487 C93.616547,9.10031487 95.2859306,9.02201487 96.8750002,9.08001487 C97.1102054,9.08001487 97.3368056,9.01041487 97.5519323,8.87121487 C97.7469806,8.65371487 98.128472,8.61891487 98.699275,8.76681487 Z M96.4935087,10.7185149 C95.8051031,11.1361149 94.4713173,11.5827149 92.4892828,12.0583149 C92.4491258,12.4556149 92.4290473,12.8326149 92.4290473,13.1893149 C92.3888903,13.4474149 92.3802852,13.7142149 92.4003637,13.9955149 C92.6556475,13.8969149 93.1059795,13.7780149 93.7542281,13.6388149 L94.6663655,13.4010149 C95.0593304,13.4590149 95.2830622,13.6185149 95.3432977,13.8766149 C95.3633762,13.9549149 95.4035332,14.0506149 95.4609003,14.1579149 C95.5211358,14.2681149 95.5096624,14.4914149 95.4322167,14.8278149 C95.3519028,15.1671149 95.2945356,15.3846149 95.2543786,15.4832149 C95.21709,15.5818149 95.1281709,15.6717149 94.9904898,15.7500149 C94.3451096,16.0661149 93.8173319,16.2604149 93.415762,16.3300149 C93.0141921,16.3996149 92.7130146,16.4634149 92.5179663,16.5243149 C92.5782018,17.0202149 92.6499108,17.3885149 92.7388298,17.6263149 C92.8277489,17.8641149 92.8908527,18.0236149 92.9310097,18.1019149 C93.4415772,17.8844149 94.0611422,17.6640149 94.7868365,17.4465149 C94.9646746,17.3450149 95.1310393,17.2870149 95.2887989,17.2667149 C96.2496984,14.9641149 96.8061596,13.3169149 96.9524458,12.3251149 C97.098732,11.3333149 97.1130738,10.7852149 96.9954711,10.6866149 C96.8750002,10.5880149 96.7086355,10.5996149 96.4935087,10.7185149 Z M85.068844,10.1008149 C85.5220444,10.5155149 85.800275,10.9389149 85.9092725,11.3652149 C86.0182701,11.7915149 85.9781131,12.1076149 85.7916699,12.3164149 C85.6052267,12.5223149 85.4618089,12.7282149 85.3642848,12.9254149 C85.189315,13.1835149 84.9311629,13.4822149 84.5984335,13.8186149 C84.3230713,14.0361149 83.8411873,14.3174149 83.1556501,14.6654149 C82.4672445,15.0134149 82.0398593,15.1961149 81.8734947,15.2164149 C81.70713,15.2338149 81.5493703,15.2889149 81.4030842,15.3788149 C81.256798,15.4658149 81.0732231,15.5209149 80.8580964,15.5412149 C80.6429696,15.5615149 80.3676074,15.6108149 80.034878,15.6891149 C79.013743,16.0661149 78.3654944,16.0458149 78.0901322,15.6398149 C77.694299,15.0047149 78.973586,13.4764149 81.91652,11.0549149 C82.3897989,10.6576149 82.7913688,10.2893149 83.1240982,9.95291487 C83.7723468,9.27721487 84.4205954,9.32651487 85.068844,10.1008149 Z" id="形状结合" fill="#292455" fill-rule="nonzero"></path>
                    <path d="M30.0053974,16.6577149 C30.0053974,16.6577149 29.6342395,16.6113149 29.5536781,16.7012149 C29.1595027,17.1420149 28.9091869,17.1768149 28.9091869,17.1768149 C28.9091869,17.1768149 28.5725553,16.7766149 28.6243448,16.1009149 C27.6950115,16.0545149 27.5051167,15.7210149 27.0159939,15.1497149 C26.5268711,14.5813149 25.6435729,13.8186149 25.1659588,14.0245149 C24.9329062,14.1260149 24.3085553,15.0163149 25.3990115,16.1531149 C26.2161343,17.0057149 27.2087659,17.4117149 27.5453974,18.2991149 C27.718029,18.4644149 27.9050466,17.8438149 28.2963448,17.8235149 C28.6905202,17.8032149 28.5293974,18.9052149 28.9465904,18.9574149 C29.7090466,19.0560149 30.1003448,18.8878149 31.0757132,18.8878149 C31.8065202,18.8878149 32.7157132,19.0850149 33.294029,19.1662149 C33.532836,19.2010149 33.7054676,19.2010149 33.7630115,19.1430149 C33.8464501,19.0647149 33.8637132,18.4905149 33.8349413,18.2962149 C33.725608,18.0294149 33.5817483,18.6500149 33.4637834,18.0352149 C33.3285553,17.6118149 33.2566255,17.1942149 33.4062395,17.0811149 C33.5558536,16.9680149 34.1197834,17.0057149 34.2722746,17.2319149 C34.4218887,17.4581149 34.5369764,17.4233149 34.6865904,17.1217149 C34.8362045,16.8201149 34.9771869,16.9738149 35.5037132,16.6606149 C36.0129764,16.3561149 36.0590115,15.6804149 36.0590115,15.5644149 C36.0590115,15.5644149 35.5612571,16.6838149 34.6578185,16.6606149 C33.6479238,16.6345149 30.0053974,16.6577149 30.0053974,16.6577149 Z M34.1370466,15.6311149 C33.8205553,15.7152149 33.6508009,16.0226149 33.6508009,16.0226149 C33.6508009,16.0226149 34.1629413,16.0574149 34.2866606,16.0313149 C34.4103799,16.0023149 35.1066606,15.6166149 35.1498185,15.1439149 C35.1900992,14.6741149 35.1239238,14.1260149 34.5830115,14.0042149 C34.2952922,13.9201149 34.1485553,14.1782149 34.1082746,14.2739149 C34.1082746,14.2739149 34.217608,14.2188149 34.3557132,14.2188149 C35.0145904,14.2217149 35.0951518,15.3498149 34.7671518,15.6427149 C34.7671518,15.6427149 34.5887659,15.8225149 34.3959939,15.8486149 C34.3988711,15.8515149 34.4535378,15.5470149 34.1370466,15.6311149 Z M31.2023097,13.9172149 C31.490029,13.8215149 31.818029,13.8070149 31.996415,13.9027149 C31.996415,13.9027149 31.5159238,13.2937149 30.8167659,13.8186149 C30.117608,14.3435149 30.8023799,15.2976149 31.1188711,15.5064149 C31.4324852,15.7152149 31.4957834,15.8399149 31.6453974,15.7819149 C31.7950115,15.7268149 32.146029,15.8776149 32.324415,15.9472149 C32.2898887,15.8399149 32.0913623,15.3875149 31.8611869,15.3527149 C31.6338887,15.3208149 31.5820992,15.5180149 31.5820992,15.5180149 C31.5820992,15.5180149 31.4871518,15.6137149 31.2943799,15.4484149 C31.101608,15.2831149 30.8685553,15.0743149 30.7879939,14.7031149 C30.7103097,14.3319149 30.9145904,14.0129149 31.2023097,13.9172149 Z M32.4538887,4.32691487 C32.4538887,4.08331487 32.1345202,3.46561487 32.1345202,3.46561487 C31.8122746,2.95231487 31.3030115,2.57241487 31.3030115,2.57241487 C31.3030115,2.57241487 30.8743097,2.30271487 30.848415,2.62751487 C31.1677834,3.62511487 32.4538887,4.32691487 32.4538887,4.32691487 Z M34.3183097,11.5769149 C34.1802045,11.6117149 34.0075729,11.4986149 34.0708711,11.2376149 C34.1543097,10.8896149 34.3183097,10.8751149 34.3183097,10.8751149 C34.1226606,10.7707149 33.9270115,10.9679149 33.9270115,10.9679149 C33.7515027,11.1651149 33.771643,11.3681149 33.8061694,11.4957149 C33.8406957,11.6233149 33.8061694,11.6001149 33.6565553,11.5218149 C33.5069413,11.4406149 33.5069413,11.3942149 33.4493974,11.6958149 C33.3918536,11.9974149 33.0264501,11.9974149 32.8308009,11.9858149 C32.6351518,11.9742149 32.8308009,11.7335149 32.8308009,11.7335149 C32.4538887,11.8582149 32.3388009,11.5595149 32.2812571,11.1593149 C32.0251869,11.7277149 31.6079939,11.9742149 31.1879238,11.6610149 C30.7678536,11.3449149 31.1390115,10.6489149 31.1390115,10.6489149 C31.1390115,10.6489149 30.8138887,10.4981149 30.7160641,10.4459149 C30.6153623,10.3966149 30.3161343,10.4459149 30.2384501,10.5967149 C30.163643,10.7475149 30.5405553,10.9012149 30.3621694,10.9244149 C30.1866606,10.9505149 29.9622395,10.7475149 29.4098185,10.3937149 C28.8602746,10.0399149 28.7336781,10.2922149 28.4315729,10.2922149 C28.1294676,10.2922149 27.9539588,10.1153149 27.6806255,9.81081487 C27.404415,9.50921487 26.7023799,8.33181487 26.0751518,8.25641487 C26.0060992,9.05681487 25.7212571,9.35261487 26.0089764,9.83981487 C26.0722746,9.94711487 26.242029,10.2661149 26.3743799,10.3415149 C26.5441343,10.4372149 26.5757834,10.9882149 26.6390816,11.2318149 C26.8462395,12.0467149 27.554029,12.2120149 27.554029,12.2120149 C27.554029,12.2120149 27.0159939,11.7451149 27.0275027,11.1506149 C27.0361343,10.8229149 27.1627308,10.5126149 27.3555027,10.4488149 C27.6460992,10.6866149 28.1841343,11.1216149 28.5898185,11.3188149 C28.4171869,11.3246149 28.2042746,11.4087149 28.149608,11.7828149 C28.1035729,12.1482149 28.3481343,12.3976149 28.6588711,12.4556149 C28.9897483,12.5194149 29.4587308,12.3570149 29.4040641,11.8118149 C29.3983097,11.7480149 29.3868009,11.7074149 29.3666606,11.8263149 C29.343643,11.9626149 29.2630816,12.1192149 29.0213974,12.1598149 C28.6559939,12.2207149 28.627222,11.9423149 28.8084852,11.8959149 C28.9782395,11.8524149 29.0645553,11.6378149 28.969608,11.4812149 C29.5421694,11.7103149 29.835643,11.7509149 30.4369764,11.5914149 C29.7550816,12.2961149 30.0025202,12.6963149 29.1566255,12.8152149 C29.3551518,12.8993149 29.1623799,13.0501149 29.5882045,13.0501149 C30.014029,13.0501149 30.983643,12.9167149 30.983643,12.9167149 C31.3490466,12.7572149 31.5907308,12.3976149 31.8640641,12.3802149 C32.1345202,12.3628149 32.1086255,12.2381149 32.5747308,12.2468149 C33.0437132,12.2555149 33.7342395,13.4445149 33.7342395,13.4445149 C33.9011167,13.4271149 34.2809062,13.5170149 34.2809062,13.5170149 C34.6578185,13.5634149 34.9800641,13.9955149 34.9800641,13.9955149 C34.9800641,13.9955149 34.9944501,13.7693149 34.9081343,13.6011149 C34.8218185,13.4358149 34.6261694,13.3633149 34.4132571,13.3488149 C34.2607659,13.3401149 34.0162045,13.2937149 34.0162045,13.2937149 C33.3573273,13.1255149 33.5529764,12.5049149 33.6853273,12.4208149 C33.7140992,12.4034149 33.7515027,12.3860149 33.7946606,12.3686149 C33.7687659,12.4034149 33.7457483,12.4498149 33.725608,12.5049149 C33.636415,12.7572149 33.7601343,12.9718149 33.9586606,13.0617149 C34.1686957,13.1574149 34.4880641,13.0936149 34.5743799,12.7166149 C34.5858887,12.6702149 34.5772571,12.6296149 34.5369764,12.7021149 C34.4823097,12.7978149 34.3902395,12.9080149 34.2463799,12.9051149 C33.9931869,12.8935149 34.0190816,12.6934149 34.1456781,12.6847149 C34.3039238,12.6760149 34.4103799,12.4469149 34.2492571,12.3077149 C34.2492571,12.3077149 34.2089764,12.2787149 34.1514325,12.2584149 C34.2204852,12.2410149 34.2809062,12.2236149 34.3269413,12.2091149 C34.4880641,12.1627149 34.7153623,12.1888149 34.8620992,12.0670149 C34.8879939,12.0438149 35.0404852,11.9307149 35.1296781,11.8031149 C35.2217483,11.6755149 35.4893273,11.2144149 35.5583799,11.0520149 C35.6274325,10.8896149 35.3742395,10.5561149 35.2591518,10.4169149 C35.1440641,10.2777149 34.9282746,10.4169149 34.8246957,10.5213149 C34.7211167,10.6257149 34.8477132,10.8809149 34.8246957,11.0404149 C34.8016781,11.2028149 34.6750816,11.1332149 34.709608,11.3188149 C34.7527659,11.4986149 34.4535378,11.5421149 34.3183097,11.5769149 Z M33.4465202,5.99151487 L33.3199238,5.71311487 C33.0955027,5.35931487 32.5660992,4.97941487 32.5660992,4.97941487 C31.5878536,4.24571487 30.8858185,4.93011487 30.8858185,4.93011487 C30.6355027,4.77931487 29.7838536,3.92671487 29.030029,4.27181487 C28.2013974,4.65171487 28.4286957,5.33321487 28.4286957,5.33321487 C27.375643,4.77641487 26.7743097,4.87791487 26.7743097,4.87791487 C25.7471518,4.94461487 25.4450466,5.68411487 25.571643,6.24381487 C25.6838536,6.73971487 26.3887659,7.11961487 27.2432922,6.61211487 C28.0949413,6.10751487 26.8260992,5.58551487 26.8260992,5.58551487 C26.5988009,5.52751487 26.5498887,5.55941487 26.7253974,5.73631487 C26.9009062,5.91321487 26.5297483,6.01181487 26.4002746,5.91321487 C26.2851869,5.82621487 26.0578887,5.39121487 26.6246957,5.20561487 C27.0994325,5.04901487 28.880415,6.11621487 28.880415,6.11621487 L28.612836,5.52751487 C28.8832922,5.77111487 29.432836,5.89001487 29.9852571,5.76241487 C30.5376781,5.63481487 30.3851869,5.05481487 30.1866606,4.93011487 C29.9852571,4.80251487 29.6342395,4.72711487 29.7090466,4.87791487 C29.7838536,5.02871487 28.9523448,5.17951487 29.1077132,4.80251487 C29.2343097,4.50091487 29.5306606,4.49511487 30.1118536,4.75321487 C31.1390115,5.20851487 31.0411869,6.11911487 31.0411869,6.11911487 L31.4670115,6.22061487 C31.4670115,6.22061487 31.4670115,6.22061487 31.3173974,5.79141487 C31.1677834,5.36221487 31.3173974,4.93301487 31.7173273,4.88081487 C31.9302395,4.85761487 32.0309413,5.03741487 32.0309413,5.22011487 C32.056836,5.11861487 32.3301694,4.94751487 32.7300992,5.24911487 C32.8825904,5.35641487 32.8825904,5.46081487 32.6955729,5.61161487 C32.2553623,5.00551487 31.967643,5.23171487 32.1690466,5.78851487 C32.3272922,6.22931487 33.1846957,6.96881487 33.5242045,6.53381487 C33.6249062,6.87311487 33.7083448,6.96301487 33.7889062,7.03841487 C34.1658185,7.40381487 34.6722045,8.10851487 34.6722045,8.10851487 L34.6865904,7.85621487 C34.6865904,7.85621487 34.7038536,7.43281487 34.680836,7.12831487 C34.6549413,6.82381487 34.4305202,6.67301487 34.4535378,6.80061487 C34.4794325,6.92821487 34.3787308,7.10221487 34.3787308,7.10221487 C34.1543097,7.42991487 34.1543097,7.07611487 34.0766255,6.69621487 C34.0018185,6.31921487 34.427643,6.67301487 34.427643,6.67301487 C34.3787308,6.54541487 34.3787308,6.36851487 34.024836,5.99151487 C33.9759238,5.93931487 33.9298887,5.90161487 33.8867308,5.87551487 C33.8809764,5.81751487 33.8061694,4.92721487 33.711222,4.72421487 C33.6133974,4.51541487 32.891222,4.25151487 32.8595729,4.22831487 C32.8595729,4.22831487 33.6421694,5.58841487 33.8780992,5.86971487 C33.6105202,5.71601487 33.4465202,5.99151487 33.4465202,5.99151487 Z M25.7097483,3.13501487 C25.7097483,3.13501487 25.5975378,1.92281487 24.3171869,2.22441487 C23.0397132,2.52891487 22.5505904,3.85421487 23.8654676,4.53571487 C23.8654676,4.53571487 24.541608,4.87791487 25.2954325,4.23411487 C25.988836,3.63961487 25.2177483,2.51731487 24.4668009,2.79281487 C24.0524852,2.94361487 23.9402746,3.36121487 24.2797834,3.51201487 C24.616415,3.66281487 24.8811167,3.32061487 24.7689062,3.09441487 C24.6566957,2.86821487 25.2350115,3.26551487 25.033608,3.54971487 C24.7315027,3.96731487 23.9057483,3.96731487 23.7532571,3.43661487 C23.603643,2.90591487 24.5444852,1.96051487 25.7097483,3.13501487 Z M37.0948009,37.5203149 C37.169608,40.4029149 37.4717132,41.8790149 37.7335378,41.8790149 C37.9924852,41.8790149 37.5839238,40.3246149 37.5091167,37.5551149 C37.4343097,34.7885149 36.3438536,32.8165149 35.8173221,32.1727149 C35.8144501,32.1727149 37.0199939,34.6377149 37.0948009,37.5203149 Z M34.6434325,45.5736149 C34.1658185,45.5620149 34.0766255,45.2575149 33.9385202,44.8921149 C33.800415,44.5267149 33.6853273,43.8075149 33.6853273,43.3232149 C33.6853273,43.3232149 33.3256781,44.9791149 33.4407659,45.8404149 C33.4407659,45.8404149 33.4177483,46.2812149 34.5197132,46.1942149 C35.6216781,46.1101149 37.2588009,45.9796149 37.7680641,46.0637149 C38.5592922,46.0550149 39.034029,44.6224149 39.3908009,44.7181149 C39.7475729,44.8138149 39.1893974,46.1275149 39.1893974,46.1275149 C39.1893974,46.1275149 39.8079939,45.4750149 39.9374676,45.1299149 C40.0698185,44.7819149 40.2740992,44.8341149 40.5272922,44.6775149 C40.7804852,44.5209149 40.9473623,44.5557149 41.2609764,43.8684149 C41.2609764,43.8684149 41.6925553,44.8602149 41.3530466,45.9941149 C42.4435027,45.1734149 42.6247659,44.4745149 42.6247659,44.4745149 C42.6247659,44.4745149 42.8693273,44.7413149 42.5729764,46.1188149 C42.5729764,46.1188149 43.6835729,44.4803149 42.7082045,43.4421149 C42.6046255,43.6799149 42.4291167,44.1178149 42.1442746,44.4861149 C42.1442746,44.4861149 41.7731167,43.6683149 41.6206255,43.2739149 L41.5055378,43.7263149 C41.5055378,43.7263149 41.3415378,43.5001149 41.1257483,43.3377149 C41.1257483,43.3377149 40.9732571,44.0366149 40.346029,44.2454149 C40.346029,44.2454149 40.331643,43.7031149 39.9086957,43.4537149 C39.9086957,43.4537149 39.9230816,43.5610149 39.7619588,43.8249149 C39.600836,44.0859149 39.4972571,43.7466149 39.3418887,43.7553149 C39.3418887,43.7553149 38.2053974,45.3445149 37.5235027,45.4373149 C37.2731869,45.4692149 35.1181694,45.5881149 34.6434325,45.5736149 Z M34.5484852,22.8724149 C34.2233623,22.5940149 34.0075729,22.5447149 34.0075729,22.5447149 C38.1852571,26.9121149 34.5542395,27.8720149 34.5542395,27.8720149 L34.5715027,29.0668149 L33.7802746,29.0291149 C35.098029,30.2413149 34.7585202,31.4187149 34.7585202,31.4187149 C34.4938185,32.8223149 33.4666606,33.1877149 33.4666606,33.1877149 C33.4666606,33.1877149 33.3026606,33.1819149 33.5357132,32.9064149 C33.7687659,32.6280149 33.6249062,32.2162149 33.3141694,32.4366149 C32.6322746,32.8890149 31.7345904,32.5468149 31.5533273,32.4279149 C31.3922045,32.3206149 31.2339588,32.1524149 31.2339588,32.1524149 C30.7707308,31.6275149 30.7218185,30.9663149 30.8570466,30.3225149 C31.0699588,29.3162149 32.2553623,28.9711149 32.2553623,28.9711149 L31.8755729,28.9421149 L31.9417483,28.0344149 C24.2682746,26.3611149 23.796415,24.9343149 21.0860992,22.3562149 C18.3959238,19.7955149 15.567643,19.6360149 15.567643,19.6360149 C15.567643,19.6360149 19.4518536,21.6370149 20.3552922,22.6230149 C21.2587308,23.6090149 22.6110115,24.8966149 22.8383097,25.4273149 C22.8383097,25.4273149 28.9322045,28.4607149 29.8327659,29.5975149 C29.8327659,29.5975149 31.1418887,32.4424149 29.611222,33.1297149 C28.0776781,33.8199149 27.3267308,33.9185149 25.8708711,34.8291149 C25.4939588,34.7015149 23.5058185,33.0775149 23.0282045,27.7444149 C22.9735378,27.1470149 22.9936781,26.8831149 23.0023097,26.5554149 C23.0109413,26.3147149 22.6944501,26.2770149 22.6455378,26.5061149 C22.4671518,27.3036149 21.2990115,29.5888149 18.6577483,29.7367149 C18.5253974,29.7454149 18.3067308,30.0499149 18.7009062,30.0644149 C19.2015378,30.0847149 21.1868009,29.8788149 22.3434325,31.9436149 C22.3434325,31.9436149 24.4063799,35.7020149 25.3069413,36.0413149 C26.2075027,36.3835149 26.8548711,35.8847149 29.1393623,36.5198149 C29.2228009,35.7948149 29.4357132,34.5884149 29.864415,35.3424149 C30.6988009,36.8040149 32.5747308,38.6049149 32.9861694,39.2052149 C33.6133974,40.1158149 33.1127659,40.6668149 33.1386606,40.9452149 C33.1645553,41.2236149 33.4407659,41.2729149 33.4407659,41.2729149 C33.4407659,41.2729149 33.3141694,41.8790149 33.5903799,42.0066149 C33.8665904,42.1313149 33.7658887,43.0419149 33.7658887,43.0419149 C33.7658887,43.0419149 34.2291167,42.7490149 34.3787308,42.2183149 C34.5283448,41.6876149 34.1715729,41.6383149 34.2492571,41.0554149 C34.3240641,40.4754149 34.0651167,38.3410149 33.0868711,37.0273149 C32.1086255,35.7136149 31.2569764,34.9741149 32.0338185,34.1157149 C32.8106606,33.2573149 32.4855378,33.5386149 33.1875729,33.4371149 C33.889608,33.3356149 35.5555027,32.6570149 35.5785202,30.0035149 C35.5785202,30.0035149 35.5871518,29.6004149 35.4950816,29.1828149 C35.426029,29.6961149 34.8160641,30.3051149 34.8160641,30.3051149 C34.8160641,30.3051149 34.8419588,29.7251149 34.3902395,29.3191149 C34.3355729,29.2640149 34.292415,29.2176149 34.292415,29.2176149 L34.8160641,29.2205149 L34.8419588,28.5390149 C34.8419588,28.5390149 35.4173974,28.2345149 35.8202045,27.8807149 C36.0187308,27.7067149 36.4330466,27.0803149 36.4388009,26.1958149 C36.8013273,28.4259149 36.3265904,30.1775149 35.8460992,31.2650149 C35.4864501,32.0828149 35.5785202,32.0654149 36.0359939,31.2737149 C36.5567659,30.3776149 37.0861694,29.0668149 36.9883448,27.5356149 C36.9106606,26.2857149 36.3783799,25.2214149 36.0503799,24.6704149 C35.7712922,24.1049149 35.2965553,23.4988149 34.5484852,22.8724149 Z M17.1587308,27.5008149 C15.5302395,28.3969149 14.2124852,28.0779149 14.2124852,28.0779149 C16.3559939,29.0175149 17.7658185,28.7739149 19.175643,27.4515149 C20.5854676,26.1291149 19.2763448,22.8724149 19.2763448,22.8724149 C19.5151518,25.1518149 18.2635729,26.8947149 17.1587308,27.5008149 Z M27.4303097,21.8661149 C26.6822395,21.8516149 26.3513623,21.5877149 25.8737483,21.5355149 C25.3961343,21.4833149 24.9070115,21.5790149 24.4006255,21.8864149 C23.8942395,22.1967149 22.9390115,22.2141149 22.9390115,22.2141149 C23.3389413,22.4171149 24.6998536,22.2344149 25.3011869,21.9821149 C25.9025202,21.7298149 27.2030115,22.4664149 28.2560641,22.2634149 C29.3091167,22.0604149 29.0588009,20.5437149 29.0588009,20.5437149 C30.9174676,20.2885149 31.2771167,21.3325149 31.400836,21.7559149 C31.4842746,22.1358149 31.4065904,22.3852149 31.5820992,22.9304149 C31.7835027,23.4292149 31.7978887,23.6119149 31.3173974,24.1832149 L31.1159939,24.4355149 C31.1159939,24.4355149 31.743222,24.0063149 31.9446255,23.7018149 C32.146029,23.3973149 32.2985202,23.2523149 32.0482045,22.6723149 C31.7978887,22.0923149 32.8710816,22.7419149 32.7703799,23.6264149 C32.7703799,23.6264149 33.4983097,23.1711149 33.2220992,22.5650149 C32.9458887,21.9589149 33.1818185,22.1590149 33.0322045,21.5529149 C32.8825904,20.9468149 33.0465904,20.5176149 33.2738887,20.1899149 C33.2738887,20.1899149 32.5689764,20.6655149 32.5459588,21.3296149 C32.5258185,21.9908149 32.7214676,22.4896149 32.7214676,22.4896149 C32.7214676,22.4896149 32.4711518,22.2634149 32.1201343,21.8574149 C31.9331167,21.6399149 31.8755729,21.4485149 31.8295378,21.2426149 C31.818029,21.0425149 31.7748711,20.8337149 31.6914325,20.6365149 C32.0597132,20.2044149 32.727222,20.1812149 32.905608,20.1319149 C32.8825904,19.7984149 32.131643,19.6592149 31.2540992,19.5577149 C30.3765553,19.4562149 28.9868711,19.4794149 28.7365553,19.8332149 C28.4862395,20.1870149 28.776836,20.8047149 28.7106606,21.2484149 C28.6387308,21.6979149 28.1783799,21.8806149 27.4303097,21.8661149 Z M30.281608,2.19251487 C30.281608,2.19251487 29.6140992,1.47621487 29.3781694,1.38921487 C29.1422395,1.30221487 28.5178887,1.40081487 28.5178887,1.40081487 C28.5178887,1.40081487 29.4644852,1.97501487 29.7982395,2.11711487 C30.1319939,2.25631487 30.281608,2.19251487 30.281608,2.19251487 Z M21.1810466,40.7712149 C20.7235729,41.6702149 19.9898887,43.6277149 21.158029,45.3242149 C21.158029,45.3242149 21.5780992,46.4175149 24.6250466,46.3218149 C27.6719939,46.2261149 28.0402746,46.2290149 30.1406255,46.2319149 C30.1406255,46.2319149 33.0839939,46.2348149 32.6150115,42.4619149 C32.4999238,41.5339149 32.1920641,40.8611149 31.7978887,40.3623149 C31.5360641,40.0317149 31.2166957,39.7852149 30.9548711,39.6402149 C31.251222,39.2835149 31.2742395,38.9065149 31.2742395,38.2685149 C31.2742395,37.5087149 30.2442045,37.0882149 30.2442045,37.0882149 C30.6671518,37.8538149 30.8052571,39.3734149 30.8225202,39.5735149 C30.8081343,39.5677149 30.7908711,39.5590149 30.7764852,39.5532149 C30.6642746,39.4488149 30.3650466,39.1646149 30.1003448,38.8978149 C29.7694676,38.5643149 29.9162045,37.5986149 29.9162045,37.5986149 C29.6140992,37.9321149 29.5997132,37.8132149 29.5997132,37.8132149 L28.9523448,36.8968149 C28.9523448,36.8968149 29.208415,38.6716149 28.8689062,39.1269149 C28.7538185,38.9877149 28.627222,39.0051149 28.2330466,38.5498149 C27.8417483,38.0945149 28.135222,37.6856149 28.135222,37.6856149 C28.135222,37.6856149 27.7525553,38.0191149 27.5712922,38.0510149 C27.390029,38.0800149 26.7886957,37.7175149 26.7886957,37.7175149 C27.6029413,38.5991149 27.0217483,39.5474149 27.0217483,39.5474149 C27.0217483,39.5474149 26.3283448,38.9732149 26.2103799,38.6687149 C26.0895378,38.3671149 26.0809062,37.4362149 26.0809062,37.4362149 C25.5975378,38.1989149 24.840836,38.4222149 24.4811869,38.5150149 C24.1186606,38.6049149 21.247222,38.4802149 20.4646255,38.5121149 C19.8057483,38.5382149 21.4457483,40.2550149 21.4457483,40.2550149 L21.6413974,40.0491149 C21.6413974,40.0491149 21.8658185,39.7794149 22.127643,39.5880149 C22.3894676,39.3995149 23.9719238,39.2864149 24.6279238,39.1704149 C25.2868009,39.0573149 25.1544501,38.8108149 25.4939588,38.9616149 C25.8334676,39.1124149 26.9987308,40.3072149 26.9987308,40.3072149 L27.6374676,38.6571149 C28.031643,38.7905149 28.8027308,39.7765149 28.8976781,39.6982149 C28.9926255,39.6228149 29.6486255,38.7876149 29.6486255,38.7876149 L30.5348009,39.6199149 C30.5578185,39.6489149 30.5865904,39.6779149 30.6268711,39.7156149 C31.5590816,40.5740149 32.6840641,42.0327149 31.7777483,43.5291149 C30.356415,45.8723149 29.1364852,44.9037149 27.4015378,45.2343149 C25.6665904,45.5678149 22.6714325,45.7853149 21.6874325,44.8138149 C20.8962045,44.0337149 20.9738887,41.8471149 21.2414676,40.8031149 C21.3047659,40.5566149 21.3392922,40.4609149 21.1810466,40.7712149 Z M13.7377483,20.4219149 C14.7159939,20.0420149 15.0411167,18.6326149 15.0411167,18.6326149 C15.2310115,17.0231149 14.3390816,16.8578149 14.3390816,16.8578149 C14.7390115,18.4934149 14.0542395,19.3199149 13.5449764,19.4098149 C13.0385904,19.4997149 12.9148711,18.7747149 13.3464501,18.2237149 C13.6370466,17.8525149 13.8470816,18.1744149 13.8470816,18.1744149 C13.4845553,18.1744149 13.450029,18.4209149 13.450029,18.4209149 C13.2428711,18.9313149 13.6571869,18.8994149 13.6571869,18.8994149 C14.2901694,18.7080149 14.3966255,17.5248149 13.7952922,17.5451149 C13.4155027,17.5567149 12.8199238,17.8380149 12.6530466,19.2184149 C12.5667308,19.9724149 12.7595027,20.8018149 13.7377483,20.4219149 Z M2.42462551,39.1095149 C3.25325708,39.2661149 2.6317834,38.9529149 3.77115182,36.9693149 C4.91052024,34.9828149 2.47641498,34.1505149 1.69669568,35.8209149 C0.919853576,37.4913149 2.26637989,37.0737149 2.52532726,36.4473149 C2.52532726,36.4473149 1.90385358,36.7083149 2.059222,35.9775149 C2.21459042,35.2467149 3.56111673,35.4555149 2.57711673,36.9171149 C1.59311673,38.3787149 1.12701147,37.6479149 1.23059042,36.4995149 C1.33416937,35.3511149 2.20308165,34.7218149 2.8763448,34.1476149 C3.50932726,33.6053149 4.66020445,33.3704149 4.79543252,33.3269149 C4.79543252,33.3269149 5.81683603,32.8977149 6.3635027,32.7440149 C6.91016937,32.5932149 10.5009062,32.0248149 10.3512922,33.8431149 C10.2016781,35.6614149 6.74041498,36.2675149 6.74041498,36.2675149 C6.74041498,36.2675149 9.74995884,36.1167149 10.3512922,37.6334149 C10.9526255,39.1501149 7.49423954,40.2115149 7.34174831,41.1221149 C7.15760796,42.1255149 7.03964305,42.7896149 7.03964305,42.7896149 C7.03964305,42.7896149 9.29536235,41.8790149 10.6505202,42.0327149 C11.4705202,42.0849149 11.5539588,42.1835149 11.5539588,42.1835149 C11.5539588,42.1835149 12.6472922,42.5141149 13.9449062,42.4416149 C15.179222,42.3720149 15.9330466,42.0820149 15.7086255,41.3570149 C15.6971167,41.3193149 15.6827308,41.2816149 15.6654676,41.2410149 C15.2108711,40.1680149 14.2527659,39.9273149 12.8170466,36.8301149 C12.1063799,35.2960149 12.2732571,32.2249149 8.63360796,32.1524149 C8.25669568,32.1437149 8.06104656,28.2142149 10.9842746,23.3886149 C11.4302395,22.5592149 10.1872922,23.3422149 8.6997834,25.7579149 C7.20939744,28.1765149 5.61255533,31.2621149 5.08602901,32.0973149 C4.5595027,32.9325149 4.5595027,32.9325149 4.5595027,32.9325149 C4.5595027,32.9325149 1.90673077,33.9388149 1.02630972,36.1863149 C0.145888664,38.4309149 1.59599393,38.9529149 2.42462551,39.1095149 Z M16.2581694,44.4194149 C16.2581694,44.4194149 16.6667308,44.9327149 16.7846957,45.7447149 C16.7846957,45.7447149 16.9026606,44.5731149 16.6724852,44.0772149 C16.3933974,43.4798149 15.9445553,43.3638149 15.9445553,43.3638149 C15.9445553,43.3638149 16.2811869,43.5755149 16.4480641,44.2048149 C16.2121343,43.9757149 15.7690466,43.8365149 15.7690466,43.8365149 C16.0020992,44.2483149 15.7863097,44.5876149 15.7863097,44.5876149 L15.521608,44.2860149 C15.3518536,44.1323149 14.8080641,43.8046149 14.8080641,43.8046149 C14.8857483,44.0685149 14.6613273,44.2976149 14.6613273,44.2976149 C14.3218185,44.5905149 14.270029,44.4542149 14.270029,44.4542149 C14.2326255,44.2570149 14.1434325,44.0163149 13.9679238,43.7727149 C14.0858887,44.0076149 13.852836,44.3092149 13.852836,44.3092149 C13.7463799,44.0946149 12.943643,43.6132149 12.943643,43.6132149 C12.9148711,44.2773149 12.1495378,44.5731149 12.1495378,44.5731149 C12.1869413,44.4542149 11.4877834,43.7292149 11.4877834,43.7292149 C11.556836,44.2570149 11.3813273,44.5238149 11.3813273,44.5238149 L11.1799238,44.4542149 C10.8289062,44.3034149 10.0319238,43.6567149 10.0319238,43.6567149 C9.72981849,44.1120149 8.01501147,44.6891149 8.01501147,44.6891149 L8.59045007,45.5736149 C8.94146761,45.9274149 5.34497638,45.6983149 4.04160796,45.7476149 C2.73823954,45.7969149 2.3440641,45.7157149 2.4677834,45.0806149 C2.58862551,44.4455149 3.47767814,44.3092149 3.47767814,44.3092149 C3.47767814,44.3092149 2.64041498,44.6079149 2.86483603,45.2169149 C3.08925708,45.8230149 4.14230972,44.8747149 4.10490621,44.1178149 C4.03585358,42.7258149 1.18455533,44.9037149 2.01030972,45.7360149 C2.01030972,45.7360149 2.47353779,46.1072149 3.69059042,46.0869149 C5.34497638,46.0608149 9.21192375,46.0724149 9.63199393,46.0492149 C10.0520641,46.0260149 8.89255533,45.0632149 8.89255533,45.0632149 C8.89255533,45.0632149 9.8880641,44.7587149 10.2218185,44.4310149 C10.6361343,44.9907149 10.348415,46.0086149 10.348415,46.0086149 C10.348415,46.0086149 10.9583799,45.5359149 11.0245553,45.0603149 C11.7783799,45.1560149 12.9810466,44.6427149 13.0558536,44.1874149 C13.5219588,44.8950149 13.3953623,45.9680149 13.3953623,45.9680149 C13.3953623,45.9680149 13.8096781,45.4257149 13.8096781,44.8573149 C14.0743799,44.8080149 14.7505202,44.8080149 15.0871518,44.2657149 C15.3115729,44.4078149 15.6884852,45.0603149 15.4640641,45.8201149 C15.4669413,45.8201149 16.1056781,44.9501149 16.2581694,44.4194149 Z M10.8231518,31.3520149 C10.900836,32.4888149 11.6546606,32.8977149 12.0056781,33.0282149 C11.9538887,33.2863149 11.9366255,33.7822149 12.3423097,34.3245149 C13.0098185,35.2148149 13.7837834,35.3076149 14.0024501,35.3163149 C14.0254676,35.3946149 14.0542395,35.4700149 14.1031518,35.5744149 C14.8713623,37.1926149 19.6849062,38.3700149 19.9035729,38.4251149 C19.9035729,38.4251149 20.0157834,38.4483149 20.0790816,38.3845149 C20.1423799,38.3207149 20.1078536,38.2134149 20.1078536,38.2134149 C19.9553623,37.6711149 19.696415,37.0911149 18.9713623,36.8881149 C18.6491167,36.7779149 18.1801343,36.6532149 17.6852571,36.5227149 C16.6120641,36.2414149 15.1389413,35.8557149 14.8771167,35.4787149 C14.5635027,35.0234149 14.5318536,34.6029149 14.7908009,34.3564149 C14.8713623,34.2781149 14.9720641,34.2317149 15.0641343,34.2317149 C15.1159238,34.2317149 15.2079939,34.2462149 15.2482746,34.3738149 C15.3460992,34.5797149 15.2281343,34.7653149 15.0785202,34.9712149 C14.9864501,35.0988149 14.8972571,35.2177149 14.9634325,35.3511149 C15.029608,35.4816149 15.1849764,35.4845149 15.2770466,35.4816149 C15.8380992,35.4642149 16.0711518,35.0727149 16.1171869,34.8668149 C16.2322746,34.3535149 16.0970466,34.0403149 15.9618185,33.8692149 C15.7863097,33.6459149 15.507222,33.5241149 15.1820992,33.5241149 C14.7994325,33.5241149 14.4138887,33.7010149 14.1750816,33.9881149 C14.0484852,34.1389149 13.9103799,34.3796149 13.9103799,34.7276149 C13.2313623,34.5159149 12.868836,34.1476149 12.6818185,33.4951149 C12.6070115,33.2399149 12.6990816,33.0427149 12.7853974,32.9238149 C12.9465202,32.7063149 13.2515027,32.5903149 13.3924852,32.6889149 C13.5305904,32.7875149 13.5507308,32.9992149 13.5018185,33.1616149 C13.4701694,33.2602149 13.4212571,33.3211149 13.3838536,33.3124149 C13.3378185,33.3008149 13.3176781,33.2457149 13.2946606,33.1413149 C13.2802746,33.0775149 13.2486255,32.9238149 13.0961343,32.9238149 C12.972415,32.9238149 12.9119939,33.0369149 12.8602045,33.1355149 C12.7825202,33.3298149 12.808415,33.5444149 12.9263799,33.7213149 C13.0529764,33.9069149 13.2658887,34.0229149 13.4874325,34.0229149 L13.524836,34.0229149 C13.8931167,34.0229149 14.1865904,33.7706149 14.2930466,33.3675149 C14.4023799,32.9470149 14.2901694,32.3902149 13.8614676,32.1466149 C13.6859588,32.0480149 13.5046957,31.9958149 13.3205553,31.9958149 C12.9810466,31.9958149 12.7278536,32.1669149 12.6242746,32.2510149 C12.6070115,32.2539149 12.5926255,32.2539149 12.5753623,32.2568149 C12.3969764,32.2771149 12.2214676,32.3409149 11.7870115,31.9668149 C11.3813273,31.6188149 11.3122746,31.1896149 11.5597132,30.5342149 C11.7755027,29.9658149 12.3192922,29.6613149 12.644415,29.6613149 L12.644415,29.6613149 C12.7163448,29.6642149 12.8458185,29.7454149 12.9033623,29.8962149 C12.9695378,30.0760149 12.897608,30.2790149 12.6962045,30.4704149 C12.5293273,30.6357149 12.4573974,30.6386149 12.451643,30.6415149 C12.4142395,30.6212149 12.3739588,30.4733149 12.3595729,30.4182149 C12.3279238,30.3022149 12.2847659,30.1427149 12.1265202,30.1427149 C11.9855378,30.1427149 11.9222395,30.2819149 11.884836,30.3631149 C11.6748009,30.8532149 11.6517834,31.2795149 11.8215378,31.5376149 C11.8934676,31.6449149 12.0286957,31.7754149 12.2847659,31.7754149 C12.4717834,31.7754149 12.6933273,31.7029149 12.943643,31.5637149 C13.5507308,31.2215149 13.9333974,30.4994149 13.8499588,29.8440149 C13.792415,29.3858149 13.5104501,29.0610149 13.0731167,28.9479149 C12.5264501,28.8058149 11.9251167,29.0175149 11.4705202,29.5076149 C11.0101694,29.9890149 10.7742395,30.6647149 10.8231518,31.3520149 Z M13.4586606,15.7761149 C13.4816781,15.9211149 13.9190115,15.9472149 13.5795027,15.2889149 C13.2399939,14.6306149 13.0961343,15.3382149 13.1277834,15.6688149 C13.1594325,16.0023149 13.4327659,17.0434149 14.0369764,16.9216149 C14.5750115,16.8114149 14.7706606,16.1850149 14.8080641,16.0487149 C14.9432922,16.3474149 15.2799238,16.8259149 16.0193623,16.6548149 C17.0292571,16.5417149 17.1558536,17.4059149 16.8451167,17.9105149 C16.5401343,18.4064149 15.7690466,18.6384149 15.6798536,18.1280149 C15.5992922,17.6437149 16.0308711,17.4262149 16.0308711,17.4262149 C15.8726255,17.5190149 15.7719238,17.9134149 16.0682746,17.9192149 C16.387643,17.9250149 16.5717834,17.4436149 16.5315027,17.1623149 C16.5084852,17.0086149 16.3013273,17.0086149 16.3013273,17.0086149 C15.3000641,17.0260149 14.8397132,18.2875149 15.2022395,18.8675149 C15.5043448,19.3489149 16.2926957,19.2474149 16.7070115,19.0183149 C17.1213273,18.7921149 18.3527659,18.2295149 18.1571167,17.0376149 C18.1427308,16.9651149 18.1225904,16.9013149 18.0966957,16.8404149 C18.3038536,16.9448149 18.5397834,16.9796149 18.7814676,16.9274149 C18.7785904,16.9303149 18.7757132,16.9332149 18.7699588,16.9361149 C18.3901694,17.3653149 18.4189413,18.2266149 18.9540992,18.7080149 C19.2734676,19.0444149 19.8805553,19.1604149 20.323643,19.1053149 C20.7753623,19.0531149 21.5953623,18.3716149 23.0310816,18.2991149 C25.0623799,18.1947149 26.9469413,20.4799149 26.9469413,20.4799149 C26.898029,19.6621149 27.5051167,19.8303149 27.867643,19.7433149 C27.867643,19.7433149 27.3468711,19.7085149 26.673608,19.1285149 C26.3283448,18.8327149 24.7717834,16.6316149 23.111643,16.1270149 C22.4585202,15.7181149 22.2398536,14.3754149 22.1708009,13.3285149 C22.1218887,12.5832149 22.0758536,12.5890149 22.0614676,13.3285149 C22.0499588,13.9984149 22.1218887,15.5528149 22.7606255,16.2894149 C22.9735378,16.4895149 23.1778185,17.0405149 23.1778185,17.0405149 C23.1778185,17.0405149 22.6973273,16.9187149 21.9377483,17.1362149 C21.1781694,17.3508149 21.3651869,17.8612149 20.5653273,18.4267149 C20.1164852,18.7428149 19.8201343,18.5978149 19.5640641,18.4499149 C19.3079939,18.3049149 18.9627308,17.9221149 19.2562045,17.3044149 C19.5583097,16.6722149 20.2229413,16.8346149 20.1251167,17.1130149 C20.024415,17.3914149 19.9380992,17.2638149 19.9380992,17.2638149 C19.9380992,17.2638149 20.0071518,17.1130149 19.9035729,17.0724149 C19.7999939,17.0318149 19.4374676,17.1768149 19.5237834,17.5480149 C19.6100992,17.9192149 19.995643,17.8728149 20.1769062,17.7800149 C20.3610466,17.6872149 20.8530466,17.2870149 20.5049062,16.7969149 C20.4617483,16.7360149 20.4099588,16.6838149 20.3495378,16.6432149 C21.1493974,15.8921149 22.2599939,15.8051149 22.2599939,15.8051149 C21.4975378,15.4571149 20.7897483,16.1908149 19.9150816,16.2778149 C17.9384501,16.7331149 18.027643,15.4716149 18.4131869,15.0946149 C18.801608,14.7176149 19.1871518,15.1091149 19.1612571,15.3179149 C19.1324852,15.5296149 18.9684852,15.4310149 18.9684852,15.4310149 C19.0778185,15.1120149 18.8159939,15.1120149 18.8159939,15.1120149 C18.6635027,15.0830149 18.4793623,15.2715149 18.4620992,15.4977149 C18.444836,15.7239149 18.7009062,16.1096149 19.0778185,15.9530149 C19.5295378,15.7645149 19.6417483,15.1961149 19.3770466,14.7669149 C19.5669413,14.7002149 19.8115027,14.5320149 20.1567659,14.3580149 C20.6832922,14.0912149 21.635643,14.4363149 21.635643,14.4363149 C21.1609062,13.8882149 20.1423799,13.8041149 19.6906606,14.0303149 C18.6893974,14.5581149 17.8722746,14.2478149 17.7226606,13.3372149 C17.5730466,12.4266149 18.3613974,12.5020149 18.5886957,12.6557149 C18.8159939,12.8065149 18.7009062,13.1110149 18.5138887,13.1864149 C18.3268711,13.2618149 18.4016781,12.8442149 18.4016781,12.8442149 C18.4016781,12.8442149 17.7859588,12.7485149 17.9499588,13.4126149 C18.1427308,14.1985149 19.040415,13.8302149 19.040415,13.8302149 C19.7366957,13.5344149 19.6388711,12.8616149 19.2159238,12.4295149 C19.4374676,12.3976149 19.8776781,12.3077149 20.4358536,12.3222149 C21.1868009,12.3425149 21.7852571,12.9573149 21.7852571,12.9573149 C21.6730466,12.4469149 21.0630816,12.1482149 20.7264501,12.0728149 C20.3869413,11.9974149 19.9409764,12.0206149 19.4863799,12.0090149 C18.056415,12.1163149 17.7082746,11.2608149 17.7082746,11.2608149 C17.2939588,10.2574149 17.967222,9.75281487 18.4563448,10.0167149 C18.9454676,10.2835149 18.5311518,10.8316149 18.3067308,10.8316149 C18.0794325,10.8316149 17.9125553,10.5648149 17.9125553,10.5648149 C17.9125553,11.3594149 18.4966255,11.5682149 18.7958536,11.6059149 C19.0979588,11.6436149 19.8115027,11.5856149 19.9064501,10.6953149 C19.9150816,10.6228149 19.9150816,10.5503149 19.9093273,10.4807149 C20.0445553,10.4836149 20.3006255,10.4981149 20.6458887,10.5677149 C21.2443448,10.6895149 21.9463799,11.2811149 21.9463799,11.2811149 C21.1522746,10.1965149 20.7350816,10.2748149 20.0675729,9.91231487 C19.5870816,9.65131487 19.3252571,9.36711487 19.1698887,8.85671487 C19.0548009,8.47681487 19.1986606,7.82721487 19.7654676,7.63001487 C20.3322746,7.42991487 20.8818185,8.17231487 20.3207659,8.65371487 C19.9726255,8.95241487 19.339643,8.60151487 19.6791518,8.60151487 C20.0186606,8.60151487 20.0531869,8.37241487 20.0474325,8.28831487 C20.0186606,7.91421487 19.2820992,7.88811487 19.2820992,8.57251487 C19.2820992,9.25691487 20.0877132,9.52081487 20.5566957,9.28591487 C20.8904501,9.11771487 21.0371869,8.91761487 21.0889764,8.65081487 C21.2126957,8.79871487 21.322029,8.85671487 21.322029,8.85671487 C22.5879939,9.74121487 22.8210466,10.2951149 22.8210466,10.2951149 C22.5131869,9.28011487 22.1966957,9.01911487 21.5522045,8.41301487 C20.9077132,7.80691487 21.0717132,6.96591487 21.425608,6.60921487 C21.903222,6.13071487 22.3117834,6.46421487 22.3117834,6.46421487 C22.9677834,7.10511487 21.8025202,7.37191487 21.917608,7.25881487 C22.0298185,7.14281487 22.1449062,6.85861487 21.917608,6.82961487 C21.3824501,6.76291487 21.4428711,7.27331487 21.486029,7.46761487 C21.5320641,7.66191487 21.6126255,7.80691487 21.903222,7.96351487 C22.2197132,8.13461487 22.9821694,7.92871487 23.1778185,7.14571487 C23.3331869,6.53091487 23.0713623,6.00891487 22.6455378,5.72471487 C23.0598536,5.48981487 23.0598536,4.69521487 23.0109413,4.46901487 C22.9361343,4.94751487 21.978029,5.48111487 21.4054676,5.60581487 C19.9755027,5.91611487 19.9582395,4.81411487 19.9582395,4.81411487 C19.9582395,3.95571487 20.815643,3.17271487 21.575222,3.39311487 C22.156415,3.62221487 21.5176781,4.70101487 20.7839939,4.34141487 C20.6315027,4.26601487 20.6315027,4.16451487 20.6315027,4.16451487 C20.6315027,4.16451487 20.6458887,4.21381487 20.8645553,4.23411487 C21.4169764,4.17611487 21.5924852,3.54681487 21.008415,3.65991487 C20.427222,3.77301487 20.0416781,4.66041487 20.8271518,5.15051487 C21.6126255,5.64351487 23.4741694,4.27181487 22.470029,3.34381487 C21.4658887,2.41581487 19.5611869,3.62221487 19.4604852,4.79091487 C19.354029,6.02631487 20.4790115,6.47291487 20.9307308,6.60341487 C20.919222,6.63241487 20.904836,6.65851487 20.8933273,6.68461487 C20.8271518,6.82671487 20.7782395,6.96881487 20.7465904,7.11961487 C20.2402045,6.67301487 19.2245553,6.64401487 18.8533974,7.54011487 C18.5167659,8.36081487 18.6462395,8.83641487 18.8908009,9.15541487 C18.7526957,9.10321487 18.608836,9.06841487 18.4649764,9.06261487 C17.7312922,9.02491487 16.968836,9.96161487 16.9860992,10.7765149 C16.997608,11.3159149 17.2623097,11.8118149 17.6018185,12.0409149 C17.3342395,12.1540149 17.1040641,12.3860149 16.997608,12.7949149 C16.8451167,13.3720149 17.4349413,14.2623149 17.8866606,14.5349149 C17.5298887,14.8568149 17.3227308,15.4165149 17.4119238,15.8921149 C17.4435729,16.0661149 17.5097483,16.2256149 17.5931869,16.3677149 C17.311222,16.2662149 16.9630816,16.2807149 16.6293273,16.3706149 C17.2249062,15.9588149 17.3025904,15.3846149 17.296836,14.7292149 C17.296836,14.7292149 17.1903799,13.4155149 16.1948711,13.2531149 C15.1993623,13.0907149 14.9519238,14.1840149 14.9461694,14.6190149 C14.940415,14.9061149 15.0871518,15.4397149 15.4295378,15.4687149 C15.7719238,15.4977149 16.2725553,14.9148149 16.0078536,14.2855149 C15.7431518,13.6562149 15.2051167,14.2072149 15.3173273,14.5407149 C15.3173273,14.5407149 15.5158536,14.4305149 15.5043448,14.5726149 C15.4957132,14.7147149 15.3230816,14.9815149 15.1619588,14.8220149 C15.000836,14.6596149 15.0986606,13.9897149 15.4755729,13.8476149 C15.9186606,13.6823149 16.2610466,14.1057149 16.2984501,14.4015149 C16.3358536,14.6973149 16.4595729,15.7964149 15.6798536,16.1096149 C15.1964852,16.2952149 14.8713623,16.1299149 14.7217483,15.8370149 C14.4714325,15.1903149 14.6296781,14.3522149 14.6296781,14.0622149 C14.6296781,13.7461149 13.8557132,13.6243149 13.8557132,13.6243149 C13.8557132,13.6243149 13.3234325,13.7374149 13.1738185,14.5233149 C13.4730466,14.4131149 13.7233623,14.4885149 13.956415,14.9235149 C14.1894676,15.3556149 14.0024501,16.3996149 13.6312922,16.2604149 C13.271643,16.1212149 13.4327659,15.6282149 13.4586606,15.7761149 Z M0.873818488,46.2261149 L0.873818488,55.4916149 L27.3641343,57.4201149 L27.3324852,48.8303149 L41.7731167,47.8037149 L41.8508009,54.3316149 L32.6409062,56.7212149 L42.9959238,55.3002149 L43.298029,46.3537149 L27.3497483,47.0381149 L0.873818488,46.2261149 Z M2.37859042,43.5465149 C3.68195884,43.3435149 3.48343252,42.5373149 3.48343252,42.5373149 C3.05760796,39.6808149 1.17592375,39.1008149 1.17592375,39.1008149 C1.17592375,39.1008149 2.40160796,41.5687149 2.22609919,42.2357149 C1.98729217,43.1405149 1.13852024,42.3546149 1.02343252,41.9428149 C0.905467611,41.5339149 1.02343252,41.4730149 1.02343252,41.4730149 C1.68230972,42.6069149 1.77725708,42.0327149 1.77725708,42.0327149 C1.77725708,42.0327149 1.47515182,40.9191149 0.574590418,40.7161149 C-0.328848179,40.5131149 1.075222,43.7495149 2.37859042,43.5465149 Z M20.4818887,1.20071487 C20.2574676,1.35151487 19.503643,2.41291487 19.503643,2.41291487 C19.503643,2.41291487 21.008415,2.03301487 22.0988711,1.20071487 C22.0988711,1.20071487 20.7091869,1.04991487 20.4818887,1.20071487 Z M27.3785202,3.18141487 C27.896415,3.39601487 28.9955027,3.45401487 28.8602746,2.81891487 C28.7279238,2.18381487 28.3682746,1.73431487 27.6489764,1.89091487 C27.1109413,2.02721487 27.985608,2.29981487 27.985608,2.29981487 C27.985608,2.29981487 28.5466606,2.43611487 28.4574676,2.18671487 C28.4574676,2.18671487 28.9206957,2.89721487 27.5597834,2.33751487 C27.5597834,2.33751487 26.7369062,1.91991487 27.3555027,1.70531487 C27.6518536,1.60671487 28.299222,1.84741487 28.299222,1.84741487 C28.299222,1.84741487 27.1483448,1.09341487 26.3513623,1.94021487 C26.078029,2.46801487 26.8606255,2.96681487 27.3785202,3.18141487 Z M14.7159939,11.8727149 C14.7361343,11.8350149 14.7505202,11.7973149 14.7649062,11.7596149 C14.8943799,12.3541149 15.2166255,12.7862149 15.5705202,12.7630149 C16.3732571,12.7137149 17.2997132,11.9046149 17.2997132,11.9046149 C16.8997834,12.0322149 16.238029,12.4208149 15.4698185,12.1221149 C14.6642045,11.8089149 14.8684852,10.4633149 15.268415,10.0080149 C15.5158536,9.72671487 16.0222395,9.60491487 16.1459588,10.0573149 C16.2725553,10.5126149 15.746029,10.6402149 15.746029,10.6402149 C15.9704501,10.0341149 15.4439238,10.1327149 15.4439238,10.1327149 C14.8166957,10.4401149 14.9145202,11.6001149 15.8697483,11.3246149 C16.8220992,11.0462149 17.2738185,10.2371149 16.9717132,9.40481487 C16.669608,8.56961487 15.567643,9.27721487 15.567643,9.27721487 C15.3230816,9.48601487 15.1418185,9.72381487 15.0065904,9.97611487 C14.6383097,10.1878149 14.4656781,10.4720149 14.3218185,10.9157149 C14.3218185,10.9157149 13.7435027,11.5102149 13.9880641,10.7185149 C14.2297483,9.92681487 14.1865904,10.2284149 14.8397132,9.52371487 C15.492836,8.81901487 15.2310115,8.81321487 15.2310115,8.81321487 C15.2310115,8.81321487 13.8902395,9.99641487 13.7693974,10.3734149 C13.6485553,10.7504149 13.6082746,12.6064149 13.6456781,12.7224149 C13.6773273,12.8355149 14.3620992,12.5861149 14.7159939,11.8727149 Z M26.8692571,1.31381487 C26.9239238,1.16301487 26.6764852,0.641014866 25.7730466,0.585914866 C24.869608,0.530814866 24.4495378,0.878814866 23.9863097,0.878814866 C23.9863097,0.878814866 24.6336781,1.19201487 25.019222,1.36891487 C25.4479238,1.56321487 26.8174676,1.46461487 26.8692571,1.31381487 Z M21.5406957,1.80971487 C21.4371167,1.92861487 21.1896781,2.34911487 21.3277834,2.65651487 C21.4140992,2.85371487 21.635643,2.95231487 21.9837834,2.95231487 C22.1190115,2.95231487 22.2743799,2.93781487 22.4470115,2.90591487 C23.0540992,2.80151487 23.4626606,2.56951487 23.6611869,2.21861487 C23.9057483,1.78941487 23.6698185,1.17751487 23.6698185,1.17751487 C23.6755729,1.23841487 23.6726957,1.34861487 23.6439238,1.47911487 C23.6065202,1.64441487 23.5259588,1.83581487 23.3619588,1.99531487 C23.065608,2.27951487 22.3290466,2.49701487 21.9118536,2.49701487 C21.7795027,2.49701487 21.6874325,2.46801487 21.6442746,2.41291487 C21.6155027,2.37521487 21.6097483,2.32011487 21.6241343,2.25051487 C21.724836,1.80391487 22.3722045,1.41241487 22.7117132,1.41241487 C22.7778887,1.41241487 22.8268009,1.42691487 22.8555729,1.45591487 C22.8699588,1.47041487 22.8900992,1.49361487 22.8843448,1.51391487 C22.8699588,1.58061487 22.6628009,1.65021487 22.5275729,1.69661487 C22.455643,1.71691487 22.3865904,1.74011487 22.3348009,1.76331487 C22.1592922,1.83871487 21.9866606,2.00401487 22.0125553,2.12291487 C22.0211869,2.16061487 22.052836,2.22151487 22.1823097,2.22151487 C22.2772571,2.22151487 22.4153623,2.18961487 22.5879939,2.12291487 C23.0483448,1.95181487 23.2957834,1.76041487 23.3274325,1.55161487 C23.3533273,1.36311487 23.1922045,1.24131487 23.1806957,1.23261487 C23.0713623,1.17171487 22.947643,1.13981487 22.812415,1.13981487 C22.3002746,1.14271487 21.724836,1.60091487 21.5406957,1.80971487 Z M15.3489764,8.17811487 C15.3489764,8.80161487 15.8323448,8.54931487 16.2754325,8.14041487 C16.4336781,7.99251487 16.6120641,7.71411487 16.7760641,7.39801487 C16.7760641,7.41831487 16.7703097,7.43571487 16.7703097,7.45601487 C16.7213974,9.17281487 18.5253974,8.46521487 18.5253974,8.46521487 C16.730029,8.53771487 16.7760641,7.34001487 17.2623097,6.64401487 C17.6881343,6.03501487 18.5369062,5.89291487 18.6865202,6.31051487 C18.8361343,6.73681487 18.473608,7.15151487 18.2980992,7.17761487 C17.9298185,7.22981487 18.1743799,6.69621487 18.1743799,6.69621487 C18.1743799,6.24091487 17.2709413,6.49321487 17.222029,7.30231487 C17.1702395,8.11141487 17.8003448,8.07081487 18.1024501,7.97221487 C19.0173974,7.49951487 19.2504501,6.23801487 18.8275027,5.78851487 C18.6174676,5.56521487 17.8521343,5.61161487 17.3169764,6.12491487 C17.3457483,6.03211487 17.3687659,5.95671487 17.3802746,5.89871487 C17.4579588,5.51011487 17.7485553,4.90401487 16.6638536,5.43181487 C15.7373974,5.88131487 15.5762746,6.34531487 15.6453273,6.24961487 C15.6108009,6.35691487 15.5849062,6.57151487 15.6769764,6.99201487 C15.731643,7.27911487 16.0251167,6.79771487 16.0653974,6.44681487 C16.0941694,6.16841487 16.0452571,7.57781487 15.7575378,7.90841487 C15.4669413,8.23901487 15.6999939,7.22691487 15.6999939,7.22691487 C15.6999939,7.22691487 15.3489764,7.55461487 15.3489764,8.17811487 Z M17.8693974,3.99631487 C17.9125553,3.94991487 17.9585904,3.89191487 18.0075027,3.82521487 C17.9298185,4.28921487 18.1139588,4.72711487 18.4563448,4.77931487 C19.2101694,4.89531487 19.4777483,4.27761487 19.4777483,4.27761487 C19.6935378,3.81651487 19.7798536,3.18721487 19.7798536,3.18721487 C19.2101694,4.42551487 18.3441343,4.14421487 18.3441343,4.14421487 C17.878029,3.82231487 18.4477132,3.25681487 18.4477132,3.25681487 C18.5858185,3.16111487 18.8706606,3.09151487 18.862029,3.40471487 C18.8188711,3.30031487 18.534029,3.28291487 18.4477132,3.56131487 C18.3613974,3.83971487 18.5886957,3.90061487 18.5886957,3.90061487 C18.7900992,3.90061487 19.1929062,3.69761487 19.3252571,3.22491487 C19.4374676,2.82471487 19.0231518,2.61881487 18.5685553,2.93491487 C18.6750115,2.75511487 18.7642045,2.60721487 18.8131167,2.54341487 C18.8131167,2.54341487 17.8348711,2.90881487 17.5011167,3.29451487 C17.1644852,3.68021487 17.0868009,4.63431487 16.9803448,4.86341487 C16.879643,5.08961487 17.5701694,4.31821487 17.8693974,3.99631487 Z M47.2599238,40.9916149 L47.2599238,44.8863149 C47.2599238,44.8863149 69.7077834,41.4382149 99.967222,41.4382149 C130.226661,41.4382149 163.325889,45.3764149 163.325889,45.3764149 L163.325889,40.9887149 L47.2599238,40.9887149 L47.2599238,40.9916149 Z" id="形状" fill="#FF2828"></path>
                </g>
            </g>
        </g>
    </g>
</svg>