<?xml version="1.0" encoding="UTF-8"?>
<svg width="50px" height="50px" viewBox="0 0 50 50" version="1.1" xmlns="http://www.w3.org/2000/svg" xmlns:xlink="http://www.w3.org/1999/xlink">
    <title>音乐</title>
    <g id="页面-1" stroke="none" stroke-width="1" fill="none" fill-rule="evenodd">
        <g id="2" transform="translate(-650, -238)">
            <g id="H5底图" transform="translate(0, 188)">
                <g id="音乐" transform="translate(650, 50)">
                    <rect id="矩形" fill="#000000" fill-rule="nonzero" opacity="0" x="0" y="0" width="50" height="50"></rect>
                    <circle id="椭圆形" fill-opacity="0.560478584" fill="#FFFFFF" cx="25" cy="25" r="18.36"></circle>
                    <path d="M25,49.3 C11.608,49.3 0.7,38.392 0.7,25 C0.7,11.608 11.608,0.7 25,0.7 C38.392,0.7 49.3,11.608 49.3,25 C49.3,25.918 48.598,26.62 47.68,26.62 C46.762,26.62 46.06,25.918 46.06,25 C46.06,13.39 36.61,3.94 25,3.94 C13.39,3.94 3.94,13.39 3.94,25 C3.94,36.61 13.39,46.06 25,46.06 C25.918,46.06 26.62,46.762 26.62,47.68 C26.62,48.598 25.918,49.3 25,49.3 Z M25,49.3 C11.608,49.3 0.7,38.392 0.7,25 C0.7,11.608 11.608,0.7 25,0.7 C38.392,0.7 49.3,11.608 49.3,25 C49.3,29.428 48.112,33.694 45.844,37.474 C45.358,38.23 44.386,38.5 43.63,38.014 C42.874,37.528 42.604,36.556 43.09,35.8 C45.034,32.56 46.06,28.78 46.06,25 C46.06,13.39 36.61,3.94 25,3.94 C13.39,3.94 3.94,13.39 3.94,25 C3.94,36.61 13.39,46.06 25,46.06 C29.806,46.06 34.342,44.494 38.068,41.47 C38.392,41.2 38.77,40.876 39.094,40.606 C39.364,40.39 39.58,40.12 39.85,39.904 C40.498,39.256 41.524,39.256 42.118,39.904 C42.766,40.552 42.766,41.578 42.118,42.172 C41.848,42.442 41.578,42.712 41.254,42.982 C40.876,43.306 40.498,43.684 40.066,44.008 C35.8,47.464 30.562,49.3 25,49.3 Z M37.69,16.576 C37.204,16.576 36.718,16.36 36.394,15.982 C34.18,13.174 30.994,11.284 27.43,10.636 C26.566,10.474 25.972,9.664 26.134,8.746 C26.296,7.882 27.106,7.288 28.024,7.45 C32.344,8.206 36.232,10.474 38.932,13.93 C39.472,14.632 39.364,15.658 38.662,16.198 C38.392,16.468 38.068,16.576 37.69,16.576 L37.69,16.576 Z M18.142,39.958 C16.9,39.958 15.658,39.634 14.524,38.986 C12.85,38.014 11.608,36.448 11.122,34.558 C10.636,32.668 10.852,30.724 11.824,29.05 C12.796,27.376 14.362,26.134 16.252,25.648 L20.14,24.622 C22.03,24.136 23.974,24.352 25.648,25.324 C27.322,26.296 28.564,27.862 29.05,29.752 C29.536,31.642 29.32,33.586 28.348,35.26 C27.376,36.934 25.81,38.176 23.92,38.662 L20.032,39.688 C19.438,39.85 18.79,39.958 18.142,39.958 L18.142,39.958 Z M22.03,27.592 C21.652,27.592 21.328,27.646 21.004,27.754 L17.116,28.78 C16.09,29.05 15.226,29.752 14.686,30.67 C14.146,31.588 13.984,32.722 14.308,33.748 C14.578,34.774 15.28,35.638 16.198,36.178 C17.116,36.718 18.25,36.88 19.276,36.556 L23.164,35.53 C24.136,35.26 25,34.558 25.54,33.64 C26.08,32.722 26.242,31.588 25.918,30.562 C25.648,29.536 24.946,28.672 24.028,28.132 C23.434,27.754 22.732,27.592 22.03,27.592 Z M27.7,33.1 C26.782,33.1 26.08,32.398 26.08,31.48 L26.08,9.34 C26.08,8.422 26.782,7.72 27.7,7.72 C28.618,7.72 29.32,8.422 29.32,9.34 L29.32,31.48 C29.32,32.398 28.618,33.1 27.7,33.1 Z" id="形状" fill="#292455" fill-rule="nonzero"></path>
                </g>
            </g>
        </g>
    </g>
</svg>