<?xml version="1.0" encoding="UTF-8"?>
<svg width="464px" height="450px" viewBox="0 0 464 450" version="1.1" xmlns="http://www.w3.org/2000/svg" xmlns:xlink="http://www.w3.org/1999/xlink">
    <title>编组 5</title>
    <defs>
        <linearGradient x1="42.2608607%" y1="-18.5989583%" x2="73.1702122%" y2="92.5344139%" id="linearGradient-1">
            <stop stop-color="#FFFFFF" offset="0%"></stop>
            <stop stop-color="#C2E8FF" offset="100%"></stop>
        </linearGradient>
        <ellipse id="path-2" cx="224.619497" cy="225" rx="224.619497" ry="225"></ellipse>
        <path d="M-5.08495598e-13,43.0957684 C-5.08495598e-13,66.896904 19.2667832,86.1915367 43.0335647,86.1915367 C66.8003462,86.1915367 86.0671294,66.896904 86.0671294,43.0957684 C86.0671294,19.2946327 66.8003462,-2.62700567e-13 43.0335647,-2.62700567e-13 C19.2667832,-2.62700567e-13 -5.08495598e-13,19.2946327 -5.08495598e-13,43.0957684 Z" id="path-4"></path>
        <linearGradient x1="11.0645073%" y1="25.3569685%" x2="59.0850074%" y2="100%" id="linearGradient-6">
            <stop stop-color="#FFF5CD" offset="0%"></stop>
            <stop stop-color="#FFE89E" stop-opacity="0" offset="100%"></stop>
        </linearGradient>
    </defs>
    <g id="页面-1" stroke="none" stroke-width="1" fill="none" fill-rule="evenodd">
        <g id="10" transform="translate(-206, -960)">
            <g id="编组-5" transform="translate(206, 960)">
                <ellipse id="椭圆形" fill="url(#linearGradient-1)" cx="224.619497" cy="225" rx="224.619497" ry="225"></ellipse>
                <path d="M147.647707,199.844516 L151.556033,199.844516 L151.556033,209.927402 C151.556033,210.679856 152.157314,211.43231 153.059235,211.43231 C153.961157,211.43231 154.562437,210.679856 154.562437,209.927402 L154.562437,199.844516 L158.470763,199.844516 C159.372684,199.844516 159.973965,199.242553 159.973965,198.339608 L159.973965,175.465 C159.973965,174.562055 159.372684,173.960092 158.470763,173.960092 L154.562437,173.960092 L154.562437,168.542422 C154.562437,167.639477 153.961157,167.037514 153.059235,167.037514 C152.157314,167.037514 151.556033,167.639477 151.556033,168.542422 L151.556033,173.960092 L147.647707,173.960092 C146.896106,173.960092 146.144505,174.562055 146.144505,175.465 L146.144505,198.339608 C146.144505,199.092062 146.896106,199.844516 147.647707,199.844516 Z M17.0702253,206.868611 L20.978551,206.868611 L20.978551,216.951497 C20.978551,217.703951 21.5798319,218.456405 22.4817533,218.456405 C23.3836746,218.456405 23.9849555,217.703951 23.9849555,216.951497 L23.9849555,206.868611 L27.8932812,206.868611 C28.7952026,206.868611 29.3964835,206.266647 29.3964835,205.363702 L29.3964835,182.489095 C29.3964835,181.58615 28.7952026,180.984187 27.8932812,180.984187 L23.9849555,180.984187 L23.9849555,175.566517 C23.9849555,174.663572 23.3836746,174.061608 22.4817533,174.061608 C21.5798319,174.061608 20.978551,174.663572 20.978551,175.566517 L20.978551,180.984187 L17.0702253,180.984187 C16.3186242,180.984187 15.5670231,181.58615 15.5670231,182.489095 L15.5670231,205.363702 C15.5670231,206.116157 16.3186242,206.868611 17.0702253,206.868611 Z M70.2835837,209.878428 L74.1919095,209.878428 L74.1919095,219.961314 C74.1919095,220.713768 74.7931904,221.466222 75.6951117,221.466222 C76.597033,221.466222 77.1983139,220.713768 77.1983139,219.961314 L77.1983139,209.878428 L81.1066397,209.878428 C82.008561,209.878428 82.6098419,209.276464 82.6098419,208.373519 L82.6098419,185.498912 C82.6098419,184.595967 82.008561,183.994004 81.1066397,183.994004 L77.1983139,183.994004 L77.1983139,178.576333 C77.1983139,177.673388 76.597033,177.071425 75.6951117,177.071425 C74.7931904,177.071425 74.1919095,177.673388 74.1919095,178.576333 L74.1919095,183.994004 L70.2835837,183.994004 C69.5319826,183.994004 68.7803815,184.595967 68.7803815,185.498912 L68.7803815,208.373519 C68.7803815,209.125973 69.5319826,209.878428 70.2835837,209.878428 Z M44.4285056,223.422603 L48.3368314,223.422603 L48.3368314,233.505489 C48.3368314,234.257943 48.9381123,235.010397 49.8400336,235.010397 C50.7419549,235.010397 51.3432358,234.257943 51.3432358,233.505489 L51.3432358,223.422603 L55.2515616,223.422603 C56.1534829,223.422603 56.7547638,222.82064 56.7547638,221.917695 L56.7547638,211.082354 C56.7547638,210.179409 56.1534829,209.577446 55.2515616,209.577446 L51.3432358,209.577446 L51.3432358,204.159776 C51.3432358,203.256831 50.7419549,202.654867 49.8400336,202.654867 C48.9381123,202.654867 48.3368314,203.256831 48.3368314,204.159776 L48.3368314,209.577446 L44.4285056,209.577446 C43.6769045,209.577446 42.9253034,210.179409 42.9253034,211.082354 L42.9253034,221.917695 C42.9253034,222.670149 43.6769045,223.422603 44.4285056,223.422603 Z M178.914313,204.810714 C179.816235,204.810714 180.417516,204.20875 180.417516,203.305805 L180.417516,194.878318 L184.325841,194.878318 C185.227763,194.878318 185.829043,194.276355 185.829043,193.37341 L185.829043,161.920825 C185.829043,161.168371 185.227763,160.415917 184.325841,160.415917 L180.417516,160.415917 L180.417516,149.279595 C180.417516,148.37665 179.816235,147.774686 178.914313,147.774686 C178.012392,147.774686 177.411111,148.37665 177.411111,149.279595 L177.411111,160.415917 L173.502785,160.415917 C172.600864,160.415917 171.999583,161.168371 171.999583,161.920825 L171.999583,193.37341 C171.999583,194.276355 172.600864,194.878318 173.502785,194.878318 L177.411111,194.878318 L177.411111,203.305805 C177.411111,204.058259 178.162712,204.810714 178.914313,204.810714 Z M127.204157,233.403973 C128.106078,233.403973 128.707359,232.802009 128.707359,231.899064 L128.707359,223.471577 L132.615685,223.471577 C133.517606,223.471577 134.118887,222.869614 134.118887,221.966669 L134.118887,190.514084 C134.118887,189.76163 133.517606,189.009176 132.615685,189.009176 L128.707359,189.009176 L128.707359,177.872854 C128.707359,176.969909 128.106078,176.367945 127.204157,176.367945 C126.302236,176.367945 125.700955,176.969909 125.700955,177.872854 L125.700955,189.009176 L121.792629,189.009176 C120.890708,189.009176 120.289427,189.76163 120.289427,190.514084 L120.289427,221.966669 C120.289427,222.869614 120.890708,223.471577 121.792629,223.471577 L125.700955,223.471577 L125.700955,231.899064 C125.700955,232.651518 126.452556,233.403973 127.204157,233.403973 Z M197.854661,141.15309 L197.854661,172.605675 C197.854661,173.50862 198.455942,174.110583 199.357863,174.110583 L203.266189,174.110583 L203.266189,179.979726 C203.266189,180.882671 204.01779,181.484634 204.769391,181.484634 C205.671313,181.484634 206.272594,180.882671 206.272594,179.979726 L206.272594,174.110583 L210.180919,174.110583 C211.082841,174.110583 211.684122,173.50862 211.684122,172.605675 L211.684122,141.15309 C211.684122,140.400635 211.082841,139.648181 210.180919,139.648181 L206.272594,139.648181 L206.272594,128.511859 C206.272594,127.608914 205.671313,127.006951 204.769391,127.006951 C204.01779,127.006951 203.266189,127.608914 203.266189,128.511859 L203.266189,139.648181 L199.357863,139.648181 C198.606262,139.648181 197.854661,140.400635 197.854661,141.15309 Z M94.6354596,169.245902 L94.6354596,200.698487 C94.6354596,201.601432 95.2367405,202.203395 96.1386619,202.203395 L100.046988,202.203395 L100.046988,208.072538 C100.046988,208.975483 100.798589,209.577446 101.55019,209.577446 C102.452111,209.577446 103.053392,208.975483 103.053392,208.072538 L103.053392,202.203395 L106.961718,202.203395 C107.863639,202.203395 108.46492,201.601432 108.46492,200.698487 L108.46492,169.245902 C108.46492,168.493447 107.863639,167.740993 106.961718,167.740993 L103.053392,167.740993 L103.053392,156.604671 C103.053392,155.701726 102.452111,155.099763 101.55019,155.099763 C100.798589,155.099763 100.046988,155.701726 100.046988,156.604671 L100.046988,167.740993 L96.1386619,167.740993 C95.3870608,167.740993 94.6354596,168.493447 94.6354596,169.245902 Z M225.212942,184.042978 L229.121267,184.042978 L229.121267,189.912121 C229.121267,190.815066 229.722548,191.417029 230.62447,191.417029 C231.376071,191.417029 232.127672,190.815066 232.127672,189.912121 L232.127672,184.042978 L236.035998,184.042978 C236.937919,184.042978 237.5392,183.441015 237.5392,182.53807 L237.5392,117.375537 C237.5392,116.623083 236.937919,115.870629 236.035998,115.870629 L232.127672,115.870629 L232.127672,104.734307 C232.127672,103.831362 231.376071,103.229399 230.62447,103.229399 C229.722548,103.229399 229.121267,103.831362 229.121267,104.734307 L229.121267,115.870629 L225.212942,115.870629 C224.31102,115.870629 223.709739,116.623083 223.709739,117.375537 L223.709739,182.53807 C223.709739,183.441015 224.46134,184.042978 225.212942,184.042978 Z" id="形状" fill="#FFFFFF" fill-rule="nonzero" transform="translate(126.5531, 169.1199) scale(-1, 1) translate(-126.5531, -169.1199)"></path>
                <g id="路径">
                    <mask id="mask-3" fill="white">
                        <use xlink:href="#path-2"></use>
                    </mask>
                    <g id="蒙版"></g>
                    <path d="M315.119802,146.403467 C315.798583,146.247758 316.391868,146.587724 316.899659,147.423364 C327.402628,164.686339 337.094687,182.18807 345.975836,199.928554 C350.939746,209.836858 354.942481,219.52717 357.984041,228.999488 C358.709456,231.246893 359.113616,234.262464 359.19652,238.046201 C359.253517,240.563502 359.168022,243.659523 358.940034,247.334263 C358.908945,247.723537 359.118797,248.058312 359.320877,248.354159 L359.103253,248.478727 C358.870084,248.603294 358.740545,248.797931 358.714638,249.062637 C357.502159,262.661253 355.372548,276.02371 352.325806,289.150007 L348.299754,306.075613 C348.247939,305.951045 348.162444,305.893952 348.043268,305.904333 C347.859543,305.912655 347.704109,306.039755 347.662426,306.215751 C347.40594,307.235647 347.584703,308.271115 347.312672,309.283225 C346.574304,311.976997 345.85148,314.686339 344.879942,317.341184 C343.610466,320.792741 342.405759,324.267654 341.265822,327.765924 C340.519681,330.039281 339.159528,332.320422 338.366754,334.749488 L332.669657,346.466616 C330.731763,350.312637 329.413063,352.816962 328.713556,353.979592 C327.656523,355.723537 325.638316,358.676824 322.658934,362.839454 C322.555303,362.917308 322.392085,363.0289 322.169279,363.174229 C321.998288,363.288416 321.850614,363.425959 321.726257,363.586858 C318.233904,368.029765 314.207852,371.821288 309.648102,374.961426 C309.306121,375.19499 309.155856,375.516789 309.197308,375.926824 C309.71028,381.02371 321.70035,445.730847 322.658934,453.962681 C294.419573,468.646072 251.886832,478.175241 220.181026,477.848251 C185.273031,477.490119 110.941621,461.418604 110.806901,461.076043 C111.436458,454.333829 129.33072,382.801391 131.063943,374.237377 C131.188916,373.647467 131.083306,373.029439 130.768596,372.509004 C116.452017,348.786685 102.562916,322.53409 92.4666967,297.215751 C88.1919311,286.502948 84.5000882,275.229592 83.3342431,263.722672 C83.0388956,260.852429 83.1269817,258.091184 83.5985013,255.438935 C85.1141,246.797066 88.1142081,238.046201 91.1998116,229.497758 C92.4692874,225.978727 93.808714,222.514194 95.2180912,219.104159 C104.632938,196.308312 115.058185,173.927689 126.49383,151.962291 C126.611884,151.730808 126.875701,151.611567 127.131159,151.674229 L128.918788,152.125786 L154.186538,160.962291 L156.020801,161.740838 C156.156493,161.798739 156.262903,161.909343 156.315653,162.047312 C156.368402,162.18528 156.362971,162.338789 156.300604,162.472672 C147.694076,180.841184 140.968445,198.249488 136.123711,214.697585 C134.610703,219.830803 133.369726,225.19499 132.400779,230.790146 C131.157211,237.960561 130.566516,246.080803 133.108058,253.002083 C139.771511,271.204506 149.730419,286.406928 162.984783,298.60935 C175.544821,310.183744 190.527227,317.432014 207.931999,320.354159 C207.957907,320.35935 207.978633,320.377516 207.994178,320.408658 C208.014904,320.470942 209.104686,320.42128 209.135775,320.551038 C206.995802,321.339965 204.038444,322.995675 202.483984,324.521626 C196.988967,329.90917 202.93441,334.554852 207.737692,336.470076 C215.059199,339.381841 223.546552,339.716616 231.217813,338.579938 C235.702431,337.918173 247.029827,334.383571 245.716309,327.765924 C245.141158,324.86973 242.689729,323.205883 240.264771,321.851211 C239.824341,321.519031 240.047147,320.842049 240.264771,320.120595 C263.270782,316.835128 283.292229,305.164713 295.525831,285.140492 C305.241207,269.242568 309.671419,249.926824 309.725825,231.28063 C309.733597,229.521115 309.484883,227.683744 308.917505,225.947585 C301.000122,201.480457 293.036104,176.836858 285.025452,152.016789 C284.942548,151.757274 285.033225,151.593779 285.297483,151.526305 L287.745758,150.919038 L315.119802,146.403467 Z" fill="#758DFB" fill-rule="nonzero" mask="url(#mask-3)"></path>
                    <path d="M83.16362,267.217379 C102.716549,310.152942 120.555944,339.160067 136.681802,354.238754 C145.663512,362.637214 140.57597,387.497944 142.138064,400.381065 C143.371077,410.550154 147.611628,427.089799 154.859715,450 L117.608332,428.360114 L131.063943,374.237377 C118.861412,356.084867 108.728249,337.360159 100.664452,318.063253 C92.6006561,298.766347 86.7670453,281.817722 83.16362,267.217379 Z" id="路径-3" fill="#4D66DA" fill-rule="nonzero" mask="url(#mask-3)"></path>
                    <path d="M273.258787,450 C284.416637,438.724947 292.924656,427.05024 298.782845,414.97588 C304.641034,402.901519 308.112522,389.885167 309.197308,375.926824 L319.492357,435.078168 L273.258787,450 Z" id="路径-4" fill="#4D66DA" fill-rule="nonzero" mask="url(#mask-3)"></path>
                </g>
                <rect id="矩形" fill="#FFF6E6" x="129.020196" y="0.0676243247" width="186.535223" height="125.278396"></rect>
                <path d="M128.73262,94.1807958 C128.851796,97.1652249 129.186005,99.1894464 129.735247,100.25346 C131.33116,103.331315 132.608408,106.450692 133.566992,109.611592 C135.28467,115.287197 137.056755,119.218858 139.341811,123.92128 C139.514159,124.27603 139.86558,124.508719 140.258943,124.528547 L143.360091,124.699827 C143.597704,124.711242 143.828995,124.621131 143.996463,124.451894 C144.163932,124.282657 144.25185,124.05019 144.238361,123.812284 C143.979284,119.052768 142.831574,114.936851 140.795231,111.464533 C139.836648,109.824394 140.302986,108.934256 142.194246,108.794118 C143.572534,108.690311 145.028545,109.354671 146.562279,110.787197 C146.779332,110.989123 146.974616,111.21082 147.145201,111.448962 C150.031316,115.518166 151.888896,119.82872 152.717941,124.380623 C152.904476,126.381488 153.487399,128.452422 153.65839,130.102941 C154.565158,139.009516 153.440765,147.843426 150.285211,156.604671 L135.626651,151.263841 C135.08259,146.281142 133.476315,140.551038 130.807825,134.073529 C128.559039,128.618512 126.660007,121.232699 125.110728,111.91609 C124.333498,107.218858 124.014834,103.845156 124.154735,101.794983 C124.268729,100.092561 124.34127,98.4057093 124.37236,96.7344291 C125.32058,94.3520761 126.836179,94.7024221 128.73262,94.1807958 Z" id="路径" fill="#FFD0C0" fill-rule="nonzero"></path>
                <path d="M310.19253,142.91782 L290.326529,144.031142 C290.658147,143.963668 290.90427,143.870242 291.064898,143.750865 C291.108518,143.718664 291.135301,143.66838 291.138285,143.613084 C291.141269,143.557787 291.120159,143.502941 291.080442,143.462803 L290.893907,143.275952 C290.764369,143.141003 290.691827,142.980104 290.676283,142.793253 C290.209945,136.720588 290.505292,130.583045 291.562325,124.380623 C291.225525,124.562284 291.248842,124.5 291.632276,124.193772 C291.741088,124.105536 291.808448,123.993945 291.834356,123.858997 C292.792939,119.177336 294.593522,115.017301 297.236105,111.378893 C298.370861,109.806228 300.842452,108.007785 302.886568,108.716263 C303.355388,108.878752 303.728537,109.24063 303.906727,109.705608 C304.084917,110.170586 304.050075,110.691505 303.811471,111.129758 C303.122327,112.375433 302.461682,113.654844 301.829535,114.967993 C300.819136,117.049308 300.313936,120.018166 300.313936,123.874567 C300.313936,124.352076 300.552287,124.593426 301.028988,124.598616 L304.099047,124.645329 C304.529114,124.655709 304.842597,124.468858 305.039495,124.084775 C308.195049,118.043253 310.29357,111.316609 312.524221,104.963668 C312.721119,104.392734 313.301451,103.24308 314.265216,101.514706 C315.228981,99.7759516 315.66423,97.8243945 315.570963,95.6600346 C317.0477,94.4766436 318.242043,94.3780277 319.153993,95.3641869 C319.755051,96.0077855 320.084079,96.817474 320.141076,97.7932526 C320.405334,102.314014 320.164393,106.705017 319.418252,110.966263 C318.190228,117.947232 317.003657,123.461938 315.858538,127.510381 C315.247117,129.66955 314.48025,131.997405 313.557937,134.493945 C312.500904,137.343426 311.0708,139.974913 310.19253,142.91782 Z" id="路径" fill="#FFD0C0" fill-rule="nonzero"></path>
                <path d="M310.19253,142.91782 L313.309223,142.894464 C313.578663,142.889273 313.785924,143.00346 313.931007,143.237024 C314.563154,144.264706 314.943997,145.437716 315.073535,146.756055 L287.699492,151.271626 L287.567197,144.778547 C287.562181,144.524221 287.678765,144.358131 287.917116,144.280277 C288.663257,144.036332 289.466395,143.953287 290.326529,144.031142 L310.19253,142.91782 Z" id="路径" fill="#FFFFFF" fill-rule="nonzero"></path>
                <path d="M135.626651,151.263841 L150.285211,156.604671 C151.311155,157.030277 152.352643,157.489619 153.409676,157.982699 C154.129909,158.320069 154.578112,158.74308 154.754284,159.25173 C155.008179,159.993945 154.803509,160.681661 154.140272,161.314879 L128.872522,152.478374 C129.364768,151.429931 129.963235,150.58391 130.667923,149.940311 C130.85964,149.763841 131.079855,149.717128 131.328569,149.800173 L135.626651,151.263841 Z" id="路径" fill="#FFFFFF" fill-rule="nonzero"></path>
                <path d="M400.677658,210.565744 C407.556144,212.652249 409.304912,218.358997 409.600259,224.758651 C409.947422,232.196367 409.063971,239.766436 406.949905,247.468858 C403.234745,261.025952 397.161987,273.66436 388.731631,285.384083 C388.032124,286.357266 387.324845,288.124567 387.045042,289.307958 C383.894669,302.714533 379.591406,315.651384 374.13525,328.118512 C372.324304,332.268166 370.179149,336.433391 368.080628,340.559689 C367.868185,340.969723 367.966634,341.063149 368.375975,340.839965 C380.122513,334.429931 392.262847,329.317474 404.796977,325.502595 C412.584823,323.579585 420.442619,322.372837 427.663087,324.217993 C435.785141,326.296713 439.127231,334.105536 437.075343,341.836505 C435.925043,346.149654 433.256553,349.24827 429.069873,351.132353 C424.017878,353.400519 418.302646,354.430796 411.924177,354.223183 C405.467986,354.010381 399.167241,353.317474 393.021942,352.144464 C384.964656,350.545848 377.112042,348.581315 369.464097,346.250865 C368.137625,345.846021 367.251582,344.963668 366.80597,343.603806 C366.609072,342.99654 366.404402,342.993945 366.191959,343.596021 C365.860341,344.530277 365.427682,345.456747 364.893984,346.375433 C360.230604,354.420415 355.577586,361.50519 350.934932,367.629758 C350.655129,367.99827 350.743215,368.141003 351.19919,368.057958 C362.733285,365.950692 374.111933,364.920415 385.335136,364.967128 C388.972573,364.982699 393.332834,365.34083 398.415918,366.041522 C406.747825,367.193772 419.323408,371.880623 418.204197,382.647924 C417.419194,390.176471 412.88017,396.116782 405.10787,396.957612 C398.097254,397.728374 390.705796,395.719723 384.177063,393.127163 C379.057708,391.08737 374.039392,388.645329 369.122116,385.801038 C362.51566,382.027682 356.09574,377.820934 349.862354,373.180796 C349.27166,372.739619 348.776823,372.223183 348.377845,371.631488 C348.320285,371.548002 348.226531,371.4969 348.125288,371.493826 C348.024045,371.490753 347.927374,371.536076 347.864873,371.615917 C340.014849,381.762976 331.232149,391.209343 321.516773,399.955017 C320.99862,400.422145 321.081524,400.593426 321.765487,400.468858 C333.651925,398.309689 345.740444,397.302768 358.031043,397.448097 C368.306025,397.736159 391.164362,400.484429 388.358561,416.405709 C385.109739,434.810554 365.041658,430.154844 353.422068,425.133218 C346.753434,422.247405 340.654769,419.133218 335.126072,415.790657 C330.488599,412.915225 325.882215,409.878893 321.306921,406.681661 C319.876817,405.679931 317.781029,403.686438 317.584131,403.852528 L314.583988,407.446942 C314.3712,407.294346 313.788858,404.174686 313.245072,400.886234 L313.129285,400.180002 C312.554789,396.646121 312.058016,393.147924 312.14092,393.127163 L315.56791,396.957612 C315.772072,397.171346 316.032004,397.932572 316.247153,397.736159 C343.268852,373.75173 362.878368,345.114187 375.075699,311.823529 C375.173343,311.567313 375.095136,311.27589 374.881391,311.099481 C366.896647,304.596021 359.362697,297.397059 352.27954,289.502595 C355.326282,276.376298 357.455892,263.013841 358.668371,249.415225 C358.694279,249.150519 358.823817,248.955882 359.056986,248.831315 L359.274611,248.706747 C365.422501,253.572664 369.013304,260.922145 371.3994,268.232699 C374.902117,278.987024 377.080952,289.858131 377.935905,300.846021 C378.008447,301.801038 378.192391,301.821799 378.487739,300.908304 C379.824575,296.766436 381.078506,292.274221 382.249532,287.431661 C382.710689,285.526817 382.803957,283.775087 382.529335,282.176471 C380.088833,268.115917 379.262378,254.434256 380.049971,241.131488 C380.648438,231.041522 384.728896,205.723183 400.677658,210.565744 Z M332.623391,346.819204 C334.929174,348.952422 338.740192,352.614187 344.056446,357.804498 C345.206746,358.91782 346.963286,360.552768 346.496948,362.327855 C346.085016,363.877163 344.825903,364.359862 343.356939,364.352169 C336.548403,364.305363 329.633646,363.918685 322.612667,363.192042 C325.592049,359.029412 327.610257,356.076125 328.66729,354.33218 C329.366797,353.16955 330.685497,350.665225 332.623391,346.819204 Z M347.997002,306.25692 C348.116177,306.24654 348.201673,306.303633 348.253488,306.428201 C348.885635,309.116782 349.504829,311.831315 350.111068,314.571799 C352.214771,324.012976 353.580105,333.015571 354.207071,341.579585 C354.284794,342.552768 354.424695,343.977509 353.779594,344.787197 C352.603386,346.250865 351.269141,346.474048 349.776859,345.456747 C347.92187,344.190311 344.103079,340.738754 338.320488,335.102076 C339.113262,332.67301 340.473415,330.391869 341.219556,328.118512 C342.359493,324.620242 343.5642,321.145329 344.833676,317.693772 C345.805213,315.038927 346.528037,312.329585 347.266406,309.635813 C347.538436,308.623702 347.359674,307.588235 347.616159,306.568339 C347.657843,306.392343 347.813277,306.265243 347.997002,306.25692 Z M447.000572,279 C450.97999,284.200692 451.834943,292.453287 447.257057,297.700692 C444.282857,301.115917 440.334528,303.713668 435.412071,305.493945 C427.069801,308.504325 418.574676,310.336505 409.926696,310.990484 C402.107761,311.649654 394.423546,311.948097 386.874052,311.885813 C383.990528,311.854671 382.210671,309.238754 384.371371,306.965398 C385.11233,306.186851 385.92324,305.382353 386.804101,304.551903 C396.566111,295.344291 405.975776,287.802768 415.033098,281.927336 C423.131835,276.952422 439.53139,269.221453 447.000572,279 Z" id="形状结合" fill="#02ADA9" fill-rule="nonzero"></path>
                <path d="M251.7526,264.262111 C251.576428,264.833045 251.426163,265.206747 251.301806,265.383218 C250.809561,266.052768 250.532348,265.972318 250.47017,265.141869 C250.304361,262.972318 249.739574,260.75346 248.775808,258.485294 C246.288672,252.661765 239.767712,250.567474 234.350418,253.790657 C224.712765,259.528547 212.525797,261.179066 201.263733,259.232699 C200.939947,259.176017 200.631122,259.391519 200.571998,259.715398 L199.491648,265.523356 C199.338518,266.334137 198.6898,266.958962 197.87501,267.08045 C196.170285,267.329585 194.628779,267.238754 193.250491,266.807958 C190.413601,262.518166 189.403202,258.384083 189.302162,253.487024 C189.255528,251.17474 188.113,249.500865 187.530077,247.375433 C182.493626,228.978374 206.634393,223.528547 219.272154,223.224913 C225.769798,223.064014 231.681928,223.951557 237.008545,225.887543 C240.749612,227.242215 243.754902,229.396194 246.024414,232.349481 C246.964862,233.579585 248.115163,234.186851 249.483088,234.762976 C252.467651,236.016436 254.418499,239.885813 254.799342,242.91436 C255.677612,249.874567 254.216419,256.834775 251.7526,264.262111 Z" id="路径" fill="#292455" fill-rule="nonzero"></path>
                <path d="M251.7526,264.262111 C252.110126,264.848616 252.255208,265.344291 252.187849,265.749135 C252.079036,266.377163 252.335522,266.766436 252.957306,266.916955 C255.133551,267.42301 257.239844,268.341696 258.514502,270.295848 C261.322893,274.608997 261.120813,278.989619 257.908262,283.437716 C256.92118,284.800173 254.216419,285.718858 252.623097,285.983564 C251.327714,286.201557 250.117826,286.816609 248.993433,287.82872 C248.014123,288.711073 247.345705,289.743945 246.988179,290.927336 C245.596937,295.551903 243.187524,300.33218 239.993108,304.131488 C238.780629,305.574394 238.298747,307.357266 238.54746,309.480104 C238.977528,313.139273 239.534543,316.803633 240.218505,320.473183 C240.000881,321.194637 240.112284,321.721453 240.552714,322.053633 C240.055287,322.188581 239.899841,322.476644 240.086376,322.91782 C241.679698,326.779412 241.298855,330.92128 237.412704,333.101211 C232.32962,335.942907 227.176584,336.1609 221.362903,335.911765 C216.971553,335.717128 207.147365,333.233564 207.986773,327.285467 C208.302847,325.064014 208.840428,322.819204 209.135775,320.551038 C209.323609,317.542075 209.582686,315.464419 209.549006,312.765571 C209.515326,310.066723 209.618956,308.79363 209.56455,307.16782 C209.555787,306.905938 209.515326,306.692907 209.323609,306.521626 C204.794948,302.442042 201.875154,297.438581 200.564226,291.511246 C200.035709,289.121107 198.862092,286.769896 196.615897,285.967993 C194.291979,285.150519 191.944744,284.356401 190.771127,282.036332 C189.118217,278.761246 188.954999,275.517301 190.281472,272.304498 C190.88253,270.856401 191.872202,269.024221 193.250491,266.807958 C194.628779,267.238754 196.170285,267.329585 197.87501,267.08045 C198.6898,266.958962 199.338518,266.334137 199.491648,265.523356 L200.571998,259.715398 C200.631122,259.391519 200.939947,259.176017 201.263733,259.232699 C212.525797,261.179066 224.712765,259.528547 234.350418,253.790657 C239.767712,250.567474 246.288672,252.661765 248.775808,258.485294 C249.739574,260.75346 250.304361,262.972318 250.47017,265.141869 C250.532348,265.972318 250.809561,266.052768 251.301806,265.383218 C251.426163,265.206747 251.576428,264.833045 251.7526,264.262111 Z M253.664586,276.415225 C253.664586,268.684194 247.407945,262.416955 239.689989,262.416955 C231.972032,262.416955 225.715392,268.684194 225.715392,276.415225 C225.715392,284.146256 231.972032,290.413495 239.689989,290.413495 C247.407945,290.413495 253.664586,284.146256 253.664586,276.415225 L253.664586,276.415225 Z M223.593553,276.407439 C223.593553,268.676408 217.336913,262.40917 209.618956,262.40917 C201.900999,262.40917 195.644359,268.676408 195.644359,276.407439 C195.644359,284.13847 201.900999,290.405709 209.618956,290.405709 C217.336913,290.405709 223.593553,284.13847 223.593553,276.407439 L223.593553,276.407439 Z M220.857703,300.752595 C223.313751,299.974048 226.034056,300.114187 228.591143,300.238754 C229.031573,300.259516 229.251788,300.051903 229.251788,299.615917 C229.251788,299.33564 229.127432,299.135813 228.878718,299.016436 C225.526266,297.402249 222.741191,297.804498 220.523495,300.223183 C219.974252,300.820069 220.085655,300.99654 220.857703,300.752595 Z" id="形状" fill="#FFD0C0" fill-rule="nonzero"></path>
                <path d="M253.664586,276.415225 C253.664586,284.146256 247.407945,290.413495 239.689989,290.413495 C231.972032,290.413495 225.715392,284.146256 225.715392,276.415225 C225.715392,268.684194 231.972032,262.416955 239.689989,262.416955 C247.407945,262.416955 253.664586,268.684194 253.664586,276.415225 L253.664586,276.415225 Z M251.876957,276.407439 C251.876957,269.678261 246.431104,264.223183 239.713306,264.223183 C236.487305,264.223183 233.393433,265.506878 231.112305,267.791869 C228.831178,270.076861 227.549655,273.175974 227.549655,276.407439 C227.549655,279.638905 228.831178,282.738018 231.112305,285.02301 C233.393433,287.308001 236.487305,288.591696 239.713306,288.591696 C246.431104,288.591696 251.876957,283.136618 251.876957,276.407439 Z" id="形状" fill="#292455" fill-rule="nonzero"></path>
                <path d="M223.593553,276.407439 C223.593553,284.13847 217.336913,290.405709 209.618956,290.405709 C201.900999,290.405709 195.644359,284.13847 195.644359,276.407439 C195.644359,268.676408 201.900999,262.40917 209.618956,262.40917 C217.336913,262.40917 223.593553,268.676408 223.593553,276.407439 L223.593553,276.407439 Z M221.767063,276.391869 C221.767063,269.66269 216.321211,264.207612 209.603412,264.207612 C202.885613,264.207612 197.439761,269.66269 197.439761,276.391869 C197.439761,279.623334 198.721285,282.722447 201.002412,285.007439 C203.283539,287.29243 206.377411,288.576125 209.603412,288.576125 C212.829413,288.576125 215.923285,287.29243 218.204412,285.007439 C220.485539,282.722447 221.767063,279.623334 221.767063,276.391869 Z" id="形状" fill="#292455" fill-rule="nonzero"></path>
                <path d="M221.767063,276.391869 C221.767063,279.623334 220.485539,282.722447 218.204412,285.007439 C215.923285,287.29243 212.829413,288.576125 209.603412,288.576125 C206.377411,288.576125 203.283539,287.29243 201.002412,285.007439 C198.721285,282.722447 197.439761,279.623334 197.439761,276.391869 C197.439761,269.66269 202.885613,264.207612 209.603412,264.207612 C216.321211,264.207612 221.767063,269.66269 221.767063,276.391869 Z M211.461225,285.789005 C213.566604,285.62297 215.008789,282.121251 214.682455,277.967647 C214.356106,273.813994 212.384778,270.581348 210.279369,270.747327 C208.173989,270.913363 206.731805,274.415081 207.058139,278.568685 C207.384488,282.722338 209.355816,285.954984 211.461225,285.789005 L211.461225,285.789005 Z" id="形状" fill="#FFD0C0" fill-rule="nonzero"></path>
                <path d="M251.876957,276.407439 C251.876957,283.136618 246.431104,288.591696 239.713306,288.591696 C236.487305,288.591696 233.393433,287.308001 231.112305,285.02301 C228.831178,282.738018 227.549655,279.638905 227.549655,276.407439 C227.549655,273.175974 228.831178,270.076861 231.112305,267.791869 C233.393433,265.506878 236.487305,264.223183 239.713306,264.223183 C246.431104,264.223183 251.876957,269.678261 251.876957,276.407439 Z M239.61996,285.827805 C240.654743,285.833209 241.651243,285.054264 242.390241,283.662302 C243.129239,282.27034 243.5502,280.379384 243.560517,278.405424 C243.582014,274.294906 241.85264,270.953483 239.697839,270.942091 C238.663056,270.936687 237.666556,271.715632 236.927558,273.107594 C236.18856,274.499556 235.767599,276.390512 235.757282,278.364472 C235.735785,282.47499 237.465159,285.816414 239.61996,285.827805 Z" id="形状" fill="#FFD0C0" fill-rule="nonzero"></path>
                <path d="M211.461225,285.789005 C209.355816,285.954984 207.384488,282.722338 207.058139,278.568685 C206.731805,274.415081 208.173989,270.913363 210.279369,270.747327 C212.384778,270.581348 214.356106,273.813994 214.682455,277.967647 C215.008789,282.121251 213.566604,285.62297 211.461225,285.789005 Z M211.753463,276.806834 C212.63377,276.686006 213.209493,275.579701 213.039391,274.335804 C212.869296,273.091885 212.017761,272.181395 211.137431,272.302163 C210.257124,272.422991 209.681401,273.529296 209.851504,274.773192 C210.021598,276.017112 210.873133,276.927602 211.753463,276.806834 L211.753463,276.806834 Z" id="形状" fill="#FFFFFF" fill-rule="nonzero"></path>
                <path d="M239.61996,285.827805 C237.465159,285.816414 235.735785,282.47499 235.757282,278.364472 C235.767599,276.390512 236.18856,274.499556 236.927558,273.107594 C237.666556,271.715632 238.663056,270.936687 239.697839,270.942091 C241.85264,270.953483 243.582014,274.294906 243.560517,278.405424 C243.5502,280.379384 243.129239,282.27034 242.390241,283.662302 C241.651243,285.054264 240.654743,285.833209 239.61996,285.827805 Z M239.65478,276.73404 C240.093768,276.742484 240.519303,276.514391 240.837772,276.099938 C241.156241,275.685485 241.341556,275.118623 241.35295,274.524057 C241.364353,273.929492 241.200902,273.355922 240.898554,272.929526 C240.596206,272.503131 240.179728,272.258838 239.740742,272.250389 C239.301754,272.241945 238.876219,272.470039 238.55775,272.884491 C238.239281,273.298944 238.053965,273.865806 238.042572,274.460372 C238.031169,275.054937 238.19462,275.628507 238.496968,276.054903 C238.799316,276.481298 239.215794,276.725591 239.65478,276.73404 L239.65478,276.73404 Z" id="形状" fill="#FFFFFF" fill-rule="nonzero"></path>
                <path d="M211.753463,276.806834 C210.873133,276.927602 210.021598,276.017112 209.851504,274.773192 C209.681401,273.529296 210.257124,272.422991 211.137431,272.302163 C212.017761,272.181395 212.869296,273.091885 213.039391,274.335804 C213.209493,275.579701 212.63377,276.686006 211.753463,276.806834 L211.753463,276.806834 Z" id="路径" fill="#292455" fill-rule="nonzero"></path>
                <path d="M239.65478,276.73404 C239.215794,276.725591 238.799316,276.481298 238.496968,276.054903 C238.19462,275.628507 238.031169,275.054937 238.042572,274.460372 C238.053965,273.865806 238.239281,273.298944 238.55775,272.884491 C238.876219,272.470039 239.301754,272.241945 239.740742,272.250389 C240.179728,272.258838 240.596206,272.503131 240.898554,272.929526 C241.200902,273.355922 241.364353,273.929492 241.35295,274.524057 C241.341556,275.118623 241.156241,275.685485 240.837772,276.099938 C240.519303,276.514391 240.093768,276.742484 239.65478,276.73404 L239.65478,276.73404 Z" id="路径" fill="#292455" fill-rule="nonzero"></path>
                <path d="M228.591143,300.238754 C226.034056,300.114187 223.313751,299.974048 220.857703,300.752595 C220.085655,300.99654 219.974252,300.820069 220.523495,300.223183 C222.741191,297.804498 225.526266,297.402249 228.878718,299.016436 C229.127432,299.135813 229.251788,299.33564 229.251788,299.615917 C229.251788,300.051903 229.031573,300.259516 228.591143,300.238754 Z" id="路径" fill="#E24855" fill-rule="nonzero"></path>
                <path d="M209.135775,320.551038 C208.840428,322.819204 208.302847,325.064014 207.986773,327.285467 C207.147365,333.233564 216.971553,335.717128 221.362903,335.911765 C227.176584,336.1609 232.32962,335.942907 237.412704,333.101211 C241.298855,330.92128 241.679698,326.779412 240.086376,322.91782 C239.899841,322.476644 240.055287,322.188581 240.552714,322.053633 C242.977672,323.408304 245.441491,325.25346 246.016642,328.149654 C247.33016,334.767301 235.656164,338.270761 231.171547,338.932526 C223.500286,340.069204 215.012933,339.734429 207.691426,336.822664 C202.888144,334.907439 196.988967,329.90917 202.483984,324.521626 C204.038444,322.995675 205.885661,321.838235 208.025635,321.049308 L209.135775,320.551038 Z" id="路径" fill="#FFFFFF" fill-rule="nonzero"></path>
                <g id="编组" transform="translate(414.1366, 110.0582) rotate(10) translate(-414.1366, -110.0582)translate(371.1031, 66.9624)">
                    <g id="路径" transform="translate(0, 0)">
                        <mask id="mask-5" fill="white">
                            <use xlink:href="#path-4"></use>
                        </mask>
                        <use id="蒙版" fill="#FBDB75" fill-rule="nonzero" xlink:href="#path-4"></use>
                        <path d="M-9.21106559e-11,35.077951 C-9.21106559e-11,58.8790867 17.0264596,78.1737194 38.0296618,78.1737194 C59.0328641,78.1737194 76.0593237,58.8790867 76.0593237,35.077951 C76.0593237,11.2768153 59.0328641,-8.01781737 38.0296618,-8.01781737 C17.0264596,-8.01781737 -9.21106559e-11,11.2768153 -9.21106559e-11,35.077951 Z" fill="url(#linearGradient-6)" fill-rule="nonzero" mask="url(#mask-5)"></path>
                    </g>
                    <path d="M13.0442462,22.0083017 C13.0442462,25.8829052 16.1806993,29.0238919 20.0497103,29.0238919 C23.9187212,29.0238919 27.0551743,25.8829052 27.0551743,22.0083017 C27.0551743,18.1336982 23.9187212,14.9927115 20.0497103,14.9927115 C16.1806993,14.9927115 13.0442462,18.1336982 13.0442462,22.0083017 Z" id="路径" fill="#B2704B" fill-rule="nonzero"></path>
                    <path d="M46.0700052,22.0083017 C46.0700052,24.5147307 47.405239,26.8307665 49.5727372,28.083981 C51.7402353,29.3371955 54.4107032,29.3371955 56.5782013,28.083981 C58.7456994,26.8307665 60.0809332,24.5147307 60.0809332,22.0083017 C60.0809332,19.5018728 58.7456994,17.1858369 56.5782013,15.9326224 C54.4107032,14.6794079 51.7402353,14.6794079 49.5727372,15.9326224 C47.405239,17.1858369 46.0700052,19.5018728 46.0700052,22.0083017 L46.0700052,22.0083017 Z" id="路径" fill="#B2704B" fill-rule="nonzero"></path>
                    <path d="M60.039234,56.0840255 L15.0875067,56.0840255 C14.35752,56.0840255 13.6829846,55.7019788 13.3179912,55.0817984 C12.9529979,54.4616181 12.9529979,53.6975243 13.3179912,53.077344 C13.6829846,52.4571636 14.35752,52.0751169 15.0875067,52.0751169 L60.039234,52.0751169 C60.7692206,52.0751169 61.4437561,52.4571636 61.8087494,53.077344 C62.1737427,53.6975243 62.1737427,54.4616181 61.8087494,55.0817984 C61.4437561,55.7019788 60.7692206,56.0840255 60.039234,56.0840255 L60.039234,56.0840255 Z" id="路径" fill="#B2704B" fill-rule="nonzero"></path>
                </g>
                <polygon id="路径-84" fill="#ACDBC1" fill-rule="nonzero" opacity="0.601934524" points="144.112403 57.1285539 183.857903 62.9758839 217.593916 55.440599 221.114904 53.8883388 223.19606 57.1285539 236.425404 68.2582866 256.175738 70.5257486 258.605077 69.8078678 260.479409 71.5139839 275.728058 80.1978189 293.736917 87.1377956 288.315452 94.6918056 270.580341 87.6106639 270.250003 87.4011695 269.960662 87.1377956 256.295518 79.893635 235.738681 77.8660097 232.502052 78.8224486 230.676488 75.9801732 217.701119 65.248347 183.857903 72.4309699 140.163725 65.2355901"></polygon>
                <polygon id="路径-84" fill="#3EB975" fill-rule="nonzero" points="146.086742 39.9358376 184.051554 58.4805584 218.460273 43.3118972 221.981261 41.759637 224.062417 44.9998521 236.425404 64.249378 253.764241 59.1259236 256.19358 58.4080428 258.067912 60.1141589 275.728058 76.1889103 289.976632 85.2259707 285.157763 92.8465037 270.580341 83.6017552 270.250003 83.3922608 269.960662 83.1288869 253.884021 68.49381 235.738681 73.857101 232.502052 74.8135399 230.676488 71.9712645 218.567475 53.1196452 185.769516 67.579309 183.857903 68.4220612 181.980669 67.5050752 142.138064 48.0428738"></polygon>
                <polygon id="路径-2" fill="#329A60" points="288.315452 84.0405165 282.983413 91.4233779 273.258787 85.3001516 282.983413 80.9127162"></polygon>
                <polygon id="路径-85" fill="#3EB975" points="292.010742 73.7109375 300.085347 95.9316406 275.65332 97.2128906"></polygon>
                <path d="M209.618956,306.949933 C213.481659,309.736399 217.866217,311.129632 222.772632,311.129632 C227.059598,311.129632 231.743779,310.316181 235.757084,308.029236 C236.844874,307.409369 237.93998,306.671319 239.042402,305.815087 C238.638278,306.671319 238.436216,307.707802 238.436216,308.924536 C238.436216,310.749637 227.549655,319.216939 218.945184,320.551038 C213.20887,321.440437 209.939067,321.613158 209.135775,321.0692 C209.447533,317.750138 209.603412,315.071007 209.603412,313.031808 C209.603412,310.992608 209.608593,308.965317 209.618956,306.949933 Z" id="路径-5" fill="#F89B91" fill-rule="nonzero"></path>
                <path d="M126.862381,412.595172 L127.211767,412.758982 C127.561154,412.922793 127.82311,412.922971 127.997526,412.595942 C129.82928,409.734649 131.748575,407.200561 133.755356,404.911894 C135.064085,403.358833 136.984712,402.78763 139.6045,403.116555 C140.04115,403.198638 140.4778,403.280722 140.914505,403.444592 C143.796916,404.755137 144.322106,406.636589 142.490074,409.088949 C139.34948,413.339729 136.208442,416.936215 133.15439,420.04204 C132.020021,421.186285 130.536322,422.248506 128.703346,423.310489 C124.251804,425.842858 120.493041,419.869871 119.443106,416.761261 C117.955633,412.261979 116.467993,407.517336 115.154936,402.691024 C113.84199,398.028287 113.314858,393.284296 113.573707,388.704412 C113.832556,384.124528 118.719584,379.95672 123.611328,382.740791 C126.144574,384.214673 127.979713,386.342375 129.116856,389.28747 C132.178511,397.38644 131.397857,405.073867 126.86227,412.431598 C126.775006,412.513326 126.775062,412.595112 126.862381,412.595172 Z" id="路径" fill="#FFA42D" fill-rule="nonzero" transform="translate(128.5339, 402.8817) rotate(35) translate(-128.5339, -402.8817)"></path>
                <path d="M32.7005053,274.906135 C36.5034715,270.897226 48.9131506,257.266937 54.7176779,264.683418 C56.619161,267.088763 54.3173657,270.696781 52.6160387,272.50079 C46.211043,279.115489 38.8052668,282.12217 30.39871,281.420611 C23.0930118,280.819275 18.3893431,272.400567 15.4870794,266.387204 C12.1845035,259.371614 20.2908262,254.661146 25.8951974,259.572059 C26.996056,260.474064 28.0969146,261.275845 29.1977733,262.077627 C29.7982416,262.478518 30.1985538,262.278072 30.1985538,261.576513 C30.39871,255.362705 31.1993344,249.048674 32.5003492,242.63442 C33.3009736,238.525288 38.4049546,232.712371 43.4088574,233.714598 C52.6160387,235.518607 51.415102,244.83932 48.5128384,251.153351 C44.9100283,259.271391 39.9061254,266.286981 33.5011297,272.300344 C32.8005833,273.001903 32.300193,273.703462 31.9999589,274.605467 C31.5996466,275.707917 31.7998028,275.908362 32.7005053,274.906135 Z M46.7114333,244.83932 L46.3111211,244.638874 C45.8107308,244.438429 45.3103405,244.739097 45.0101063,245.24021 C42.608233,250.451792 39.7059693,254.861591 36.3033153,258.670055 C32.8005833,262.578741 33.1008175,262.879409 37.2040179,259.572059 C42.0077646,255.663373 45.4104186,251.053128 47.1117456,245.641101 C47.2118236,245.340433 47.0116675,244.939542 46.7114333,244.83932 Z" id="形状" fill="#FAFF9B" fill-rule="nonzero" transform="translate(35.0772, 257.5603) scale(-1, 1) translate(-35.0772, -257.5603)"></path>
                <g id="编组" transform="translate(15.564, 310.54)">
                    <path d="M99.9332914,123.86319 C99.5284621,96.4243486 96.6832645,76.9322164 91.3976987,65.3867935 C83.4693499,48.0686591 76.5713114,25.4483926 67.5996009,25.4483926 C58.6278904,25.4483926 55.9336594,36.792312 58.6278904,53.8861268 C61.3221213,70.9799417 52.5591207,29.5863721 25.858082,9.24968509 C-0.842956633,-11.0870019 0.00300392441,6.59961109 0.00300392441,19.5045955 C0.00300392441,32.4095799 1.72573187,55.4497306 20.7066372,65.3867935 C35.1545103,72.9506807 40.2524997,76.6194824 41.8634711,78.986952 C42.3689147,79.7297476 42.5310978,80.3444406 42.5310978,80.9111404 C42.5310978,82.195021 40.0724533,83.3916493 34.768207,83.5818899 C30.2689751,83.7432581 22.2820417,85.9642867 19.5131415,85.9642867 C14.0795802,85.9642867 20.2891131,95.6284733 30.3624892,102.423382 C40.4358653,109.21829 61.3080368,105.440582 69.4381376,102.423382 C77.5682383,99.4061809 59.2041135,109.062482 42.5310978,109.062482 C25.858082,109.062482 56.0093838,120.896256 64.8854475,122.422108 C70.8028232,123.439342 82.4854379,123.919703 99.9332914,123.86319 Z" id="路径-6" fill="#27DAD6" fill-rule="nonzero"></path>
                    <path d="M13.9365293,16.5354369 C39.7554852,51.0544085 77.0462997,97.5063879 97.311129,119.0827" id="路径-7" stroke="#FFFFFF" stroke-width="1.6" stroke-linecap="round" stroke-linejoin="round"></path>
                </g>
            </g>
        </g>
    </g>
</svg>