<?xml version="1.0" encoding="UTF-8"?>
<svg width="750px" height="692px" viewBox="0 0 750 692" version="1.1" xmlns="http://www.w3.org/2000/svg" xmlns:xlink="http://www.w3.org/1999/xlink">
    <title>词组</title>
    <defs>
        <linearGradient x1="50%" y1="-6.21031004e-14%" x2="50%" y2="69.7179687%" id="linearGradient-1">
            <stop stop-color="#FFFFFF" stop-opacity="0" offset="0%"></stop>
            <stop stop-color="#FFFFFF" offset="100%"></stop>
        </linearGradient>
        <linearGradient x1="96.5944989%" y1="46.8945827%" x2="63.2027215%" y2="57.7591259%" id="linearGradient-2">
            <stop stop-color="#FFEFD1" offset="0%"></stop>
            <stop stop-color="#FFE9C4" offset="100%"></stop>
        </linearGradient>
        <path d="M0,11.1733773 C51.289388,36.6509978 85.3347982,55.3399273 102.13623,67.2401657 C118.937663,79.1404042 144.765137,105.941561 179.618652,147.643636 L225.92334,143.586158 C231.847819,109.2771 227.963053,83.2406372 214.269043,65.4767685 C193.728027,38.8309656 203.204102,22.5765754 210.426758,12.5327507 C217.649414,2.48892596 189.60498,0 179.618652,16.9471184 C169.632324,33.8942368 171.409668,50.396281 156.79834,55.6669538 C148.671915,58.5983592 141.792911,49.1390895 124.942871,29.7319928 C120.308009,24.3937735 111.160874,14.4831093 97.5014648,0 L83.2299805,0 L105.050781,34.9951547 L61.5737305,0 L45.8510742,2.87650232 L61.5737305,20.5649789 C47.237793,16.2970752 37.3181966,13.1665414 31.8149414,11.1733773 C27.809503,9.72269121 13.715332,5.54349451 7.52636719,6.63284998 C3.40039063,7.35908696 0.891601563,8.87259607 0,11.1733773 Z" id="path-3"></path>
        <linearGradient x1="63.797839%" y1="44.5554391%" x2="40.2712742%" y2="58.2079937%" id="linearGradient-5">
            <stop stop-color="#FFD8A3" offset="0%"></stop>
            <stop stop-color="#FFF0D6" stop-opacity="0" offset="100%"></stop>
        </linearGradient>
        <linearGradient x1="50%" y1="56.3316633%" x2="58.7685635%" y2="43.9399341%" id="linearGradient-6">
            <stop stop-color="#FFD8A3" offset="0%"></stop>
            <stop stop-color="#FFF0D6" stop-opacity="0" offset="100%"></stop>
        </linearGradient>
        <radialGradient cx="44.721156%" cy="71.1158753%" fx="44.721156%" fy="71.1158753%" r="68.3413502%" gradientTransform="translate(0.4472, 0.7112), scale(0.5692, 1), rotate(-71.3911), scale(1, 1.8016), translate(-0.4472, -0.7112)" id="radialGradient-7">
            <stop stop-color="#FAD89D" offset="0%"></stop>
            <stop stop-color="#FFF0D6" stop-opacity="0" offset="100%"></stop>
        </radialGradient>
        <rect id="path-8" x="0" y="0" width="548" height="38" rx="10"></rect>
        <linearGradient x1="33.2703727%" y1="40.2046735%" x2="100%" y2="35.5175073%" id="linearGradient-10">
            <stop stop-color="#A471CE" offset="0%"></stop>
            <stop stop-color="#F3D5D7" offset="100%"></stop>
        </linearGradient>
        <radialGradient cx="-1.21249209e-12%" cy="8.27133318%" fx="-1.21249209e-12%" fy="8.27133318%" r="162.235082%" gradientTransform="translate(-0, 0.0827), scale(1, 0.7995), rotate(-108.5938), scale(1, 1.1196), translate(0, -0.0827)" id="radialGradient-11">
            <stop stop-color="#824FAD" offset="0%"></stop>
            <stop stop-color="#F9C0D0" stop-opacity="0" offset="100%"></stop>
        </radialGradient>
    </defs>
    <g id="页面-1" stroke="none" stroke-width="1" fill="none" fill-rule="evenodd">
        <g id="14" transform="translate(0, -472)">
            <g id="词组" transform="translate(0, 472)">
                <polygon id="矩形" fill="url(#linearGradient-1)" points="3.76114373e-15 0 750 0 624.323122 469 124.676878 469"></polygon>
                <g id="编组-2" transform="translate(66, 40)">
                    <rect id="矩形备份-4" fill="#FFE5C9" x="131.353062" y="92.2337662" width="115" height="14" rx="4"></rect>
                    <rect id="矩形" fill="#FFE5C9" x="357.496434" y="268.207792" width="90" height="32" rx="4"></rect>
                    <rect id="矩形备份-2" fill="#FFFFFF" x="514.124917" y="164.782468" width="66" height="14" rx="4"></rect>
                    <rect id="矩形备份-12" fill="#FFFFFF" opacity="0.447684152" x="18.1249173" y="68.7824675" width="52" height="14" rx="4"></rect>
                    <rect id="矩形备份-9" fill="#FFFFFF" opacity="0.420177641" x="445" y="11.7824675" width="82" height="14" rx="4"></rect>
                    <rect id="矩形备份-3" fill="#FFDAE5" x="498.286082" y="133.587662" width="32" height="14" rx="4"></rect>
                    <rect id="矩形备份-5" fill="#FFE5C9" x="68.8776561" y="175.821429" width="34" height="14" rx="4"></rect>
                    <rect id="矩形备份-13" fill="#FFE5C9" opacity="0.78078497" x="579" y="29.7824675" width="32" height="14" rx="4"></rect>
                    <rect id="矩形备份-6" fill="#FFE4EC" x="163" y="313" width="80" height="14" rx="4"></rect>
                    <rect id="矩形备份-7" fill="#FFDEED" x="294.141093" y="253.25" width="18" height="14" rx="4"></rect>
                    <g id="编组-8" transform="translate(90.9731, 76)">
                        <rect id="矩形" fill="#E6B3F8" x="0" y="0" width="97" height="36" rx="6"></rect>
                        <text id="非凡" opacity="0.231445312" font-family="PingFangSC-Medium, PingFang SC" font-size="22" font-weight="400" line-spacing="28" fill="#FFFFFF">
                            <tspan x="27" y="27">非凡</tspan>
                        </text>
                    </g>
                    <rect id="矩形备份-8" fill="#FF9BB9" x="432" y="190" width="98" height="40" rx="6"></rect>
                    <text id="成长" opacity="0.212983631" font-family="PingFangSC-Medium, PingFang SC" font-size="22" font-weight="400" line-spacing="28" fill="#FFFFFF">
                        <tspan x="459" y="219">成长</tspan>
                    </text>
                    <g id="编组-8" transform="translate(56, 231.6136)">
                        <rect id="矩形" fill="#B8C9FF" x="0" y="0" width="198" height="50" rx="6"></rect>
                        <text id="不负韶华" opacity="0.171851749" font-family="PingFangSC-Medium, PingFang SC" font-size="26" font-weight="400" line-spacing="36" fill="#FFFFFF">
                            <tspan x="47.9912506" y="35">不负韶华</tspan>
                        </text>
                    </g>
                    <rect id="矩形备份" fill="#E6B3F8" x="389" y="277" width="160" height="36" rx="6"></rect>
                    <text id="释放激情" opacity="0.221330915" font-family="PingFangSC-Medium, PingFang SC" font-size="22" font-weight="400" line-spacing="30" fill="#FFFFFF">
                        <tspan x="425" y="303">释放激情</tspan>
                    </text>
                    <rect id="矩形备份-10" fill="#FFC799" x="0" y="0" width="160" height="44" rx="6"></rect>
                    <rect id="矩形备份-11" fill="#B8C9FF" x="213" y="24" width="180" height="50" rx="6"></rect>
                    <text id="诗在远方" opacity="0.297107515" font-family="PingFangSC-Medium, PingFang SC" font-size="22" font-weight="400" line-spacing="28" fill="#FFFFFF">
                        <tspan x="36" y="31">诗在远方</tspan>
                    </text>
                    <g id="编组-8" transform="translate(415, 61)">
                        <rect id="矩形" fill="#A0EFE9" x="0" y="0" width="181" height="44" rx="6"></rect>
                        <text id="勇于探索" opacity="0.362072173" font-family="PingFangSC-Medium, PingFang SC" font-size="22" font-weight="400" line-spacing="28" fill="#FFFFFF">
                            <tspan x="47" y="31">勇于探索</tspan>
                        </text>
                    </g>
                    <text id="否极泰来" opacity="0.162946429" font-family="PingFangSC-Medium, PingFang SC" font-size="26" font-weight="400" line-spacing="36" fill="#FFFFFF">
                        <tspan x="251" y="59">否极泰来</tspan>
                    </text>
                </g>
                <g id="编组-26" transform="translate(101, 469.1205)">
                    <g id="路径-109-+-路径-106-+-路径-107-+-路径-110蒙版" transform="translate(162.4829, 29.917)">
                        <mask id="mask-4" fill="white">
                            <use xlink:href="#path-3"></use>
                        </mask>
                        <use id="蒙版" fill="url(#linearGradient-2)" fill-rule="nonzero" xlink:href="#path-3"></use>
                        <polygon id="路径-2" fill="url(#linearGradient-5)" mask="url(#mask-4)" points="56.7446289 14.8296273 103.446777 69.2505258 -4.81787109 14.8296273 -0.520996094 -9.58834143"></polygon>
                        <path d="M72.5327148,8.08296239 L120.45166,47.5220101 C136.833896,56.8878956 147.458245,59.3380909 152.324707,54.8725961 C157.191169,50.4071013 145.573996,33.6160857 117.473186,4.4995492 L72.5327148,8.08296239 Z" id="路径-3" fill="url(#linearGradient-6)" mask="url(#mask-4)"></path>
                        <path d="M96.6581824,69.2505258 C120.340774,77.2857181 141.459221,85.2437259 160.013524,93.1245492 C169.076894,96.9741586 212.005371,113.030799 227.51709,93.1245492 C232.779615,86.3711294 237.439121,104.544158 241.495605,147.643636 L150.955409,151.698768 L96.6581824,69.2505258 Z" id="路径-4" fill="url(#radialGradient-7)" style="mix-blend-mode: multiply;" mask="url(#mask-4)"></path>
                    </g>
                    <g id="矩形-+-矩形备份-14-+-矩形-+-形状结合蒙版">
                        <mask id="mask-9" fill="white">
                            <use xlink:href="#path-8"></use>
                        </mask>
                        <use id="蒙版" fill="#5BA4FF" fill-rule="nonzero" xlink:href="#path-8"></use>
                        <rect id="矩形" stroke="#FFFFFF" stroke-width="2" opacity="0.386486235" mask="url(#mask-9)" x="62" y="13.8794774" width="26" height="10" rx="5"></rect>
                        <rect id="矩形备份-14" stroke="#FFFFFF" stroke-width="2" opacity="0.386486235" mask="url(#mask-9)" x="110" y="13.8794774" width="62" height="10" rx="5"></rect>
                        <path d="M24,-4 L524,-4 C524,0.9835859 519.960005,5.0235805 514.976419,5.0235805 L33.0235805,5.0235805 C28.0399946,5.0235805 24,0.9835859 24,-4 L24,-4 L24,-4 Z" id="矩形" fill="#3AF5F2" fill-rule="nonzero" mask="url(#mask-9)"></path>
                        <path d="M545.124917,45.3430845 L71.9414062,46 L89,38 C296.775389,30.9616618 433.546719,28.2179241 478,23.8794774 C512.295333,20.5324024 545.124917,9.27596181 545.124917,-9.12052256 C556.529552,-7.76184775 557.827467,45.3430845 545.124917,45.3430845 Z" id="路径" fill="#2A89FF" fill-rule="nonzero" mask="url(#mask-9)"></path>
                    </g>
                    <polygon id="路径-105" fill="url(#linearGradient-10)" fill-rule="nonzero" points="311 157.879477 396.407227 157.879477 425.324336 222.879477 327.729492 222.879477"></polygon>
                    <polygon id="路径-105" fill="url(#radialGradient-11)" fill-rule="nonzero" opacity="0.750209263" style="mix-blend-mode: multiply;" points="311 157.879477 334.526855 157.879477 362.967773 222.879477 327.729492 222.879477"></polygon>
                </g>
            </g>
        </g>
    </g>
</svg>