<?xml version="1.0" encoding="UTF-8"?>
<svg width="470px" height="470px" viewBox="0 0 470 470" version="1.1" xmlns="http://www.w3.org/2000/svg" xmlns:xlink="http://www.w3.org/1999/xlink">
    <title>编组</title>
    <defs>
        <linearGradient x1="40.8676862%" y1="-23.4956782%" x2="55.8111702%" y2="92.0861037%" id="linearGradient-1">
            <stop stop-color="#FFF9FA" offset="0%"></stop>
            <stop stop-color="#FFDBDD" offset="100%"></stop>
        </linearGradient>
    </defs>
    <g id="页面-1" stroke="none" stroke-width="1" fill="none" fill-rule="evenodd">
        <g id="11" transform="translate(-200, -942)">
            <g id="编组" transform="translate(200, 942)">
                <path d="M261.581967,15.3471059 L411.934003,102.152894 C428.382981,111.649716 438.51597,129.200567 438.51597,148.194212 L438.51597,321.805788 C438.51597,340.799433 428.382981,358.350284 411.934003,367.847106 L261.581967,454.652894 C245.132989,464.149716 224.867011,464.149716 208.418033,454.652894 L58.0659973,367.847106 C41.6170188,358.350284 31.4840301,340.799433 31.4840301,321.805788 L31.4840301,148.194212 C31.4840301,129.200567 41.6170188,111.649716 58.0659973,102.152894 L208.418033,15.3471059 C224.867011,5.85028373 245.132989,5.85028373 261.581967,15.3471059 Z" id="多边形" fill="url(#linearGradient-1)"></path>
                <path d="M281.957627,66.9372809 L280.952483,69.2179135 C280.847781,69.4582551 280.863486,69.6933718 280.999599,69.9232638 C281.093832,70.0904579 281.1488,70.2707141 281.164506,70.4640324 C281.195916,70.8976922 281.015305,71.0204754 280.62267,70.832382 C280.455147,70.7540097 280.347826,70.6233893 280.30071,70.4405207 C280.264065,70.2837762 280.287623,70.1374813 280.371385,70.001636 C280.40803,69.9337134 280.444676,69.8684032 280.481322,69.8057054 C280.596495,69.6228368 280.549379,69.5523018 280.339974,69.5941003 C279.994456,69.6620229 279.769345,69.8475039 279.664643,70.1505433 C279.55994,70.4535827 279.630615,70.7069863 279.876665,70.9107542 C280.190773,71.1772199 280.544144,71.3809877 280.936778,71.5220578 C281.198534,71.6161045 281.402704,71.7806862 281.549287,72.015803 C283.928651,75.8795552 289.331298,76.0676486 291.412259,71.8904074 C291.548372,71.6187169 291.723749,71.5899804 291.938389,71.8041979 C292.011681,71.8825702 292.035239,71.9740045 292.009063,72.0785008 C291.994343,72.1527152 292.014528,72.2304208 292.064032,72.2901059 C294.451248,75.0540341 297.097603,75.6548881 300.003096,74.0926678 C301.36161,73.371643 301.667865,72.1411986 302.673009,71.1145221 C302.877178,70.9055294 302.932147,70.659963 302.837915,70.3778229 L301.895593,67.6112822 L302.084057,67.2742815 C302.225406,67.03394 302.426958,66.9607925 302.688714,67.0548392 L304.596916,67.7445151 C305.628235,69.9598375 305.528768,71.8198724 304.298514,73.3246197 C303.238402,74.6177619 301.165293,74.9077393 300.631311,76.5378822 C300.325056,77.4940237 300.356467,78.4736769 299.877453,79.382795 C299.474348,80.1456183 299.124948,81.0847614 298.737549,81.8057861 C298.609231,82.0440637 298.486627,82.4414026 298.369737,82.9978027 C298.681677,85.3002409 298.954915,86.7591586 299.189453,87.3745557 C299.189453,87.3745557 303.017862,88.4586502 303.426866,88.5761719 C306.62417,89.494873 306.079855,90.5436436 306.268066,91.9663086 C306.63976,94.7354616 304.201664,98.0327795 303.426866,101.507283 C301.01871,103.210573 299.333,104.130141 298.369737,104.265986 C294.731327,104.783243 290.778809,104.391382 286.512184,103.090402 C283.465342,98.6545327 281.630594,94.3811632 283.050537,88.5761719 C283.465342,86.8803711 284.075878,84.7641602 284.559289,82.7675842 C284.075878,82.3953893 283.654448,81.4878565 283.47571,80.8375112 C283.155763,79.6733655 283.044764,78.340379 282.530873,77.1805347 C282.085887,76.172145 281.481231,75.4406706 280.716903,74.9861115 C279.696054,74.3748079 278.439624,73.4892014 278.015579,72.3449665 C277.492067,70.9185914 277.643885,69.5549142 278.471035,68.2539347 C279.727464,67.0522268 280.889662,66.6133422 281.957627,66.9372809 Z M290.878276,78.9360732 C290.632226,78.7636542 290.373087,78.7166309 290.100861,78.7950031 C289.781518,78.8890498 289.765813,79.0222827 290.053745,79.1947016 C291.399171,79.983649 292.707952,79.9575249 293.980087,79.1163294 C294.080566,79.0525388 294.111898,78.9205075 294.050761,78.8185148 L293.940823,78.6460958 C293.919883,78.6095221 293.89109,78.6016849 293.854444,78.6225842 C293.210524,78.9621973 292.553516,79.1581279 291.88342,79.2103761 C291.516961,79.2365002 291.181914,79.1450659 290.878276,78.9360732 Z" id="形状" fill="#FFD0C0" fill-rule="nonzero"></path>
                <path d="M284.559289,82.7675842 C284.739416,83.040454 284.878027,83.2271865 284.975121,83.3277819 C285.563711,83.937602 285.795984,84.2721753 287.542548,85.0608305 C289.289112,85.8494858 291.250156,85.8494858 292.937083,85.6604104 C294.032323,85.5376529 294.877908,85.378405 295.479332,85.1931315 C295.81453,85.0898713 296.453168,84.7680551 297.395245,84.2276832 C297.975889,83.627749 298.151245,83.627749 297.921314,84.2276832 C296.63678,87.5792739 290.947434,89.908189 288.538504,89.908189 C285.897816,89.908189 283.945006,89.908189 282.680074,89.908189 L284.559289,82.7675842 Z" id="路径-83" fill="#F89B91" fill-rule="nonzero"></path>
                <g id="编组-32" transform="translate(350, 298)" fill-rule="nonzero">
                    <g id="编组-31" transform="translate(0, 48.6234)">
                        <path d="M0,8.56818182 L0.00557610814,8.42649126 C0.37312793,3.75976716 18.8645046,0 41.6216216,0 C64.6086085,0 83.2432432,3.83610567 83.2432432,8.56818182 L83.2432432,20.8084416 C83.2432432,25.5405177 64.6086085,29.3766234 41.6216216,29.3766234 C18.6346347,29.3766234 0,25.5405177 0,20.8084416 L0,8.56818182 Z" id="形状结合" fill="#FFA42D"></path>
                        <ellipse id="椭圆形备份-18" fill="#FAFF9B" cx="41.6216216" cy="8.56818182" rx="41.6216216" ry="8.56818182"></ellipse>
                        <ellipse id="椭圆形备份-18" fill="#FFA42D" cx="41.6216216" cy="7.34415584" rx="32.859175" ry="4.8961039"></ellipse>
                    </g>
                    <g id="编组-31备份-5" transform="translate(8.9189, 40.5195)">
                        <path d="M0,8.56818182 L0.00557610814,8.42649126 C0.37312793,3.75976716 18.8645046,0 41.6216216,0 C64.6086085,0 83.2432432,3.83610567 83.2432432,8.56818182 L83.2432432,20.8084416 C83.2432432,25.5405177 64.6086085,29.3766234 41.6216216,29.3766234 C18.6346347,29.3766234 0,25.5405177 0,20.8084416 L0,8.56818182 Z" id="形状结合" fill="#FFD475"></path>
                        <ellipse id="椭圆形备份-18" fill="#FAFF9B" cx="41.6216216" cy="8.56818182" rx="41.6216216" ry="8.56818182"></ellipse>
                        <ellipse id="椭圆形备份-18" fill="#FFA42D" cx="41.6216216" cy="7.34415584" rx="32.859175" ry="4.8961039"></ellipse>
                    </g>
                    <g id="编组-31备份-4" transform="translate(20.8108, 25.3247)">
                        <path d="M0,8.56818182 L0.00557610814,8.42649126 C0.37312793,3.75976716 18.8645046,0 41.6216216,0 C64.6086085,0 83.2432432,3.83610567 83.2432432,8.56818182 L83.2432432,20.8084416 C83.2432432,25.5405177 64.6086085,29.3766234 41.6216216,29.3766234 C18.6346347,29.3766234 0,25.5405177 0,20.8084416 L0,8.56818182 Z" id="形状结合" fill="#FFD475"></path>
                        <ellipse id="椭圆形备份-18" fill="#FAFF9B" cx="41.6216216" cy="8.56818182" rx="41.6216216" ry="8.56818182"></ellipse>
                        <ellipse id="椭圆形备份-18" fill="#FFA42D" cx="41.6216216" cy="7.34415584" rx="32.859175" ry="4.8961039"></ellipse>
                    </g>
                    <g id="编组-31备份-6" transform="translate(26.7568, 10.1299)">
                        <path d="M0,8.56818182 L0.00557610814,8.42649126 C0.37312793,3.75976716 18.8645046,0 41.6216216,0 C64.6086085,0 83.2432432,3.83610567 83.2432432,8.56818182 L83.2432432,20.8084416 C83.2432432,25.5405177 64.6086085,29.3766234 41.6216216,29.3766234 C18.6346347,29.3766234 0,25.5405177 0,20.8084416 L0,8.56818182 Z" id="形状结合" fill="#FFD475"></path>
                        <ellipse id="椭圆形备份-18" fill="#FAFF9B" cx="41.6216216" cy="8.56818182" rx="41.6216216" ry="8.56818182"></ellipse>
                        <ellipse id="椭圆形备份-18" fill="#FFA42D" cx="41.6216216" cy="7.34415584" rx="32.859175" ry="4.8961039"></ellipse>
                    </g>
                    <g id="编组-31备份-7" transform="translate(11.8919, 0)">
                        <path d="M0,8.56818182 L0.00557610814,8.42649126 C0.37312793,3.75976716 18.8645046,0 41.6216216,0 C64.6086085,0 83.2432432,3.83610567 83.2432432,8.56818182 L83.2432432,20.8084416 C83.2432432,25.5405177 64.6086085,29.3766234 41.6216216,29.3766234 C18.6346347,29.3766234 0,25.5405177 0,20.8084416 L0,8.56818182 Z" id="形状结合" fill="#FFD475"></path>
                        <ellipse id="椭圆形备份-18" fill="#FAFF9B" cx="41.6216216" cy="8.56818182" rx="41.6216216" ry="8.56818182"></ellipse>
                        <ellipse id="椭圆形备份-18" fill="#FFA42D" cx="41.6216216" cy="7.34415584" rx="32.859175" ry="4.8961039"></ellipse>
                    </g>
                </g>
                <g id="编组-29" transform="translate(90, 211)">
                    <rect id="蒙版" fill="#02ADA9" fill-rule="nonzero" x="5.68773234" y="0" width="300.312268" height="195.454545" rx="18.1962152"></rect>
                    <rect id="蒙版" fill="#27DAD6" fill-rule="nonzero" x="0" y="4.54545455" width="300.312268" height="195.454545" rx="18.1962152"></rect>
                    <rect id="矩形" fill="#FFFFFF" fill-rule="nonzero" opacity="0.64281064" x="22.7509294" y="131.818182" width="182.007435" height="34.0909091" rx="2.2745269"></rect>
                    <rect id="矩形备份-28" fill="#FFFFFF" fill-rule="nonzero" opacity="0.64281064" x="221.408922" y="131.818182" width="55.739777" height="34.0909091" rx="2.2745269"></rect>
                    <path d="M91.0037175,53.4090909 L91.0037175,67.0454545 C91.0037175,72.066225 86.9293423,76.1363636 81.9033457,76.1363636 L75.0780669,76.1363636 L75.0780669,53.4090909 L91.0037175,53.4090909 Z M45.5018587,27.2727273 L45.5018587,51.1363636 L25.0260223,51.1363636 L25.0260223,36.3636364 C25.0260223,31.3428659 29.1003975,27.2727273 34.1263941,27.2727273 L45.5018587,27.2727273 Z M81.9033457,27.2727273 C86.9293423,27.2727273 91.0037175,31.3428659 91.0037175,36.3636364 L91.0037175,51.1363636 L47.7769517,51.1363636 L47.7769517,27.2727273 L81.9033457,27.2727273 Z M72.802974,76.1363636 L34.1263941,76.1363636 C29.1003975,76.1363636 25.0260223,72.066225 25.0260223,67.0454545 L25.0260223,53.4090909 L72.802974,53.4090909 L72.802974,76.1363636 Z" id="形状" fill="#FAFF9B"></path>
                </g>
                <polygon id="路径-4" fill="#FFD0C0" fill-rule="nonzero" points="281.533198 283.489347 290.7546 303.402051 281.533198 314.440775 276.24154 314.440775 276.24154 310.05237 263.663685 295.642094"></polygon>
                <path d="M310.92618,299.99704 C307.397158,302.866521 306.097792,305.884256 307.028084,309.050243 C308.423522,313.799225 342.630581,330.268322 345.21224,330.268322 C346.140132,330.268322 347.899192,325.800538 345.21224,322.534133 C340.42333,316.712471 333.374524,310.407835 330.783109,309.050243 C328.086175,307.637373 321.467198,304.619639 310.92618,299.99704 Z" id="路径-3" fill="#FFA42D" fill-rule="nonzero"></path>
                <path d="M260.578425,175.249054 C231.341669,189.560629 213.202364,199.310147 206.16051,204.49761 C195.597729,212.278804 193.712165,222.855414 199.936337,230.473153 C204.085786,235.551646 226.088346,261.569141 265.944017,308.525637 C278.448097,304.355329 286.125982,298.465151 288.977671,290.855102 C288.977671,287.349027 254.88793,234.51039 252.213621,230.473153 C250.430748,227.781662 264.537996,221.507856 294.535365,211.651735 C318.436501,219.8676 331.729233,224.795661 334.413559,226.435917 C336.875499,227.940283 334.920083,229.64759 333.345768,234.491731 C331.12711,241.318503 322.354549,261.205967 307.028084,294.154124 C306.918872,297.915993 307.956136,300.397781 310.139874,301.599489 C313.415481,303.402051 326.037208,309.671831 333.566391,310.533926 C334.413559,309.050243 377.53768,232.387629 382.321376,226.435917 C387.105072,220.484204 391.031415,210.946301 382.321376,204.49761 C376.514684,200.198483 360.545412,190.001804 334.413559,173.907573 L260.578425,175.249054 Z" id="路径-77" fill="#6F43A3" fill-rule="nonzero"></path>
                <path d="M273.379831,180.572176 C290.922594,184.604911 303.620447,186.621279 311.473391,186.621279 C319.326334,186.621279 324.491087,185.793415 326.967648,184.137687 C332.367543,183.854643 336.653144,184.937888 339.824452,187.387423 C342.99576,189.836958 354.370785,193.634837 373.949525,198.781059 L346.504524,179.654096 L339.170521,165.718529 C316.843029,171.861771 298.162474,173.397581 283.128854,170.325961 C268.095235,167.25434 264.84556,170.669745 273.379831,180.572176 Z" id="路径-76" fill="#592B8F" fill-rule="nonzero"></path>
                <path d="M304.596916,67.7445151 L302.688714,67.0548392 C302.426958,66.9607925 302.225406,67.03394 302.084057,67.2742815 L301.895593,67.6112822 C300.319821,65.0040985 297.820049,64.2856862 294.396279,65.4560452 C294.757503,65.3149752 295.040199,65.1739051 295.244369,65.032835 C295.433879,64.8970105 292.894844,64.6854054 287.627265,64.3980198 C285.156287,64.5495395 283.266408,65.3959598 281.957627,66.9372809 C280.889662,66.6133422 278.553223,66.6133422 277.711212,69.7430076 C278.857938,65.6010835 272.647032,63.4323297 275.62793,58.8123112 C277.511592,55.8928702 280.282222,49.3135885 285.315917,48.5678711 C290.349611,47.8221537 295.089078,47.1201172 297.662304,50.9189453 C298.841871,52.6603296 303.05779,51.873071 304.596916,53.7226562 C305.71985,55.070659 305.774979,58.7808936 306.306352,59.9658203 C308.293945,64.3980198 304.5498,64.1120106 304.596916,67.7445151 Z" id="路径" fill="#292455" fill-rule="nonzero"></path>
                <path d="M294.396279,65.4560452 C293.370195,65.8844802 292.503782,66.6682028 291.79704,67.8072129 C291.666162,68.0162056 291.548372,68.0109808 291.44367,67.7915384 C290.81022,66.4383108 289.538085,65.3071379 287.627265,64.3980198 L293.255205,64.1335427 C293.603029,64.0949211 294.270771,64.0719722 294.396279,64.3980198 C294.521787,64.7240673 295.528634,64.8290982 295.244369,65.032835 C295.040199,65.1739051 294.757503,65.3149752 294.396279,65.4560452 Z" id="路径" fill="#FFD0C0" fill-rule="nonzero"></path>
                <path d="M287.627265,64.3980198 C289.538085,65.3071379 290.81022,66.4383108 291.44367,67.7915384 C291.548372,68.0109808 291.666162,68.0162056 291.79704,67.8072129 C292.503782,66.6682028 293.370195,65.8844802 294.396279,65.4560452 C297.820049,64.2856862 300.319821,65.0040985 301.895593,67.6112822 L302.837915,70.3778229 C302.932147,70.659963 302.877178,70.9055294 302.673009,71.1145221 C301.667865,72.1411986 301.36161,73.371643 300.003096,74.0926678 C297.097603,75.6548881 294.451248,75.0540341 292.064032,72.2901059 C292.014528,72.2304208 291.994343,72.1527152 292.009063,72.0785008 C292.035239,71.9740045 292.011681,71.8825702 291.938389,71.8041979 C291.723749,71.5899804 291.548372,71.6187169 291.412259,71.8904074 C289.331298,76.0676486 283.928651,75.8795552 281.549287,72.015803 C281.402704,71.7806862 281.198534,71.6161045 280.936778,71.5220578 C280.544144,71.3809877 280.190773,71.1772199 279.876665,70.9107542 C279.630615,70.7069863 279.55994,70.4535827 279.664643,70.1505433 C279.769345,69.8475039 279.994456,69.6620229 280.339974,69.5941003 C280.549379,69.5523018 280.596495,69.6228368 280.481322,69.8057054 C280.444676,69.8684032 280.40803,69.9337134 280.371385,70.001636 C280.287623,70.1374813 280.264065,70.2837762 280.30071,70.4405207 C280.347826,70.6233893 280.455147,70.7540097 280.62267,70.832382 C281.015305,71.0204754 281.195916,70.8976922 281.164506,70.4640324 C281.1488,70.2707141 281.093832,70.0904579 280.999599,69.9232638 C280.863486,69.6933718 280.847781,69.4582551 280.952483,69.2179135 L281.957627,66.9372809 C283.266408,65.3959598 285.156287,64.5495395 287.627265,64.3980198 Z M291.082446,69.7430076 C291.082446,67.1935917 289.01166,65.1268817 286.457215,65.1268817 C283.90277,65.1268817 281.831984,67.1935917 281.831984,69.7430076 C281.831984,72.2924235 283.90277,74.3591335 286.457215,74.3591335 C289.01166,74.3591335 291.082446,72.2924235 291.082446,69.7430076 L291.082446,69.7430076 Z M293.273345,72.4781993 L294.569038,73.5910854 C297.199687,74.6882969 300.529226,74.1553656 301.526517,71.2712666 C302.162584,69.4138441 301.393021,66.9137692 299.398439,66.2005816 C299.141918,66.1065349 298.89325,66.1222094 298.652434,66.247605 C297.238951,66.9581801 295.723383,67.1149246 294.10573,66.7178385 C293.823033,66.6446911 293.584835,66.7152261 293.391135,66.9294436 C291.721131,68.7581296 291.681868,70.6077148 293.273345,72.4781993 Z" id="形状" fill="#292455" fill-rule="nonzero"></path>
                <path d="M291.082446,69.7430076 C291.082446,72.2924235 289.01166,74.3591335 286.457215,74.3591335 C283.90277,74.3591335 281.831984,72.2924235 281.831984,69.7430076 C281.831984,67.1935917 283.90277,65.1268817 286.457215,65.1268817 C289.01166,65.1268817 291.082446,67.1935917 291.082446,69.7430076 L291.082446,69.7430076 Z M286.67709,67.705329 C285.729533,68.6666953 285.276695,69.8213799 285.318576,71.1693827 C285.349987,72.2718191 285.784502,72.67413 286.622121,72.3763154 C286.957169,72.7734015 287.292217,72.9850066 287.627265,73.0111307 C288.009429,73.0424796 288.281655,72.8517737 288.443944,72.4390132 C288.621938,71.9949037 288.548647,71.4880965 288.224069,70.9185914 C289.040748,70.7200484 289.077394,69.6463485 288.334007,67.6974917 C289.077394,67.5825458 289.176861,67.1541108 288.632409,66.4121867 C288.475355,66.2031941 288.26595,66.0960853 288.004194,66.0908605 L284.603981,66.0438334 C284.404697,66.0430922 284.222095,66.1547848 284.132307,66.3323475 C284.04252,66.5099103 284.060958,66.7228629 284.179937,66.8824203 C284.698214,67.5825458 285.530598,67.8568487 286.67709,67.705329 Z" id="形状" fill="#FFD0C0" fill-rule="nonzero"></path>
                <path d="M288.334007,67.6974917 C287.831435,67.7915384 287.279129,67.7941508 286.67709,67.705329 C285.530598,67.8568487 284.698214,67.5825458 284.179937,66.8824203 C284.060958,66.7228629 284.04252,66.5099103 284.132307,66.3323475 C284.222095,66.1547848 284.404697,66.0430922 284.603981,66.0438334 L288.004194,66.0908605 C288.26595,66.0960853 288.475355,66.2031941 288.632409,66.4121867 C289.176861,67.1541108 289.077394,67.5825458 288.334007,67.6974917 Z" id="路径" fill="#292455" fill-rule="nonzero"></path>
                <path d="M294.569038,73.5910854 L295.27578,73.4892014 C295.438069,73.4683022 295.529683,73.3768679 295.550624,73.2148985 C295.561094,73.1313015 295.574182,73.0477044 295.589887,72.9641073 C296.202396,73.288046 296.621206,73.2175109 296.846317,72.7525022 C296.930079,72.5853081 297.013841,72.2300205 297.097603,71.6866395 C297.814814,71.1693827 297.848843,70.3438616 297.199687,69.2100763 C296.665705,68.274834 295.835938,68.0527793 294.710386,68.5439121 C293.631951,69.0141456 293.152937,70.3255747 293.273345,72.4781993 C291.681868,70.6077148 291.721131,68.7581296 293.391135,66.9294436 C293.584835,66.7152261 293.823033,66.6446911 294.10573,66.7178385 C295.723383,67.1149246 297.238951,66.9581801 298.652434,66.247605 C298.89325,66.1222094 299.141918,66.1065349 299.398439,66.2005816 C301.393021,66.9137692 302.162584,69.4138441 301.526517,71.2712666 C300.529226,74.1553656 297.199687,74.6882969 294.569038,73.5910854 Z" id="路径" fill="#FFD0C0" fill-rule="nonzero"></path>
                <path d="M286.67709,67.705329 C287.279129,67.7941508 287.831435,67.7915384 288.334007,67.6974917 C289.077394,69.6463485 289.040748,70.7200484 288.224069,70.9185914 C287.61156,70.5476294 287.101135,70.6704126 286.692796,71.286941 C286.525272,71.5325074 286.501714,71.8956322 286.622121,72.3763154 C285.784502,72.67413 285.349987,72.2718191 285.318576,71.1693827 C285.276695,69.8213799 285.729533,68.6666953 286.67709,67.705329 Z" id="路径" fill="#F9EFF0" fill-rule="nonzero"></path>
                <path d="M297.097603,71.6866395 C296.731144,70.646901 296.215484,70.3908849 295.550624,70.9185914 C294.922409,71.4201739 294.935497,72.1020125 295.589887,72.9641073 C295.574182,73.0477044 295.561094,73.1313015 295.550624,73.2148985 C295.529683,73.3768679 295.438069,73.4683022 295.27578,73.4892014 L294.569038,73.5910854 L293.273345,72.4781993 C293.152937,70.3255747 293.631951,69.0141456 294.710386,68.5439121 C295.835938,68.0527793 296.665705,68.274834 297.199687,69.2100763 C297.848843,70.3438616 297.814814,71.1693827 297.097603,71.6866395 Z" id="路径" fill="#F9EFF0" fill-rule="nonzero"></path>
                <path d="M288.224069,70.9185914 C288.548647,71.4880965 288.621938,71.9949037 288.443944,72.4390132 C288.281655,72.8517737 288.009429,73.0424796 287.627265,73.0111307 C287.292217,72.9850066 286.957169,72.7734015 286.622121,72.3763154 C286.501714,71.8956322 286.525272,71.5325074 286.692796,71.286941 C287.101135,70.6704126 287.61156,70.5476294 288.224069,70.9185914 Z" id="路径" fill="#292455" fill-rule="nonzero"></path>
                <path d="M297.097603,71.6866395 C297.013841,72.2300205 296.930079,72.5853081 296.846317,72.7525022 C296.621206,73.2175109 296.202396,73.288046 295.589887,72.9641073 C294.935497,72.1020125 294.922409,71.4201739 295.550624,70.9185914 C296.215484,70.3908849 296.731144,70.646901 297.097603,71.6866395 Z" id="路径" fill="#292455" fill-rule="nonzero"></path>
                <path d="M291.88342,79.2103761 C292.553516,79.1581279 293.210524,78.9621973 293.854444,78.6225842 C293.89109,78.6016849 293.919883,78.6095221 293.940823,78.6460958 L294.050761,78.8185148 C294.111898,78.9205075 294.080566,79.0525388 293.980087,79.1163294 C292.707952,79.9575249 291.399171,79.983649 290.053745,79.1947016 C289.765813,79.0222827 289.781518,78.8890498 290.100861,78.7950031 C290.373087,78.7166309 290.632226,78.7636542 290.878276,78.9360732 C291.181914,79.1450659 291.516961,79.2365002 291.88342,79.2103761 Z" id="路径" fill="#292455" fill-rule="nonzero"></path>
                <path d="M299.272796,140.160479 C299.995243,151.545356 301.869417,162.820511 304.895318,173.985945 L291.208089,173.40599 C292.810037,166.83317 293.799475,162.530533 294.176404,160.49808 C295.364777,154.07678 296.199779,147.613681 296.68141,141.108784 L296.712821,140.089944 C296.729765,139.64025 297.105784,139.285821 297.560911,139.290501 C299.00057,139.300997 299.571198,139.590974 299.272796,140.160479 Z" id="路径" fill="#FF8888" fill-rule="nonzero"></path>
                <path d="M346.744032,173.384068 C346.744032,173.384068 346.040403,176.924496 347.148029,179.370651 C347.941052,181.122014 351.429755,181.898664 352.353711,182.391342 C356.264347,184.47082 358.408746,186.967003 360.853548,189.919024 C360.853548,190.404932 360.775021,190.77067 360.617967,191.016236 C360.434738,191.303601 360.172982,191.428997 359.832699,191.392423 C358.277867,191.225229 356.662832,190.856879 354.987593,190.287374 C349.605886,188.458688 344.789552,186.368184 340.405121,183.279094 C339.532649,182.664386 338.602428,181.535158 338.602428,179.370651 C338.602428,177.206144 339.239562,174.347941 339.375675,174.353166 C342.202642,174.53081 344.07412,174.491729 346.744032,173.384068 Z" id="路径" fill="#FFD0C0" fill-rule="nonzero"></path>
                <path d="M346.441096,176.610276 C343.425515,176.800377 341.429429,177.361423 340.452837,178.293414 C339.723177,178.989751 339.745065,182.36469 341.168091,183.748596 C341.600717,184.169329 341.099331,183.847765 339.66393,182.783902 C338.801124,181.563212 338.44729,180.066383 338.602428,178.293414 C338.835137,175.633961 339.66393,173.384068 339.66393,173.384068 C339.66393,173.384068 342.011199,172.960113 346.705737,172.112204 L346.441096,176.610276 Z" id="路径-5" fill="#F89B91" fill-rule="nonzero"></path>
                <path d="M303.426866,101.507283 L300.042359,110.527929 L291.742072,110.465232 C289.564261,108.140188 287.820965,105.681912 286.512184,103.090402 C290.778809,104.391382 294.731327,104.783243 298.369737,104.265986 C299.333,104.130141 301.01871,103.210573 303.426866,101.507283 Z" id="路径" fill="#FFD0C0" fill-rule="nonzero"></path>
                <path d="M261.091797,179.654096 L256.550781,178.769531 C254.603315,177.72718 256.27332,175.540959 256.550781,172.47336 C256.828243,169.405762 256.828243,165.462785 256.550781,163.200439 C258.00091,162.662283 259.474144,160.423313 261.091797,159.864258 C268.483791,157.324997 270.881348,154.759766 276.068113,150.348873 C276.268853,150.178161 276.193756,149.938724 275.94247,149.808104 C269.958725,146.657539 272.492524,147.229657 275.754006,149.110591 C276.031468,149.27256 276.322017,149.301297 276.625654,149.1968 C278.549562,148.561985 281.541435,143.099439 282.31885,141.547668 C282.38361,141.418836 282.521823,141.343793 282.66538,141.359518 C282.808938,141.375243 282.927551,141.47842 282.96277,141.618203 C283.748039,144.659047 281.580698,149.486778 279.97875,152.057388 C277.469653,156.084575 274.804558,159.941281 271.983465,163.627506 C269.636572,166.69411 267.181717,169.642728 264.618899,172.47336 C263.80222,173.377254 261.735717,177.54327 261.091797,179.654096 Z" id="路径" fill="#4D66DA" fill-rule="nonzero"></path>
                <path d="M326.414063,178.019826 C325.895785,176.640475 321.88591,152.441412 320.577129,144.463116 C319.744745,139.353245 319.721187,133.914211 319.257878,128.639758 C319.048473,126.220667 318.854774,123.908686 318.67678,121.703813 C318.650604,121.338076 318.744836,121.029812 318.959476,120.77902 C319.002834,120.726792 319.071898,120.703275 319.1382,120.718164 C319.204503,120.733053 319.256818,120.783826 319.273584,120.849556 C320.509073,125.191378 321.922556,129.721295 323.514033,134.439305 C327.039889,144.93335 332.220703,154.582074 332.220703,169.905273 C332.220703,173.367781 329.857947,177.305909 326.414063,178.019826 Z" id="路径" fill="#4D66DA" fill-rule="nonzero"></path>
                <path d="M311.272705,91.2456055 C312.782471,93.3508159 305.390037,107.129186 301.934856,111.585955 C301.547457,110.854481 296.967606,111.559831 296.09334,111.585955 C280.2742,98.6373623 273.136966,91.4114404 274.681641,89.908189 C275.210205,89.3937988 283.301514,87.409668 283.301514,87.409668 C283.301514,88.8522808 282.870797,92.825522 286.457215,93.6777344 C292.2211,95.0473614 295.836576,94.9008139 298.705811,93.3410645 C300.780692,92.2131348 300.42041,88.994873 299.539551,87.409668 C299.769321,87.2193831 302.411351,87.8353417 304.817627,88.4655762 C307.717529,89.2250977 310.467873,90.1233512 311.272705,91.2456055 Z" id="路径" fill="#FFFFFF" fill-rule="nonzero"></path>
                <path d="M306.726012,89.2250977 C307.953178,89.5935606 315.559952,91.6194579 319.582455,92.626056 C323.659523,93.6463085 327.036731,94.7011969 329.037408,98.0742188 C329.544647,98.929392 338.566963,109.881529 342.63635,122.149828 C346.705737,134.418127 348.851069,173.49941 348.343262,173.985945 C346.329117,174.821549 338.566963,175.775391 335.489258,175.775391 C334.439128,175.671371 333.567871,174.22378 332.875488,171.432617 C331.836914,167.245873 330.197072,162.503965 329.037408,155.367188 C327.877745,148.23041 327.671538,139.922214 326.967648,137.234375 C326.227643,134.408626 323.556944,130.360985 318.95555,125.091454 C319.0524,126.247445 319.153176,127.430213 319.257878,128.639758 C319.721187,133.914211 319.744745,139.353245 320.577129,144.463116 L325.007324,167.657715 C325.446607,170.457031 326.449371,176.640475 326.967648,178.019826 C323.933234,180.348307 317.046135,181.758296 306.306352,182.249794 C290.196679,182.987041 267.358239,181.566379 261.091797,179.654096 C261.735717,177.54327 263.80222,173.377254 264.618899,172.47336 C270.262362,166.240154 275.382312,159.434829 279.97875,152.057388 C281.580698,149.486778 283.748039,144.659047 282.96277,141.618203 C282.927551,141.47842 282.808938,141.375243 282.66538,141.359518 C282.609129,141.353356 282.279722,142.238842 281.895964,143.32591 L280.534404,147.264312 L280.45153,147.414027 C279.221713,149.492335 269.724437,158.03514 262.532227,160.505773 C260.914574,161.064828 255.310851,164.372281 253.860722,164.910438 C252.243069,164.832065 250.654209,164.785042 249.094142,164.769368 C244.879868,164.727569 234.969414,149.276466 237.770571,141.108784 C238.694948,138.413464 239.585372,135.758953 240.448398,133.167494 L243.07282,125.271895 L244.120785,122.149828 C248.270449,109.871446 251.939513,100.199144 256.055664,96.2806823 C259.071609,93.4095867 262.914845,92.3850591 266.862793,91.4980469 C270.345775,90.7155017 278.177048,88.6518555 278.462158,88.6518555 C279.062287,90.9036915 279.561287,99.5656021 291.596185,100.148034 C303.631084,100.730466 306.66445,90.8618716 306.726012,89.2250977 Z" id="路径" fill="#758DFB" fill-rule="nonzero"></path>
                <path d="M276.013145,210.946301 C277.411056,210.399927 278.862794,209.812656 279.942382,209.356807 C281.02197,208.900957 281.60697,208.628228 281.525729,208.618645 C281.525729,208.618645 281.525729,208.618645 281.525729,208.618645 C281.60697,208.628228 281.02197,208.900957 279.942382,209.356807 C278.862794,209.812656 277.411056,210.399927 276.013145,210.946301 L276.013145,210.946301 Z" id="路径" fill="#054E85" fill-rule="nonzero"></path>
                <path d="M276.013145,210.946301 C273.990589,211.744121 272.494766,212.289905 272.361646,212.278629 C272.361646,212.278629 272.361646,212.278629 272.361646,212.278629 C272.485963,212.290035 273.983462,211.74364 276.013145,210.946301 L276.013145,210.946301 Z" id="路径" fill="#054E85" fill-rule="nonzero"></path>
                <path d="M289.72442,300.945831 C291.215826,300.945831 292.778461,301.654856 294.025621,303.402051 C295.27278,305.149245 292.778461,312.747863 292.011158,314.434788 C290.000871,318.839309 287.980113,323.191582 285.948885,327.491606 C283.792015,332.193942 282.323563,335.268746 281.543529,336.716021 C280.695439,338.291303 278.237549,341.959125 275.952418,339.51391 C273.478822,336.872765 273.533791,332.617152 273.651581,328.447748 C274.122742,322.217153 274.788126,317.564175 276.013145,312.140815 C276.013145,312.140815 276.694052,314.440775 278.605816,314.440775 C280.517579,314.440775 289.72442,303.402051 289.72442,300.945831 Z" id="路径" fill="#FFA42D" fill-rule="nonzero"></path>
                <path d="M278.671581,314.869522 C278.750108,315.141212 278.653258,315.590546 278.381032,316.217524 C277.841814,316.07123 277.383741,316.118253 277.006812,316.358594 C273.933795,318.297002 270.910511,320.292882 267.936962,322.346235 C267.910786,322.367134 267.887228,322.364522 267.866287,322.338398 L267.685676,322.181653 C267.641571,322.140764 267.61699,322.083151 267.618438,322.024219 C267.620018,321.965288 267.647473,321.911047 267.693528,321.876001 C270.646138,319.634555 273.656333,317.656961 276.724116,315.943221 C277.158631,315.70288 277.132455,315.530461 276.645589,315.425965 C274.996525,315.070677 273.352696,314.958343 271.714103,315.088964 C271.494228,315.104638 271.415701,315.005367 271.478522,314.791149 C271.525638,314.63963 271.627723,314.561257 271.784777,314.556033 C274.02541,314.493335 276.321011,314.597831 278.671581,314.869522 Z" id="路径" fill="#592B8F" fill-rule="nonzero"></path>
                <path d="M340.157416,310.054817 C339.141802,310.760168 337.940341,311.240851 336.553034,311.496867 C335.74159,311.648386 335.704944,311.91224 336.443096,312.288427 C337.532002,312.842257 338.846018,313.239343 340.385144,313.479685 C340.468855,313.493468 340.538675,313.551111 340.56793,313.630594 C340.597186,313.710077 340.581358,313.79912 340.526492,313.863709 L340.283059,314.161523 C340.235943,314.218996 340.175739,314.239896 340.102447,314.224221 L335.95623,313.150521 C334.825443,312.429497 334.46422,311.89134 334.872559,311.536053 C336.505918,310.506764 338.267536,310.013019 340.157416,310.054817 Z" id="路径" fill="#592B8F" fill-rule="nonzero"></path>
                <path d="M294.025621,203.335067 C272.185482,212.065523 257.995125,217.781902 251.454549,220.484204 C243.757695,223.664233 236.772943,227.891301 236.772943,232.520162 C236.772943,238.110731 250.47158,258.312051 277.868855,293.124124" id="路径-73" stroke="#592B8F" stroke-width="0.752881353" stroke-linecap="round" stroke-linejoin="round"></path>
                <path d="M302.429431,204.49761 C321.794767,211.319774 333.806805,215.813892 338.465544,217.979966 C345.453654,221.229076 345.37502,222.712667 346.149538,223.387578 C348.481691,225.419804 339.322682,247.744247 318.672512,290.360907" id="路径-74" stroke="#592B8F" stroke-width="0.752881353" stroke-linecap="round" stroke-linejoin="round"></path>
                <rect id="矩形" fill="#292455" x="285.020174" y="109.979324" width="16.4906374" height="30.5651797" rx="2.35275423"></rect>
                <line x1="295.458754" y1="195.853128" x2="295.329267" y2="210.946301" id="路径-75" stroke="#592B8F" stroke-width="0.752881353" stroke-linecap="round" stroke-linejoin="round"></line>
                <path d="M301.76995,120.379322 C302.382459,121.304115 302.568306,122.082612 302.32749,122.714815 C302.09191,123.326119 301.992443,123.893011 302.029088,124.415493 C300.531843,127.304817 298.149862,129.763093 294.883145,131.790322 C291.412259,133.937722 287.794789,136.106021 284.030736,138.29522 C283.517693,138.812477 282.886861,139.039756 282.138239,138.977058 C281.876482,138.950934 281.656607,138.841213 281.478613,138.647895 C279.693436,136.678139 278.821788,134.110141 278.863669,130.943902 C278.872431,130.440787 279.167537,129.985335 279.62538,129.768318 L285.004468,127.27608 C290.422821,123.874725 296.011315,121.575805 301.76995,120.379322 Z" id="路径" fill="#FFD0C0" fill-rule="nonzero"></path>
                <path d="M264.762692,181.654096 C261.706484,184.850214 256.937103,186.505942 250.454549,186.621279" id="路径-78" stroke="#592B8F" stroke-width="0.752881353" stroke-linecap="round" stroke-linejoin="round"></path>
                <path d="M284.075878,286.03831 C278.607173,295.696629 271.803109,300.883689 263.663685,301.599489" id="路径-79" stroke="#4A4062" stroke-width="0.752881353" stroke-linecap="round" stroke-linejoin="round"></path>
                <path d="M310.92618,292.586679 C316.016689,298.278056 322.635666,301.88318 330.783109,303.402051" id="路径-80" stroke="#4A4062" stroke-width="0.752881353" stroke-linecap="round" stroke-linejoin="round"></path>
                <path d="M246.297007,138.987225 C254.546448,135.524782 259.450102,133.454978 261.007969,132.777813 C263.344771,131.762066 263.534953,131.600576 264.623516,131.600576 C265.712079,131.600576 262.418399,141.07145 272.897592,148.042058 C272.897592,148.042058 273.98263,148.071591 272.897592,147.286125 C267.751937,143.561146 265.401503,137.998687 266.063686,131.204699 C266.132502,130.498651 268.86731,129.312989 269.390475,128.886547 C269.91364,128.460104 266.00937,130.110651 266.063686,129.312989 C266.274525,126.21667 266.444641,121.380379 266.574034,114.804116 C266.233802,112.219005 266.063686,111.480566 266.063686,112.588798 C266.063686,113.582574 264.525949,118.460278 262.844392,123.285004 C261.713107,126.530889 260.626685,129.838504 258.314528,131.600576 C255.504201,133.742299 249.293572,136.818004 246.297007,138.466567 C245.570293,138.866369 245.570293,139.039922 246.297007,138.987225 Z" id="路径-81" fill="#4D66DA" fill-rule="nonzero"></path>
                <path d="M280.061058,129.683274 C279.746899,131.996616 280.491204,133.734766 282.293973,134.897721 C284.998126,136.642154 290.642328,133.543326 292.952229,132.777813 C294.492163,132.267471 291.217704,134.337275 283.128854,138.987225 C282.442572,139.414403 281.625429,139.056017 280.677425,137.912068 C279.255418,136.196144 278.862229,133.422884 278.862229,131.486921 C278.862229,130.196279 279.261839,129.595063 280.061058,129.683274 Z" id="路径-82" fill="#F89B91" fill-rule="nonzero"></path>
                <g id="编组-31备份-2" transform="translate(60, 401)" fill-rule="nonzero">
                    <path d="M0,8.45833333 L0.00562680003,8.31845933 C0.376520002,3.71156502 19.0360001,0 42,0 C65.1959595,0 84,3.78692482 84,8.45833333 L84,20.5416667 C84,25.2130752 65.1959595,29 42,29 C18.8040405,29 0,25.2130752 0,20.5416667 L0,8.45833333 Z" id="形状结合" fill="#FFD475"></path>
                    <ellipse id="椭圆形备份-18" fill="#FAFF9B" cx="42" cy="8.5" rx="42" ry="8.5"></ellipse>
                    <ellipse id="椭圆形备份-18" fill="#FFA42D" cx="42" cy="8" rx="33" ry="5"></ellipse>
                </g>
                <g id="编组-31备份-3" transform="translate(46, 384)" fill-rule="nonzero">
                    <path d="M0,8.45833333 L0.00562680003,8.31845933 C0.376520002,3.71156502 19.0360001,0 42,0 C65.1959595,0 84,3.78692482 84,8.45833333 L84,20.5416667 C84,25.2130752 65.1959595,29 42,29 C18.8040405,29 0,25.2130752 0,20.5416667 L0,8.45833333 Z" id="形状结合" fill="#FFD475"></path>
                    <ellipse id="椭圆形备份-18" fill="#FAFF9B" cx="42" cy="8.5" rx="42" ry="8.5"></ellipse>
                    <ellipse id="椭圆形备份-18" fill="#FFA42D" cx="42" cy="7" rx="33" ry="5"></ellipse>
                </g>
                <g id="编组-31备份" transform="translate(54, 370)" fill-rule="nonzero">
                    <path d="M0,8.45833333 L0.00562680003,8.31845933 C0.376520002,3.71156502 19.0360001,0 42,0 C65.1959595,0 84,3.78692482 84,8.45833333 L84,20.5416667 C84,25.2130752 65.1959595,29 42,29 C18.8040405,29 0,25.2130752 0,20.5416667 L0,8.45833333 Z" id="形状结合" fill="#FFD475"></path>
                    <ellipse id="椭圆形备份-18" fill="#FAFF9B" cx="42" cy="8.5" rx="42" ry="8.5"></ellipse>
                    <ellipse id="椭圆形备份-18" fill="#FFA42D" cx="42" cy="8" rx="33" ry="5"></ellipse>
                </g>
                <g id="编组-31" transform="translate(64, 359)" fill-rule="nonzero">
                    <path d="M0,8.45833333 L0.00562680003,8.31845933 C0.376520002,3.71156502 19.0360001,0 42,0 C65.1959595,0 84,3.78692482 84,8.45833333 L84,20.5416667 C84,25.2130752 65.1959595,29 42,29 C18.8040405,29 0,25.2130752 0,20.5416667 L0,8.45833333 Z" id="形状结合" fill="#FFD475"></path>
                    <ellipse id="椭圆形备份-18" fill="#FAFF9B" cx="42" cy="8.5" rx="42" ry="8.5"></ellipse>
                    <ellipse id="椭圆形备份-18" fill="#FFA42D" cx="42" cy="8" rx="33" ry="5"></ellipse>
                </g>
                <g id="编组-31备份-2" transform="translate(54, 346)" fill-rule="nonzero">
                    <path d="M0,8.45833333 L0.00562680003,8.31845933 C0.376520002,3.71156502 19.0360001,0 42,0 C65.1959595,0 84,3.78692482 84,8.45833333 L84,20.5416667 C84,25.2130752 65.1959595,29 42,29 C18.8040405,29 0,25.2130752 0,20.5416667 L0,8.45833333 Z" id="形状结合" fill="#FFD475"></path>
                    <ellipse id="椭圆形备份-18" fill="#FAFF9B" cx="42" cy="8.5" rx="42" ry="8.5"></ellipse>
                    <ellipse id="椭圆形备份-18" fill="#FFA42D" cx="42" cy="8" rx="33" ry="5"></ellipse>
                </g>
                <g id="编组-31备份-3" transform="translate(54, 333)" fill-rule="nonzero">
                    <path d="M0,8.45833333 L0.00562680003,8.31845933 C0.376520002,3.71156502 19.0360001,0 42,0 C65.1959595,0 84,3.78692482 84,8.45833333 L84,20.5416667 C84,25.2130752 65.1959595,29 42,29 C18.8040405,29 0,25.2130752 0,20.5416667 L0,8.45833333 Z" id="形状结合" fill="#FFD475"></path>
                    <ellipse id="椭圆形备份-18" fill="#FAFF9B" cx="42" cy="8.5" rx="42" ry="8.5"></ellipse>
                    <ellipse id="椭圆形备份-18" fill="#FFA42D" cx="42" cy="7" rx="33" ry="5"></ellipse>
                </g>
                <g id="编组-31备份" transform="translate(40, 320)" fill-rule="nonzero">
                    <path d="M0,8.45833333 L0.00562680003,8.31845933 C0.376520002,3.71156502 19.0360001,0 42,0 C65.1959595,0 84,3.78692482 84,8.45833333 L84,20.5416667 C84,25.2130752 65.1959595,29 42,29 C18.8040405,29 0,25.2130752 0,20.5416667 L0,8.45833333 Z" id="形状结合" fill="#FFD475"></path>
                    <ellipse id="椭圆形备份-18" fill="#FAFF9B" cx="42" cy="8.5" rx="42" ry="8.5"></ellipse>
                    <ellipse id="椭圆形备份-18" fill="#FFA42D" cx="42" cy="7" rx="33" ry="5"></ellipse>
                </g>
            </g>
        </g>
    </g>
</svg>