<?xml version="1.0" encoding="UTF-8"?>
<svg width="30px" height="30px" viewBox="0 0 30 30" version="1.1" xmlns="http://www.w3.org/2000/svg" xmlns:xlink="http://www.w3.org/1999/xlink">
    <title>矩形</title>
    <g id="页面-1" stroke="none" stroke-width="1" fill="none" fill-rule="evenodd">
        <g id="14" transform="translate(-525, -441)" fill-rule="nonzero">
            <g id="编组备份" transform="translate(500, 428)">
                <g id="更新" transform="translate(25, 13)">
                    <rect id="矩形" fill="#000000" opacity="0" x="0" y="0" width="30" height="30"></rect>
                    <path d="M4.04375001,8.78750001 C4.52640752,8.78805569 4.96561966,9.06643815 5.17212404,9.50268868 C5.37862843,9.93893921 5.31552271,10.4550998 5.01,10.82875 L5.01500001,10.83 C3.50441546,13.0889994 3.33397428,15.9884057 4.56947937,18.4088336 C5.80498447,20.8292615 8.25312971,22.3920128 10.96875,22.49375 L11.25,22.5 L17.5,22.49875 L17.5,20.15125 C17.4998613,20.0406342 17.5241925,19.9313573 17.57125,19.83125 L17.62625,19.735 C17.8561766,19.3905693 18.3217491,19.2976787 18.66625,19.5275 L24.0625,23.125 C24.2709,23.2641415 24.3960436,23.4981688 24.3960436,23.74875 C24.3960436,23.9993312 24.2709,24.2333585 24.0625,24.3725 L18.665,27.9725 C18.4347067,28.1261492 18.1384986,28.1404385 17.8944848,28.0096701 C17.6504711,27.8789017 17.4983392,27.6243445 17.49875,27.3475 L17.49875,24.9975 L11.25,25 C7.5338566,25.0003262 4.12400895,22.9399296 2.39600773,19.6499853 C0.668006516,16.360041 0.906874091,12.3832034 3.01625001,9.32375001 C3.24990064,8.98694679 3.6338366,8.78624992 4.04375001,8.78624992 L4.04375001,8.78750001 Z M12.37375,2.235 C12.4560279,2.35823223 12.4999592,2.50307497 12.5,2.65125 L12.5,5.00000001 L18.75,5.00000001 C22.4364441,4.9994464 25.8242201,7.02713808 27.5655529,10.2763888 C29.3068858,13.5256396 29.1193293,17.4694172 27.0775,20.53875 L27.0525,20.57625 C27.0295209,20.6106572 27.0061863,20.6448257 26.9825,20.67875 C26.7475,20.95375 26.40125,21.12875 26.01375,21.12875 C25.5179342,21.12875 25.0689568,20.8357931 24.8693725,20.3819216 C24.6697882,19.9280501 24.7573286,19.3991174 25.0925,19.03375 L25.08,19.02375 C26.5215649,16.7563615 26.6400949,13.8910546 25.3907262,11.5123495 C24.1413574,9.13364443 21.714988,7.6049966 19.03,7.50500001 L18.75,7.5 L12.5,7.49874999 L12.5,9.84875001 C12.5004108,10.1255946 12.3482789,10.3801517 12.1042652,10.5109201 C11.8602515,10.6416884 11.5640433,10.6273992 11.33375,10.47375 L5.93750001,6.87249999 C5.72909996,6.73335845 5.60395642,6.49933122 5.60395642,6.24875 C5.60395642,5.99816878 5.72909996,5.76414154 5.93750001,5.625 L11.335,2.025 C11.5005899,1.91475375 11.7031958,1.87481088 11.8982383,1.91396003 C12.0932809,1.95310919 12.2647797,2.06814281 12.375,2.23374999 L12.37375,2.235 Z" id="形状" fill="#292455"></path>
                </g>
            </g>
        </g>
    </g>
</svg>