<?xml version="1.0" encoding="UTF-8"?>
<svg width="540px" height="442px" viewBox="0 0 540 442" version="1.1" xmlns="http://www.w3.org/2000/svg" xmlns:xlink="http://www.w3.org/1999/xlink">
    <title>编组 30</title>
    <defs>
        <linearGradient x1="28.0695203%" y1="11.9859274%" x2="100%" y2="96.0908991%" id="linearGradient-1">
            <stop stop-color="#FFFFFF" offset="0.0682910839%"></stop>
            <stop stop-color="#EFC8FF" offset="100%"></stop>
        </linearGradient>
        <path d="M73.8940427,0 C134.631348,11.6994481 165,55.6815009 165,131.946159 C165,131.946159 112.916569,118.529168 8.74970717,91.6951883 C-2.91656906,65.3782434 -2.91656906,44.1467856 8.74970717,28.0008149 C17.0922535,16.4548419 28.910781,6.58963222 47.5302734,2.01089819 C52.475699,0.794764703 61.2636221,0.124465306 73.8940427,0 Z" id="path-2"></path>
    </defs>
    <g id="页面-1" stroke="none" stroke-width="1" fill="none" fill-rule="evenodd">
        <g id="3" transform="translate(-130, -962)">
            <g id="编组-30" transform="translate(130, 962)">
                <path d="M540,13.6700429 L540,415.056601 C540,418.37031 537.313708,421.056601 534,421.056601 L142.155938,421.056601 C141.553237,421.056596 140.953976,420.965781 140.378335,420.787216 C-12.1897942,373.432232 -40.3956935,305.125288 55.7609928,215.865238 C151.059798,127.401538 310.032757,58.0522784 532.67987,7.81745772 L532.67985,7.8173661 C535.912353,7.08826727 539.123867,9.11767772 539.852965,12.3501812 C539.950665,12.783339 539.999979,13.2260037 540,13.6700429 Z" id="矩形" fill="url(#linearGradient-1)"></path>
                <path d="M214.086285,297.963016 C213.76433,286.723417 213.010277,277.081024 211.824126,269.035838 C210.592789,260.754028 209.43488,254.148299 208.3504,249.218651 C206.797107,242.170662 204.407861,233.736737 201.182661,223.916878 C200.98497,223.314052 200.66019,222.784467 200.208323,222.328122 C199.496633,221.612619 199.248106,221.747832 199.462743,222.733762 C201.27021,230.919795 202.990129,239.249493 204.622498,247.722855 C206.562701,257.779338 209.104453,268.292165 210.468526,278.788091 C210.784833,281.216295 210.666218,283.675486 210.112681,286.165662 C209.321914,289.737545 208.228961,293.05872 206.833821,296.129186 C205.591188,298.884156 204.351378,301.585603 203.114392,304.233529 C203.028688,304.417874 203.034271,304.631615 203.129446,304.809819 C203.22462,304.988023 203.398152,305.109656 203.597325,305.137767 L203.961643,305.196923" id="路径" stroke="#6A5C93" stroke-width="0.847931554"></path>
                <g id="编组-28" transform="translate(217.007, 0)">
                    <g id="路径-3" transform="translate(95.993, 1.1799)">
                        <mask id="mask-3" fill="white">
                            <use xlink:href="#path-2"></use>
                        </mask>
                        <use id="蒙版" fill="#FF8888" xlink:href="#path-2"></use>
                        <path d="M135.349609,24.8201206 C87.5889352,19.0162576 54.8740915,23.5722472 37.2050781,38.4880893 C19.5360648,53.4039315 22.3026673,81.4728947 45.5048855,122.694979 L-19.109375,107.418839 C-28.696611,56.4181307 -33.490229,28.8852247 -33.490229,24.8201206 C-33.490229,18.7224643 20.491862,-55.1798794 20.491862,-55.1798794 C20.491862,-55.1798794 110.622115,-36.1251919 110.622115,-36.1251919 C110.622115,-36.1251919 118.864613,-15.8100878 135.349609,24.8201206 Z" fill="#FF5454" mask="url(#mask-3)"></path>
                    </g>
                    <path d="M169.887003,1.17987942 C161.209594,1.17987942 150.894978,3.81031647 138.943155,9.07119057 C121.015421,16.9625017 112.819132,34.718928 115.667765,62.867598 C120.746892,113.056825 231.342569,195.821397 231.342569,275.568327 C231.342569,355.315256 175.197597,362.3152 124.477558,355.806419 C90.6641988,351.467232 56.7764148,328.316328 22.8142063,286.353708 C75.9971775,298.78918 98.6560459,293.011511 90.7908116,269.020702 C78.99296,233.034488 63.3912112,199.706169 43.99296,171.893845 C24.5947088,144.081521 -2.74981147,101.094517 0.223421134,58.5672668 C3.19665373,16.0400169 45.3905348,5.12937151 76.3227554,1.82998205 C96.9442357,-0.36961093 128.132318,-0.586311804 169.887003,1.17987942 Z" id="路径-114" fill="#FFE1E1"></path>
                    <line x1="19.6433506" y1="67.9104621" x2="85.99296" y2="70.151735" id="路径-120" stroke="#FF5454" stroke-width="8" opacity="0.513416109" stroke-linecap="round"></line>
                    <line x1="29.012502" y1="101.151727" x2="95.99296" y2="99.4024061" id="路径-120备份" stroke="#FF5454" stroke-width="8" opacity="0.513416109" stroke-linecap="round"></line>
                    <line x1="39.7371006" y1="134.9041" x2="114.030069" y2="126.174623" id="路径-120备份-2" stroke="#FF5454" stroke-width="8" opacity="0.248558408" stroke-linecap="round"></line>
                    <line x1="76.99296" y1="192.515366" x2="155.976684" y2="183.006428" id="路径-120备份-4" stroke="#FF5454" stroke-width="8" opacity="0.513416109" stroke-linecap="round"></line>
                    <line x1="140.99296" y1="221.876787" x2="170.960408" y2="219.340857" id="路径-120备份-5" stroke="#FF5454" stroke-width="12" opacity="0.171642485" stroke-linecap="round" stroke-linejoin="round"></line>
                    <path d="M212.759562,213.61722 C206.826619,232.004058 197.237752,242.753458 183.99296,245.865418 C170.748168,248.977378 137.414835,250.533358 83.99296,250.533358 L93.0281162,270.311913 L231.342653,271.603123 C230.484199,262.087868 228.502726,252.423551 225.398233,242.610172 C222.293741,232.796793 218.080851,223.132476 212.759562,213.61722 Z" id="路径-121" fill="#FFA2A2"></path>
                </g>
                <line x1="169.978429" y1="382.783957" x2="164.318796" y2="381.305063" id="路径" stroke="#B7939E" stroke-width="0.847931554"></line>
                <path d="M164.318796,381.305063 C160.980629,379.744477 157.820385,378.251497 154.838064,376.826125 C154.691207,376.758518 154.372076,376.750067 153.880671,376.800772" id="路径" stroke="#AD768A" stroke-width="0.847931554"></path>
                <line x1="152.931751" y1="300.819395" x2="147.263645" y2="286.385384" id="路径" stroke="#AD768A" stroke-width="0.847931554"></line>
                <path d="M212.010521,142.687537 C212.213862,134.805733 211.934269,127.278864 211.171744,120.10693" id="路径" stroke="#9297A4" stroke-width="0.847931554"></path>
                <path d="M198.013945,156.403228 L169.097288,145.391802 C168.440491,145.143661 167.69657,145.294691 167.182502,145.78054 L165.521892,147.369295 C164.945761,147.915782 165.038959,148.307337 165.801484,148.54396 C170.43312,149.963699 174.533812,151.977812 178.10356,154.5863 C185.330606,159.868067 190.329384,169.00341 188.685718,178.223261 C188.611942,178.653311 188.32023,179.01462 187.91472,179.178204 C173.952033,184.783919 159.418864,188.437493 144.315214,190.138926 C144.066687,190.167095 143.959369,190.305125 143.993259,190.553016 C144.004555,190.671328 144.066687,190.753019 144.179654,190.79809 C144.462071,190.910768 144.758608,190.950205 145.069267,190.916402 C154.953855,189.834696 164.087214,188.006501 172.469345,185.431816 C177.332562,183.933202 182.153417,182.285291 186.931909,180.488082 C187.954258,180.099344 188.21973,180.392306 187.728325,181.366968 C186.875426,183.057133 185.776825,184.519126 184.432521,185.752947 C183.951342,186.193888 183.390452,186.538167 182.780382,186.767046 L176.290444,189.209335" id="路径" stroke="#186094" stroke-width="0.847931554"></path>
                <path d="M176.290444,189.209335 C173.62443,190.155827 171.698347,190.713582 170.512196,190.882598 C167.529875,191.30514 164.717004,192.353042 161.743155,192.623469 C158.743888,192.893895 156.117412,193.992502 153.092728,194.38124 C150.291153,194.736175 147.577128,195.206604 144.950652,195.792528 C144.717894,195.84219 144.477534,195.827571 144.255906,195.750274 L142.857943,195.234774" id="路径" stroke="#456198" stroke-width="0.847931554"></path>
                <path d="M142.857943,195.234774 C142.021989,190.017797 140.381148,184.958569 137.935418,180.05709" id="路径" stroke="#91B1CB" stroke-width="0.847931554"></path>
                <path d="M137.935418,180.05709 C137.878935,179.521871 137.740551,179.042991 137.520266,178.62045" id="路径" stroke="#186094" stroke-width="0.847931554"></path>
                <path d="M137.520266,178.62045 C137.444013,176.955637 136.72385,175.180964 136.698433,173.795028 C136.613708,169.451303 139.045316,167.414654 142.20556,164.854054 C142.781691,164.386442 142.69979,164.141368 141.959858,164.118832 C135.291997,163.958267 132.241896,162.420216 129.776397,155.997588 C129.56176,155.439834 129.364068,155.445468 129.183322,156.01449 C128.51117,158.13283 127.336316,160.031449 125.65876,161.710347" id="路径" stroke="#8F8E6E" stroke-width="0.847931554"></path>
                <path d="M125.65876,161.710347 C123.026635,159.913138 120.82096,157.901841 119.041734,155.676457 C118.471252,154.966588 118.152121,155.065181 118.084341,155.972236 C117.858408,158.87932 118.454307,161.88218 119.87204,164.980816 C122.464626,170.64287 125.06286,176.316191 127.666743,182.00078 C128.265467,183.313475 127.884204,183.730383 126.522955,183.251502 C116.449148,179.676803 107.154811,175.840128 97.928254,170.017509 C97.8096389,169.938634 97.7079689,169.955536 97.6232438,170.068214 L97.4961563,170.245681 C97.4735629,170.273851 97.4763871,170.299203 97.5046288,170.321739 C99.1031079,171.668237 100.839971,172.845719 102.715219,173.854184 C109.724804,177.611985 117.025278,180.834566 124.616642,183.521929 C126.717823,184.265602 128.234401,184.04588 128.929146,186.631833 C129.748155,189.668496 129.999506,192.764316 129.683199,195.919291" id="路径" stroke="#186094" stroke-width="0.847931554"></path>
                <line x1="129.683199" y1="195.919291" x2="127.344788" y2="195.369987" id="路径" stroke="#9297A4" stroke-width="0.847931554"></line>
                <line x1="127.344788" y1="195.369987" x2="115.025767" y2="191.127672" id="路径" stroke="#91B1CB" stroke-width="0.847931554"></line>
                <line x1="115.025767" y1="191.127672" x2="110.154077" y2="188.981163" id="路径" stroke="#9297A4" stroke-width="0.847931554"></line>
                <path d="M110.154077,188.981163 C102.150385,185.505056 95.5305353,181.152881 90.2945278,175.924636" id="路径" stroke="#887B8F" stroke-width="0.847931554"></path>
                <path d="M191.778182,186.133234 C189.789967,186.268447 187.434611,186.800849 184.712113,187.73044 C182.430186,188.507916 179.622963,189.000881 176.290444,189.209335" id="路径" stroke="#324F88" stroke-width="0.847931554"></path>
                <line x1="165.496474" y1="401.22366" x2="148.475213" y2="397.868682" id="路径" stroke="#F5B46E" stroke-width="0.847931554"></line>
                <path d="M115.025767,191.127672 C115.076602,192.558679 114.613439,193.767147 113.636277,194.753077 C112.868103,195.524919 113.02908,195.908023 114.119209,195.902389 C118.02221,195.862952 122.159616,195.97563 126.531428,196.240422 C126.802548,196.257324 127.011536,196.206619 127.158393,196.088307 C127.40692,195.891121 127.469052,195.651681 127.344788,195.369987" id="路径" stroke="#F7D7CA" stroke-width="0.847931554"></path>
                <path d="M142.17167,196.823529 C140.996816,201.308101 140.383972,205.947604 140.333137,210.74204" id="路径" stroke="#AB8798" stroke-width="0.847931554"></path>
                <path d="M110.154077,188.981163 C101.771947,188.699468 93.8077928,186.70789 86.2616159,183.006428" id="路径" stroke="#EEA18F" stroke-width="0.847931554"></path>
                <path d="M125.65876,161.710347 C130.358175,166.606192 134.312011,172.242893 137.520266,178.62045" id="路径" stroke="#7C7D5E" stroke-width="0.847931554"></path>
                <line x1="137.935418" y1="180.05709" x2="133.766946" y2="196.071406" id="路径" stroke="#7E9FBB" stroke-width="0.847931554"></line>
                <line x1="133.766946" y1="196.071406" x2="129.683199" y2="195.919291" id="路径" stroke="#7F8694" stroke-width="0.847931554"></line>
                <line x1="142.857943" y1="195.234774" x2="142.17167" y2="196.823529" id="路径" stroke="#AAA0BF" stroke-width="0.847931554"></line>
                <path d="M142.17167,196.823529 C141.482573,196.220704 140.479994,195.927742 139.163931,195.944643 C137.463782,195.961545 135.664787,196.003799 133.766946,196.071406" id="路径" stroke="#F7D7CA" stroke-width="0.847931554"></path>
                <path d="M143.569633,90.9769325 C143.07258,93.2699233 143.874644,94.9093835 145.975825,95.8953132 C146.226035,96.0091244 146.511595,96.0212448 146.77224,95.9291165 C148.455444,95.3206571 149.088058,94.596703 148.670081,93.7572542" id="路径" stroke="#FAD8C5" stroke-width="0.847931554"></path>
                <path d="M148.670081,93.7572542 C148.088302,92.0614551 147.272118,91.3093316 146.221527,91.5008837" id="路径" stroke="#AC7367" stroke-width="0.847931554"></path>
                <path d="M146.221527,91.5008837 C145.70188,90.3234019 145.05797,89.9177623 144.289796,90.2839647" id="路径" stroke="#FAD8C5" stroke-width="0.847931554"></path>
                <path d="M131.78438,314.459028 C131.535854,314.622411 131.360755,314.794244 131.259085,314.974529 C131.123525,315.233687 131.165888,315.459043 131.386173,315.650595 L131.78438,316.01398" id="路径" stroke="#A96A32" stroke-width="0.847931554"></path>
                <path d="M148.966619,89.7600135 L143.857699,87.0642 C143.65442,86.958085 143.413768,86.9500863 143.20527,87.0425149 C142.996773,87.1349435 142.843658,87.3175016 142.790163,87.5374462 L142.552933,88.4839388 C142.315703,89.4135296 142.581175,89.58818 143.349348,89.00789 C143.727787,88.714928 144.125995,88.5994334 144.543971,88.6614061 C144.92241,88.7121111 145.066443,88.9233817 144.976069,89.2952181 C144.885696,89.6670544 144.656938,89.9966366 144.289796,90.2839647" id="路径" stroke="#AC7367" stroke-width="0.847931554"></path>
                <path d="M146.221527,91.5008837 C145.843089,92.019201 145.87133,92.551603 146.306252,93.0980898 C146.763768,93.6671121 147.55171,93.8868336 148.670081,93.7572542" id="路径" stroke="#AE8E89" stroke-width="0.847931554"></path>
                <path d="M219.849791,118.186142 C219.833103,118.130283 219.794848,118.083327 219.743445,118.055607 C219.692041,118.027887 219.631702,118.021674 219.575705,118.038337 L219.315938,118.115662 C219.199362,118.150325 219.133022,118.272678 219.167754,118.388962 L220.760415,123.717883 C220.777103,123.773742 220.815358,123.820698 220.866761,123.848418 C220.918165,123.876138 220.978504,123.882351 221.034501,123.865688 L221.294268,123.788363 C221.410844,123.7537 221.477184,123.631347 221.442452,123.515064 L219.849791,118.186142" id="路径" stroke="#EEA18F" stroke-width="0.847931554"></path>
                <path d="M150.212077,98.0164706 L146.924745,98.0164706 C146.854557,98.0164706 146.797658,98.073224 146.797658,98.143233 L146.797658,98.2108396 C146.797658,98.8689236 147.472859,99.4024061 148.305763,99.4024061 L148.831059,99.4024061 C149.663962,99.4024061 150.339164,98.8689236 150.339164,98.2108396 L150.339164,98.143233 C150.339164,98.073224 150.282265,98.0164706 150.212077,98.0164706" id="路径" stroke="#EEA18F" stroke-width="0.847931554"></path>
                <path d="M135.81043,102.087572 C135.92513,102.021254 135.977829,101.859053 135.956935,101.636652 C135.936041,101.414251 135.843265,101.149869 135.699016,100.901667 C135.398662,100.384871 134.961585,100.07785 134.722729,100.215883 C134.608029,100.2822 134.55533,100.444401 134.576224,100.666802 C134.597118,100.889203 134.689894,101.153585 134.834143,101.401787 C135.134497,101.918583 135.571574,102.225604 135.81043,102.087572" id="路径" stroke="#AC7367" stroke-width="0.847931554"></path>
                <path d="M205.478221,115.002631 C205.562946,114.827981 205.520583,114.6815 205.351133,114.563188 C205.05742,114.354734 204.913387,114.427975 204.919036,114.78291 C205.026354,122.636544 204.712871,130.174681 203.978588,137.39732 C203.374216,143.369237 201.908472,149.203124 199.581358,154.898981 C199.50793,155.067997 199.558765,155.183492 199.733863,155.245465 L200.021928,155.346875 C200.106653,155.380678 200.168785,155.352509 200.208323,155.262366 C202.80091,148.760864 204.419158,141.988936 205.063068,134.946581 C205.63355,128.670434 205.955505,122.487246 206.028934,116.397017 C206.028934,116.137859 205.93856,115.918137 205.757813,115.737853 L205.562946,115.535033 C205.410441,115.377284 205.382199,115.199817 205.478221,115.002631" id="路径" stroke="#186094" stroke-width="0.847931554"></path>
                <path d="M140.256884,145.400252 C145.306497,142.20584 148.941201,142.619931 153.482463,145.628425 C153.956924,145.938288 154.089659,145.831245 153.880671,145.307293 C151.909402,140.315672 153.140739,136.309981 157.574683,133.290219 C158.173406,132.884579 158.111275,132.656407 157.388288,132.605702 C151.389755,132.208513 149.212321,130.721168 146.73835,125.32109 C146.563252,124.937986 146.385329,124.937986 146.204582,125.32109 C145.509837,126.774632 144.789674,128.481699 143.764501,129.707068 C142.086945,131.723999 139.556491,132.695844 136.173137,132.622603 C134.789295,132.594434 134.673504,132.960636 135.825765,133.721211 C139.920808,136.425475 141.157794,140.129754 139.536722,144.834047 C139.23736,145.701665 139.477414,145.8904 140.256884,145.400252" id="路径" stroke="#8F8E6E" stroke-width="0.847931554"></path>
                <path d="M164.344214,167.16958 C163.319041,164.220242 164.395049,161.076535 166.987635,159.335665 C167.462095,159.014533 167.414084,158.817347 166.843602,158.744107 C163.08181,158.237057 160.627608,156.515906 159.480996,153.580652 C159.294601,153.107406 159.116678,153.110223 158.947228,153.589103 C157.896638,156.603231 155.61471,158.315932 152.101445,158.727205 C151.33892,158.817347 151.268316,159.087774 151.889633,159.538484 C154.34101,161.318792 155.179788,163.86249 154.405966,167.16958 C154.270406,167.766772 154.470922,167.91607 155.007514,167.617474 C158.142341,165.87097 161.073827,165.862519 163.801973,167.592122 C163.932279,167.675884 164.101456,167.668223 164.223617,167.573029 C164.345778,167.477835 164.394165,167.315959 164.344214,167.16958" id="路径" stroke="#8F8E6E" stroke-width="0.847931554"></path>
                <path d="M181.865352,171.961199 C177.66299,172.637265 173.697858,174.471094 169.631056,175.96689 C169.328072,176.08011 169.152378,176.398412 169.215903,176.719014 C169.503968,178.211993 170.037736,179.485251 170.817207,180.538787 C171.092337,180.904112 171.509599,181.132247 171.960995,181.164148 C176.81574,181.510632 181.645067,179.13595 186.059241,177.378178 C186.369908,177.256667 186.570177,176.95534 186.559119,176.626055 C186.499812,173.803479 185.008651,171.4626 181.865352,171.961199" id="路径" stroke="#186094" stroke-width="0.847931554"></path>
                <path d="M112.742258,196.625104 C112.729035,196.568325 112.693733,196.519114 112.644125,196.488303 C112.594516,196.457491 112.534665,196.447605 112.477746,196.46082 L106.140229,197.931855 C106.08332,197.945063 106.034003,197.980282 106.00313,198.029762 C105.972257,198.079242 105.962357,198.138929 105.975608,198.19569 L106.040846,198.475497 C106.054069,198.532276 106.089371,198.581486 106.13898,198.612298 C106.188588,198.643109 106.248439,198.652995 106.305358,198.639781 L112.642875,197.168745 C112.699784,197.155537 112.749101,197.120318 112.779974,197.070839 C112.810847,197.021359 112.820747,196.961672 112.807496,196.904911 L112.742258,196.625104" id="路径" stroke="#EEA18F" stroke-width="0.847931554"></path>
                <path d="M171.969467,246.835518 C172.534301,249.308793 173.327892,251.736997 174.350241,254.12013 C174.378483,254.182103 174.423669,254.218723 174.485801,254.229991 C174.519691,254.235625 174.547933,254.22154 174.570526,254.187737 C174.643954,254.091961 174.663723,253.984917 174.629833,253.866605 C173.884253,251.466571 172.997464,249.122875 171.969467,246.835518" id="路径" stroke="#6A5C93" stroke-width="0.847931554"></path>
                <path d="M171.969467,246.835518 C172.003357,245.596063 171.678578,244.517175 170.995129,243.598852 C170.803086,243.339693 170.73813,243.367862 170.800262,243.68336 C171.031843,244.810137 171.421579,245.860856 171.969467,246.835518" id="路径" stroke="#6A5C93" stroke-width="0.847931554"></path>
                <path d="M180.476793,271.601424 C180.53254,271.583966 180.54305,271.431329 180.506012,271.177099 C180.468973,270.922869 180.387421,270.587875 180.279299,270.245827 C180.171181,269.903806 180.045358,269.582761 179.92951,269.353322 C179.813662,269.123883 179.71728,269.004847 179.661569,269.022401 C179.605823,269.03986 179.595312,269.192496 179.63235,269.446727 C179.669389,269.700957 179.750941,270.035951 179.859063,270.377998 C179.967181,270.72002 180.093004,271.041065 180.208852,271.270504 C180.3247,271.499942 180.421082,271.618979 180.476793,271.601424" id="路径" stroke="#6A5C93" stroke-width="0.847931554"></path>
                <path d="M182.196966,277.301422 C182.252962,277.284794 182.252089,277.086241 182.194539,276.749445 C182.136988,276.412649 182.027475,275.9652 181.890092,275.505537 C181.752689,275.045811 181.598668,274.611537 181.461922,274.298282 C181.325175,273.985026 181.216909,273.818458 181.160948,273.835231 C181.104952,273.851859 181.105825,274.050412 181.163375,274.387208 C181.220926,274.724004 181.330439,275.171454 181.467822,275.631116 C181.605224,276.090842 181.759245,276.525116 181.895992,276.838372 C182.032738,277.151627 182.141005,277.318196 182.196966,277.301422" id="路径" stroke="#6A5C93" stroke-width="0.847931554"></path>
                <path d="M183.169355,282.349438 C183.32539,282.318518 183.236023,281.20611 182.969743,279.864727 C182.703466,278.523359 182.361098,277.460898 182.205015,277.491566 C182.04898,277.522486 182.138346,278.634895 182.404627,279.976277 C182.670904,281.317645 183.013272,282.380106 183.169355,282.349438" id="路径" stroke="#6A5C93" stroke-width="0.847931554"></path>
                <path d="M177.08686,301.148977 C176.426004,302.078568 175.98261,303.132104 175.756677,304.309586" id="路径" stroke="#6A5C93" stroke-width="0.847931554"></path>
                <path d="M175.756677,304.309586 C173.813649,309.616705 171.966643,314.95481 170.215659,320.323902 C170.181769,320.430945 170.221307,320.501369 170.334274,320.535172 L170.334274,320.543623 C170.447241,320.577426 170.520669,320.540806 170.554559,320.433762 C171.932753,316.422437 173.373079,312.428013 174.875536,308.450491 C175.40648,307.058922 175.700193,305.67862 175.756677,304.309586" id="路径" stroke="#6A5C93" stroke-width="0.847931554"></path>
                <path d="M175.756677,304.309586 C176.564389,303.515208 177.007783,302.461672 177.08686,301.148977" id="路径" stroke="#6A5C93" stroke-width="0.847931554"></path>
                <path d="M177.08686,301.148977 C177.888923,299.740506 178.417043,298.34612 178.671218,296.965818 C178.840668,296.030593 178.736174,295.999607 178.357735,296.872859 C177.804198,298.129215 177.380573,299.554588 177.08686,301.148977" id="路径" stroke="#6A5C93" stroke-width="0.847931554"></path>
                <path d="M166.716515,330.515598 C165.801484,331.76632 165.304431,333.174791 165.225354,334.741011" id="路径" stroke="#6A5C93" stroke-width="0.847931554"></path>
                <path d="M165.225354,334.741011 C164.66052,335.501585 164.251016,336.5016 163.996841,337.741054 C163.900819,338.191765 163.968599,338.217117 164.200181,337.817112 C164.697235,336.966395 165.038959,335.941028 165.225354,334.741011" id="路径" stroke="#6A5C93" stroke-width="0.847931554"></path>
                <line x1="165.225354" y1="334.741011" x2="166.716515" y2="330.515598" id="路径" stroke="#6A5C93" stroke-width="0.847931554"></line>
                <path d="M166.716515,330.515598 C167.467743,329.24234 167.967621,327.901476 168.216148,326.493005 C168.31217,325.963419 168.230269,325.932433 167.970445,326.400045 C167.399963,327.408511 166.981986,328.780361 166.716515,330.515598" id="路径" stroke="#6A5C93" stroke-width="0.847931554"></path>
                <path d="M158.962564,352.284503 C159.017489,352.304367 159.207808,351.944157 159.491651,351.283118 C159.775494,350.62208 160.129609,349.714364 160.476092,348.759664 C160.822602,347.804887 161.133091,346.881344 161.33924,346.19224 C161.545389,345.503137 161.630309,345.104933 161.575314,345.085244 C161.520389,345.065381 161.33007,345.425591 161.046227,346.086629 C160.762384,346.747668 160.408269,347.655384 160.061786,348.610084 C159.715276,349.564861 159.404788,350.488404 159.198639,351.177507 C158.992489,351.866611 158.90757,352.264815 158.962564,352.284503" id="路径" stroke="#6A5C93" stroke-width="0.847931554"></path>
                <path d="M153.836868,366.856516 C153.887546,366.874912 154.000567,366.716017 154.151069,366.414787 C154.30157,366.113556 154.477222,365.694666 154.639384,365.250268 C154.977042,364.324946 155.165256,363.543711 155.059789,363.505257 C155.009112,363.48686 154.89609,363.645755 154.745589,363.946986 C154.595088,364.248217 154.419435,364.667107 154.257274,365.111505 C153.919616,366.036827 153.731402,366.818061 153.836868,366.856516" id="路径" stroke="#575F82" stroke-width="0.847931554"></path>
                <path d="M423.554206,388.632943 C423.492077,388.503574 423.380968,388.404121 423.245323,388.356465 C423.109678,388.308809 422.960608,388.316852 422.830909,388.378827 L401.100545,398.763624 C400.970822,398.825594 400.871099,398.936433 400.823319,399.071752 C400.775539,399.20707 400.783617,399.355779 400.845777,399.485156 L400.860435,399.515579 C400.922564,399.644948 401.033673,399.7444 401.169318,399.792057 C401.304963,399.839713 401.454033,399.831669 401.583732,399.769695 L423.314096,389.384897 C423.443819,389.322927 423.543542,389.212088 423.591322,389.07677 C423.639102,388.941451 423.631024,388.792742 423.568864,388.663366 L423.554206,388.632943" id="路径" stroke="#6A5C93" stroke-width="0.847931554"></path>
                <path d="M243.138501,75.5710765 C241.325386,77.9992805 239.235501,80.2556511 236.868848,82.3401882 C235.021843,83.9711976 235.665753,89.4726854 236.004653,91.6952527 C237.557945,101.926386 238.857063,111.532158 239.902005,120.51257 C240.444245,125.132355 240.746431,130.047918 240.808563,135.259261 C240.808563,136.526978 240.126709,139.149627 238.810647,139.701748 C235.862215,140.95247 235.185215,141.518858 232.640535,142.285342 C231.978217,142.484839 229.376331,142.673453 228.726772,143.287546 C222.914634,143.828399 217.342551,143.628396 212.010521,142.687537 C212.213862,134.805733 211.00843,118.360426 210.991468,117.926617 C210.987547,117.816197 213.035853,117.816197 217.136386,117.926617 C218.395965,118.084366 219.093535,117.532245 219.229095,116.270255 C219.601885,112.84767 220.186488,109.543397 220.449136,106.120813 C220.929244,99.844666 221.581627,93.5854208 222.406284,87.3430772 C222.575734,86.0754533 223.08126,84.0359873 223.922862,81.2246792 C225.510045,75.9513637 228.879277,71.9315874 234.03056,69.1653503 C237.137144,68.0104041 239.125359,67.3258872 239.995202,67.1117996 C243.316424,66.3061542 246.682832,65.7878368 250.094427,65.5568476 C251.348358,65.4667055 251.594061,65.9202331 250.831535,66.9174306 C249.837428,68.2132239 247.645874,68.9963338 244.256872,69.2667602 C243.562127,69.3230991 243.409622,69.6385966 243.799357,70.2132528 C244.906431,71.852713 244.686146,73.6386543 243.138501,75.5710765 Z M219.849791,118.186142 C219.833103,118.130283 219.794848,118.083327 219.743445,118.055607 C219.692041,118.027887 219.631702,118.021674 219.575705,118.038337 L219.315938,118.115662 C219.199362,118.150325 219.133022,118.272678 219.167754,118.388962 L220.760415,123.717883 C220.777103,123.773742 220.815358,123.820698 220.866761,123.848418 C220.918165,123.876138 220.978504,123.882351 221.034501,123.865688 L221.294268,123.788363 C221.410844,123.7537 221.477184,123.631347 221.442452,123.515064 L219.849791,118.186142 Z" id="形状" fill="#FFD0C0" fill-rule="nonzero"></path>
                <path d="M148.966619,89.7600135 L143.857699,87.0642 C143.65442,86.958085 143.413768,86.9500863 143.20527,87.0425149 C142.996773,87.1349435 142.843658,87.3175016 142.790163,87.5374462 L142.552933,88.4839388 C142.315703,89.4135296 142.581175,89.58818 143.349348,89.00789 C143.727787,88.714928 144.125995,88.5994334 144.543971,88.6614061 C144.92241,88.7121111 145.066443,88.9233817 144.976069,89.2952181 C144.885696,89.6670544 144.656938,89.9966366 144.289796,90.2839647 L143.569633,90.9769325 C142.25922,90.9938341 141.171915,91.774127 140.307719,93.3178113 C139.624271,94.5347302 139.017075,95.7319306 138.486131,96.9094124 C138.368477,97.1676659 138.100054,97.3235632 137.816803,97.2981504 C136.280456,97.1516694 134.803416,97.3122351 133.385684,97.7798475 C128.607191,99.3432503 130.987965,104.76023 135.173382,104.802484 C135.37184,104.805795 135.557678,104.900245 135.67573,105.057798 C135.793782,105.21535 135.83048,105.417897 135.77493,105.605312 L134.444747,110.202562 C132.428291,108.284224 131.188832,108.870148 128.621664,108.388451 C127.34514,108.151828 124.543213,106.678567 123.227151,105.191222 C122.989921,104.920795 120.738546,103.703737 120.303624,102.120616 C119.439429,98.999444 120.411511,96.8502566 120.936806,93.3178113 C121.247465,91.2220064 121.653284,87.3102032 123.227151,85.8555717 C128.621664,80.8697445 133.428046,81.4528515 139.723117,81.6556713 C140.15239,81.6669391 140.536477,81.5429936 140.875377,81.2838349 C142.722383,79.872547 144.247434,79.0105627 146.323197,80.8697445 C148.684202,82.9993526 149.565342,85.9627756 148.966619,89.7600135 Z" id="路径" fill="#292455" fill-rule="nonzero"></path>
                <path d="M148.966619,89.7600135 C149.514507,91.3093316 150.53968,92.0304688 152.042138,91.923425 C152.327279,91.9024697 152.604888,92.020814 152.786763,92.240858 C152.968639,92.460902 153.032169,92.7552874 152.957168,93.0304832 L152.381038,95.1431897 C152.309776,95.394946 152.324687,95.6626552 152.4234,95.9037641 C153.248057,97.9657656 153.567188,99.9686114 153.380793,101.912301 C153.115321,104.672905 151.353041,106.36307 148.093951,106.982797 C146.597142,107.0166 144.964773,106.968712 143.196843,106.839133 C143.027393,106.827865 142.889009,106.850401 142.781691,106.90674 C142.595296,107.013783 142.473856,107.154631 142.417373,107.329281 C142.372833,107.467119 142.386509,107.617106 142.455249,107.744668 C142.523989,107.872229 142.64186,107.966355 142.781691,108.005347 L149.602056,109.940586 L150.93224,112.239211 C150.689361,112.453298 150.373054,112.346255 149.983319,111.918079 C149.876001,111.799768 149.782803,111.811036 149.703726,111.951883 L149.576639,112.180055 C149.520156,112.292733 149.426958,112.340621 149.297046,112.323719 C144.072335,111.591314 139.692051,113.213873 136.156192,117.191395 L134.444747,110.202562 L135.77493,105.605312 C135.83048,105.417897 135.793782,105.21535 135.67573,105.057798 C135.557678,104.900245 135.37184,104.805795 135.173382,104.802484 C130.987965,104.76023 128.607191,99.3432503 133.385684,97.7798475 C134.803416,97.3122351 136.280456,97.1516694 137.816803,97.2981504 C138.100054,97.3235632 138.368477,97.1676659 138.486131,96.9094124 C139.017075,95.7319306 139.624271,94.5347302 140.307719,93.3178113 C141.171915,91.774127 142.25922,90.9938341 143.569633,90.9769325 C143.07258,93.2699233 143.874644,94.9093835 145.975825,95.8953132 C146.226035,96.0091244 146.511595,96.0212448 146.77224,95.9291165 C148.455444,95.3206571 149.088058,94.596703 148.670081,93.7572542 C148.088302,92.0614551 147.272118,91.3093316 146.221527,91.5008837 C145.70188,90.3234019 145.05797,89.9177623 144.289796,90.2839647 C144.656938,89.9966366 144.885696,89.6670544 144.976069,89.2952181 C145.066443,88.9233817 144.92241,88.7121111 144.543971,88.6614061 C144.125995,88.5994334 143.727787,88.714928 143.349348,89.00789 C142.581175,89.58818 142.315703,89.4135296 142.552933,88.4839388 L142.790163,87.5374462 C142.843658,87.3175016 142.996773,87.1349435 143.20527,87.0425149 C143.413768,86.9500863 143.65442,86.958085 143.857699,87.0642 L148.966619,89.7600135 Z M150.212077,98.0164706 L146.924745,98.0164706 C146.854557,98.0164706 146.797658,98.073224 146.797658,98.143233 L146.797658,98.2108396 C146.797658,98.8689236 147.472859,99.4024061 148.305763,99.4024061 L148.831059,99.4024061 C149.663962,99.4024061 150.339164,98.8689236 150.339164,98.2108396 L150.339164,98.143233 C150.339164,98.073224 150.282265,98.0164706 150.212077,98.0164706 Z M135.81043,102.087572 C135.92513,102.021254 135.977829,101.859053 135.956935,101.636652 C135.936041,101.414251 135.843265,101.149869 135.699016,100.901667 C135.398662,100.384871 134.961585,100.07785 134.722729,100.215883 C134.608029,100.2822 134.55533,100.444401 134.576224,100.666802 C134.597118,100.889203 134.689894,101.153585 134.834143,101.401787 C135.134497,101.918583 135.571574,102.225604 135.81043,102.087572 L135.81043,102.087572 Z" id="形状" fill="#FFD0C0" fill-rule="nonzero"></path>
                <path d="M144.289796,90.2839647 C145.05797,89.9177623 145.70188,90.3234019 146.221527,91.5008837 C145.843089,92.019201 145.87133,92.551603 146.306252,93.0980898 C146.763768,93.6671121 147.55171,93.8868336 148.670081,93.7572542 C149.088058,94.596703 148.455444,95.3206571 146.77224,95.9291165 C146.511595,96.0212448 146.226035,96.0091244 145.975825,95.8953132 C143.874644,94.9093835 143.07258,93.2699233 143.569633,90.9769325 L144.289796,90.2839647 Z" id="路径" fill="#FFFCF6" fill-rule="nonzero"></path>
                <path d="M146.221527,91.5008837 C147.272118,91.3093316 148.088302,92.0614551 148.670081,93.7572542 C147.55171,93.8868336 146.763768,93.6671121 146.306252,93.0980898 C145.87133,92.551603 145.843089,92.019201 146.221527,91.5008837 Z" id="路径" fill="#292455" fill-rule="nonzero"></path>
                <path d="M150.212077,98.0164706 C150.282265,98.0164706 150.339164,98.073224 150.339164,98.143233 L150.339164,98.2108396 C150.339164,98.8689236 149.663962,99.4024061 148.831059,99.4024061 L148.305763,99.4024061 C147.472859,99.4024061 146.797658,98.8689236 146.797658,98.2108396 L146.797658,98.143233 C146.797658,98.073224 146.854557,98.0164706 146.924745,98.0164706 L150.212077,98.0164706 Z" id="路径" fill="#F89B91" fill-rule="nonzero"></path>
                <path d="M135.81043,102.087572 C135.571574,102.225604 135.134497,101.918583 134.834143,101.401787 C134.689894,101.153585 134.597118,100.889203 134.576224,100.666802 C134.55533,100.444401 134.608029,100.2822 134.722729,100.215883 C134.961585,100.07785 135.398662,100.384871 135.699016,100.901667 C135.843265,101.149869 135.936041,101.414251 135.956935,101.636652 C135.977829,101.859053 135.92513,102.021254 135.81043,102.087572 L135.81043,102.087572 Z" id="路径" fill="#F89B91" fill-rule="nonzero"></path>
                <path d="M148.093951,106.982797 L149.602056,109.940586 L142.781691,108.005347 C142.64186,107.966355 142.523989,107.872229 142.455249,107.744668 C142.386509,107.617106 142.372833,107.467119 142.417373,107.329281 C142.473856,107.154631 142.595296,107.013783 142.781691,106.90674 C142.889009,106.850401 143.027393,106.827865 143.196843,106.839133 C144.964773,106.968712 146.597142,107.0166 148.093951,106.982797 Z" id="路径" fill="#F89B91" fill-rule="nonzero"></path>
                <path d="M125.65876,161.710347 C123.026635,159.913138 120.82096,157.901841 119.041734,155.676457 C118.471252,154.966588 118.152121,155.065181 118.084341,155.972236 C117.858408,158.87932 118.454307,161.88218 119.87204,164.980816 C122.464626,170.64287 125.06286,176.316191 127.666743,182.00078 C128.265467,183.313475 127.884204,183.730383 126.522955,183.251502 C116.449148,179.676803 107.154811,175.840128 97.928254,170.017509 C97.8096389,169.938634 97.7079689,169.955536 97.6232438,170.068214 L97.4961563,170.245681 C97.4735629,170.273851 97.4763871,170.299203 97.5046288,170.321739 C99.1031079,171.668237 100.839971,172.845719 102.715219,173.854184 C109.724804,177.611985 117.025278,180.834566 124.616642,183.521929 C126.717823,184.265602 128.234401,184.04588 128.929146,186.631833 C129.748155,189.668496 129.999506,192.764316 129.683199,195.919291 L127.344788,195.369987 L115.025767,191.127672 L110.154077,188.981163 C102.150385,185.505056 95.5305353,181.152881 90.2945278,175.924636 C92.1867204,172.854169 94.045023,169.927367 95.8694355,167.144228 C99.0296795,162.344159 101.664628,157.44268 104.960432,152.913037 C106.231308,151.166533 107.41181,149.293266 108.501939,147.293237 C115.054009,135.259261 124.291863,125.842224 136.2155,119.042126 C141.417617,116.450539 146.758119,114.427975 152.237005,112.974433 C155.85194,112.270197 158.981118,111.799768 161.62454,111.563145 C173.740221,110.492707 185.635616,110.396931 197.310727,111.275817 C200.575465,111.523708 203.766775,112.09273 206.884657,112.982884 C210.587141,114.047688 211.112436,116.692796 211.171744,120.10693 C211.934269,127.278864 212.213862,134.805733 212.010521,142.687537 C211.699863,145.279124 211.338369,147.394647 210.926041,149.034108 C209.203298,155.901812 204.899266,158.358186 198.013945,156.403228 L169.097288,145.391802 C168.440491,145.143661 167.69657,145.294691 167.182502,145.78054 L165.521892,147.369295 C164.945761,147.915782 165.038959,148.307337 165.801484,148.54396 C170.43312,149.963699 174.533812,151.977812 178.10356,154.5863 C185.330606,159.868067 190.329384,169.00341 188.685718,178.223261 C188.611942,178.653311 188.32023,179.01462 187.91472,179.178204 C173.952033,184.783919 159.418864,188.437493 144.315214,190.138926 C144.066687,190.167095 143.959369,190.305125 143.993259,190.553016 C144.004555,190.671328 144.066687,190.753019 144.179654,190.79809 C144.462071,190.910768 144.758608,190.950205 145.069267,190.916402 C154.953855,189.834696 164.087214,188.006501 172.469345,185.431816 C177.332562,183.933202 182.153417,182.285291 186.931909,180.488082 C187.954258,180.099344 188.21973,180.392306 187.728325,181.366968 C186.875426,183.057133 185.776825,184.519126 184.432521,185.752947 C183.951342,186.193888 183.390452,186.538167 182.780382,186.767046 L176.290444,189.209335 C173.62443,190.155827 171.698347,190.713582 170.512196,190.882598 C167.529875,191.30514 164.717004,192.353042 161.743155,192.623469 C158.743888,192.893895 156.117412,193.992502 153.092728,194.38124 C150.291153,194.736175 147.577128,195.206604 144.950652,195.792528 C144.717894,195.84219 144.477534,195.827571 144.255906,195.750274 L142.857943,195.234774 C142.021989,190.017797 140.381148,184.958569 137.935418,180.05709 C137.878935,179.521871 137.740551,179.042991 137.520266,178.62045 C134.312011,172.242893 130.358175,166.606192 125.65876,161.710347 Z M181.865352,171.961199 C177.66299,172.637265 173.697858,174.471094 169.631056,175.96689 C169.328072,176.08011 169.152378,176.398412 169.215903,176.719014 C169.503968,178.211993 170.037736,179.485251 170.817207,180.538787 C171.092337,180.904112 171.509599,181.132247 171.960995,181.164148 C176.81574,181.510632 181.645067,179.13595 186.059241,177.378178 C186.369908,177.256667 186.570177,176.95534 186.559119,176.626055 C186.499812,173.803479 185.008651,171.4626 181.865352,171.961199 Z M204.919036,114.78291 C205.026354,122.636544 204.712871,130.174681 203.978588,137.39732 C203.374216,143.369237 201.908472,149.203124 199.581358,154.898981 C199.50793,155.067997 199.558765,155.183492 199.733863,155.245465 L200.021928,155.346875 C200.106653,155.380678 200.168785,155.352509 200.208323,155.262366 C202.80091,148.760864 204.419158,141.988936 205.063068,134.946581 C205.63355,128.670434 205.955505,122.487246 206.028934,116.397017 C206.028934,116.137859 205.93856,115.918137 205.757813,115.737853 L205.562946,115.535033 C205.410441,115.377284 205.382199,115.199817 205.478221,115.002631 C205.562946,114.827981 205.520583,114.6815 205.351133,114.563188 C205.05742,114.354734 204.913387,114.427975 204.919036,114.78291 Z" id="形状结合" fill="#758DFB" fill-rule="nonzero"></path>
                <path d="M150.93224,112.239211 C151.378458,112.887108 151.81338,113.132182 152.237005,112.974433 C146.758119,114.427975 141.417617,116.450539 136.2155,119.042126 L136.156192,117.191395 C139.692051,113.213873 144.072335,111.591314 149.297046,112.323719 C149.426958,112.340621 149.520156,112.292733 149.576639,112.180055 L149.703726,111.951883 C149.782803,111.811036 149.876001,111.799768 149.983319,111.918079 C150.373054,112.346255 150.689361,112.453298 150.93224,112.239211 Z" id="路径" fill="#F89B91" fill-rule="nonzero"></path>
                <path d="M118.958047,155.57604 L119.041734,155.676457 C120.82096,157.901841 123.026635,159.913138 125.65876,161.710347 C130.358175,166.606192 134.312011,172.242893 137.520266,178.62045 C137.740551,179.042991 137.878935,179.521871 137.935418,180.05709 L133.766946,196.071406 L129.683199,195.919291 C129.999506,192.764316 129.748155,189.668496 128.929146,186.631833 C128.234401,184.04588 126.717823,184.265602 124.616642,183.521929 C117.025278,180.834566 109.724804,177.611985 102.715219,173.854184 C100.839971,172.845719 99.1031079,171.668237 97.5046288,170.321739 C97.4763871,170.299203 97.4735629,170.273851 97.4961563,170.245681 L97.6232438,170.068214 C97.7079689,169.955536 97.8096389,169.938634 97.928254,170.017509 C107.154811,175.840128 116.449148,179.676803 126.522955,183.251502 C127.884204,183.730383 128.265467,183.313475 127.666743,182.00078 L119.87204,164.980816 C118.454307,161.88218 117.858408,158.87932 118.084341,155.972236 C118.148732,155.110533 118.439968,154.978468 118.958047,155.57604 Z M169.097288,145.391802 L198.013945,156.403228 C200.894596,164.899125 201.902824,173.586574 201.038629,182.465576 C201.010387,182.752904 200.891772,182.995161 200.682784,183.192347 C200.21962,183.626156 199.623721,183.927569 198.895085,184.096585 L198.175981,184.268903 C196.441236,184.698398 194.308636,185.319842 191.778182,186.133234 C189.922515,186.259433 187.747027,186.731628 185.251718,187.549818 L184.712113,187.73044 C182.430186,188.507916 179.622963,189.000881 176.290444,189.209335 L182.780382,186.767046 C183.390452,186.538167 183.951342,186.193888 184.432521,185.752947 C185.776825,184.519126 186.875426,183.057133 187.728325,181.366968 C188.198365,180.434683 187.975912,180.126108 187.060967,180.441243 L186.931909,180.488082 C182.153417,182.285291 177.332562,183.933202 172.469345,185.431816 C164.087214,188.006501 154.953855,189.834696 145.069267,190.916402 C144.758608,190.950205 144.462071,190.910768 144.179654,190.79809 C144.066687,190.753019 144.004555,190.671328 143.993259,190.553016 C143.959369,190.305125 144.066687,190.167095 144.315214,190.138926 C159.418864,188.437493 173.952033,184.783919 187.91472,179.178204 C188.32023,179.01462 188.611942,178.653311 188.685718,178.223261 C190.329384,169.00341 185.330606,159.868067 178.10356,154.5863 C174.533812,151.977812 170.43312,149.963699 165.801484,148.54396 C165.038959,148.307337 164.945761,147.915782 165.521892,147.369295 L167.182502,145.78054 C167.69657,145.294691 168.440491,145.143661 169.097288,145.391802 Z M186.559119,176.626055 C186.570177,176.95534 186.369908,177.256667 186.059241,177.378178 L185.170987,177.736969 C181.001044,179.44048 176.49209,181.487533 171.960995,181.164148 C171.509599,181.132247 171.092337,180.904112 170.817207,180.538787 C170.037736,179.485251 169.503968,178.211993 169.215903,176.719014 C169.152378,176.398412 169.328072,176.08011 169.631056,175.96689 C173.697858,174.471094 177.66299,172.637265 181.865352,171.961199 C185.008651,171.4626 186.499812,173.803479 186.559119,176.626055 Z M205.351133,114.563188 C205.496376,114.664598 205.548249,114.786704 205.506751,114.929505 L205.478221,115.002631 C205.382199,115.199817 205.410441,115.377284 205.562946,115.535033 L205.757813,115.737853 C205.93856,115.918137 206.028934,116.137859 206.028934,116.397017 C205.955505,122.487246 205.63355,128.670434 205.063068,134.946581 C204.419158,141.988936 202.80091,148.760864 200.208323,155.262366 C200.168785,155.352509 200.106653,155.380678 200.021928,155.346875 L199.733863,155.245465 C199.558765,155.183492 199.50793,155.067997 199.581358,154.898981 C201.908472,149.203124 203.374216,143.369237 203.978588,137.39732 C204.712871,130.174681 205.026354,122.636544 204.919036,114.78291 C204.913387,114.427975 205.05742,114.354734 205.351133,114.563188 Z" id="形状" fill="#4D66DA" fill-rule="nonzero"></path>
                <path d="M221.442452,123.515064 C221.477184,123.631347 221.410844,123.7537 221.294268,123.788363 L221.034501,123.865688 C220.978504,123.882351 220.918165,123.876138 220.866761,123.848418 C220.815358,123.820698 220.777103,123.773742 220.760415,123.717883 L219.167754,118.388962 C219.133022,118.272678 219.199362,118.150325 219.315938,118.115662 L219.575705,118.038337 C219.631702,118.021674 219.692041,118.027887 219.743445,118.055607 C219.794848,118.083327 219.833103,118.130283 219.849791,118.186142 L221.442452,123.515064 Z" id="路径" fill="#F89B91" fill-rule="nonzero"></path>
                <path d="M240.808563,135.259261 C240.842453,138.056485 240.73231,142.172037 237.334836,143.008669 C234.465481,143.70727 216.668295,143.70727 212.074734,143.008669 C213.663142,143.008669 222.945482,142.765452 228.528022,141.73288 C234.110562,140.700308 235.126851,139.746747 237.334836,138.383777 C238.739426,137.516735 240.297991,136.043178 240.808563,135.259261 Z" id="路径" fill="#F89B91" fill-rule="nonzero"></path>
                <path d="M90.2945278,175.924636 C95.5305353,181.152881 102.150385,185.505056 110.154077,188.981163 C101.771947,188.699468 93.8077928,186.70789 86.2616159,183.006428 L90.2945278,175.924636 Z" id="路径" fill="#F89B91" fill-rule="nonzero"></path>
                <path d="M137.935418,180.05709 C140.381148,184.958569 142.021989,190.017797 142.857943,195.234774 L142.17167,196.823529 C141.482573,196.220704 140.479994,195.927742 139.163931,195.944643 C137.463782,195.961545 135.664787,196.003799 133.766946,196.071406 L137.935418,180.05709 Z" id="路径" fill="#F6F0F1" fill-rule="nonzero"></path>
                <g id="编组-29" transform="translate(221, 259.0746)">
                    <rect id="蒙版" fill="#02ADA9" fill-rule="nonzero" x="5" y="0" width="264" height="171.929843" rx="16"></rect>
                    <rect id="蒙版" fill="#27DAD6" fill-rule="nonzero" x="0" y="3.99836844" width="264" height="171.929843" rx="16"></rect>
                    <rect id="矩形" fill="#FFFFFF" fill-rule="nonzero" x="20" y="115.952685" width="160" height="29.9877633" rx="2"></rect>
                    <rect id="矩形备份-28" fill="#FFFFFF" fill-rule="nonzero" x="192" y="115.952685" width="49" height="29.9877633" rx="2"></rect>
                    <path d="M80,46.9808292 L80,58.9759345 C80,63.3924103 76.418278,66.9726714 72,66.9726714 L66,66.9726714 L66,46.9808292 L80,46.9808292 Z M40,23.9902106 L40,44.981645 L22,44.981645 L22,31.9869475 C22,27.5704717 25.581722,23.9902106 30,23.9902106 L40,23.9902106 Z M72,23.9902106 C76.418278,23.9902106 80,27.5704717 80,31.9869475 L80,44.981645 L42,44.981645 L42,23.9902106 L72,23.9902106 Z M64,66.9726714 L30,66.9726714 C25.581722,66.9726714 22,63.3924103 22,58.9759345 L22,46.9808292 L64,46.9808292 L64,66.9726714 Z" id="形状" fill="#FAFF9B"></path>
                </g>
                <path d="M230.701301,256.854069 L221,274.525506 L221,318.824871 C231.703125,304.435347 239.157445,293.622184 243.362959,286.385384 C247.568473,279.148584 246.78082,270.045004 241,259.074644 L230.701301,256.854069 Z" id="路径-2" fill="#02ADA9" fill-rule="nonzero"></path>
                <path d="M86.2616159,183.006428 C93.8077928,186.70789 101.771947,188.699468 110.154077,188.981163 L115.025767,191.127672 C115.076602,192.558679 114.613439,193.767147 113.636277,194.753077 C112.868103,195.524919 113.02908,195.908023 114.119209,195.902389 C118.02221,195.862952 122.159616,195.97563 126.531428,196.240422 C126.802548,196.257324 127.011536,196.206619 127.158393,196.088307 C127.40692,195.891121 127.469052,195.651681 127.344788,195.369987 L129.683199,195.919291 L133.766946,196.071406 C135.664787,196.003799 137.463782,195.961545 139.163931,195.944643 C140.479994,195.927742 141.482573,196.220704 142.17167,196.823529 C140.996816,201.308101 140.383972,205.947604 140.333137,210.74204 C129.612595,212.939254 118.824273,214.843507 107.968171,216.454798 C103.325239,217.147766 98.7416144,217.29143 94.0732646,217.460446 C90.2706801,216.790014 86.3733354,215.206858 82.3812306,212.710978 C81.2019366,211.973679 79.628254,210.74204 78.5346921,208.468767 C78.1562536,203.877152 78.9413723,199.206662 80.8900483,194.457298 C82.4941757,190.541748 84.2846983,186.724792 86.2616159,183.006428 Z M112.742258,196.625104 C112.729035,196.568325 112.693733,196.519114 112.644125,196.488303 C112.594516,196.457491 112.534665,196.447605 112.477746,196.46082 L106.140229,197.931855 C106.08332,197.945063 106.034003,197.980282 106.00313,198.029762 C105.972257,198.079242 105.962357,198.138929 105.975608,198.19569 L106.040846,198.475497 C106.054069,198.532276 106.089371,198.581486 106.13898,198.612298 C106.188588,198.643109 106.248439,198.652995 106.305358,198.639781 L112.642875,197.168745 C112.699784,197.155537 112.749101,197.120318 112.779974,197.070839 C112.810847,197.021359 112.820747,196.961672 112.807496,196.904911 L112.742258,196.625104 Z" id="形状" fill="#FFD0C0" fill-rule="nonzero"></path>
                <path d="M192.117082,187.536071 C192.410795,189.006515 192.910673,190.110756 193.616715,190.848795 C205.077189,202.8377 215.622632,215.099849 225.253045,227.635241 C231.776874,236.128321 237.987219,244.934082 241.825263,254.63563 C241.932329,254.911378 244.733681,264.874203 242.503064,270.66568 C240.272446,276.457157 236.548899,279.579578 232.087111,283.460447 C229.112585,286.047693 225.462018,289.101575 221.135408,292.622094 L214.086285,297.963016 C213.76433,286.723417 213.010277,277.081024 211.824126,269.035838 C210.592789,260.754028 209.43488,254.148299 208.3504,249.218651 C206.797107,242.170662 204.407861,233.736737 201.182661,223.916878 C200.98497,223.314052 200.66019,222.784467 200.208323,222.328122 C199.496633,221.612619 199.248106,221.747832 199.462743,222.733762 C201.27021,230.919795 202.990129,239.249493 204.622498,247.722855 C206.562701,257.779338 209.104453,268.292165 210.468526,278.788091 C210.784833,281.216295 210.666218,283.675486 210.112681,286.165662 C209.321914,289.737545 208.228961,293.05872 206.833821,296.129186 C205.591188,298.884156 204.351378,301.585603 203.114392,304.233529 C203.028688,304.417874 203.034271,304.631615 203.129446,304.809819 C203.22462,304.988023 203.398152,305.109656 203.597325,305.137767 L203.961643,305.196923 C202.95059,305.963131 202.298208,306.723705 202.004494,307.478646 C192.300653,332.521261 182.579866,357.561058 172.842135,382.598039 C172.740465,382.862831 172.548422,383.006496 172.266005,383.029031 C171.238008,383.107905 170.475482,383.026214 169.978429,382.783957 L164.318796,381.305063 C160.980629,379.744477 157.820385,378.251497 154.838064,376.826125 C154.691207,376.758518 154.372076,376.750067 153.880671,376.800772 C153.750759,376.564149 153.640617,376.426119 153.550243,376.386682 C147.170448,373.395089 125.89599,362.806204 128.242874,353.535648 C128.819004,351.259559 129.875243,348.622901 131.41159,345.625675 C138.486131,331.86773 145.569144,320.033749 153.880671,306.833559 C153.982341,306.67581 154.301472,306.21759 154.838064,305.458898 C153.979517,303.639154 153.344079,302.092653 152.931751,300.819395 L147.263645,286.385384 L164.547554,276.785246 C164.609685,277.388071 165.137805,278.537383 166.131912,280.233183 C166.532944,280.920516 166.47646,281.624752 165.962462,282.345889 C165.809957,282.559977 165.719583,282.7966 165.691342,283.055758 C165.414573,285.669881 164.252526,286.867081 163.134155,289.469935 C163.049018,289.669951 163.568681,291.311733 163.734193,291.447429 L163.929061,291.616445 C164.019434,291.689686 164.095687,291.675601 164.157818,291.574191 L169.664946,282.75998 C170.066477,282.116008 170.079507,281.303728 169.698836,280.647273 L167.75016,277.292295 C167.567923,276.984012 167.482353,276.627893 167.504458,276.269745 C167.583534,274.630285 167.320887,273.086601 166.716515,271.638692 C165.496474,268.714707 165.072849,265.630155 163.971423,262.672366 C162.420955,258.472305 161.734682,254.044073 160.506169,249.801758 C158.410636,242.556583 156.812157,236.218463 155.710732,230.787399 C155.015987,227.361998 154.73357,223.423913 154.863481,218.973144 C154.965151,215.423797 156.083522,212.026565 157.659408,208.832153 C157.919231,208.308202 158.255307,207.84904 158.667636,207.454668 C159.187283,206.953253 159.534655,207.054663 159.709754,207.758898 C160.483576,210.863168 161.308233,213.916733 162.183725,216.919594 C162.20067,216.975932 162.771152,219.057653 163.895171,223.164754 C164.674641,225.992964 165.632034,228.764835 166.76735,231.480367 C166.846426,231.660651 166.914206,231.657834 166.97069,231.471916 C166.976338,231.443747 166.993283,231.421211 167.021525,231.404309 C167.049766,231.387408 167.058239,231.362055 167.046942,231.328252 C164.533433,223.429547 162.355999,215.440699 160.514642,207.361709 C160.209632,206.001126 160.633257,204.970125 161.666902,204.158846 C165.759122,200.939081 170.342746,197.744669 175.231381,195.488299 C177.451177,194.468566 179.665325,193.35869 181.873824,192.158673 C184.788366,190.578369 187.863885,189.716384 190.575086,187.713539 C190.829261,187.52762 191.114502,187.448746 191.430809,187.476915 L192.117082,187.536071 Z M171.969467,246.835518 C172.534301,249.308793 173.327892,251.736997 174.350241,254.12013 C174.378483,254.182103 174.423669,254.218723 174.485801,254.229991 C174.519691,254.235625 174.547933,254.22154 174.570526,254.187737 C174.643954,254.091961 174.663723,253.984917 174.629833,253.866605 C173.884253,251.466571 172.997464,249.122875 171.969467,246.835518 C172.003357,245.596063 171.678578,244.517175 170.995129,243.598852 C170.803086,243.339693 170.73813,243.367862 170.800262,243.68336 C171.031843,244.810137 171.421579,245.860856 171.969467,246.835518 Z M180.506012,271.177099 C180.468973,270.922869 180.387421,270.587875 180.279299,270.245827 C180.171181,269.903806 180.045358,269.582761 179.92951,269.353322 C179.813662,269.123883 179.71728,269.004847 179.661569,269.022401 C179.605823,269.03986 179.595312,269.192496 179.63235,269.446727 C179.669389,269.700957 179.750941,270.035951 179.859063,270.377998 C179.967181,270.72002 180.093004,271.041065 180.208852,271.270504 C180.3247,271.499942 180.421082,271.618979 180.476793,271.601424 C180.53254,271.583966 180.54305,271.431329 180.506012,271.177099 Z M182.196966,277.301422 C182.252962,277.284794 182.252089,277.086241 182.194539,276.749445 C182.136988,276.412649 182.027475,275.9652 181.890092,275.505537 C181.752689,275.045811 181.598668,274.611537 181.461922,274.298282 C181.325175,273.985026 181.216909,273.818458 181.160948,273.835231 C181.104952,273.851859 181.105825,274.050412 181.163375,274.387208 C181.220926,274.724004 181.330439,275.171454 181.467822,275.631116 C181.605224,276.090842 181.759245,276.525116 181.895992,276.838372 C182.032738,277.151627 182.141005,277.318196 182.196966,277.301422 Z M182.969743,279.864727 C182.703466,278.523359 182.361098,277.460898 182.205015,277.491566 C182.04898,277.522486 182.138346,278.634895 182.404627,279.976277 C182.670904,281.317645 183.013272,282.380106 183.169355,282.349438 C183.32539,282.318518 183.236023,281.20611 182.969743,279.864727 Z M177.08686,301.148977 C176.426004,302.078568 175.98261,303.132104 175.756677,304.309586 C173.813649,309.616705 171.966643,314.95481 170.215659,320.323902 C170.181769,320.430945 170.221307,320.501369 170.334274,320.535172 L170.334274,320.543623 C170.447241,320.577426 170.520669,320.540806 170.554559,320.433762 C171.932753,316.422437 173.373079,312.428013 174.875536,308.450491 C175.40648,307.058922 175.700193,305.67862 175.756677,304.309586 C176.564389,303.515208 177.007783,302.461672 177.08686,301.148977 C177.888923,299.740506 178.417043,298.34612 178.671218,296.965818 C178.840668,296.030593 178.736174,295.999607 178.357735,296.872859 C177.804198,298.129215 177.380573,299.554588 177.08686,301.148977 Z M166.716515,330.515598 C165.801484,331.76632 165.304431,333.174791 165.225354,334.741011 C164.66052,335.501585 164.251016,336.5016 163.996841,337.741054 C163.900819,338.191765 163.968599,338.217117 164.200181,337.817112 C164.697235,336.966395 165.038959,335.941028 165.225354,334.741011 L166.716515,330.515598 C167.467743,329.24234 167.967621,327.901476 168.216148,326.493005 C168.31217,325.963419 168.230269,325.932433 167.970445,326.400045 C167.399963,327.408511 166.981986,328.780361 166.716515,330.515598 Z M159.491651,351.283118 C159.775494,350.62208 160.129609,349.714364 160.476092,348.759664 C160.822602,347.804887 161.133091,346.881344 161.33924,346.19224 C161.545389,345.503137 161.630309,345.104933 161.575314,345.085244 C161.520389,345.065381 161.33007,345.425591 161.046227,346.086629 C160.762384,346.747668 160.408269,347.655384 160.061786,348.610084 C159.715276,349.564861 159.404788,350.488404 159.198639,351.177507 C158.992489,351.866611 158.90757,352.264815 158.962564,352.284503 C159.017489,352.304367 159.207808,351.944157 159.491651,351.283118 Z M154.151069,366.414787 C154.30157,366.113556 154.477222,365.694666 154.639384,365.250268 C154.977042,364.324946 155.165256,363.543711 155.059789,363.505257 C155.009112,363.48686 154.89609,363.645755 154.745589,363.946986 C154.595088,364.248217 154.419435,364.667107 154.257274,365.111505 C153.919616,366.036827 153.731402,366.818061 153.836868,366.856516 C153.887546,366.874912 154.000567,366.716017 154.151069,366.414787 Z" id="形状" fill="#6F43A3" fill-rule="nonzero"></path>
                <path d="M175.756677,304.309586 C175.700193,305.67862 175.40648,307.058922 174.875536,308.450491 C173.373079,312.428013 171.932753,316.422437 170.554559,320.433762 C170.520669,320.540806 170.447241,320.577426 170.334274,320.543623 C170.221307,320.501369 170.181769,320.430945 170.215659,320.323902 C171.966643,314.95481 173.813649,309.616705 175.756677,304.309586 Z M191.778182,186.133234 L192.117082,187.536071 L191.430809,187.476915 C191.114502,187.448746 190.829261,187.52762 190.575086,187.713539 C187.863885,189.716384 184.788366,190.578369 181.873824,192.158673 C179.665325,193.35869 177.451177,194.468566 175.231381,195.488299 C170.342746,197.744669 165.759122,200.939081 161.666902,204.158846 C160.633257,204.970125 160.721058,206.272809 161.026069,207.633392 L162.118024,212.441714 C163.567729,218.806509 165.036135,225.009288 167.046942,231.328252 C167.058239,231.362055 167.049766,231.387408 167.021525,231.404309 C167.002697,231.415577 166.98889,231.429349 166.980104,231.445625 L166.97069,231.471916 C166.914206,231.657834 166.846426,231.660651 166.76735,231.480367 L165.274936,227.906421 C164.027107,224.890631 162.50486,221.106559 161.666902,218.514629 C161.379745,217.626409 161.082207,216.537161 160.788082,215.394361 L160.585171,214.596448 L159.716737,211.101057 C159.178412,208.970847 158.727156,207.395541 158.480657,207.633392 C158.068328,208.027764 157.919231,208.308202 157.659408,208.832153 C156.083522,212.026565 154.965151,215.423797 154.863481,218.973144 C154.73357,223.423913 155.015987,227.361998 155.710732,230.787399 C156.812157,236.218463 158.410636,242.556583 160.506169,249.801758 C161.640181,253.717741 162.312166,257.792139 163.628324,261.699259 L163.971423,262.672366 C164.972719,265.361265 165.41385,268.154927 166.402415,270.837477 L166.716515,271.638692 C167.320887,273.086601 167.583534,274.630285 167.504458,276.269745 C167.482353,276.627893 167.567923,276.984012 167.75016,277.292295 L169.698836,280.647273 C170.079507,281.303728 170.066477,282.116008 169.664946,282.75998 L162.900611,293.594552 C162.336559,294.486179 161.786783,295.327912 161.743155,295.292555 L160.514642,297.464417 C160.349129,297.328721 154.515697,305.794127 154.600834,305.594112 L154.743228,305.280256 C155.500981,303.670527 157.882511,299.264278 160.232217,294.768693 L160.690614,293.889621 C161.30005,292.718005 161.899998,291.552301 162.461156,290.440423 L163.343036,288.6707 C164.65737,285.993646 165.607413,283.848479 165.691342,283.055758 C165.719583,282.7966 165.809957,282.559977 165.962462,282.345889 C166.47646,281.624752 166.532944,280.920516 166.131912,280.233183 L165.817802,279.688156 C165.026198,278.288727 164.602782,277.321091 164.547554,276.785246 L166.055659,275.864106 C166.152852,275.801825 166.220994,275.70332 166.244873,275.590583 C166.268752,275.477846 166.246378,275.360267 166.182747,275.264097 C159.139272,265.066767 153.233936,254.469431 148.466741,243.472089 C143.6826,232.429676 140.971399,221.51966 140.333137,210.74204 C140.383972,205.947604 140.996816,201.308101 142.17167,196.823529 L142.857943,195.234774 L144.255906,195.750274 C144.477534,195.827571 144.717894,195.84219 144.950652,195.792528 C147.577128,195.206604 150.291153,194.736175 153.092728,194.38124 C155.865355,194.024897 158.303377,193.072067 161.000658,192.707439 L161.743155,192.623469 C164.446654,192.377626 167.017113,191.489242 169.702789,191.012288 L170.512196,190.882598 C171.698347,190.713582 173.62443,190.155827 176.290444,189.209335 C179.41468,189.013909 182.077231,188.568426 184.278096,187.872883 L184.712113,187.73044 C187.434611,186.800849 189.789967,186.268447 191.778182,186.133234 Z M177.08686,301.148977 C177.007783,302.461672 176.564389,303.515208 175.756677,304.309586 C175.98261,303.132104 176.426004,302.078568 177.08686,301.148977 Z M178.671218,296.965818 C178.417043,298.34612 177.888923,299.740506 177.08686,301.148977 C177.347938,299.731742 177.711663,298.448051 178.178035,297.297904 L178.357735,296.872859 C178.736174,295.999607 178.840668,296.030593 178.671218,296.965818 Z M182.205015,277.491566 C182.353294,277.462432 182.669695,278.419846 182.929263,279.665715 L182.969743,279.864727 C183.236023,281.20611 183.32539,282.318518 183.169355,282.349438 C183.013272,282.380106 182.670904,281.317645 182.404627,279.976277 L182.330119,279.581584 C182.122927,278.423228 182.064583,277.519394 182.205015,277.491566 Z M181.160948,273.835231 C181.216909,273.818458 181.325175,273.985026 181.461922,274.298282 C181.598668,274.611537 181.752689,275.045811 181.890092,275.505537 C182.027475,275.9652 182.136988,276.412649 182.194539,276.749445 C182.252089,277.086241 182.252962,277.284794 182.196966,277.301422 C182.141005,277.318196 182.032738,277.151627 181.895992,276.838372 C181.759245,276.525116 181.605224,276.090842 181.467822,275.631116 C181.330439,275.171454 181.220926,274.724004 181.163375,274.387208 C181.105825,274.050412 181.104952,273.851859 181.160948,273.835231 Z M179.92951,269.353322 C180.045358,269.582761 180.171181,269.903806 180.279299,270.245827 C180.387421,270.587875 180.468973,270.922869 180.506012,271.177099 C180.54305,271.431329 180.53254,271.583966 180.476793,271.601424 C180.421082,271.618979 180.3247,271.499942 180.208852,271.270504 C180.093004,271.041065 179.967181,270.72002 179.859063,270.377998 C179.750941,270.035951 179.669389,269.700957 179.63235,269.446727 C179.595312,269.192496 179.605823,269.03986 179.661569,269.022401 C179.71728,269.004847 179.813662,269.123883 179.92951,269.353322 Z M171.969467,246.835518 C172.997464,249.122875 173.884253,251.466571 174.629833,253.866605 C174.663723,253.984917 174.643954,254.091961 174.570526,254.187737 C174.547933,254.22154 174.519691,254.235625 174.485801,254.229991 C174.423669,254.218723 174.378483,254.182103 174.350241,254.12013 C173.327892,251.736997 172.534301,249.308793 171.969467,246.835518 Z M170.995129,243.598852 C171.678578,244.517175 172.003357,245.596063 171.969467,246.835518 C171.421579,245.860856 171.031843,244.810137 170.800262,243.68336 C170.73813,243.367862 170.803086,243.339693 170.995129,243.598852 Z M166.716515,330.515598 C166.981986,328.780361 167.399963,327.408511 167.970445,326.400045 L168.064885,326.239592 C168.248946,325.94956 168.299367,326.034031 168.216148,326.493005 C167.967621,327.901476 167.467743,329.24234 166.716515,330.515598 Z M166.716515,330.515598 L165.225354,334.741011 C165.304431,333.174791 165.801484,331.76632 166.716515,330.515598 Z M165.225354,334.741011 C165.038959,335.941028 164.697235,336.966395 164.200181,337.817112 L164.11096,337.9625 C163.952576,338.201193 163.914537,338.127378 163.996841,337.741054 C164.251016,336.5016 164.66052,335.501585 165.225354,334.741011 Z M158.962564,352.284503 C158.90757,352.264815 158.992489,351.866611 159.198639,351.177507 L159.371746,350.619897 C159.562283,350.02468 159.801903,349.326167 160.061786,348.610084 L160.321862,347.905989 C160.494577,347.446625 160.664331,347.011488 160.821386,346.62554 L161.046227,346.086629 C161.33007,345.425591 161.520389,345.065381 161.575314,345.085244 C161.630309,345.104933 161.545389,345.503137 161.33924,346.19224 C161.133091,346.881344 160.822602,347.804887 160.476092,348.759664 L160.216016,349.463759 C160.000122,350.037963 159.788855,350.574314 159.601234,351.024056 L159.491651,351.283118 C159.229642,351.893308 159.047322,352.24717 158.977623,352.282376 L158.962564,352.284503 Z M153.836868,366.856516 C153.731402,366.818061 153.919616,366.036827 154.257274,365.111505 C154.419435,364.667107 154.595088,364.248217 154.745589,363.946986 L154.851049,363.748297 C154.948704,363.577389 155.021781,363.491459 155.059789,363.505257 C155.165256,363.543711 154.977042,364.324946 154.639384,365.250268 C154.477222,365.694666 154.30157,366.113556 154.151069,366.414787 C154.01938,366.678364 153.916387,366.832965 153.858746,366.855173 L153.836868,366.856516 Z" id="形状" stroke="#592B8F" stroke-width="0.5" fill="#592B8F" fill-rule="nonzero"></path>
                <path d="M115.025767,191.127672 L127.344788,195.369987 C127.469052,195.651681 127.40692,195.891121 127.158393,196.088307 C127.011536,196.206619 126.802548,196.257324 126.531428,196.240422 C122.159616,195.97563 118.02221,195.862952 114.119209,195.902389 C113.02908,195.908023 112.868103,195.524919 113.636277,194.753077 C114.613439,193.767147 115.076602,192.558679 115.025767,191.127672 Z" id="路径" fill="#F6F0F1" fill-rule="nonzero"></path>
                <path d="M112.807496,196.904911 C112.820747,196.961672 112.810847,197.021359 112.779974,197.070839 C112.749101,197.120318 112.699784,197.155537 112.642875,197.168745 L106.305358,198.639781 C106.248439,198.652995 106.188588,198.643109 106.13898,198.612298 C106.089371,198.581486 106.054069,198.532276 106.040846,198.475497 L105.975608,198.19569 C105.962357,198.138929 105.972257,198.079242 106.00313,198.029762 C106.034003,197.980282 106.08332,197.945063 106.140229,197.931855 L112.477746,196.46082 C112.534665,196.447605 112.594516,196.457491 112.644125,196.488303 C112.693733,196.519114 112.729035,196.568325 112.742258,196.625104 L112.807496,196.904911 Z" id="路径" fill="#F89B91" fill-rule="nonzero"></path>
                <path d="M94.0732646,217.460446 C90.7802847,217.499884 87.5946232,216.933678 84.51628,215.76183 C81.1611684,214.482939 79.1673058,212.051918 78.5346921,208.468767 C78.4423789,205.790716 78.7538479,201.053762 79.1731238,200.233437 C79.6950522,199.212271 80.1141773,209.130697 84.1561408,211.189456 C90.7223572,214.533932 94.7377097,215.76183 100.224303,217.129457 C100.364011,217.164282 98.3136648,217.274611 94.0732646,217.460446 Z" id="路径" fill="#F89B91" fill-rule="nonzero"></path>
                <path d="M214.086285,297.963016 L203.961643,305.196923 L203.597325,305.137767 C203.398152,305.109656 203.22462,304.988023 203.129446,304.809819 C203.034271,304.631615 203.028688,304.417874 203.114392,304.233529 C204.351378,301.585603 205.591188,298.884156 206.833821,296.129186 C208.228961,293.05872 209.321914,289.737545 210.112681,286.165662 C210.666218,283.675486 210.784833,281.216295 210.468526,278.788091 C209.104453,268.292165 206.562701,257.779338 204.622498,247.722855 C202.990129,239.249493 201.27021,230.919795 199.462743,222.733762 C199.248106,221.747832 199.496633,221.612619 200.208323,222.328122 C200.66019,222.784467 200.98497,223.314052 201.182661,223.916878 C204.407861,233.736737 206.797107,242.170662 208.3504,249.218651 C209.43488,254.148299 210.592789,260.754028 211.824126,269.035838 C213.010277,277.081024 213.76433,286.723417 214.086285,297.963016 Z" id="路径" stroke="#592B8F" stroke-width="0.5" fill="#592B8F" fill-rule="nonzero"></path>
                <path d="M147.263645,286.385384 L152.931751,300.819395 L149.025926,302.340544 C148.749158,298.081327 147.161975,294.588319 144.264379,291.861519 C143.349348,290.993901 141.829946,290.196707 139.706172,289.469935 L147.263645,286.385384 Z" id="路径" fill="#F89B91" fill-rule="nonzero"></path>
                <path d="M139.706172,289.469935 C141.829946,290.196707 143.349348,290.993901 144.264379,291.861519 C147.161975,294.588319 148.749158,298.081327 149.025926,302.340544 L141.417617,305.458898 C138.836328,301.171513 135.51793,296.751731 131.462425,292.199552 L139.706172,289.469935 Z" id="路径" fill="#FFD0C0" fill-rule="nonzero"></path>
                <path d="M131.462425,292.199552 C135.51793,296.751731 138.836328,301.171513 141.417617,305.458898 C141.925968,305.887074 142.23945,306.272995 142.358065,306.616662 C142.465384,306.909624 142.372186,307.112443 142.078473,307.225121 C140.570367,307.78851 139.107448,308.382884 137.689716,309.008245 C135.131019,310.14629 133.162574,311.963218 131.78438,314.459028 C131.535854,314.622411 131.360755,314.794244 131.259085,314.974529 C131.123525,315.233687 131.165888,315.459043 131.386173,315.650595 L131.78438,316.01398 C131.400293,317.225265 131.380524,318.402747 131.725073,319.546426 C132.877333,323.349297 133.83755,326.850756 134.605724,330.050802 C135.461447,333.617051 134.199044,337.648095 131.403118,340.267851 C129.109893,342.408727 126.500362,343.960862 123.574524,344.924256 C123.453161,344.965309 123.319639,344.949418 123.210017,344.880876 C123.100396,344.812333 123.02598,344.698209 123.006866,344.569322 L115.932325,296.695392 C115.893501,296.413937 116.052663,296.145817 116.313588,296.053129 C121.493112,294.210849 126.542724,292.926323 131.462425,292.199552 Z" id="路径" fill="#FFA42D" fill-rule="nonzero"></path>
                <path d="M131.78438,316.01398 L131.386173,315.650595 C131.165888,315.459043 131.123525,315.233687 131.259085,314.974529 C131.360755,314.794244 131.535854,314.622411 131.78438,314.459028 L139.418106,313.326618 C139.683597,313.28532 139.934323,313.460752 139.985764,313.723806 L140.028127,313.977331 C140.067665,314.168883 139.991413,314.278744 139.799369,314.306913 L133.292486,315.177348 C133.159728,315.19432 133.04942,315.287635 133.010961,315.415506 C132.972501,315.543377 133.013095,315.681847 133.114563,315.768906 L138.562384,320.357705 C138.664054,320.442213 138.686647,320.543623 138.630164,320.661935 L138.452241,321.008418 C138.367516,321.166167 138.254549,321.188703 138.113341,321.076025 L131.78438,316.01398 Z" id="路径" fill="#592B8F" fill-rule="nonzero"></path>
                <path d="M153.880671,376.800772 C154.372076,376.750067 154.691207,376.758518 154.838064,376.826125 C157.820385,378.251497 160.980629,379.744477 164.318796,381.305063 C162.624295,381.699434 160.734927,381.899437 158.650691,381.905071 C156.374411,381.916339 154.216747,382.634659 152.177698,384.060032 L153.880671,376.800772 Z" id="路径" fill="#F89B91" fill-rule="nonzero"></path>
                <path d="M164.318796,381.305063 L169.978429,382.783957 L165.496474,401.22366 L148.475213,397.868682 L152.177698,384.060032 C154.216747,382.634659 156.374411,381.916339 158.650691,381.905071 C160.734927,381.899437 162.624295,381.699434 164.318796,381.305063 Z" id="路径" fill="#FFD0C0" fill-rule="nonzero"></path>
                <path d="M148.475213,397.868682 L165.496474,401.22366 C166.326779,401.246195 167.024349,401.420846 167.589183,401.747611 C167.871599,401.90536 167.950676,402.133532 167.826413,402.432128 C166.216637,406.353311 165.632034,410.933659 168.868531,414.170325 C175.900709,421.226765 193.726858,423.846521 193.701467,435.779087 C193.701467,437.71151 193.574353,439.615763 193.320177,441.491846 C193.295691,441.663341 193.197073,441.815514 193.050353,441.908199 C192.903633,442.000884 192.723556,442.024767 192.557652,441.973543 C191.100381,441.500297 189.626166,440.384788 188.567103,439.852386 C176.784674,433.863567 165.567078,428.077568 154.914316,422.494389 C150.491669,420.178863 146.179165,417.559106 141.976803,414.635121 C141.069842,414.003949 140.667462,412.867923 140.977047,411.812545 C141.790408,409.029406 142.586823,406.294155 143.366293,403.606793 C144.188126,400.750413 145.416639,398.198264 148.475213,397.868682 Z" id="路径" fill="#FFA42D" fill-rule="nonzero"></path>
                <path d="M179.467633,410.680134 L179.476107,411.144929 C179.476448,411.259973 179.387763,411.355802 179.272766,411.364651 L167.58071,411.990012 C167.488969,411.998282 167.401757,411.948742 167.36208,411.865823 C167.322403,411.782904 167.338642,411.684116 167.402787,411.618176 L173.43521,404.942023 C173.478232,404.895776 173.539108,404.870205 173.602337,404.871822 C173.665567,404.873439 173.72505,404.902088 173.765638,404.950474 L174.096066,405.356114 C174.165156,405.440703 174.161548,405.563048 174.087593,405.643442 L169.563276,410.553372 C169.50066,410.618256 169.48408,410.714683 169.521442,410.796669 C169.558805,410.878656 169.642543,410.9296 169.732726,410.925208 L179.230403,410.460413 C179.291703,410.455695 179.352189,410.476744 179.397242,410.518472 C179.442296,410.560201 179.467815,410.61881 179.467633,410.680134 L179.467633,410.680134 Z" id="路径" fill="#592B8F" fill-rule="nonzero"></path>
            </g>
        </g>
    </g>
</svg>