<?xml version="1.0" encoding="UTF-8"?>
<svg width="162px" height="140px" viewBox="0 0 162 140" version="1.1" xmlns="http://www.w3.org/2000/svg" xmlns:xlink="http://www.w3.org/1999/xlink">
    <title>编组 2</title>
    <defs>
        <linearGradient x1="50%" y1="16.9804217%" x2="50%" y2="100%" id="linearGradient-1">
            <stop stop-color="#FFE5A1" offset="0%"></stop>
            <stop stop-color="#FFC767" offset="100%"></stop>
        </linearGradient>
        <linearGradient x1="82.9826109%" y1="22.3394569%" x2="29.539672%" y2="38.5262486%" id="linearGradient-2">
            <stop stop-color="#FFDD7A" offset="0%"></stop>
            <stop stop-color="#FF9B13" offset="100%"></stop>
        </linearGradient>
        <linearGradient x1="82.9826109%" y1="15.0793303%" x2="40.7773808%" y2="39.8722992%" id="linearGradient-3">
            <stop stop-color="#FFDD7A" offset="0%"></stop>
            <stop stop-color="#FF9B13" offset="100%"></stop>
        </linearGradient>
        <linearGradient x1="50%" y1="0%" x2="50%" y2="100%" id="linearGradient-4">
            <stop stop-color="#FFDD7A" offset="0%"></stop>
            <stop stop-color="#FF9B13" offset="100%"></stop>
        </linearGradient>
        <path d="M20.1415425,53.8498368 C19.9294841,52.9963046 19.4081176,52.2023842 18.5774429,51.4680755 C17.7724314,50.7581535 17.6123746,49.9398465 18.0972725,49.0131544 C18.1391439,48.9332204 18.1269877,48.8627702 18.0608038,48.8018036 C5.67564752,37.333989 -0.145153077,20.2877319 0.00274753019,3.64182201 C0.010851673,2.57897121 -0.0985542554,0.390270818 1.25281156,0.0447935047 C1.37437371,0.0136328058 1.79038637,-0.00127013718 2.50084956,0 C16.6844502,0.00685874079 31.1820864,0.00821355378 45.9937582,0.0041491148 C48.0380282,0.0021168953 47.6956282,3.0158984 47.6956282,4.31042222 C47.7037323,13.9878514 45.6695925,23.6734095 41.5243234,32.4505655 C38.833748,38.1448446 35.2706265,43.2220063 30.834959,47.6820506 C30.4486615,48.070882 30.060338,48.4224559 29.6699884,48.7367725 C29.5797357,48.8098916 29.5541977,48.9371175 29.6092074,49.0395733 C30.0481818,49.8727832 29.944854,50.6131885 29.2992239,51.2607892 C28.5029919,52.0594514 27.7878013,52.7544705 27.5912758,53.95348 C27.5775226,54.0298085 27.6111481,54.1069013 27.6763693,54.1485731 C28.511096,54.7013368 29.1796878,55.3740014 29.4430724,56.3657245 C29.7996547,57.7049572 29.6112334,59.3002495 28.6569706,60.3427781 C28.5498637,60.4604372 28.5107959,60.6248693 28.5536428,60.777673 C29.4113312,63.7799386 31.2597511,66.1515388 34.0989025,67.8924735 C35.7420175,68.9004544 37.1399821,70.6075187 37.3243514,72.5198373 C37.474278,74.0582274 36.3619844,74.2695783 35.093686,74.2695783 C27.6500308,74.264159 20.1901674,74.2539979 12.7140956,74.239095 C12.1954304,74.2370627 11.6240884,74.2797394 11.1540481,74.0765174 C10.582706,73.8299414 10.3220228,73.325951 10.3719983,72.5645461 C10.4854563,70.8717073 11.7436245,69.1666751 13.022053,68.3090785 C13.8378701,67.761734 14.5382031,67.2624854 15.123052,66.8113327 C17.0315777,65.3400058 18.3552543,63.3850107 19.094082,60.9463473 C19.1649933,60.7065454 19.1629673,60.4667435 18.9907542,60.2655537 C18.2289648,59.3646031 17.9507226,58.213012 18.1560275,56.8107806 C18.356605,55.4329358 19.0738217,54.9431709 20.0746833,54.0652521 C20.1408672,54.0069951 20.1631535,53.93519 20.1415425,53.8498368 Z" id="path-5"></path>
        <linearGradient x1="57.4093003%" y1="70.1298956%" x2="30.3224896%" y2="12.5248812%" id="linearGradient-7">
            <stop stop-color="#FFDD7A" stop-opacity="0" offset="0%"></stop>
            <stop stop-color="#FF9B13" offset="100%"></stop>
        </linearGradient>
        <linearGradient x1="38.1388346%" y1="21.5504721%" x2="92.4519857%" y2="93.4629755%" id="linearGradient-8">
            <stop stop-color="#FF8500" offset="0%"></stop>
            <stop stop-color="#FFF9E0" offset="100%"></stop>
        </linearGradient>
        <linearGradient x1="50%" y1="0%" x2="73.7014878%" y2="65.4724392%" id="linearGradient-9">
            <stop stop-color="#FFFFFF" offset="0%"></stop>
            <stop stop-color="#FFFFFF" stop-opacity="0" offset="100%"></stop>
        </linearGradient>
    </defs>
    <g id="页面-1" stroke="none" stroke-width="1" fill="none" fill-rule="evenodd">
        <g id="8" transform="translate(-294, -468)">
            <g id="编组" transform="translate(294, 468)">
                <path d="M74.4201333,132.747009 C75.8289035,132.841846 76.8561036,133.511123 77.5017336,134.754841 C78.1439869,135.994495 77.9596177,137.575562 77.0479016,138.687186 C76.4590006,139.406592 75.6620932,139.844197 74.6571795,140 L73.7920622,140 C72.7061071,139.787294 71.8747571,139.27653 71.2980123,138.467707 C69.5556216,136.027011 71.4580691,132.549883 74.4201333,132.747009 Z M67.6248095,125.593596 C70.035792,125.684368 72.4130073,125.865913 74.7564552,126.138231 C74.8591077,126.150424 74.9583835,126.174133 75.0542825,126.209359 C75.1170611,126.232936 75.1694959,126.278326 75.2021831,126.337388 C75.3764222,126.648995 75.3102383,126.895571 75.0036316,127.077116 C68.6499836,130.859077 61.7634882,133.732635 54.261078,133.309933 C51.9284355,133.178517 49.4742309,132.807298 46.8984642,132.196277 C46.7269265,132.155633 46.5621423,132.098053 46.4041115,132.023538 C46.2725363,131.96217 46.1839865,131.834617 46.1722485,131.689547 C46.1605106,131.544477 46.2273952,131.40427 46.3473825,131.322423 C46.6337289,131.128685 46.9261534,130.947817 47.2246559,130.77982 C50.4217403,128.975209 53.752543,127.512011 57.215038,126.642221 C60.5390873,125.806302 64.0090111,125.45676 67.6248095,125.593596 Z M52.731421,119.051881 C55.0708169,119.387875 57.531775,119.837673 60.1142951,120.401275 C60.3443902,120.452144 60.5054697,120.659878 60.4972159,120.895105 C60.4904624,121.094262 60.389836,121.23855 60.1953366,121.327967 C57.588504,122.525622 55.0221921,123.505152 52.4964009,124.266557 C46.8478133,125.969557 41.3234893,126.118586 35.9234287,124.713645 C34.4268637,124.323459 32.9532604,123.866887 31.5026188,123.343929 C31.3256784,123.280253 31.1696736,123.188803 31.0346046,123.069579 C30.9797291,123.020927 30.9556532,122.946142 30.9717975,122.874486 C31.021773,122.640104 31.1500886,122.476849 31.3567443,122.384721 C34.1445694,121.1471 36.9891235,120.137087 39.9572658,119.470519 C44.0377018,118.55331 48.2957535,118.413765 52.731421,119.051881 Z M53.9328602,105.259208 C55.3402797,105.711715 56.8078049,106.265156 58.3354358,106.919531 C63.8975792,109.304002 68.5790723,112.889515 72.3799153,117.676069 C73.664422,119.292361 75.047529,121.117294 76.5292365,123.150868 C76.6629548,123.335123 76.6825398,123.5397 76.5879915,123.764598 C76.5106961,123.949331 76.3062809,124.045717 76.1138992,123.988143 C72.7655375,122.969323 69.6116752,121.657864 66.6523124,120.053766 C62.9460177,118.044578 59.8610407,115.45553 57.3973813,112.286623 C55.8683996,110.320789 54.5109557,108.153088 53.3250495,105.78352 C53.2402235,105.611903 53.3043614,105.403712 53.470924,105.310013 C53.6208507,105.22466 53.7748294,105.207725 53.9328602,105.259208 Z M35.6012891,109.187488 C38.6180562,110.27879 41.6368495,111.70744 44.5786533,113.203154 C44.7779307,113.304395 44.8662104,113.541707 44.7812569,113.747789 C44.6374083,114.099363 44.220045,114.109524 43.8837231,114.17049 C40.7096004,114.751705 37.4828009,115.027409 34.2033244,114.997604 C28.8370312,114.94883 23.8246188,113.533728 19.1660874,110.752297 C18.0180005,110.066762 16.9286686,109.379194 15.8980918,108.689594 C15.7465602,108.588433 15.6796809,108.399606 15.7339829,108.226248 C15.7907119,108.037929 15.9149754,107.92548 16.1067735,107.8889 C22.5900877,106.641117 29.4461926,106.960175 35.6012891,109.187488 Z M35.086676,87.8065068 C39.1812942,91.5071785 42.6579715,95.6630673 44.9230794,100.648102 C46.6837044,104.523544 47.7858678,108.949718 48.6631413,113.195025 C48.7279744,113.509342 48.6111397,113.711209 48.3126371,113.800626 C48.1827109,113.839872 48.0415402,113.810021 47.9378205,113.72137 C43.9566603,110.268629 40.2348327,106.297672 37.8157461,101.767855 C35.540508,97.5042582 34.5436984,92.8301534 34.2134546,87.9833099 C34.2016154,87.8034563 34.3336666,87.6459431 34.5133079,87.6256392 C34.7334704,87.6012526 34.9245931,87.6615418 35.086676,87.8065068 Z M10.9322783,89.159965 C14.7844475,89.9701431 18.3739074,91.2456996 21.7006581,92.9866343 C27.0230539,95.7748394 31.1298283,100.131918 35.1535352,104.732863 C35.2521356,104.846667 35.3054879,104.982149 35.313592,105.139307 C35.3191314,105.273998 35.2629474,105.403833 35.1610738,105.49176 C35.0592003,105.579686 34.922828,105.616044 34.7908748,105.59046 C31.1872326,104.879183 27.7659336,103.8143 24.5269779,102.395811 C18.40835,99.7173452 13.8538217,95.3074289 10.34878,89.6842776 C10.2804092,89.5756039 10.2911484,89.4355691 10.3751184,89.3408325 C10.523019,89.170126 10.7134664,89.1132239 10.9322783,89.159965 Z M25.8661875,64.2368251 C25.9796455,64.331662 26.0701417,64.4447889 26.1376763,64.5762057 C28.9417097,69.957523 30.7104389,75.5542554 30.8117406,81.5797862 C30.8745478,85.4775832 30.4227418,89.4241535 29.8189832,93.1085674 C29.7676569,93.4269485 29.5765342,93.5719135 29.245615,93.5434624 C29.1362091,93.5353335 29.0544923,93.4824958 29.0004647,93.3849493 C27.1257063,90.0236582 25.6662853,86.5451759 24.6222016,82.9495022 C23.5713644,79.3253774 23.2553028,75.5894806 23.6740168,71.7418117 C23.9157904,69.5050154 24.4162213,67.099545 25.1753093,64.5254003 C25.2644549,64.2246318 25.5926727,64.0092165 25.8661875,64.2368251 Z M0.542767125,69.3722438 C5.66053333,71.087437 10.5716439,73.6805491 14.4879709,77.2836742 C17.6992375,80.2425858 20.3837348,83.9269998 22.9608523,87.6337681 C23.097272,87.830216 23.1101036,88.0320831 22.9993469,88.2393695 C22.8413162,88.5340413 22.5313327,88.438527 22.2841563,88.355206 C18.0801322,86.9163946 14.0726336,85.160557 10.5392273,82.7401836 C5.98875112,79.6268233 2.74912001,75.3713557 0.204419161,70.3477091 C0.0848830538,70.1079072 -0.0549134103,69.9412652 0.0220759468,69.65269 C0.0508424928,69.5445585 0.123005076,69.4531825 0.221549548,69.400106 C0.320094019,69.3470296 0.436299322,69.33695 0.542767125,69.3722438 Z M3.9850018,49.8974844 C8.71782122,53.7343148 12.6138879,58.1279733 15.0998337,63.5621282 C16.6922978,67.0453524 17.8471381,70.9146983 18.8338175,74.7312066 C18.8891958,74.945267 18.8243627,75.1173283 18.6393181,75.2473903 C18.4448187,75.3855812 18.2543713,75.3808394 18.067976,75.2331648 C14.3846431,72.3270909 10.863393,68.9271877 8.33490047,65.1736783 C5.30192501,60.6702799 3.77429408,55.5836345 3.22523841,50.1819951 C3.20842306,50.0191548 3.30335372,49.8654657 3.45620648,49.8080667 C3.64665383,49.7376164 3.82291894,49.7674223 3.9850018,49.8974844 Z M28.163712,40.2058111 C28.3665708,40.2038724 28.5367942,40.3578065 28.5547369,40.5594358 C28.6560387,41.6934143 28.7269499,42.9642288 28.7674706,44.3718796 C28.9356316,50.1088352 27.541719,55.4799913 24.7397116,60.393898 C23.1648065,63.1550069 21.3521799,65.7487964 19.3018318,68.1752665 C19.0546554,68.4679061 18.5562506,68.3520696 18.5278861,67.957819 C18.5103272,67.7234363 18.5062751,67.4917633 18.5157299,67.2627999 C18.6467469,64.2009225 18.8871698,61.437104 19.2369986,58.9713444 C19.9440851,53.9842778 21.7087622,49.2918829 24.4479625,44.9754487 C25.4474734,43.401156 26.5280258,41.8878299 27.6896196,40.4354704 C27.8084804,40.2850862 27.9665112,40.2085392 28.163712,40.2058111 Z M6.22579729,29.6687715 C7.31175244,31.0154556 8.3443553,32.4441059 9.3236059,33.9547224 C12.1033269,38.2454152 13.8707054,42.8714242 14.6257414,47.8327493 C15.0734952,50.7774354 15.3186456,53.7952813 15.4158953,56.7867084 C15.4239994,57.0163492 15.4280515,57.329311 15.2234219,57.4796953 C14.9884017,57.6524339 14.7027307,57.532533 14.5386218,57.3272788 C11.9209837,54.0635343 9.59104261,50.7449199 7.82636551,46.9304439 C6.16096415,43.3252865 5.27423586,39.5460357 5.16618062,35.5926913 C5.112153,33.6146644 5.18441494,31.6630563 5.38296644,29.737867 C5.39891579,29.5954606 5.50484159,29.4801515 5.64432505,29.4533563 C5.88069588,29.4086474 6.07451996,29.4804525 6.22579729,29.6687715 Z M18.3414908,16.0041277 C18.4373899,16.1016742 18.5110025,16.2175107 18.5623287,16.3516372 C20.7241088,22.0926573 21.8911054,27.719873 21.3521799,33.7210172 C21.013832,37.4765588 20.1750532,41.0532651 19.1559572,44.8799344 C19.0789678,45.1705418 18.9938743,45.5546313 18.5987974,45.5078902 C18.3813362,45.4821488 18.2300589,45.360893 18.1449654,45.144123 C16.8543806,41.8844429 15.8069202,38.6206984 15.1768231,35.302084 C14.3596553,30.9856498 14.4467749,26.7809876 15.4381817,22.6880976 C15.9446906,20.6003307 16.6781155,18.4170496 17.6384565,16.1382541 C17.7660967,15.8354534 18.120653,15.7805835 18.3414908,16.0041277 Z M44.9392877,20.0462122 C45.0365374,20.1938868 45.0453169,20.3449485 44.9656261,20.4993972 C44.6482139,21.1144823 44.333503,21.7309222 44.0214935,22.3487169 C40.8271105,28.6594358 36.1908655,33.6532765 30.1127583,37.330239 C28.181271,38.4994426 26.2754467,39.5805834 24.3952856,40.5736613 C24.2683206,40.641402 24.1447325,40.6861108 24.024521,40.7077878 C23.5950014,40.7870444 23.3964499,40.3602783 23.5625849,40.0066721 C26.7819556,33.1133836 31.0183963,26.8744697 37.5422313,23.0559293 C39.7127909,21.7851147 42.0082893,20.7236187 44.4287267,19.8714413 C44.6448371,19.7955718 44.8150241,19.8538288 44.9392877,20.0462122 Z M33.6299563,0.482035168 C33.7690774,0.602613525 33.8440408,0.748933328 33.8548463,0.920994578 C34.2742357,7.59277117 33.4091184,14.1141635 30.4612365,20.1498554 C29.132157,22.8730295 27.5113285,25.6774924 25.5987508,28.5632441 C25.4461227,28.7935623 25.2401424,28.8823026 24.9808099,28.8294649 C24.8057746,28.794306 24.6756409,28.6463156 24.6627223,28.4677298 C24.1906559,21.6943422 24.5958631,14.5673485 27.7058279,8.42394895 C29.1429626,5.58697053 30.9657194,2.94914963 33.1740983,0.510486241 C33.2929759,0.378073785 33.4956312,0.365425638 33.6299563,0.482035168 Z M50.5330274,0.031871272 C50.6446834,0.0791938701 50.72885,0.174400212 50.7621143,0.291006536 C50.8053364,0.437326339 50.800609,0.591775021 50.747932,0.75435258 C50.123913,2.6951222 49.4350609,4.51192642 48.5800738,6.37750392 C46.3622401,11.2168959 43.1914942,15.368043 39.0678362,18.830945 C37.0309949,20.5420738 35.0265703,22.0933347 33.0545622,23.4847276 C32.7695665,23.6852399 32.5453519,23.6391763 32.3819183,23.3465367 C32.2542781,23.1168959 32.36571,22.858804 32.4386473,22.6230665 C33.4165472,19.4026761 34.6605332,16.3590887 36.1706051,13.4923044 C38.6437194,8.79516771 42.1507872,4.99694947 46.6918086,2.09764966 C47.8223365,1.37688915 48.987307,0.693385995 50.1867202,0.0471401965 C50.294138,-0.00984152043 50.4213714,-0.015451326 50.5330274,0.031871272 Z M88.3876235,132.807975 C92.4336168,133.598509 92.2715339,139.353754 88.1201868,140 L87.3239547,140 C85.9975767,139.762908 85.0622235,139.118017 84.5178953,138.065327 C83.1239827,135.362475 85.4275853,132.230825 88.3876235,132.807975 Z M110.11483,128.475283 C111.881534,129.247527 113.619872,130.120026 115.329846,131.092782 C115.517592,131.199812 115.660766,131.330552 115.759366,131.485 C115.812871,131.567981 115.828642,131.669911 115.802775,131.765564 C115.776908,131.861216 115.71182,131.94165 115.623622,131.986959 C115.426421,132.087215 115.215038,132.162407 114.989472,132.212535 C113.83058,132.469949 112.681142,132.696881 111.54116,132.893328 C105.976315,133.8566 100.520876,133.28216 95.1748431,131.170006 C92.5031774,130.114607 89.8450185,128.791632 87.2003666,127.201082 C86.995737,127.077116 86.6979097,126.985666 86.6857535,126.690995 C86.674948,126.368549 86.8262253,126.189036 87.1395855,126.152456 C89.4330579,125.881494 91.8676775,125.695884 94.4434442,125.595628 C100.008289,125.378858 105.232084,126.338743 110.11483,128.475283 Z M130.723666,122.449752 C130.968816,122.563557 131.057962,122.866357 130.920191,123.09803 C130.890476,123.146804 130.848605,123.181351 130.794577,123.201674 C129.443886,123.744954 127.851422,124.251654 126.017185,124.721774 C121.574764,125.861172 117.137746,125.974976 112.70613,125.063187 C109.480681,124.399328 106.052629,123.253834 102.421973,121.626704 C102.10321,121.484448 101.820916,121.326612 101.57509,121.153196 C101.49866,121.100329 101.460561,121.006383 101.47784,120.913395 C101.530517,120.628884 101.677067,120.458855 101.91749,120.403307 C104.718822,119.761126 107.536362,119.266619 110.370111,118.919787 C117.445028,118.052029 124.216039,119.411584 130.723666,122.449752 Z M108.552757,105.358787 C108.681383,105.454042 108.7232,105.628669 108.652033,105.773359 C106.204582,110.701492 102.938612,114.96712 98.4914636,118.084545 C94.7838182,120.681722 90.3083053,122.57575 85.8530528,124.002368 C85.6834491,124.056975 85.4987036,123.987063 85.407325,123.833694 C85.2790094,123.619633 85.2898149,123.404218 85.4397415,123.187448 C86.2076091,122.077856 87.0220754,121.01907 87.793995,119.976541 C91.2564901,115.302437 95.1728171,111.384317 100.183203,108.632692 C102.669825,107.268395 105.27193,106.145933 107.989519,105.265304 C108.193473,105.200273 108.381219,105.231434 108.552757,105.358787 Z M139.249224,107.187784 C141.472461,107.262299 143.674761,107.491262 145.856126,107.874674 C146.133693,107.923448 146.28362,108.173411 146.234995,108.441663 C146.222049,108.521029 146.178206,108.591392 146.113433,108.636757 C144.353483,109.884539 142.538155,110.978551 140.667449,111.918791 C136.912529,113.806046 132.894901,114.82622 128.614563,114.979314 C125.08926,115.105311 121.414032,114.798446 117.588876,114.058718 C117.330894,114.00859 117.194475,113.853464 117.179617,113.59334 C117.168811,113.421279 117.239047,113.294604 117.390325,113.213315 C119.608834,112.01837 121.938775,110.981938 124.216039,110.020698 C129.092032,107.960027 134.103093,107.015723 139.249224,107.187784 Z M127.765654,88.040212 C127.437436,92.8077989 126.487225,97.400615 124.26669,101.586987 C121.823291,106.194029 118.052838,110.244242 114.027105,113.729499 C113.938148,113.80585 113.821448,113.841407 113.705478,113.827495 C113.589508,113.813582 113.484933,113.75148 113.417269,113.656339 C113.222769,113.377925 113.311915,113.160477 113.374722,112.861741 C114.128407,109.316195 114.940172,106.282092 115.810017,103.75943 C117.998135,97.4128083 121.894202,92.2306486 126.9755,87.7414757 C127.259145,87.493545 127.79807,87.5687371 127.765654,88.040212 Z M151.51687,89.2636081 C151.664104,89.3794423 151.700777,89.5878896 151.601964,89.7472764 C150.124308,92.0951673 148.433919,94.2466103 146.530796,96.2016055 C141.31578,101.556504 134.315827,104.068327 127.253067,105.580298 C126.893783,105.656168 126.700634,105.51188 126.67362,105.147436 C126.651334,104.871054 126.803287,104.773507 126.961317,104.588575 C128.860388,102.381585 130.745952,100.380526 132.618009,98.585399 C137.837077,93.5820746 144.03472,90.6780329 151.058986,89.1559005 C151.225121,89.1193206 151.377749,89.1552231 151.51687,89.2636081 Z M136.593091,64.2185351 C136.66873,64.2591795 136.718705,64.3187913 136.743018,64.3973704 C137.795206,67.7965962 138.373977,71.0698244 138.47933,74.217055 C138.6637,79.6573066 137.034767,84.9309162 134.793971,89.7960497 C134.217227,91.0478969 133.624274,92.2292938 133.015112,93.3402404 C132.905327,93.5402884 132.658001,93.6182055 132.4539,93.5170435 C132.27831,93.4289807 132.175658,93.2907898 132.145943,93.1024708 C131.739385,90.499875 131.43683,87.8891504 131.238279,85.2702968 C130.822266,79.799562 131.623226,74.5137591 133.641157,69.4128881 C134.297593,67.7532422 135.049927,66.1010478 135.898161,64.4563048 C136.039983,64.1819552 136.32768,64.0762798 136.593091,64.2185351 Z M161.653127,69.3763082 C161.782754,69.3980383 161.894478,69.480025 161.954368,69.5973674 C162.014258,69.7147098 162.015246,69.8535606 161.957032,69.9717485 C159.732445,74.5198557 156.705548,78.7773556 152.647398,81.8561681 C148.718915,84.8374341 144.099553,86.9204591 139.470062,88.4303982 C139.264757,88.496784 139.099973,88.43514 138.975709,88.2454662 C138.756897,87.9142144 139.083089,87.5321571 139.263406,87.272033 C140.334504,85.7234818 141.538644,84.0787388 142.875828,82.3378041 C145.886517,78.4196849 149.374675,75.3076795 153.340302,73.0017878 C155.778299,71.5832986 158.439834,70.3836117 161.324909,69.402727 C161.434315,69.3661471 161.543721,69.3573408 161.653127,69.3763082 Z M158.372975,49.7897767 C158.664724,49.8087441 158.79304,49.9638702 158.757922,50.255155 C158.328402,53.8562479 157.528118,57.4370187 156.115971,60.6926343 C153.607739,66.4702343 148.976221,71.2296924 143.911132,75.2148748 C143.455274,75.5725454 143.050067,75.1396827 143.173655,74.6417889 C143.815233,72.0662894 144.560139,69.5720787 145.408373,67.1591567 C146.859014,63.035106 148.860737,59.4299486 151.413542,56.3436846 C153.399057,53.9443108 155.609462,51.7921903 158.044757,49.8873233 C158.139306,49.8141634 158.248712,49.7816478 158.372975,49.7897767 Z M134.279358,40.4192126 C137.00235,43.8252125 139.36876,47.6315596 140.880183,51.6431609 C141.862135,54.2552404 142.538831,57.1206698 142.910271,60.2394494 C143.227683,62.9057213 143.416104,65.4554794 143.475534,67.8887235 C143.479587,68.0783973 143.395844,68.2118464 143.224306,68.2890708 C143.004143,68.3866173 142.819774,68.3459729 142.671198,68.1671376 C139.336344,64.190084 136.351993,59.6216546 134.694696,54.7240056 C133.144778,50.1413507 132.946227,45.3473449 133.434501,40.496437 C133.446011,40.3899907 133.510027,40.2967311 133.604688,40.2485062 C133.841735,40.126573 134.119302,40.2200551 134.279358,40.4192126 Z M156.186883,29.4227934 C156.405491,29.4186442 156.590219,29.5835451 156.610324,29.8008658 C156.765653,31.5363812 156.836565,33.2495423 156.823058,34.9403489 C156.791992,38.8557584 156.024124,42.5713331 154.519455,46.0870728 C152.847976,49.9970631 150.481566,53.4701262 147.821381,56.8578361 C147.662,57.0610581 147.497215,57.2486997 147.327028,57.4207609 C147.195072,57.553232 146.9957,57.5911314 146.824572,57.5162752 C146.639527,57.4349865 146.549706,57.2934085 146.555109,57.0915414 C146.619942,54.181403 146.861715,51.2604262 147.28043,48.3286109 C147.896344,44.0257248 149.161266,40.1299601 151.075194,36.6413166 C152.423184,34.1809762 153.993361,31.8412142 155.785727,29.6220305 C155.88838,29.4933232 156.022098,29.4269374 156.186883,29.4227934 Z M144.154256,15.9269033 C144.225843,15.9594188 144.277169,16.0115791 144.308235,16.0833842 C145.506298,18.9135886 146.340349,21.5283776 146.810389,23.9277515 C147.492488,27.4042016 147.533009,30.9402635 146.931951,34.5359372 C146.340349,38.0740313 145.234133,41.6974787 143.777414,45.2457339 C143.690628,45.4580195 143.45452,45.5675973 143.234436,45.4977292 C142.969026,45.4103437 142.924453,45.2335406 142.851515,44.977481 C140.880183,37.9358404 139.717238,31.3473848 141.103047,24.3321631 C141.673038,21.442347 142.476024,18.7300114 143.512003,16.1951563 C143.638968,15.8821945 143.853052,15.7927768 144.154256,15.9269033 Z M117.542277,19.8612803 C118.879461,20.3517226 120.201112,20.8983896 121.507229,21.5012814 C126.312986,23.713691 130.252275,26.9564359 133.325096,31.2295161 C135.132319,33.7426942 136.763278,36.5295445 138.217972,39.5900671 C138.394237,39.959931 138.659648,40.3216661 138.270649,40.6508857 C138.217239,40.6979718 138.148589,40.7233412 138.078175,40.722063 C137.902586,40.7193037 137.728347,40.6712079 137.555458,40.5777258 C135.280895,39.3475556 133.248106,38.1797068 131.457091,37.0741794 C125.68559,33.5137308 121.216831,28.6695969 118.050812,22.5417778 C117.707737,21.8792742 117.357908,21.1869648 117.001326,20.4648494 C116.922382,20.3045528 116.948765,20.1121865 117.06793,19.9792274 C117.187096,19.8462682 117.374996,19.7995466 117.542277,19.8612803 Z M128.563657,0.408939667 C128.680543,0.405577868 128.792874,0.454695761 128.869843,0.543001753 C133.007008,5.26994429 135.869796,10.3809763 136.878762,16.4756026 C137.487924,20.1552747 137.626369,24.1512956 137.2941,28.4636654 C137.27857,28.6690891 137.114957,28.8323383 136.909153,28.8477548 C136.683587,28.8626578 136.509348,28.7759498 136.386436,28.5876308 C134.873662,26.2668361 133.541206,24.0334269 132.389067,21.8874031 C130.427864,18.2375369 129.145384,14.5436392 128.541625,10.8057102 C128.071585,7.88879781 127.920983,4.72666428 128.089819,1.3193096 C128.104002,1.03886331 128.085767,0.79296475 128.266084,0.561291728 C128.3376,0.46848761 128.446771,0.412659641 128.563657,0.408939667 Z M111.859247,0.0877845864 C114.566031,1.5279508 116.865581,3.04940579 118.757899,4.65214957 C122.732981,8.01953727 125.512702,12.2546827 127.530633,17.1055906 C128.237045,18.8058809 128.924546,20.6762003 129.593138,22.7165486 C129.653919,22.8994484 129.674855,23.083703 129.655945,23.2693123 C129.645139,23.3749878 129.595164,23.4569539 129.506018,23.5152109 C129.306116,23.6466278 129.04881,23.5998867 128.734099,23.3749878 C127.165947,22.2532026 125.435037,20.9193892 123.541369,19.3735476 C118.981438,15.6478118 115.556087,11.2209604 113.265316,6.09299319 C112.519735,4.42250876 111.848442,2.68157407 111.251436,0.870189091 C111.19876,0.708966345 111.177824,0.554517663 111.188629,0.406843047 C111.214968,0.045107977 111.565472,-0.0686963146 111.859247,0.0877845864 Z" id="形状结合" fill="url(#linearGradient-1)" fill-rule="nonzero"></path>
                <path d="M115.681915,38.9288783 C117.455791,38.9288783 118.8294,40.4809805 118.612979,42.2408186 C116.318338,60.8998592 107.066418,72.7898634 91.094264,77.3618121 C89.5263242,77.810627 87.8912592,76.9039642 87.4422439,75.3367241 C86.9932287,73.769484 87.9002962,72.1351485 89.468236,71.6863336 C102.100674,68.0703619 109.628982,59.2787313 112.243831,44.8698346 L112.249969,44.8324927 L99.4294281,44.8324927 C97.8528277,44.8324927 96.5647902,43.5975598 96.4806728,42.0426429 L96.4763031,41.8806855 C96.4763031,40.2504474 97.7984622,38.9288783 99.4294281,38.9288783 L115.681915,38.9288783 Z" id="路径-89" fill="url(#linearGradient-2)" fill-rule="nonzero"></path>
                <path d="M72.6510046,38.9288783 C74.42488,38.9288783 75.7984889,40.4809805 75.5820685,42.2408186 C73.2874272,60.8998592 64.035507,72.7898634 48.0633533,77.3618121 C46.4954136,77.810627 44.8603485,76.9039642 44.4113332,75.3367241 C43.962318,73.769484 44.8693855,72.1351485 46.4373253,71.6863336 C59.0697629,68.0703619 66.5980713,59.2787313 69.2129198,44.8698346 L69.2190581,44.8324927 L56.3985174,44.8324927 C54.821917,44.8324927 53.5338795,43.5975598 53.4497621,42.0426429 L53.4453924,41.8806855 C53.4453924,40.2504474 54.7675515,38.9288783 56.3985174,38.9288783 L72.6510046,38.9288783 Z" id="路径-89备份" fill="url(#linearGradient-3)" fill-rule="nonzero" transform="translate(59.9505, 58.2028) scale(-1, 1) translate(-59.9505, -58.2028)"></path>
                <g id="路径-2" transform="translate(58.0522, 32.0483)">
                    <mask id="mask-6" fill="white">
                        <use xlink:href="#path-5"></use>
                    </mask>
                    <use id="蒙版" fill="url(#linearGradient-4)" fill-rule="nonzero" xlink:href="#path-5"></use>
                    <path d="M37.2279009,-1.77004121 C37.2279009,16.4195066 36.4053708,27.3290708 34.7603105,30.9586514 C32.2927201,36.4030223 27.2663735,45.4283734 21.3084183,49.2108509 C21.3084183,49.2108509 31.4228014,50.7950589 39.6889146,43.2980452 C47.9550279,35.8010316 55.2465513,8.66912924 55.2465513,8.66912924 C55.2465513,8.66912924 55.2465513,-4.74816874 55.2465513,-4.74816874 C55.2465513,-4.74816874 49.2403345,-3.75545957 37.2279009,-1.77004121 Z" fill="url(#linearGradient-7)" fill-rule="nonzero" mask="url(#mask-6)"></path>
                </g>
                <path d="M82.6875,43.9458816 L85.8844747,50.4207694 L93.0334942,51.4591192 L87.8604032,56.4993866 L89.0815656,63.6161328 L82.6875,60.2560736 L76.2934344,63.6161328 L77.5145968,56.4993866 L72.3415058,51.4591192 L79.4905253,50.4207694 L82.6875,43.9458816 Z" id="星形" stroke="url(#linearGradient-8)" stroke-width="0.666666667" fill-opacity="0.609211101" fill="#FF5A20"></path>
                <polygon id="星形" fill="url(#linearGradient-9)" points="76.7361743 63.006919 77.8727764 56.3829776 73.0580528 51.6918762 79.7118372 50.7254562 82.6875 44.6987952 85.6631628 50.7254562"></polygon>
            </g>
        </g>
    </g>
</svg>