<?xml version="1.0" encoding="UTF-8"?>
<svg width="470px" height="418px" viewBox="0 0 470 418" version="1.1" xmlns="http://www.w3.org/2000/svg" xmlns:xlink="http://www.w3.org/1999/xlink">
    <title>编组 19</title>
    <defs>
        <linearGradient x1="35.0424757%" y1="-17.1192354%" x2="68.6741505%" y2="93.1128641%" id="linearGradient-1">
            <stop stop-color="#FFFFFF" offset="0%"></stop>
            <stop stop-color="#FFE8BD" offset="100%"></stop>
        </linearGradient>
        <ellipse id="path-2" cx="6.35579679" cy="7.94230769" rx="6.35579679" ry="7.94230769"></ellipse>
    </defs>
    <g id="页面-1" stroke="none" stroke-width="1" fill="none" fill-rule="evenodd">
        <g id="4" transform="translate(-200, -988)">
            <g id="编组-19" transform="translate(200, 988)">
                <circle id="椭圆形" fill="url(#linearGradient-1)" cx="260.871981" cy="209" r="209"></circle>
                <path d="M211.254027,53.3269707 C208.139576,62.5709343 206.582351,70.2043745 206.582351,76.2272912 C206.582351,85.2616662 198.501054,88.0176883 198.501054,90.5461964 C198.501054,92.2318685 200.160692,94.2408863 203.479969,96.5732497 C202.306188,113.962215 205.702015,125.140048 213.66745,130.106748 C221.632886,135.073448 229.834181,133.516011 238.271335,125.434438 L268.309303,151.254177 L296.381773,106.229152 C280.706072,100.345501 272.868221,97.4036759 272.868221,97.4036759 C272.868221,97.4036759 277.680762,84.2223407 266.607596,84.2223407 C259.225486,84.2223407 253.480027,74.4557843 249.371221,54.9226713 L211.254027,53.3269707 Z" id="路径-14" fill="#FFD0C0" fill-rule="nonzero"></path>
                <path d="M230.320383,36.39062 C225.255607,34.310935 220.880824,32.1516201 212.414704,33.2312775 C203.948585,34.310935 202.277912,43.7558694 202.277912,50.1407402 C202.277912,56.525611 211.407129,59.461576 219.394288,59.461576 C227.381447,59.461576 234.163447,59.461576 234.163447,59.461576 C234.163447,59.461576 240.893722,66.6199945 237.528584,71.3036809 C234.163447,75.9873673 235.333435,84.411591 243.588522,86.3113331 C251.84361,88.2110752 262.322813,84.2223407 266.607596,84.2223407 C269.464118,84.2223407 271.71444,85.5005559 273.358561,88.0569862 C277.421278,76.888116 278.619887,66.8044187 276.954386,57.8058944 C274.456136,44.308108 265.95381,38.0607797 254.771166,38.2655424 C243.588522,38.470305 235.385158,38.470305 230.320383,36.39062 Z" id="路径-16" fill="#292455" fill-rule="nonzero"></path>
                <polygon id="路径-94" fill="#F89B91" fill-rule="nonzero" points="204.200996 295.069927 175.026813 295.069927 182.436737 306.96891 204.200996 306.96891"></polygon>
                <polygon id="路径-93" fill="#4D66DA" fill-rule="nonzero" points="284.674652 288.827769 202.068949 293.214653 202.068949 312.540935 300.008632 312.540935"></polygon>
                <path d="M232.039675,302.764037 C214.506062,300.488897 203.326522,299.351327 198.501054,299.351327 C191.262853,299.351327 150.641201,279.400416 142.096461,279.400416 C138.660149,279.400416 134.931327,281.819001 122.09908,288.385151 C109.266834,294.951301 94.8289329,302.453933 90.8652633,304.386626 C84.2353314,307.619394 96.4379647,311.303052 104.517192,308.070285 C109.903344,305.915107 117.745332,304.146358 128.043157,302.764037 C119.628761,306.139518 114.465366,308.527381 112.552972,309.927627 C109.68438,312.027995 121.50219,313.699189 126.305244,312.863592 C131.108298,312.027995 141.859567,315.48414 147.481923,317.182222 C153.104279,318.880303 170.352033,324.721209 178.142643,324.721209 C183.336382,324.721209 189.447699,324.721209 196.476592,324.721209 L243.626798,334.537405 L232.039675,302.764037 Z" id="路径-92" fill="#FFD0C0" fill-rule="nonzero"></path>
                <polygon id="路径-99" fill="#02ADA9" fill-rule="nonzero" points="18.0174011 156.433223 84.8856798 312.564721 248.441414 332.419456 252.84361 348.912154 72.2340856 325.936341 1.48940207e-13 155.050558"></polygon>
                <path d="M225.584569,306.96891 C226.015944,316.19288 224.732509,321.084432 221.734264,321.643565 C218.736019,322.202698 207.554065,322.202698 188.188402,321.643565 C187.20186,318.695535 186.365489,317.221519 185.679289,317.221519 C184.64999,317.221519 189.209426,323.438857 183.676034,324.080033 C179.987107,324.507484 183.804481,324.750855 195.128158,324.810146 L245.536433,334.537405 L238.271335,309.167523 L225.584569,306.96891 Z" id="路径-103" fill="#F89B91" fill-rule="nonzero"></path>
                <path d="M290.117625,89.7069799 C272.95143,119.08559 262.177657,141.072579 257.796306,155.667949 C251.22428,177.561003 266.53191,267.205664 281.883313,295.34708 C281.883313,295.34708 248.698021,295.34708 236.575311,295.34708 C224.452602,295.34708 224.158665,300.909023 224.018531,301.763234 C223.878397,302.617446 224.572694,306.277812 224.769426,306.96891 C239.064985,357.187483 254.314627,387.272361 271.43227,400.746054 C282.681659,409.600708 289.722491,415.39442 309.475614,411.401367 C328.591906,406.641909 343.561362,401.348614 354.383982,395.521484 C371.716268,401.348614 382.481374,404.262179 386.6793,404.262179 C392.976189,404.262179 410.686767,392.023881 418.949219,345.151855 C418.949219,345.151855 435.152004,329.304459 449.611328,298.367676 C458.582058,279.174142 467.100261,257.009569 470,220.627339 C470,212.924955 423.168322,136.076923 304.938555,105.838241 C304.938555,105.838241 304.81533,101.042825 299.912091,95.4754945 C298.033724,93.3427229 294.768902,91.4198847 290.117625,89.7069799 Z" id="路径-90" fill="#758DFB" fill-rule="nonzero"></path>
                <path d="M238.271335,125.434438 C245.862292,119.923772 251.360511,114.093553 254.765994,107.94378 C254.765994,107.94378 256.407356,108.932432 259.690081,110.909736 C259.8687,129.898194 261.129032,141.874394 263.471077,146.838336 C263.471077,146.838336 255.071163,139.703703 238.271335,125.434438 Z" id="路径-95" fill="#F89B91" fill-rule="nonzero"></path>
                <path d="M211.262303,106.278791 C214.8933,107.508056 218.014992,106.17865 220.627379,102.290574" id="路径-96" stroke="#F89B91" stroke-width="2.12" stroke-linecap="round" stroke-linejoin="round"></path>
                <path d="M263.471077,92.1201798 C265.893121,92.0126277 267.104143,92.9795623 267.104143,95.0209836 C267.104143,97.0624048 265.893121,98.630528 263.471077,99.7253531" id="路径-97" stroke="#F89B91" stroke-width="2.12" stroke-linecap="round" stroke-linejoin="round"></path>
                <path d="M212.995043,65.8764373 C216.814693,65.8764373 219.564459,66.5253693 221.794781,68.9266764 C224.025102,71.3279835 214.727784,69.9396309 212.995043,69.9396309 C211.262303,69.9396309 209.175394,65.8764373 212.995043,65.8764373 Z" id="路径-98" fill="#292455" fill-rule="nonzero"></path>
                <g id="椭圆形" transform="translate(209.4716, 74.6564)">
                    <mask id="mask-3" fill="white">
                        <use xlink:href="#path-2"></use>
                    </mask>
                    <use id="蒙版" fill="#FFFFFF" xlink:href="#path-2"></use>
                    <ellipse fill="#292455" fill-rule="nonzero" mask="url(#mask-3)" cx="2.11859893" cy="8.47179487" rx="3.17789839" ry="4.23589744"></ellipse>
                </g>
                <path d="M282.042438,295.069927 C313.326254,294.37532 331.691928,296.01118 337.139458,299.977508 C345.310753,305.926999 335.375166,294.288106 320.460146,290.183029 C310.5168,287.446311 303.699629,272.325419 300.008632,244.820353 C297.590726,244.444302 296.381773,246.492713 296.381773,250.965586 C296.381773,255.438458 301.159068,268.059186 310.713659,288.827769 L279.249363,288.827769 L282.042438,295.069927 Z" id="路径-100" fill="#4D66DA" fill-rule="nonzero"></path>
                <path d="M382.526405,215.5 C411.08164,259.601795 423.222578,302.81908 418.949219,345.151855 C418.949219,345.151855 424.198242,339.291016 434.272949,326.049316 C439.179145,319.600854 443.477647,312.0434 447.168457,303.376953 C432.372561,251.747352 410.825211,218.103312 382.526405,202.444832 C354.2276,186.786351 354.2276,191.138074 382.526405,215.5 Z" id="路径-101" fill="#4D66DA" fill-rule="nonzero"></path>
                <path d="M305.100304,105.79361 C291.769879,133.525523 275.103213,153.496646 255.100304,165.70698 C255.100304,165.70698 257.670923,148.630395 263.126261,137.00196 C266.763154,129.24967 275.60563,112.81801 289.653691,87.7069799 C295.061322,89.6208448 298.827636,91.8218694 300.952633,94.3100538 C303.077629,96.7982383 304.460186,100.62609 305.100304,105.79361 Z" id="路径-102" fill="#EDFFFF" fill-rule="nonzero"></path>
            </g>
        </g>
    </g>
</svg>