<?xml version="1.0" encoding="UTF-8"?>
<svg width="56px" height="30px" viewBox="0 0 56 30" version="1.1" xmlns="http://www.w3.org/2000/svg" xmlns:xlink="http://www.w3.org/1999/xlink">
    <title>编组 2</title>
    <g id="页面-1" stroke="none" stroke-width="1" fill="none" fill-rule="evenodd">
        <g id="6" transform="translate(-196, -1174)" fill="#FFF2EA" fill-rule="nonzero">
            <g id="编组-2" transform="translate(95, 1174)">
                <path d="M540,0 C551.045695,-2.02906125e-15 560,8.954305 560,20 L560,130 C560,141.045695 551.045695,150 540,150 L141.125517,150.000532 C139.6818,160.750489 143.973295,170.750311 154,180 C154,180 118.313874,176.033601 105.709781,150.002421 L20,150 C8.954305,150 1.3527075e-15,141.045695 0,130 L0,20 C-1.3527075e-15,8.954305 8.954305,2.02906125e-15 20,0 L540,0 Z" id="形状结合" transform="translate(280, 90) scale(1, -1) translate(-280, -90)"></path>
            </g>
        </g>
    </g>
</svg>