<?xml version="1.0" encoding="UTF-8"?>
<svg width="550px" height="471px" viewBox="0 0 550 471" version="1.1" xmlns="http://www.w3.org/2000/svg" xmlns:xlink="http://www.w3.org/1999/xlink">
    <title>编组 5</title>
    <defs>
        <linearGradient x1="25.5584862%" y1="15.7777104%" x2="95.3184434%" y2="85.5861157%" id="linearGradient-1">
            <stop stop-color="#FFF9FA" offset="0%"></stop>
            <stop stop-color="#FFDBDD" offset="100%"></stop>
        </linearGradient>
    </defs>
    <g id="页面-1" stroke="none" stroke-width="1" fill="none" fill-rule="evenodd">
        <g id="9" transform="translate(-120, -931)">
            <g id="编组-5" transform="translate(120, 931)">
                <path d="M550,0 L550,464 L0,464 C13.0304941,261.181167 62.7164828,187.875326 149.057966,244.082476 C250.761403,310.290053 326.353773,176.73681 394.574626,71.9864433 C419.350146,33.9446328 471.158604,9.94915175 550,0 Z" id="路径-6" fill="url(#linearGradient-1)"></path>
                <g id="编组-17" transform="translate(48, 125)">
                    <path d="M304.789081,130.258306 C313.866998,141.92985 318.904322,148.077586 319.901051,148.701514 C320.897781,149.325442 322.984008,149.038113 326.159732,147.839526 C345.070496,137.462598 354.992451,132.027113 355.925599,131.533072 C357.32532,130.79201 357.32532,121.762842 362.156119,120.351119 C366.986918,118.939397 371.813861,123.539917 373.527845,130.258306 C375.241829,136.976696 370.660522,145.027988 365.695504,145.027988 C363.82705,145.027988 362.609477,145.213494 361.260252,145.993911 C352.378854,151.131081 330.538893,168.775781 327.167015,170.5981 C323.282897,172.697257 314.18631,175.282415 310.401645,173.025929 C307.878536,171.521605 297.989231,163.926241 280.733733,150.239837 L304.789081,130.258306 Z" id="路径-64" fill="#FFD0C0" fill-rule="nonzero"></path>
                    <path d="M253.720936,177.617828 L437.409698,182.769415 C437.409698,234.78695 423.00716,272.387127 394.202084,295.569948 C350.99447,330.34418 318.677264,340.568319 254.816166,340.568319 C254.816166,340.568319 215.606909,325.902065 199.944829,296.888242 C199.944829,296.888242 215.036488,291.023103 234.796361,247.787364 C241.893076,232.259343 248.201268,208.869498 253.720936,177.617828 Z" id="路径-60" fill="#27DAD6" fill-rule="nonzero"></path>
                    <path d="M427.073728,249.946427 C414.202415,289.327533 389.83209,316.974937 353.962753,332.888639 C333.038854,342.171685 311.941909,345.79803 288.70806,345.992964 C284.865039,346.025207 280.412,345.946637 275.348941,345.757255 L275.50703,345.782427 L275.327776,345.770954 C261.407743,344.9306 156.869042,345.84399 115.195833,342.77747 C94.4023317,341.247382 72.7123806,328.379894 58.2958101,308.657632 C54.0990149,302.916302 49.7734217,293.317012 45.3190305,279.859764 L195.765208,284.068743 C205.546994,304.520884 218.560953,320.025327 234.807083,330.582072 L234.793234,330.549179 C242.684725,334.866407 251.798476,337.60818 262.134486,338.774497 C269.644953,339.62198 319.969621,342.320117 369.734018,312.926364 C395.112711,297.936229 414.225947,276.942916 427.073728,249.946427 Z" id="形状结合" fill="#02ADA9" fill-rule="nonzero"></path>
                    <g id="编组-16" transform="translate(233.4728, 210.738)" stroke="#02ADA9" stroke-width="4">
                        <line x1="55.235242" y1="0.396886515" x2="97.6818668" y2="0.396886515" id="路径-61"></line>
                        <line x1="40.8260484" y1="24.2100774" x2="105.35398" y2="24.0235749" id="路径-61备份"></line>
                        <line x1="28.8183871" y1="51.9921335" x2="104.553469" y2="51.805631" id="路径-61备份-2"></line>
                        <line x1="17.6112366" y1="69.4551402" x2="122.164706" y2="70.8561837" id="路径-61备份-3"></line>
                        <line x1="1.23096067e-13" y1="84.5368278" x2="57.323335" y2="85.1440983" id="路径-61备份-4"></line>
                    </g>
                    <path d="M32.903609,210.495907 C36.6126422,214.036135 38.1763065,218.380719 37.594602,223.52966 C37.5676599,223.772265 37.3680362,223.960143 37.1223007,223.974173 L36.8661372,223.982111 C36.7803253,223.984916 36.6975083,223.95066 36.6391447,223.888219 C36.5807811,223.825777 36.5526145,223.741296 36.5619432,223.656664 C37.0475863,219.470834 35.8121314,215.501969 32.8555784,211.750069 C32.6741293,211.517229 32.5433792,211.546334 32.4633281,211.837384 C29.9230406,221.315034 27.6149013,231.104901 25.5389101,241.206986 C25.4641957,241.56683 25.2453895,241.715001 24.8824913,241.651499 L24.6503431,241.61181 C24.556232,241.594287 24.4731852,241.540383 24.4203278,241.462513 C24.3674705,241.384644 24.349359,241.28952 24.3701644,241.199048 L31.2785722,212.099329 C31.4333376,211.4061 31.7001745,210.818708 32.0790829,210.337153 C32.2125014,210.167814 32.353925,210.162523 32.5033536,210.321277 C32.6154251,210.432405 32.7488436,210.490616 32.903609,210.495907 Z" id="路径" fill="#592B8F" fill-rule="nonzero"></path>
                    <polygon id="路径-58" fill="#FFD0C0" fill-rule="nonzero" points="64.3923249 195.707373 45.316697 188.509929 35.6973915 208.674012 60.2326396 218.697722"></polygon>
                    <path d="M60.962793,194.264396 C54.2108655,197.716482 48.9955002,203.84135 45.316697,212.639001 C45.316697,212.639001 48.6920862,214.034822 55.4428648,216.826464 L60.962793,194.264396 Z" id="路径-59" fill="#F89B91" fill-rule="nonzero"></path>
                    <path d="M49.4181459,189.714929 C47.8811652,190.196485 46.6937409,190.998196 45.855873,192.120062 C41.9226968,197.385423 38.9447968,203.129694 36.922173,209.352874 L32.9676499,210.249838 C32.9463029,210.25513 32.9329611,210.268359 32.9276243,210.289526 L32.903609,210.495907 C32.7488436,210.490616 32.6154251,210.432405 32.5033536,210.321277 C32.353925,210.162523 32.2125014,210.167814 32.0790829,210.337153 C31.7001745,210.818708 31.4333376,211.4061 31.2785722,212.099329 C30.8089392,211.89824 30.4033471,212.263375 30.0617958,213.194736 C29.87501,213.708042 29.6401935,214.179014 29.3573464,214.607652 C25.4615274,220.455113 21.5923921,226.291991 17.7499405,232.118285 C15.8233779,235.044661 13.4858865,237.960454 10.7374663,240.865663 C8.08777566,243.67562 4.30936491,246.223631 0.21074985,245.556862 C0.0132905311,245.525111 -0.0454135908,245.416629 0.0346374845,245.231415 C5.71826383,232.435794 11.4712678,219.854491 17.2936493,207.487508 C18.7986095,204.291248 20.2742177,201.002382 21.7204738,197.620909 C25.0025679,189.968937 29.029137,179.602261 39.3957512,183.983888 C42.2989369,185.21159 45.6397351,187.121937 49.4181459,189.714929 Z" id="路径" fill="#FFA42D" fill-rule="nonzero"></path>
                    <path d="M439.106781,273.680241 C437.865989,275.180472 433.126043,279.448211 431.140776,279.956226 C428.152203,280.728831 423.498874,276.684155 417.180791,267.822196 C416.956648,267.589356 416.991337,267.401496 417.284857,267.258617 C419.414216,266.269046 420.988554,265.202745 422.007871,264.059711 C423.795678,262.059403 425.647526,260.122597 427.563415,258.249293 C428.993661,256.841669 430.621367,254.624396 432.446531,251.597475 C433.561909,251.772105 434.671951,251.764167 435.776656,251.573662 C435.776656,251.80121 435.827355,252.002299 435.928753,252.176929 C436.009575,252.316115 436.152015,252.409205 436.312879,252.427971 C436.473743,252.446737 436.634081,252.388968 436.745274,252.272182 L438.994709,249.946427 C439.144138,250.343313 439.33626,250.496776 439.571077,250.406815 C440.387598,249.51779 441.246813,248.686974 442.148721,247.914368 L445.472842,245.084319 C448.797464,242.25427 452.113079,239.413059 455.325128,236.460223 C458.463131,233.581473 461.702531,231.057275 465.043329,228.887628 C468.997852,226.323742 473.384651,224.633005 478.139685,225.855415 C478.325638,225.904644 478.473973,226.044044 478.532487,226.224556 C478.591002,226.405068 478.551494,226.601394 478.427869,226.744441 L450.64214,259.69396 C446.714301,264.46189 442.869181,269.123983 439.106781,273.680241 Z" id="形状结合" fill="#FFA42D" fill-rule="nonzero"></path>
                    <path d="M438.994709,249.946427 L436.745274,252.272182 C436.634081,252.388968 436.473743,252.446737 436.312879,252.427971 C436.152015,252.409205 436.009575,252.316115 435.928753,252.176929 C435.827355,252.002299 435.776656,251.80121 435.776656,251.573662 L433.935481,241.897568 C433.91914,241.809068 433.942436,241.717896 433.999306,241.647789 C434.056175,241.577682 434.14099,241.535576 434.23167,241.532433 L434.527859,241.516557 C434.912104,241.49539 435.138916,241.67002 435.208293,242.040448 L436.721258,250.470317 C436.734051,250.533893 436.782857,250.584348 436.846384,250.599671 C436.909911,250.614993 436.976635,250.592404 437.017447,250.541757 C441.20145,245.615072 445.051907,240.545508 448.568818,235.333065 C448.674666,235.174737 448.863458,235.093616 449.049124,235.126684 L449.433369,235.190186 C449.77492,235.243105 449.84163,235.407151 449.633497,235.682326 L438.994709,249.946427 Z" id="路径" fill="#592B8F" fill-rule="nonzero"></path>
                    <path d="M413.149219,237.56301 L432.446531,251.832954 C427.706611,260.374118 422.922225,265.321035 418.093373,266.673705 C418.093373,266.673705 410.263383,261.726788 394.603401,251.832954 L413.149219,237.56301 Z" id="路径-57" fill="#FFD0C0" fill-rule="nonzero"></path>
                    <g id="编组-15" transform="translate(244.3122, 0)" fill-rule="nonzero">
                        <polygon id="路径-42" fill="#FF8888" points="203.586011 21.2972994 220.008771 32.6379904 169.099174 105.125737 164.154382 112.166391 156.414541 108.330906 100.421323 80.5830443 15.0072774 176.585607 0 163.457234 90.5063596 61.7320568 95.5983333 56.0089019 102.483251 59.4207291 157.620218 86.7443106"></polygon>
                        <polygon id="路径-43" fill="#FD7676" points="228.475032 5.9495161e-14 173.38088 13.8703899 235.687762 55.764821"></polygon>
                        <polygon id="路径-65" fill="#E75050" points="100.421323 80.5830443 90.2817818 91.9110576 97.4660531 78.4882587"></polygon>
                    </g>
                    <path d="M170.655499,171.286071 L127.355873,219.592546 C94.4874098,205.368316 72.6014458,196.738341 61.6979808,193.702622 C58.2958101,193.41659 53.7027233,204.996309 49.4181459,225.935919 C45.1335684,246.875529 45.3190305,260.732809 45.3190305,265.241937 C45.3190305,269.751064 51.7231797,274.689934 69.2391052,276.68864 C86.7550306,278.687347 130.69713,278.687347 157.413394,267.679316 C175.224237,260.34063 199.891206,237.104247 231.414301,197.970169 L170.655499,171.286071 Z" id="路径-55" fill="#6F43A3" fill-rule="nonzero"></path>
                    <path d="M170.655499,189.909297 C145.747899,215.173241 131.947407,228.576961 129.254021,230.120454 C126.560636,231.663948 105.855913,224.40006 67.1398529,208.32879" id="路径-51" stroke="#592B8F" stroke-width="0.96" stroke-linecap="round" stroke-linejoin="round"></path>
                    <path d="M69.2391052,200.907129 C63.3424033,214.293326 59.3680533,234.968467 57.3160553,262.932554" id="路径-52" stroke="#592B8F" stroke-width="0.96" stroke-linecap="round" stroke-linejoin="round"></path>
                    <path d="M173.337349,176.998991 C167.269235,183.378148 163.78163,187.124655 162.874535,188.238512 C161.96744,189.352368 173.118182,205.974224 196.326761,238.104077 C214.274398,217.729536 225.263115,204.821422 229.292912,199.379736 C233.32271,193.93805 214.670855,186.477801 173.337349,176.998991 Z" id="路径-54" fill="#592B8F" fill-rule="nonzero"></path>
                    <path d="M179.513432,128.609994 C161.813339,162.581275 161.813339,185.701333 179.513432,197.970169 C189.641097,204.990169 212.946146,206.261525 246.450286,204.990169 C257.087342,204.586532 275.35047,204.392366 301.239672,204.407668 C313.71158,259.840394 330.516358,289.535397 351.654004,293.492676 C366.951807,295.526069 379.691934,278.47463 389.571675,270.703592 C399.451417,262.932554 414.929229,241.648988 417.693118,238.104077 C418.093373,236.194984 335.497361,175.006315 327.527589,168.251307 C322.214408,163.747968 295.188641,153.764949 246.450286,138.30225 L179.513432,128.609994 Z" id="路径-56" fill="#6F43A3" fill-rule="nonzero"></path>
                    <path d="M294.828912,46.7008425 C286.97978,47.6057437 282.764362,47.9550039 282.182658,47.7486229 C280.971218,47.3146936 279.709079,46.9654335 278.396242,46.7008425 C277.585057,46.5367961 277.027368,46.833138 276.723174,47.5898683 L275.898648,49.629865 C275.727789,50.0628484 275.246248,50.291212 274.793943,50.1537552 C269.230394,48.4471431 265.123773,55.5831627 270.879446,58.488372 C271.615916,58.8614453 272.29635,58.7979435 273.04883,58.9408226 C274.532443,59.2265809 274.548453,59.5811329 273.096861,60.0044785 C269.729379,60.9940488 266.671428,61.1210525 263.923007,60.3854895 C259.829729,55.5011395 258.716915,56.6962849 257.042586,51.1505733 C254.380293,42.3325301 261.361373,39.9690674 261.361373,36.7926947 C261.361373,29.5402137 269.88424,29.2043563 273.04883,27.8824105 C279.204758,25.3108918 283.523672,30.6686202 288.001264,31.2455855 C291.639407,31.7143825 291.283727,29.6424183 293.272733,31.2455855 C297.70968,34.8218275 298.200878,43.9720559 294.828912,46.7008425 Z" id="路径" fill="#292455" fill-rule="nonzero"></path>
                    <path d="M291.228429,45.5579178 C291.132368,47.097729 291.132368,48.4286218 291.228429,49.4393594 C291.444567,51.7333635 293.365793,51.4952316 294.494513,52.9398985 C295.543182,54.2734372 293.862109,55.3609062 293.061599,56.249932 C292.874813,56.456313 292.802767,56.6997368 292.845461,56.9802032 C293.421829,60.5363064 293.89413,67.053183 289.859556,68.9979269 C286.961707,70.3896756 283.935776,70.8050835 280.781764,70.2441506 C280.562957,70.2071078 280.037289,70.2679638 279.204758,70.4267184 L275.130158,68.4025971 C274.671198,68.1750489 274.473739,68.3126362 274.53778,68.8153591 L275.314275,75.1258547 C275.127489,75.5333249 274.772596,76.0042969 274.249596,76.5387707 C273.742606,77.0520773 273.625198,77.6421152 273.897371,78.3088846 C274.32431,79.3407895 274.895341,80.2880253 275.610464,81.150592 C276.146806,81.7935482 276.082766,82.1983724 276.234863,82.9683322 C276.28823,83.2382151 276.451001,83.4101992 276.723174,83.4842847 C277.358246,83.6589148 277.491665,83.6245179 277.12343,83.3810942 L273.280978,88.9295677 L266.252494,91.834777 C266.007004,91.9406134 265.758845,91.9432593 265.508019,91.8427147 C264.595436,91.482871 263.682854,91.3294082 262.770272,91.3823264 C262.503435,91.3982018 262.260613,91.3267623 262.041807,91.1680076 C261.187929,90.5488647 260.366071,89.9614726 259.576234,89.4058315 C258.255391,88.4850548 257.927182,86.4529958 257.150686,85.063893 C256.643696,84.1537 256.286135,83.1614837 256.078002,82.0872442 C255.464277,78.8804011 255.114721,75.8667095 255.029333,73.0461694 C254.965292,70.9611922 255.170756,68.9238414 255.645726,66.934117 C256.131369,64.8861826 256.568982,62.8594155 256.958564,60.8538156 C256.958564,60.843232 256.9639,60.8352942 256.974574,60.8300024 C257.027941,60.7929597 257.083977,60.7559169 257.142681,60.7188742 L259.968484,62.90175 C260.38863,63.2259356 260.984987,63.1955239 261.369378,62.8303105 L263.923007,60.3854895 C266.671428,61.1210525 269.729379,60.9940488 273.096861,60.0044785 C274.548453,59.5811329 274.532443,59.2265809 273.04883,58.9408226 C272.29635,58.7979435 271.615916,58.8614453 270.879446,58.488372 C265.123773,55.5831627 269.230394,48.4471431 274.793943,50.1537552 C275.246248,50.291212 275.727789,50.0628484 275.898648,49.629865 L276.723174,47.5898683 C277.027368,46.833138 277.585057,46.5367961 278.396242,46.7008425 C279.709079,46.9654335 280.971218,47.3146936 282.182658,47.7486229 C283.055214,48.0581944 283.791684,47.7089342 284.392067,47.097729 C284.557506,46.9230989 284.822639,46.7908034 285.046782,46.7008425 C285.863303,46.3780414 285.242112,45.4650388 286.015064,44.8009653 C288.485973,42.6781083 290.223762,42.9304258 291.228429,45.5579178 Z M289.243162,52.249316 C289.54202,50.5453499 289.024356,49.4975695 287.690172,49.1059748 C287.700845,47.7671442 286.844299,47.4760941 285.120532,48.2328244 C284.94442,48.3122017 284.821675,48.4418513 284.752297,48.6217732 C284.218623,49.981771 284.149246,51.2941424 284.544164,52.5588874 C285.312655,55.0116461 288.546718,55.1465875 289.491321,52.7732062 C289.582045,52.5615334 289.499326,52.3869033 289.243162,52.249316 Z M286.113165,59.6869693 C287.399319,61.0152161 288.757519,61.4861881 290.187765,61.0998853 C290.417245,61.0416752 290.515975,60.8961502 290.483954,60.6633101 C290.414576,60.1817544 290.129061,59.9674357 289.627408,60.0203539 C288.496019,60.1473576 287.484707,59.8139729 286.593472,59.0201999 C286.518757,58.9566981 286.446712,58.959344 286.377334,59.0281376 L286.12117,59.282145 C285.982415,59.4144405 285.979747,59.5493819 286.113165,59.6869693 Z" id="形状" fill="#FFD0C0" fill-rule="nonzero"></path>
                    <path d="M287.690172,49.1059748 C285.640864,50.010876 286.977717,53.7654225 289.243162,52.249316 C289.499326,52.3869033 289.582045,52.5615334 289.491321,52.7732062 C288.546718,55.1465875 285.312655,55.0116461 284.544164,52.5588874 C284.149246,51.2941424 284.218623,49.981771 284.752297,48.6217732 C284.821675,48.4418513 284.94442,48.3122017 285.120532,48.2328244 C286.844299,47.4760941 287.700845,47.7671442 287.690172,49.1059748 Z" id="路径" fill="#FFFFFF" fill-rule="nonzero"></path>
                    <path d="M287.690172,49.1059748 C289.024356,49.4975695 289.54202,50.5453499 289.243162,52.249316 C286.977717,53.7654225 285.640864,50.010876 287.690172,49.1059748 Z" id="路径" fill="#493D3D" fill-rule="nonzero"></path>
                    <path d="M182.134824,51.130096 C181.758584,52.7176421 181.166206,54.2019976 180.846001,55.7974814 C180.360358,58.162925 179.829353,60.5204309 179.252985,62.8699991 C178.713974,65.0925636 178.324392,67.4262563 178.084239,69.8710772 C177.689321,73.8981524 177.345101,77.9252276 177.05158,81.9523028 C174.980926,82.063431 172.982317,82.0845983 171.055755,82.0158046 C168.894376,81.9364273 165.716348,82.3809402 165.131975,84.9448271 C164.310118,88.5168057 162.874535,91.1347529 160.928528,95.7160015 C161.115314,92.0646456 160.259533,88.950735 157.222929,86.7863805 C154.960152,85.1670835 152.80411,83.534557 150.754802,81.8888009 C150.541333,81.7194627 150.367889,81.7538595 150.23447,81.9919914 C150.197113,82.0713687 150.186439,82.1533919 150.20245,82.2380611 C150.23447,82.4021075 150.165093,82.4894225 149.994317,82.5000062 C149.823541,82.505298 149.751495,82.4550257 149.778179,82.3491893 C149.847557,82.0528473 149.730148,81.9179059 149.425954,81.944365 C148.838913,82.0025751 148.403969,81.7485677 148.121122,81.1823429 C148.051744,81.034172 148.062418,80.8886469 148.153142,80.7457678 C148.259877,80.5817213 148.262545,80.415029 148.161147,80.2456907 C147.504728,79.1291167 146.632172,78.4544096 145.543477,78.2215695 C145.383375,78.1898186 145.231278,78.2004022 145.087186,78.2533204 C144.9004,78.3115305 144.815012,78.4385342 144.831023,78.6343315 C144.863043,78.9412571 144.796334,78.9650703 144.630895,78.7057711 C144.588201,78.647561 144.542839,78.6396233 144.494808,78.6819579 C144.1159,79.0259262 144.003828,78.9544866 144.158593,78.4676392 C144.292012,78.0284181 144.110563,77.6632825 143.614246,77.3722324 C144.457451,74.2712257 145.351355,71.1808027 146.295957,68.1009634 C146.904345,66.1244685 147.024422,64.2670396 147.432682,62.3222957 C148.841581,55.5196608 157.527123,53.1065908 163.522949,52.217565 C170.183198,51.2227028 176.387156,50.8602132 182.134824,51.130096 Z" id="路径" fill="#F89B91" fill-rule="nonzero"></path>
                    <path d="M286.113165,59.6869693 C285.979747,59.5493819 285.982415,59.4144405 286.12117,59.282145 L286.377334,59.0281376 C286.446712,58.959344 286.518757,58.9566981 286.593472,59.0201999 C287.484707,59.8139729 288.496019,60.1473576 289.627408,60.0203539 C290.129061,59.9674357 290.414576,60.1817544 290.483954,60.6633101 C290.515975,60.8961502 290.417245,61.0416752 290.187765,61.0998853 C288.757519,61.4861881 287.399319,61.0152161 286.113165,59.6869693 Z M279.204758,70.4267184 L275.314275,75.1258547 L274.53778,68.8153591 C274.473739,68.3126362 274.671198,68.1750489 275.130158,68.4025971 L279.204758,70.4267184 Z" id="形状结合" fill="#F89B91" fill-rule="nonzero"></path>
                    <path d="M256.174063,59.7266579 C256.494267,59.9383307 256.81714,60.2690695 257.142681,60.7188742 C257.083977,60.7559169 257.027941,60.7929597 256.974574,60.8300024 C256.9639,60.8352942 256.958564,60.843232 256.958564,60.8538156 C256.568982,62.8594155 256.131369,64.8861826 255.645726,66.934117 C255.170756,68.9238414 254.965292,70.9611922 255.029333,73.0461694 C255.114721,75.8667095 255.464277,78.8804011 256.078002,82.0872442 C256.286135,83.1614837 256.643696,84.1537 257.150686,85.063893 C257.927182,86.4529958 258.255391,88.4850548 259.576234,89.4058315 C260.366071,89.9614726 261.187929,90.5488647 262.041807,91.1680076 C262.260613,91.3267623 262.503435,91.3982018 262.770272,91.3823264 C263.682854,91.3294082 264.595436,91.482871 265.508019,91.8427147 C265.758845,91.9432593 266.007004,91.9406134 266.252494,91.834777 L273.280978,88.9295677 C271.178303,92.0676171 268.747419,93.9276919 265.988325,94.5097921 C257.622988,96.279906 253.124117,88.0564174 252.227545,80.9600865 C251.293616,73.4827445 252.609122,66.404935 256.174063,59.7266579 Z" id="路径" fill="#FFFFFF" fill-rule="nonzero"></path>
                    <path d="M101.947661,165.735046 C99.7115681,167.682436 97.5048268,169.111227 95.3274375,170.021421 C93.2247626,169.926168 91.188797,169.87325 89.2195405,169.862666 C87.1595595,169.84679 85.3504052,169.566324 83.7920776,169.021266 C75.8563477,166.274812 68.7744959,161.66299 62.5465222,155.185803 C59.0562953,151.560906 56.155778,148.150328 53.8449703,144.954068 C46.0319854,134.17463 39.9080781,121.16469 37.4344999,107.797553 C35.8334784,99.1454266 36.1616878,90.1678536 40.0281547,82.2221856 L44.7991988,76.5387707 C47.1313535,74.940641 49.5488959,74.0330938 52.0518262,73.8161292 C64.4917633,72.7445356 77.2358945,82.6746362 85.3450685,91.922092 C93.248778,100.939354 99.4180475,111.300738 103.852877,123.006244 C107.0229,131.383195 108.503845,140.011508 108.295712,148.891182 C108.155314,154.846515 106.32015,160.967638 102.27187,165.389515 L101.947661,165.735046 Z M100.274594,129.388179 C96.6509487,114.82509 89.3476222,102.415771 78.3646147,92.1602239 C73.6522747,87.7574295 68.5503529,84.8707416 63.0588491,83.5001602 C56.0393195,81.7470429 50.7397712,84.0978759 47.1602042,90.5526591 L46.9765881,90.8901871 C45.978618,93.4302608 45.4102553,96.0100231 45.2715001,98.6294741 C44.7271528,109.012025 47.7050528,119.092943 52.484102,128.245146 C58.8561676,140.564503 68.710455,151.883707 82.0549693,156.987667 C84.2563738,157.829067 86.5298244,157.773503 88.81128,157.757627 C88.8433004,157.757627 88.8673158,157.739106 88.883326,157.702063 L88.9793873,157.479807 C89.0434281,157.31576 89.1288159,157.305177 89.2355507,157.448056 C89.3422855,157.596227 89.4837091,157.654437 89.6598214,157.622686 C90.5777404,157.469223 91.4369553,157.321052 92.237466,157.178173 C102.804208,152.43141 102.403953,138.627697 100.274594,129.388179 Z" id="形状结合" fill="#FAFF9B" fill-rule="nonzero"></path>
                    <path d="M44.7991988,76.5387707 L40.0281547,82.2221856 C36.1616878,90.1678536 35.8334784,99.1454266 37.4344999,107.797553 C39.9080781,121.16469 46.0319854,134.17463 53.8449703,144.954068 C56.155778,148.150328 59.0562953,151.560906 62.5465222,155.185803 C68.7744959,161.66299 75.8563477,166.274812 83.7920776,169.021266 C85.3504052,169.566324 87.1595595,169.84679 89.2195405,169.862666 C91.188797,169.87325 93.2247626,169.926168 95.3274375,170.021421 L89.3876478,173.323516 C82.4498879,173.000715 76.8089555,172.51916 72.4648504,171.878849 C65.4843967,170.852236 58.5172847,168.531773 51.5635147,164.91746 C48.4655381,163.306101 45.927919,161.123225 43.0460803,159.083228 C42.7365494,158.860972 42.3976665,158.715447 42.0294316,158.646653 C41.7625947,158.593735 41.54112,158.464085 41.3650077,158.257704 C39.8013433,156.474361 38.1469544,154.807437 36.401841,153.256934 C36.3484736,153.209308 36.3244583,153.151098 36.329795,153.082304 C36.329795,153.055845 36.329795,153.029386 36.329795,153.002927 C36.3244583,152.928841 36.2764277,152.889153 36.1857031,152.883861 C36.0362744,152.878569 35.8735039,152.934133 35.6973915,153.050553 C30.8089392,146.097101 26.6382782,137.878905 23.1854085,128.395963 C18.6625227,115.957539 15.4124491,93.0174988 29.3893668,84.9130762 C34.3098396,82.0607851 39.4464502,79.2693499 44.7991988,76.5387707 Z" id="路径" fill="#FFA42D" fill-rule="nonzero"></path>
                    <path d="M145.494071,70.5497532 C145.990387,70.8408033 160.530227,82.7117048 162.874535,91.1347529 C159.106798,101.141585 153.863452,115.550069 149.898256,125.609819 C149.503337,126.625849 149.479322,127.655108 149.82621,128.697597 C152.126344,135.59813 150.853532,141.702245 146.007773,147.00994 C145.036487,148.073596 143.827716,148.645113 142.38146,148.72449 C138.66709,148.930871 134.603163,148.655696 130.189681,147.898966 C126.091066,147.208384 122.528793,144.692123 122.776951,140.143804 C123.006431,136.021476 124.409993,132.071132 126.987638,128.292772 C128.028302,126.768728 128.962231,125.260559 129.789425,123.768266 C130.584599,122.323599 131.331743,120.344458 132.030856,117.830844 C135.787919,104.315535 141.528874,84.006852 145.494071,70.5497532 Z" id="路径" fill="#FFD0C0" fill-rule="nonzero"></path>
                    <path d="M92.237466,157.178173 C91.4369553,157.321052 90.5777404,157.469223 89.6598214,157.622686 C89.4837091,157.654437 89.3422855,157.596227 89.2355507,157.448056 C89.1288159,157.305177 89.0434281,157.31576 88.9793873,157.479807 L88.883326,157.702063 C88.8673158,157.739106 88.8433004,157.757627 88.81128,157.757627 C86.5298244,157.773503 84.2563738,157.829067 82.0549693,156.987667 C68.710455,151.883707 58.8561676,140.564503 52.484102,128.245146 C47.7050528,119.092943 44.7271528,109.012025 45.2715001,98.6294741 C45.4102553,96.0100231 45.978618,93.4302608 46.9765881,90.8901871 C50.5575395,84.1801591 55.9182932,81.7168168 63.0588491,83.5001602 C68.5503529,84.8707416 73.6522747,87.7574295 78.3646147,92.1602239 C89.3476222,102.415771 96.6509487,114.82509 100.274594,129.388179 C102.403953,138.627697 102.804208,152.43141 92.237466,157.178173 Z" id="形状结合" fill="#FFA42D" fill-rule="nonzero"></path>
                    <polygon id="路径" fill="#FFFFFF" fill-rule="nonzero" points="259.920454 134.309572 270.367119 145.993911 252.355627 139.865983"></polygon>
                    <path d="M309.952376,140.747071 C310.710192,146.811497 308.989094,152.516079 304.789081,157.860818 L298.200878,155.471561 C301.573696,152.783316 304.402168,149.933671 306.686292,146.922625 C308.03115,145.144574 309.119844,143.086056 309.952376,140.747071 Z" id="路径" fill="#F89B91" fill-rule="nonzero"></path>
                    <path d="M89.3876478,173.323516 C87.0181359,174.805226 84.7313435,176.136119 82.5272706,177.316195 C79.9336158,178.69736 77.644155,179.469965 75.6588883,179.634012 C67.3175663,180.308719 59.552612,176.371605 52.9644085,171.323208 C46.2828121,166.21131 40.5271398,160.120425 35.6973915,153.050553 C35.8735039,152.934133 36.0362744,152.878569 36.1857031,152.883861 C36.2764277,152.889153 36.3244583,152.928841 36.329795,153.002927 C36.329795,153.029386 36.329795,153.055845 36.329795,153.082304 C36.3244583,153.151098 36.3484736,153.209308 36.401841,153.256934 C38.1469544,154.807437 39.8013433,156.474361 41.3650077,158.257704 C41.54112,158.464085 41.7625947,158.593735 42.0294316,158.646653 C42.3976665,158.715447 42.7365494,158.860972 43.0460803,159.083228 C45.927919,161.123225 48.4655381,163.306101 51.5635147,164.91746 C58.5172847,168.531773 65.4843967,170.852236 72.4648504,171.878849 C76.8089555,172.51916 82.4498879,173.000715 89.3876478,173.323516 Z" id="路径" fill="#F67400" fill-rule="nonzero"></path>
                    <path d="M196.526631,128.609994 C201.745286,134.22552 214.944032,138.767321 236.12287,142.235396" id="路径-47" stroke="#119390" stroke-width="0.8" stroke-linecap="round"></path>
                    <path d="M185.479659,145.993911 C180.821011,168.470953 189.761763,182.166785 212.301914,187.081406 C246.112142,194.453337 291.612674,184.447882 298.200878,187.081406 C302.593013,188.837088 331.718912,209.792095 385.578574,249.946427" id="路径-48" stroke="#592B8F" stroke-width="0.96" stroke-linecap="round" stroke-linejoin="round"></path>
                    <path d="M207.959301,148.790827 C209.375237,160.086973 203.958896,165.735046 191.710277,165.735046" id="路径-49" stroke="#592B8F" stroke-width="0.96" stroke-linecap="round" stroke-linejoin="round"></path>
                    <path d="M239.96372,168.129406 C234.445533,174.455021 227.865335,177.617828 220.223125,177.617828" id="路径-50" stroke="#592B8F" stroke-width="0.96" stroke-linecap="round" stroke-linejoin="round"></path>
                    <path d="M180.313943,127.022447 C175.66288,134.281709 172.380317,141.708875 170.466254,149.303944 C170.466254,149.303944 213.389519,151.938449 232.214812,144.406365 C244.765007,139.384975 227.464717,133.590336 180.313943,127.022447 Z" id="路径-53" fill="#592B8F" fill-rule="nonzero"></path>
                    <path d="M197.376548,97.8595143 C193.891658,98.6956219 190.457467,98.8358551 187.073975,98.280214 C182.628472,97.5499428 179.717281,95.0892464 178.340403,90.8981248 C177.401137,88.0299583 176.971529,85.0480176 177.05158,81.9523028 C177.345101,77.9252276 177.689321,73.8981524 178.084239,69.8710772 C178.324392,67.4262563 178.713974,65.0925636 179.252985,62.8699991 C179.829353,60.5204309 180.360358,58.162925 180.846001,55.7974814 C181.166206,54.2019976 181.758584,52.7176421 182.134824,51.130096 L183.407636,50.5427039 C184.875239,49.9976465 186.18274,49.65897 187.330138,49.5266745 C192.805632,48.8969479 198.249105,48.65617 203.660558,48.804341 C215.404051,49.1139125 227.619845,49.7330555 238.730934,51.7651144 C245.367168,52.9716494 251.002764,55.1227743 256.174063,59.7266579 C252.609122,66.404935 251.293616,73.4827445 252.227545,80.9600865 L252.289668,81.4144674 C253.317309,88.401829 257.800974,96.242244 265.988325,94.5097921 C268.747419,93.9276919 271.178303,92.0676171 273.280978,88.9295677 L277.12343,83.3810942 C281.942504,90.6890979 286.262594,97.9018489 290.083699,105.019347 L291.460577,107.162534 L306.862404,127.610127 L307.630894,128.99923 C307.113231,130.861951 306.555542,132.507707 305.957827,133.936499 C304.079295,138.434546 301.659084,142.609792 298.697194,146.462237 C297.256275,148.343479 295.110906,150.065967 293.421829,152.08215 C293.240379,152.299115 293.0109,152.436702 292.733389,152.494912 L292.381165,152.574289 C292.262538,152.599583 292.16293,152.678951 292.112483,152.788377 C292.062035,152.897802 292.066676,153.024425 292.125001,153.12993 C292.210389,153.278101 292.370491,153.431564 292.605308,153.590319 L280.733733,149.589703 C279.890528,149.018186 279.335508,148.404335 279.068671,147.748149 C278.241476,145.694923 277.398272,143.385044 276.539057,140.818511 C275.610464,138.040305 275.010081,135.661632 274.737908,133.682491 C274.17755,129.586622 274.40703,125.276435 275.426347,120.751928 C275.45604,120.60934 275.388983,120.464138 275.260715,120.393276 C275.132447,120.322414 274.97264,120.342285 274.865989,120.442357 L259.920454,134.309572 L252.355627,139.865983 L244.262463,144.700061 C243.212193,145.03027 242.187539,145.377414 241.188502,145.741491 L239.817138,146.250846 C238.497422,146.733625 237.428236,147.071325 236.60958,147.263948 C233.146037,148.068304 229.669152,148.462545 226.178925,148.44667 C220.762136,147.785192 215.457418,146.689785 210.264771,145.160449 C208.642403,144.678894 206.739856,143.95656 204.55713,142.993449 C203.315449,142.446627 202.069024,141.909214 200.817855,141.381208 L198.937544,140.596254 C195.468664,139.162171 188.819088,135.336185 178.988816,129.118296 L173.66542,125.395501 C173.479517,125.269131 173.360461,125.066772 173.340368,124.843012 C173.320274,124.619251 173.401214,124.397139 173.561353,124.236592 L182.046767,115.878162 C187.970547,109.813736 193.779587,103.916003 199.473887,98.1849612 L199.640537,98.0129173 C200.325531,97.2823818 200.133894,97.1412866 199.065626,97.5896315 C198.76968,97.7147109 198.277465,97.8004296 197.588981,97.8467877 L197.376548,97.8595143 Z" id="路径" fill="#758DFB" fill-rule="nonzero"></path>
                    <path d="M280.733733,149.589703 L270.367119,145.993911 L259.920454,134.309572 L274.865989,120.442357 C274.97264,120.342285 275.132447,120.322414 275.260715,120.393276 C275.388983,120.464138 275.45604,120.60934 275.426347,120.751928 C274.40703,125.276435 274.17755,129.586622 274.737908,133.682491 C275.010081,135.661632 275.610464,138.040305 276.539057,140.818511 C277.398272,143.385044 278.241476,145.694923 279.068671,147.748149 C279.335508,148.404335 279.890528,149.018186 280.733733,149.589703 Z M307.630894,128.99923 C309.653518,131.989109 310.568769,135.090115 310.376646,138.30225 L309.952376,140.747071 C309.119844,143.086056 308.03115,145.144574 306.686292,146.922625 C304.402168,149.933671 301.573696,152.783316 298.200878,155.471561 C296.322346,155.254596 294.457156,154.627516 292.605308,153.590319 C292.370491,153.431564 292.210389,153.278101 292.125001,153.12993 C292.066676,153.024425 292.062035,152.897802 292.112483,152.788377 C292.16293,152.678951 292.262538,152.599583 292.381165,152.574289 L292.733389,152.494912 C293.0109,152.436702 293.240379,152.299115 293.421829,152.08215 C295.110906,150.065967 297.256275,148.343479 298.697194,146.462237 C301.659084,142.609792 304.079295,138.434546 305.957827,133.936499 C306.555542,132.507707 307.113231,130.861951 307.630894,128.99923 Z" id="形状结合" fill="#4D66DA" fill-rule="nonzero"></path>
                    <path d="M236.12287,91.9161896 C219.407305,98.1266737 207.487166,105.181787 200.362453,113.08153 C193.237741,120.981272 190.609053,128.96519 192.476391,137.033283 L172.586356,124.47322 L200.362453,97.2868815 C204.542321,95.6633941 209.990532,94.3472864 216.707085,93.3385583 C223.423638,92.3298302 229.895566,91.8557073 236.12287,91.9161896 Z" id="路径-45" fill="#4D66DA" fill-rule="nonzero"></path>
                    <path d="M190.555634,59.7266579 C186.47301,78.0201393 186.323555,89.457339 191.710277,97.2426968" id="路径-46" stroke="#4D66DA" stroke-width="0.8" stroke-linecap="round"></path>
                    <polygon id="路径-63" fill="#FF5454" fill-rule="nonzero" points="441.844871 30.0595769 458.431235 41.2010806 444.523924 60.738827 435.821497 38.4841134"></polygon>
                </g>
            </g>
        </g>
    </g>
</svg>