<?xml version="1.0" encoding="UTF-8"?>
<svg width="410px" height="403px" viewBox="0 0 410 403" version="1.1" xmlns="http://www.w3.org/2000/svg" xmlns:xlink="http://www.w3.org/1999/xlink">
    <title>编组</title>
    <defs>
        <linearGradient x1="56.9869523%" y1="8.53541667%" x2="56.9869523%" y2="96.35%" id="linearGradient-1">
            <stop stop-color="#FFF0F0" offset="0%"></stop>
            <stop stop-color="#FFC2C6" offset="100%"></stop>
        </linearGradient>
    </defs>
    <g id="页面-1" stroke="none" stroke-width="1" fill="none" fill-rule="evenodd">
        <g id="2" transform="translate(-170, -518)">
            <g id="编组" transform="translate(171, 518)">
                <path d="M10,403 L10,12 C10,5.372583 15.372583,1.21743675e-15 22,0 L166,0 C172.627417,-1.21743675e-15 178,5.372583 178,12 L178,117 L396,117 C402.627417,117 408,122.372583 408,129 L408,403 L10,403 Z" id="形状结合" fill="url(#linearGradient-1)"></path>
                <g id="编组-24" transform="translate(0, 78)">
                    <g id="编组-23" transform="translate(41, 0)">
                        <rect id="矩形备份-25" fill="#E75050" fill-rule="nonzero" x="0" y="0" width="148" height="293" rx="24"></rect>
                        <rect id="矩形" fill="#FF8A8A" fill-rule="nonzero" x="14" y="0" width="148" height="293" rx="24"></rect>
                        <path d="M141,8 C149.284271,8 156,14.7157288 156,23 L156,271 C156,279.284271 149.284271,286 141,286 L35,286 C26.7157288,286 20,279.284271 20,271 L20,23 C20,14.7157288 26.7157288,8 35,8 L59.217,8 L59.7321632,12.75437 C60.1085708,16.226815 62.9823667,18.8771722 66.4486269,18.9958493 L66.6913963,19 L109.308604,19 C112.882618,19 115.882676,16.3075695 116.267837,12.75437 L116.783,8 L141,8 Z" id="形状结合" fill="#307EB5" fill-rule="nonzero"></path>
                        <rect id="矩形" fill="#FFFFFF" opacity="0.225051153" x="47" y="216" width="82" height="32" rx="16"></rect>
                        <text id="购买" font-family="PingFangSC-Medium, PingFang SC" font-size="16" font-weight="400" fill="#307EB5">
                            <tspan x="72" y="238">购买</tspan>
                        </text>
                        <rect id="矩形" stroke="#FFFFFF" x="4.5" y="46.5" width="4" height="11" rx="2"></rect>
                        <rect id="矩形备份-26" stroke="#FFFFFF" x="4.5" y="68.5" width="4" height="16" rx="2"></rect>
                        <rect id="矩形备份-27" stroke="#FFFFFF" x="4.5" y="89.5" width="4" height="16" rx="2"></rect>
                    </g>
                    <g id="编组-21" transform="translate(281, 95)">
                        <rect id="矩形备份-23" fill="#137CDC" x="0" y="0" width="92" height="154" rx="14"></rect>
                        <rect id="矩形" fill="#55B2FF" fill-rule="nonzero" x="6" y="0" width="92" height="154" rx="14"></rect>
                        <rect id="矩形" fill="#1062AE" x="65" y="0" width="18" height="154"></rect>
                        <rect id="矩形备份-24" fill="#FFFFFF" opacity="0.361746652" x="43" y="15" width="16" height="124"></rect>
                        <line x1="48.5" y1="25.5" x2="48.5" y2="81.5" id="直线-5" stroke="#FFFFFF" stroke-width="1.4" stroke-linecap="square"></line>
                        <line x1="55.5" y1="123.5" x2="55.5" y2="129.5" id="直线-5备份" stroke="#1062AE" stroke-width="1.4" stroke-linecap="square"></line>
                        <line x1="55.5" y1="106.5" x2="55.5" y2="118.5" id="直线-5备份-2" stroke="#1062AE" stroke-width="1.4" stroke-linecap="square"></line>
                        <circle id="椭圆形备份-6" fill="#FFFFFF" cx="25" cy="129" r="8"></circle>
                        <circle id="椭圆形" fill="#FF8888" cx="25" cy="121" r="8"></circle>
                    </g>
                    <g id="编组-20" transform="translate(179, 197)" fill-rule="nonzero">
                        <rect id="矩形" fill="#FF9E1B" x="0" y="0" width="58" height="8"></rect>
                        <rect id="矩形备份-15" fill="#FF9E1B" x="0" y="32" width="58" height="8"></rect>
                        <rect id="矩形备份-17" fill="#FF9E1B" x="0" y="48" width="58" height="8"></rect>
                        <rect id="矩形备份-19" fill="#FF9E1B" x="0" y="64" width="58" height="8"></rect>
                        <rect id="矩形备份-21" fill="#FF9E1B" x="0" y="80" width="58" height="8"></rect>
                        <rect id="矩形备份-13" fill="#FF9E1B" x="8" y="16" width="58" height="8"></rect>
                        <rect id="矩形备份-12" fill="#FFC767" x="0" y="8" width="58" height="8"></rect>
                        <rect id="矩形备份-16" fill="#FFC767" x="0" y="40" width="58" height="8"></rect>
                        <rect id="矩形备份-18" fill="#FFC767" x="0" y="56" width="58" height="8"></rect>
                        <rect id="矩形备份-20" fill="#FFC767" x="0" y="72" width="58" height="8"></rect>
                        <rect id="矩形备份-22" fill="#FFC767" x="0" y="88" width="58" height="8"></rect>
                        <rect id="矩形备份-14" fill="#FFC767" x="0" y="24" width="58" height="8"></rect>
                    </g>
                    <circle id="椭圆形备份-5" fill="#FF7F3E" fill-rule="nonzero" cx="232" cy="264" r="29"></circle>
                    <circle id="椭圆形" fill="#FFC767" fill-rule="nonzero" cx="238" cy="264" r="29"></circle>
                    <circle id="椭圆形" stroke="#FFFFFF" stroke-width="0.8" opacity="0.601004464" fill-rule="nonzero" cx="238" cy="264" r="26"></circle>
                    <g id="￥" transform="translate(226.0476, 249.29)" fill="#FFFFFF" fill-rule="nonzero">
                        <polygon id="路径" points="0 0 8.22339965 14.7478992 2.65679066 14.7478992 2.65679066 17.3529412 9.69939446 17.3529412 9.74156574 17.394958 9.74156574 21.0084034 2.65679066 21.0084034 2.65679066 23.6134454 9.74156574 23.6134454 9.74156574 30 14.6334343 30 14.6334343 23.6134454 21.7603806 23.6134454 21.7603806 21.0084034 14.6334343 21.0084034 14.6334343 17.394958 14.6756055 17.3529412 21.7603806 17.3529412 21.7603806 14.7478992 16.1516003 14.7478992 24.375 0 18.808391 0 12.1875 12.8991597 5.566609 0"></polygon>
                    </g>
                    <g id="编组-22" transform="translate(0, 292.5)" stroke="#292455" stroke-linecap="square" stroke-width="1.6">
                        <line x1="40.5" y1="1" x2="305.5" y2="1" id="直线-6"></line>
                        <line x1="336.306641" y1="1" x2="407.5" y2="1" id="直线-6备份"></line>
                        <line x1="-8.15320034e-15" y1="0.5" x2="25" y2="0.5" id="直线-6备份-2"></line>
                    </g>
                    <g id="￥0.00" transform="translate(89, 90)" fill="#FFFFFF" fill-rule="nonzero">
                        <polygon id="路径" points="0 5.98830409 5.30539478 15.6232673 1.45638288 15.6232673 1.45638288 16.9651842 6.03358623 16.9651842 6.03358623 19.5953413 1.45638288 19.5953413 1.45638288 20.9372582 6.03358623 20.9372582 6.03358623 25.1508772 8.3221879 25.1508772 8.3221879 20.9372582 12.9253981 20.9372582 12.9253981 19.5953413 8.3221879 19.5953413 8.3221879 16.9651842 12.9253981 16.9651842 12.9253981 15.6232673 9.05037934 15.6232673 14.3557741 5.98830409 11.7810972 5.98830409 7.17788706 14.7912789 2.57467688 5.98830409"></polygon>
                        <path d="M33.5598932,18.4210526 C33.4897966,21.005848 32.2923138,22.3099415 29.9674448,22.3333333 C27.630893,22.3099415 26.4392516,21.005848 26.3925206,18.4210526 L26.3925206,7.57894737 C26.4392516,5.01754386 27.630893,3.71345029 29.9674448,3.66666667 C32.2923138,3.71345029 33.4897966,5.01754386 33.5598932,7.57894737 L33.5598932,18.4210526 Z M22.7299757,18.6315789 C22.7533412,20.9824561 23.5068792,22.7953216 24.9905895,24.0701754 C26.3808378,25.3333333 28.0397896,25.9766082 29.9674448,26 C31.9535138,25.9766082 33.6416725,25.3333333 35.0319208,24.0701754 C36.4455346,22.7953216 37.1757071,20.9824561 37.2224381,18.6315789 L37.2224381,7.35087719 C37.1757071,4.98830409 36.4455346,3.16959064 35.0319208,1.89473684 C33.6416725,0.631578947 31.9535138,0 29.9674448,0 C28.0397896,0 26.3808378,0.631578947 24.9905895,1.89473684 C23.5068792,3.16959064 22.7533412,4.98830409 22.7299757,7.35087719 L22.7299757,18.6315789 Z" id="形状"></path>
                        <polygon id="路径" points="40.7809784 25.7894737 44.4435233 25.7894737 44.4435233 22.122807 40.7809784 22.122807"></polygon>
                        <path d="M59.1112271,18.4210526 C59.0411306,21.005848 57.8436478,22.3099415 55.5187787,22.3333333 C53.182227,22.3099415 51.9905856,21.005848 51.9438545,18.4210526 L51.9438545,7.57894737 C51.9905856,5.01754386 53.182227,3.71345029 55.5187787,3.66666667 C57.8436478,3.71345029 59.0411306,5.01754386 59.1112271,7.57894737 L59.1112271,18.4210526 Z M48.2813096,18.6315789 C48.3046751,20.9824561 49.0582131,22.7953216 50.5419235,24.0701754 C51.9321718,25.3333333 53.5911235,25.9766082 55.5187787,26 C57.5048478,25.9766082 59.1930064,25.3333333 60.5832547,24.0701754 C61.9968686,22.7953216 62.727041,20.9824561 62.773772,18.6315789 L62.773772,7.35087719 C62.727041,4.98830409 61.9968686,3.16959064 60.5832547,1.89473684 C59.1930064,0.631578947 57.5048478,0 55.5187787,0 C53.5911235,0 51.9321718,0.631578947 50.5419235,1.89473684 C49.0582131,3.16959064 48.3046751,4.98830409 48.2813096,7.35087719 L48.2813096,18.6315789 Z" id="形状"></path>
                        <path d="M76.3374551,18.4210526 C76.2673585,21.005848 75.0698757,22.3099415 72.7450067,22.3333333 C70.408455,22.3099415 69.2168135,21.005848 69.1700825,18.4210526 L69.1700825,7.57894737 C69.2168135,5.01754386 70.408455,3.71345029 72.7450067,3.66666667 C75.0698757,3.71345029 76.2673585,5.01754386 76.3374551,7.57894737 L76.3374551,18.4210526 Z M65.5075376,18.6315789 C65.5309031,20.9824561 66.2844411,22.7953216 67.7681514,24.0701754 C69.1583998,25.3333333 70.8173515,25.9766082 72.7450067,26 C74.7310757,25.9766082 76.4192344,25.3333333 77.8094827,24.0701754 C79.2230965,22.7953216 79.953269,20.9824561 80,18.6315789 L80,7.35087719 C79.953269,4.98830409 79.2230965,3.16959064 77.8094827,1.89473684 C76.4192344,0.631578947 74.7310757,0 72.7450067,0 C70.8173515,0 69.1583998,0.631578947 67.7681514,1.89473684 C66.2844411,3.16959064 65.5309031,4.98830409 65.5075376,7.35087719 L65.5075376,18.6315789 Z" id="形状"></path>
                    </g>
                </g>
            </g>
        </g>
    </g>
</svg>