<?xml version="1.0" encoding="UTF-8"?>
<svg width="500px" height="410px" viewBox="0 0 500 410" version="1.1" xmlns="http://www.w3.org/2000/svg" xmlns:xlink="http://www.w3.org/1999/xlink">
    <title>编组</title>
    <defs>
        <linearGradient x1="44.4603057%" y1="13.6229767%" x2="44.4603057%" y2="73.0248374%" id="linearGradient-1">
            <stop stop-color="#313D63" offset="0%"></stop>
            <stop stop-color="#59688E" offset="100%"></stop>
        </linearGradient>
        <path d="M136.950739,323.257773 C59.4459521,312.217222 14.8112368,306.155382 2.24785722,257.547395 C-10.5217195,208.141628 31.9474457,51.0613408 108.445672,14.4098926 C238.486103,-47.894429 355.132638,111.832551 388.16536,114.78147 C411.162814,116.834514 424.902849,105.218407 466.160071,129.478274 C504.413321,151.971761 511.419321,233.358567 481.09934,266.321869 C422.905196,329.589426 437.062684,289.939774 320.592708,312.920086 C204.122731,335.900398 200.266905,332.277155 136.950739,323.257773 Z" id="path-2"></path>
    </defs>
    <g id="页面-1" stroke="none" stroke-width="1" fill="none" fill-rule="evenodd">
        <g id="12" transform="translate(-174, -997)">
            <g id="编组" transform="translate(174, 997)">
                <g id="形状结合-+-形状结合蒙版" transform="translate(0, 35.7294)">
                    <mask id="mask-3" fill="white">
                        <use xlink:href="#path-2"></use>
                    </mask>
                    <use id="蒙版" fill="url(#linearGradient-1)" fill-rule="nonzero" xlink:href="#path-2"></use>
                    <path d="M160.32254,196.751833 C360.539789,224.445118 352.611281,266.545859 494.348021,244.887681 C636.084761,223.229503 547.715366,398.740282 431.799754,423.151456 C315.884142,447.562631 146.328621,459.646405 24.4269505,410.779047 C-97.4747196,361.911688 -39.8947079,169.058548 160.32254,196.751833 Z" id="路径-2" fill="#6B7DAA" fill-rule="nonzero" mask="url(#mask-3)"></path>
                    <path d="M4.58975518,262.419028 C4.58975518,262.419028 56.1027264,211.893991 179.179391,232.588554 C302.256055,253.283118 367.5609,326.335148 481.09934,299.36688" id="路径-36" stroke="#5B6C97" stroke-width="3.53298172" mask="url(#mask-3)"></path>
                    <path d="M314.40999,227.610935 C314.40999,227.610935 360.927285,247.49256 386.781838,260.256127 C412.636392,273.019693 487.658457,273.823566 492.657434,273.019693" id="路径-3" stroke="#5B6C97" stroke-width="1.76649086" mask="url(#mask-3)"></path>
                    <path d="M-17.713517,310.078568 C44.0170581,275.057786 121.048115,264.858087 213.379654,279.479469 C351.876962,301.411542 429.294925,352.609167 513.979531,312.044697" id="路径-37" stroke="#5B6C97" stroke-width="3.53298172" mask="url(#mask-3)"></path>
                    <path d="M43.7893464,354.802233 C45.5582165,354.402615 140.48372,283.926244 302.035129,303.111219 C342.551593,307.922736 380.58417,314.590467 419.85869,320.330091" id="路径-4" stroke="#5B6C97" stroke-width="1.76649086" mask="url(#mask-3)"></path>
                </g>
                <path d="M340.180574,94.7744351 C339.300353,95.0934561 338.438961,95.5297642 337.596397,96.0833594 C336.574964,96.7589332 335.746521,97.2351189 335.111068,97.5119166 C333.063495,98.4056444 331.128892,99.3767818 328.975411,99.9890206 C323.797642,101.457455 318.297439,101.682647 312.474803,100.664594 C303.64906,99.1234416 295.917709,93.4514363 291.088263,85.9356775 C289.770285,83.880807 288.887711,81.9268036 288.44054,80.073667 C288.36052,79.7593375 288.242843,79.7452631 288.08751,80.0314437 C287.8804,80.4067624 287.823915,80.7961557 287.918056,81.1996234 C290.135083,90.6482741 295.454064,97.6057463 303.874999,102.07204 C304.014185,102.143971 304.10213,102.286639 304.103609,102.442897 C304.105088,102.599155 304.019859,102.74345 303.88206,102.817986 C289.98681,110.474489 272.39887,108.257763 261.299616,96.5900398 C255.68409,90.6834602 252.67157,83.435116 252.262056,74.845007 C252.23852,74.4086989 252.210278,73.9817738 252.177328,73.5642317 C252.083187,72.367903 251.859602,72.3444456 251.506572,73.4938594 C247.675023,86.0201242 250.256847,97.2585764 259.252044,107.209216 C259.506225,107.490705 259.470922,107.727625 259.146135,107.919976 C248.559951,114.169034 237.594848,115.782905 226.250827,112.761588 C209.926733,108.405545 198.827479,95.5203812 195.86909,78.8703011 C195.741999,78.1571954 195.647858,78.1595412 195.586666,78.8773384 C194.998283,85.9239487 196.064433,92.5178308 198.785115,98.6589846 C198.840117,98.7825969 198.840911,98.9234698 198.787306,99.04769 C198.7337,99.1719101 198.630552,99.2682246 198.502692,99.3134468 C184.607442,104.295804 167.541986,103.380964 154.345736,95.9074287 C154.158471,95.800965 153.918747,95.863025 153.80207,96.0481733 C153.152495,97.1365978 152.34288,98.1194639 151.373226,98.9967715 C145.738871,104.098761 139.059549,106.540679 131.455289,106.00585 C124.658291,105.527319 118.456735,102.771071 112.850624,97.7371078 C111.118425,94.6266533 110.122881,92.6186978 109.863992,91.7132412 C105.041607,74.8942676 117.07992,58.2441876 134.604314,57.8078795 C134.943223,57.7984965 135.119738,57.6249116 135.133859,57.2871246 C135.58103,48.3639203 139.37963,41.3384216 146.529658,36.2106285 C150.483591,33.3769716 154.967068,31.8639677 159.98009,31.6716168 C161.702875,31.6106275 163.413892,31.5355638 165.113142,31.4464256 C166.807684,31.3619788 168.311591,30.2430597 168.855257,28.6104229 C175.047398,9.98288195 192.487065,-1.5018732 212.172002,0.158912472 C224.951677,1.24264549 236.283931,8.26579846 243.231556,18.9483097 C243.421199,19.2424623 243.819419,19.3243627 244.121191,19.1312776 C257.557501,10.2854827 275.477289,9.77176512 289.139539,18.4838527 C299.603339,25.1551443 305.915511,34.5967577 308.076052,46.808693 C308.123123,47.0807991 308.283163,47.1840118 308.556173,47.118331 C313.75277,45.8469386 318.669297,45.6498962 323.305754,46.5272039 C342.122238,50.1021154 351.964706,70.2074742 344.678173,87.3783091 C344.155689,88.6074781 343.447276,89.8812163 342.552934,91.1995236 C341.766854,92.3630118 340.976068,93.554649 340.180574,94.7744351 Z" id="路径" fill="#758DFB" fill-rule="nonzero"></path>
                <path d="M340.180574,94.7744351 C332.178567,103.866533 321.985423,107.06378 309.601141,104.366176 C308.669142,104.159751 307.972497,104.349756 307.511205,104.936191 C306.320318,106.442158 304.969391,107.776886 303.458424,108.940374 C292.043797,117.746291 279.831322,119.036449 266.821001,112.810849 C266.270788,112.548175 265.617904,112.645923 265.175882,113.057152 C260.46882,117.424924 255.032162,120.486118 248.86591,122.240734 C236.571062,125.745273 225.088182,124.105599 214.417271,117.321712 C209.7714,114.370768 205.897487,110.676223 202.795533,106.238079 C202.510039,105.823123 201.95953,105.684444 201.510505,105.914366 C199.453518,106.965259 197.394178,107.748737 195.332485,108.2648 C184.096726,111.075 173.56938,109.766075 163.750447,104.338027 C161.491057,103.085401 159.556454,101.396466 157.275882,100.157914 C156.762051,99.8783655 156.120062,100.019556 155.771976,100.488664 C153.446687,103.594427 150.535368,106.015233 147.038021,107.751082 C143.879582,109.318038 140.243376,110.195346 136.129403,110.383006 C126.164551,110.833388 118.404958,106.618089 112.850624,97.7371078 C118.456735,102.771071 124.658291,105.527319 131.455289,106.00585 C139.059549,106.540679 145.738871,104.098761 151.373226,98.9967715 C152.34288,98.1194639 153.152495,97.1365978 153.80207,96.0481733 C153.918747,95.863025 154.158471,95.800965 154.345736,95.9074287 C167.541986,103.380964 184.607442,104.295804 198.502692,99.3134468 C198.630552,99.2682246 198.7337,99.1719101 198.787306,99.04769 C198.840911,98.9234698 198.840117,98.7825969 198.785115,98.6589846 C196.064433,92.5178308 194.998283,85.9239487 195.586666,78.8773384 C195.647858,78.1595412 195.741999,78.1571954 195.86909,78.8703011 C198.827479,95.5203812 209.926733,108.405545 226.250827,112.761588 C237.594848,115.782905 248.559951,114.169034 259.146135,107.919976 C259.470922,107.727625 259.506225,107.490705 259.252044,107.209216 C250.256847,97.2585764 247.675023,86.0201242 251.506572,73.4938594 C251.859602,72.3444456 252.083187,72.367903 252.177328,73.5642317 C252.210278,73.9817738 252.23852,74.4086989 252.262056,74.845007 C252.67157,83.435116 255.68409,90.6834602 261.299616,96.5900398 C272.39887,108.257763 289.98681,110.474489 303.88206,102.817986 C304.019859,102.74345 304.105088,102.599155 304.103609,102.442897 C304.10213,102.286639 304.014185,102.143971 303.874999,102.07204 C295.454064,97.6057463 290.135083,90.6482741 287.918056,81.1996234 C287.823915,80.7961557 287.8804,80.4067624 288.08751,80.0314437 C288.242843,79.7452631 288.36052,79.7593375 288.44054,80.073667 C288.887711,81.9268036 289.770285,83.880807 291.088263,85.9356775 C295.917709,93.4514363 303.64906,99.1234416 312.474803,100.664594 C318.297439,101.682647 323.797642,101.457455 328.975411,99.9890206 C331.128892,99.3767818 333.063495,98.4056444 335.111068,97.5119166 C335.746521,97.2351189 336.574964,96.7589332 337.596397,96.0833594 C338.438961,95.5297642 339.300353,95.0934561 340.180574,94.7744351 Z" id="路径" stroke="#4D66DA" fill="#4D66DA"></path>
                <path d="M321.130098,138.52667 C318.072861,136.971443 319.484979,127.794898 320.346372,124.775928 C320.544068,124.076897 320.762947,124.069859 321.003007,124.754816 C322.443368,128.855174 322.930549,133.204181 322.46455,137.801836 C322.435205,138.10387 322.257508,138.371747 321.990175,138.516954 C321.722842,138.662162 321.400664,138.665801 321.130098,138.52667 Z M185.398551,145.59998 C183.442766,144.593657 182.680222,142.412116 182.433101,140.357246 C181.882375,135.764282 182.548424,131.354286 184.43125,127.127258 C184.540378,126.884234 184.780117,126.725529 185.047186,126.719336 C185.314255,126.713498 185.560943,126.861247 185.680975,127.099109 C188.128647,132.039243 189.178322,137.514206 188.83,143.523998 C188.71703,145.452198 187.17076,146.51482 185.398551,145.59998 Z M135.268463,199.282071 C133.312678,197.990716 133.8094,192.942595 134.153807,190.354467 C135.917611,177.099937 140.398483,187.574912 140.05016,195.286921 C139.937191,197.761266 137.040672,200.45603 135.268463,199.282071 Z M285.74946,159.969102 C283.038192,158.575731 282.367436,152.910763 282.261527,150.264766 C282.012053,143.987559 282.767536,137.905049 284.527978,132.017235 C284.595943,131.784205 284.804731,131.61829 285.050462,131.602039 C285.412905,131.57389 285.667087,131.709943 285.813006,132.010198 C286.307247,133.000101 286.686166,133.994696 286.949761,134.993982 C288.587819,141.200817 289.392727,147.949518 289.364485,155.240085 C289.357424,157.245695 288.983213,161.622851 285.74946,159.969102 Z M302.822997,186.710566 C301.674474,180.775838 301.796858,174.512706 303.190148,167.921169 C303.500814,166.450389 303.705572,164.817752 304.28454,163.410306 C304.731711,162.326573 305.167115,162.331265 305.59075,163.424381 C308.189049,170.067524 309.113987,178.871095 309.050441,185.971658 C309.03632,187.538614 308.775078,188.990628 308.266715,190.327701 C307.588898,192.122194 305.541326,191.502918 304.623449,190.35585 C303.663208,189.150139 303.063057,187.935044 302.822997,186.710566 Z" id="形状结合" fill="#F2F9FF" fill-rule="nonzero"></path>
                <path d="M207.51201,153.007492 C210.675156,154.597905 219.06723,152.110417 219.010745,152.387215 C218.765977,153.517863 224.255623,155.268564 228.354884,162.120701 L238.465655,170.255736 C234.671762,172.460734 231.042617,175.064508 227.578218,178.067059 C223.752784,173.235946 220.13776,170.538343 216.733146,169.974247 C213.129663,170.255736 211.086295,168.958359 208.380709,164.621824 C207.617469,163.398497 206.777708,162.374042 206.467042,162.120701 C205.751568,161.553032 205.024327,161.006474 204.285318,160.481027 C204.092329,160.344974 204.071147,160.185464 204.221773,160.002496 C204.951368,159.097039 205.648013,158.189237 206.311709,157.279089 C206.96599,156.383015 207.366091,154.95915 207.51201,153.007492 Z" id="路径" fill="#FFD0C0" fill-rule="nonzero"></path>
                <path d="M224.255623,174.384294 C221.336458,171.560129 217.968105,170.231864 216.733146,169.974247 C218.902453,169.794232 220.670601,168.948756 222.03759,167.43782 L224.255623,174.384294 Z" id="路径" fill="#F89B91" fill-rule="nonzero"></path>
                <path d="M238.465655,170.255736 C240.051935,170.157215 241.466407,170.363641 242.709072,170.875012 C252.113783,174.724376 257.091502,187.743246 259.124953,196.877568 C260.918344,204.965688 262.066867,211.6534 262.570523,216.940703 L258.595409,218.932238 L247.686791,221.585273 C247.606641,221.604702 247.521888,221.584112 247.460902,221.530396 C247.399916,221.47668 247.370757,221.396936 247.383185,221.317859 C248.223396,215.075838 248.604668,208.214541 247.707972,201.951409 C247.336114,199.357017 246.964256,196.750898 246.592398,194.133049 C246.578277,194.034528 246.521793,193.989959 246.422944,193.999342 L246.415884,193.999342 C246.321742,194.008725 246.274672,194.060331 246.274672,194.154161 C246.25349,196.44126 246.317035,197.560179 243.944676,198.482056 C243.648131,198.594651 243.471616,198.817497 243.415131,199.150592 C243.184485,199.11306 243.010324,199.122443 242.892647,199.178741 C238.227948,201.477569 233.285532,202.448706 228.065399,202.092153 C226.87922,202.007706 225.241162,201.660537 223.151226,201.050644 L219.296141,199.903575 C219.070202,199.833203 218.978415,199.68073 219.020778,199.446156 C220.484675,191.526929 223.337155,184.400563 227.578218,178.067059 C231.042617,175.064508 234.671762,172.460734 238.465655,170.255736 Z" id="路径" fill="#FFFFFF" fill-rule="nonzero"></path>
                <path d="M258.595409,218.932238 C251.002916,223.464213 244.241221,228.962633 238.310322,235.427499 C236.865253,237.003838 235.382528,238.641167 233.862147,240.339484 C234.262248,238.364369 234.64352,236.982727 235.005963,236.194557 C240.167258,224.991291 242.617284,211.163139 243.415131,199.150592 C243.471616,198.817497 243.648131,198.594651 243.944676,198.482056 C246.317035,197.560179 246.25349,196.44126 246.274672,194.154161 C246.274672,194.060331 246.321742,194.008725 246.415884,193.999342 L246.422944,193.999342 C246.521793,193.989959 246.578277,194.034528 246.592398,194.133049 C246.964256,196.750898 247.336114,199.357017 247.707972,201.951409 C248.604668,208.214541 248.223396,215.075838 247.383185,221.317859 C247.370757,221.396936 247.399916,221.47668 247.460902,221.530396 C247.521888,221.584112 247.606641,221.604702 247.686791,221.585273 L258.595409,218.932238 Z" id="路径" fill="#414D72" fill-rule="nonzero"></path>
                <path d="M243.415131,199.150592 C242.617284,211.163139 240.167258,224.991291 235.005963,236.194557 C234.64352,236.982727 234.262248,238.364369 233.862147,240.339484 C233.669158,240.597516 233.565602,240.956414 233.551481,241.41618 C233.269057,241.927552 233.189037,242.368551 233.311421,242.739179 C232.948977,243.189561 232.690089,243.761922 232.534755,244.456262 C229.649326,257.127963 227.015724,269.623733 224.633951,281.943573 C224.445668,282.910019 224.012618,284.324501 223.334801,286.187021 C223.059438,286.932967 222.268652,287.256679 221.979167,288.14337 C221.720279,288.926848 221.355481,289.637608 220.884775,290.27565 C220.791196,290.40698 220.627734,290.468326 220.46937,290.431547 C220.311005,290.394769 220.188298,290.266964 220.157534,290.106756 L219.39499,285.877383 C219.216121,284.892171 219.063142,284.896862 218.936051,285.891457 C218.705405,287.725828 218.665395,289.668103 218.816021,291.718282 C218.853678,292.192122 218.68893,292.560403 218.321779,292.823126 C218.120027,292.966865 217.852809,292.980488 217.637394,292.858017 C217.421979,292.735546 217.297731,292.499361 217.319175,292.253111 C217.643962,288.687582 216.973206,286.635058 215.306906,286.095537 L215.137451,275.511547 C215.128037,275.051781 215.026835,275.028324 214.833846,275.441175 C214.417271,276.334902 214.424331,277.538268 214.05012,278.39681 C213.927736,278.682991 213.805353,278.682991 213.682969,278.39681 C213.419374,277.782226 213.327586,277.172333 213.407606,276.567131 C213.727686,274.216697 214.000696,272.189975 214.226635,270.486966 C214.979765,266.790076 215.349269,263.346526 215.335148,260.156317 C216.591934,250.163454 218.455931,240.269112 220.927139,230.473291 C221.242512,229.220665 221.597895,226.813933 221.993288,223.253096 L223.151226,201.050644 C225.241162,201.660537 226.87922,202.007706 228.065399,202.092153 C233.285532,202.448706 238.227948,201.477569 242.892647,199.178741 C243.010324,199.122443 243.184485,199.11306 243.415131,199.150592 Z" id="路径" fill="#FFD0C0" fill-rule="nonzero"></path>
                <path d="M262.570523,216.940703 L268.94624,234.013017 C274.764169,250.437906 280.386756,266.930821 285.813999,283.491763 C291.116505,299.635162 296.934435,316.630067 302.22282,333.230886 C302.339046,333.594065 302.140832,333.982909 301.778002,334.103502 L295.960073,336.059852 L280.334978,341.415182 L259.936921,348.438335 C259.760022,348.49926 259.565627,348.483748 259.400706,348.395547 C259.235785,348.307346 259.115339,348.154477 259.068468,347.973878 L256.448988,338.262504 C256.224831,337.429272 256.150726,336.562006 256.23011,335.700953 C257.6234,320.655361 258.986095,305.616806 260.318194,290.585288 C260.322901,290.491458 260.282891,290.439852 260.198163,290.430469 L260.191103,290.430469 C260.125204,290.421086 260.087547,290.446889 260.078133,290.507878 C256.383089,312.130933 251.612481,333.57571 245.766309,354.842212 C245.673603,355.174233 245.345003,355.383477 245.003765,355.32778 L235.020085,353.751441 L217.820477,351.379896 C217.811063,351.286066 217.763992,351.201619 217.679265,351.126555 C217.622781,351.074949 217.538053,351.042109 217.425084,351.028034 C212.181416,350.282088 206.907152,349.458733 201.602292,348.557967 C201.517436,348.542403 201.442418,348.493872 201.394478,348.423528 C201.346539,348.353184 201.329801,348.267076 201.348111,348.184994 L211.324731,303.456377 L211.741306,301.830777 L215.306906,286.095537 C216.973206,286.635058 217.643962,288.687582 217.319175,292.253111 C217.297731,292.499361 217.421979,292.735546 217.637394,292.858017 C217.852809,292.980488 218.120027,292.966865 218.321779,292.823126 C218.68893,292.560403 218.853678,292.192122 218.816021,291.718282 C218.665395,289.668103 218.705405,287.725828 218.936051,285.891457 C219.063142,284.896862 219.216121,284.892171 219.39499,285.877383 L220.157534,290.106756 C220.188298,290.266964 220.311005,290.394769 220.46937,290.431547 C220.627734,290.468326 220.791196,290.40698 220.884775,290.27565 C221.355481,289.637608 221.720279,288.926848 221.979167,288.14337 C222.268652,287.256679 223.059438,286.932967 223.334801,286.187021 C224.012618,284.324501 224.445668,282.910019 224.633951,281.943573 C227.015724,269.623733 229.649326,257.127963 232.534755,244.456262 C232.690089,243.761922 232.948977,243.189561 233.311421,242.739179 C237.707817,248.852184 243.662252,252.169063 251.174724,252.689818 C251.890198,252.736733 252.598611,252.701547 253.299963,252.58426 C253.379983,252.570185 253.415286,252.523271 253.405872,252.443515 L253.405872,252.436478 C253.396458,252.356723 253.354094,252.316845 253.278781,252.316845 C245.474471,252.321537 239.230552,249.330715 234.547025,243.34438 C234.184581,242.879923 233.993945,242.366206 233.975117,241.803228 C233.97041,241.690632 233.928046,241.599148 233.848026,241.528776 C233.772713,241.467786 233.673865,241.430254 233.551481,241.41618 C233.565602,240.956414 233.669158,240.597516 233.862147,240.339484 C235.382528,238.641167 236.865253,237.003838 238.310322,235.427499 C244.241221,228.962633 251.002916,223.464213 258.595409,218.932238 L262.570523,216.940703 Z M241.208342,256.937278 C241.223698,256.869938 241.211585,256.799277 241.174668,256.740839 C241.137752,256.682401 241.079056,256.640973 241.011493,256.625669 L240.997725,256.622573 C240.930162,256.607268 240.859266,256.619341 240.800634,256.656135 C240.742002,256.69293 240.700437,256.751431 240.685082,256.818771 L222.915049,334.775065 C222.899694,334.842404 222.911806,334.913065 222.948723,334.971503 C222.985639,335.029941 223.044335,335.071369 223.111898,335.086673 L223.125666,335.08977 C223.193229,335.105074 223.264125,335.093001 223.322757,335.056207 C223.381389,335.019413 223.422955,334.960911 223.43831,334.893572 L241.208342,256.937278 Z M292.915686,331.599516 C292.892798,331.534329 292.844864,331.480876 292.78243,331.450917 C292.719996,331.420958 292.648179,331.416949 292.582779,331.439771 L262.835648,341.822637 C262.770245,341.845449 262.716614,341.893225 262.686556,341.955452 C262.656498,342.017679 262.652475,342.089259 262.675373,342.154442 L262.684763,342.180973 C262.707651,342.24616 262.755586,342.299613 262.818019,342.329572 C262.880453,342.35953 262.952271,342.36354 263.01767,342.340718 L292.764801,331.957852 C292.830204,331.935039 292.883835,331.887264 292.913893,331.825037 C292.943952,331.76281 292.947974,331.69123 292.925076,331.626046 L292.915686,331.599516 Z M242.298922,350.278218 C242.323634,350.164266 242.250996,350.051919 242.136669,350.02727 L207.851836,342.639167 C207.737506,342.614536 207.624786,342.686934 207.600055,342.800882 L207.576191,342.910944 C207.551478,343.024896 207.624117,343.137243 207.738443,343.161892 L242.023276,350.549995 C242.137606,350.574626 242.250326,350.502228 242.275057,350.38828 L242.298922,350.278218 Z" id="形状" fill="#27DAD6" fill-rule="nonzero"></path>
                <path d="M233.551481,241.41618 C233.673865,241.430254 233.772713,241.467786 233.848026,241.528776 C233.928046,241.599148 233.97041,241.690632 233.975117,241.803228 C233.993945,242.366206 234.184581,242.879923 234.547025,243.34438 C239.230552,249.330715 245.474471,252.321537 253.278781,252.316845 C253.354094,252.316845 253.396458,252.356723 253.405872,252.436478 L253.405872,252.443515 C253.415286,252.523271 253.379983,252.570185 253.299963,252.58426 C252.598611,252.701547 251.890198,252.736733 251.174724,252.689818 C243.662252,252.169063 237.707817,248.852184 233.311421,242.739179 C233.189037,242.368551 233.269057,241.927552 233.551481,241.41618 Z M223.43831,334.893572 C223.422955,334.960911 223.381389,335.019413 223.322757,335.056207 C223.264125,335.093001 223.193229,335.105074 223.125666,335.08977 L223.111898,335.086673 C223.044335,335.071369 222.985639,335.029941 222.948723,334.971503 C222.911806,334.913065 222.899694,334.842404 222.915049,334.775065 L240.685082,256.818771 C240.700437,256.751431 240.742002,256.69293 240.800634,256.656135 C240.859266,256.619341 240.930162,256.607268 240.997725,256.622573 L241.011493,256.625669 C241.079056,256.640973 241.137752,256.682401 241.174668,256.740839 C241.211585,256.799277 241.223698,256.869938 241.208342,256.937278 L223.43831,334.893572 Z M292.925076,331.626046 C292.947974,331.69123 292.943952,331.76281 292.913893,331.825037 C292.883835,331.887264 292.830204,331.935039 292.764801,331.957852 L263.01767,342.340718 C262.952271,342.36354 262.880453,342.35953 262.818019,342.329572 C262.755586,342.299613 262.707651,342.24616 262.684763,342.180973 L262.675373,342.154442 C262.652475,342.089259 262.656498,342.017679 262.686556,341.955452 C262.716614,341.893225 262.770245,341.845449 262.835648,341.822637 L292.582779,331.439771 C292.648179,331.416949 292.719996,331.420958 292.78243,331.450917 C292.844864,331.480876 292.892798,331.534329 292.915686,331.599516 L292.925076,331.626046 Z M242.275057,350.38828 C242.250326,350.502228 242.137606,350.574626 242.023276,350.549995 L207.738443,343.161892 C207.624117,343.137243 207.551478,343.024896 207.576191,342.910944 L207.600055,342.800882 C207.624786,342.686934 207.737506,342.614536 207.851836,342.639167 L242.136669,350.02727 C242.250996,350.051919 242.323634,350.164266 242.298922,350.278218 L242.275057,350.38828 Z" id="形状结合" fill="#02ADA9" fill-rule="nonzero"></path>
                <path d="M295.960073,336.059852 L297.35101,340.324411 C293.79247,343.486472 289.880901,346.261486 285.616302,348.649451 L280.334978,341.415182 L295.960073,336.059852 Z" id="路径" fill="#FFD0C0" fill-rule="nonzero"></path>
                <path d="M306.303843,346.87607 C306.812206,347.340527 306.918115,347.720537 306.62157,348.016101 C299.942248,354.67801 293.277047,361.356338 286.625967,368.051087 C286.06112,368.618757 285.303283,368.907283 284.352456,368.916666 C279.165273,368.963581 273.989857,368.954198 268.82621,368.888517 C268.435523,368.818145 268.259008,368.719624 268.296665,368.592954 C269.882945,363.127374 273.323808,359.70259 278.619254,358.318602 C280.130221,357.91748 281.768279,358.037113 283.236882,357.643028 C285.665727,356.990912 286.670684,355.473216 286.251756,353.089942 C285.851656,350.795806 285.639838,349.315642 285.616302,348.649451 C289.880901,346.261486 293.79247,343.486472 297.35101,340.324411 L299.222067,339.106971 C299.424471,338.970918 299.605693,338.996721 299.765733,339.184381 L306.303843,346.87607 Z" id="路径" fill="#FFA42D" fill-rule="nonzero"></path>
                <path d="M217.820477,351.379896 L235.020085,353.751441 C234.059844,355.590503 233.622087,357.335736 233.706814,358.987138 L216.486025,358.923803 L217.820477,351.379896 Z" id="路径" fill="#FFD0C0" fill-rule="nonzero"></path>
                <path d="M216.486025,358.923803 L233.706814,358.987138 L232.71127,370.274851 C232.687735,370.542266 232.541816,370.680665 232.273513,370.690048 L189.768737,371.900451 C189.476899,371.909834 189.392172,371.780818 189.514555,371.513403 C191.046704,368.142571 194.711153,362.118705 198.763934,361.239051 C202.421321,360.443845 203.755774,363.52615 206.700041,364.588771 C208.634644,365.283111 210.345662,365.003968 211.833093,363.751341 C212.172002,363.469852 212.816869,362.569087 213.767696,361.049046 C214.600846,359.716664 215.506956,359.00825 216.486025,358.923803 Z" id="路径" fill="#FFA42D" fill-rule="nonzero"></path>
                <path d="M414.712206,409.74666 L410.560577,409.74666 C411.967989,409.483937 413.351865,409.483937 414.712206,409.74666 Z" id="路径" fill="#313D63" fill-rule="nonzero"></path>
                <path d="M230.332248,161.98254 C234.435308,166.285804 224.705347,164.194828 222.220018,158.433684 C221.678706,157.185749 218.869533,160.523847 219.010745,159.454189 C219.161371,158.304775 217.123832,155.468176 217.368599,154.337528 C217.425084,154.06073 217.319175,153.962209 217.050872,154.041964 C213.854777,154.94273 210.584922,155.632378 207.421775,154.041964 C204.442547,155.150491 202.952933,154.698226 202.952933,152.685168 C202.952933,149.533518 209.581709,143.595477 217.37566,143.595477 C225.169611,143.595477 221.558657,145.778385 223.221832,146.673987 C225.970756,148.147114 228.397392,148.147114 230.332248,152.685168 C230.859241,153.921191 228.450454,156.606778 230.332248,161.98254 Z" id="路径" fill="#292455" fill-rule="nonzero"></path>
            </g>
        </g>
    </g>
</svg>