<?xml version="1.0" encoding="UTF-8"?>
<svg width="36px" height="36px" viewBox="0 0 36 36" version="1.1" xmlns="http://www.w3.org/2000/svg" xmlns:xlink="http://www.w3.org/1999/xlink">
    <title>上升备份</title>
    <defs>
        <linearGradient x1="60.3749151%" y1="14.9993743%" x2="31.1469607%" y2="92.4980596%" id="linearGradient-1">
            <stop stop-color="#12B469" offset="0%"></stop>
            <stop stop-color="#39D58D" offset="100%"></stop>
        </linearGradient>
    </defs>
    <g id="页面-1" stroke="none" stroke-width="1" fill="none" fill-rule="evenodd">
        <g id="7" transform="translate(-108, -1284)" fill-rule="nonzero">
            <g id="编组-3" transform="translate(90, 1272)">
                <g id="上升备份" transform="translate(36, 30) scale(1, -1) translate(-36, -30)translate(18, 12)">
                    <rect id="矩形" fill="#000000" opacity="0" x="0" y="0" width="36" height="36"></rect>
                    <path d="M19.4918346,4.20343718 L29.8394576,15.0895058 C30.0070776,15.265244 30.0471988,15.5147651 29.942038,15.7274725 C29.8368773,15.9401799 29.6058872,16.076727 29.3514508,16.0765914 L24.2653315,16.0765914 C23.9418946,16.0740368 23.6671343,16.2932619 23.6247982,16.5876587 C23.2435122,19.1218999 20.9406562,30.3300019 10.0363924,31.9891715 C9.74329872,32.0410983 9.44947601,31.9025394 9.32472951,31.6535703 C9.19998302,31.4046012 9.27657393,31.1096089 9.51023902,30.9390745 C11.3784634,29.5949341 13.8185573,26.9906773 14.5048365,22.3562148 C14.7683274,20.4735003 14.8957115,18.5768313 14.8861524,16.6786598 C14.8862475,16.3476786 14.5984101,16.0772125 14.2379899,16.0696145 L8.64860516,16.0696145 C8.39415141,16.0697703 8.16313614,15.9332231 8.05796533,15.7205024 C7.95279451,15.5077817 7.99292539,15.2582423 8.16056849,15.0825015 L18.5158209,4.20343718 C18.6389033,4.07416378 18.816808,4 19.0038277,4 C19.1908474,4 19.3687521,4.07416378 19.4918346,4.20343718 Z" id="路径" fill="url(#linearGradient-1)"></path>
                </g>
            </g>
        </g>
    </g>
</svg>