<?xml version="1.0" encoding="UTF-8"?>
<svg width="24px" height="24px" viewBox="0 0 24 24" version="1.1" xmlns="http://www.w3.org/2000/svg" xmlns:xlink="http://www.w3.org/1999/xlink">
    <title>说明</title>
    <g id="利智投(app)" stroke="none" stroke-width="1" fill="none" fill-rule="evenodd">
        <g id="交易详情-部分确认" transform="translate(-50, -1644)" fill-rule="nonzero">
            <g id="说明" transform="translate(50, 1644)">
                <rect id="矩形" fill="#000000" opacity="0" x="0" y="0" width="24" height="24"></rect>
                <path d="M12,0.333324219 C18.4433086,0.333324219 23.6666758,5.55669141 23.6666758,12 C23.6666758,18.4433086 18.4433086,23.6666758 12,23.6666758 C5.55669141,23.6666758 0.333324219,18.4432813 0.333324219,12 C0.333324219,5.55669141 5.55671875,0.333324219 12,0.333324219 Z M12,2.08332422 C6.52318359,2.08332422 2.08332422,6.52318359 2.08332422,12 C2.08332422,17.4768164 6.52318359,21.9166758 12,21.9166758 C17.4768164,21.9166758 21.9166758,17.4768164 21.9166758,12 C21.9166758,6.52318359 17.4768164,2.08332422 12,2.08332422 Z" id="形状" fill="#666666"></path>
                <path d="M11.9908945,6.17578125 C12.6352227,6.17578125 13.157543,6.69812891 13.157543,7.34245703 C13.157543,7.98678516 12.6352227,8.50910547 11.9908945,8.50910547 C11.3465664,8.50910547 10.8242188,7.98678516 10.8242188,7.34245703 C10.8242188,6.69812891 11.3465664,6.17578125 11.9908945,6.17578125 Z M12.875,9.67578125 L12.875,17.842457 L11.125,17.842457 L11.125,9.67578125 L12.875,9.67578125 Z" id="形状" fill="#666666"></path>
            </g>
        </g>
    </g>
</svg>