<?xml version="1.0" encoding="UTF-8"?>
<svg width="80px" height="80px" viewBox="0 0 80 80" version="1.1" xmlns="http://www.w3.org/2000/svg" xmlns:xlink="http://www.w3.org/1999/xlink">
    <title>基金经理头像</title>
    <defs>
        <circle id="path-1" cx="40" cy="40" r="40"></circle>
        <linearGradient x1="62.9790883%" y1="100%" x2="24.2183732%" y2="11.1924913%" id="linearGradient-3">
            <stop stop-color="#CBBEBE" offset="0%"></stop>
            <stop stop-color="#D7CECE" offset="100%"></stop>
        </linearGradient>
    </defs>
    <g id="页面-1" stroke="none" stroke-width="1" fill="none" fill-rule="evenodd">
        <g id="基金经理1" transform="translate(-48, -252)">
            <g id="基金经理头像" transform="translate(48, 252)">
                <mask id="mask-2" fill="white">
                    <use xlink:href="#path-1"></use>
                </mask>
                <use id="蒙版" fill="#F4EFEF" xlink:href="#path-1"></use>
                <path d="M37.357913,12.4596268 C43.89498,11.038959 49.02036,12.9116648 52.7340528,18.0777444 C55.3003314,18.6825111 56.8159697,20.1228363 57.2809676,22.3987199 C59.5178929,28.0085863 57.2809676,35.7831873 57.2809676,35.7831873 C58.4514462,36.1697818 58.6358002,36.923556 58.6358002,38.7186841 C58.6358002,40.5138122 57.2749192,44.1200855 56.5834708,45.8353709 C55.9661061,47.3668756 54.5458293,47.4845337 54.2485714,47.492165 L54.193401,47.4924122 C53.4874364,51.6677778 50.8597871,56.082429 50.8597871,56.082429 C51.3022851,59.3756409 51.6736544,59.3756409 53.1117124,60.6689001 C54.8488012,61.8410602 56.8955661,62.4137927 61.2124014,63.8422264 C66.9955632,65.7558652 69.2042199,65.8087158 70.3347793,67.8098551 C71.2095979,69.3583222 72.7646715,72.4806042 75,77.1767011 C67.5470178,80.8104228 57.6405211,83.0149356 45.2805098,83.7902397 L41.6309581,74.0312833 C42.5594216,72.7546884 43.2804264,71.4438752 43.7939724,70.0988437 C44.5642915,68.0812964 44.1650998,65.3697962 40.3340688,65.3697962 C36.5030378,65.3697962 35.458728,67.1639536 35.8377183,69.1265332 C36.0903784,70.4349196 36.8751732,72.0698363 38.1921027,74.0312833 L34.3223988,84.0000298 C23.7622547,83.6853128 13.6547885,81.8244022 4,78.417298 C5.48620422,71.6329359 7.53111428,67.646297 10.1347302,66.4573813 C11.6476083,65.7665403 14.3471728,64.9522907 17.1146979,64.1271692 L18.0924717,63.8356817 C20.0463764,63.2525368 21.9685642,62.6705717 23.4655567,62.129368 C25.6577827,61.3368183 27.0714785,60.8582613 27.7001343,60.1905713 C29.1124067,58.6906087 29.2035211,56.4018689 29.2093994,56.112791 L29.2098048,56.082429 C26.1497336,52.1767385 25.5289388,47.5636762 25.440212,46.7428904 L25.4318771,46.6616455 C25.4289095,46.6308057 25.4276446,46.6148695 25.4276446,46.6148695 C23.486605,46.2069189 21.598791,41.299378 21.598791,37.7290218 C21.598791,34.1586656 24.0207961,34.618065 24.0207961,34.618065 C20.1483944,25.3167435 27.5523123,14.5906286 37.357913,12.4596268 Z" id="形状结合" fill="url(#linearGradient-3)" opacity="0.90359933" mask="url(#mask-2)"></path>
            </g>
        </g>
    </g>
</svg>