<?xml version="1.0" encoding="UTF-8"?>
<svg width="20px" height="20px" viewBox="0 0 20 20" version="1.1" xmlns="http://www.w3.org/2000/svg" xmlns:xlink="http://www.w3.org/1999/xlink">
    <title>椭圆形</title>
    <g id="利活宝" stroke="none" stroke-width="1" fill="none" fill-rule="evenodd">
        <g id="交易详情-充值" transform="translate(-216, -509)">
            <g id="编组" transform="translate(216, 509)">
                <circle id="椭圆形" fill="#FFFFFF" cx="10" cy="10" r="5"></circle>
                <path d="M10,1 C14.9705627,1 19,5.02943725 19,10 C19,14.9705627 14.9705627,19 10,19 C5.02943725,19 1,14.9705627 1,10 C1,5.02943725 5.02943725,1 10,1 Z M10,5 C7.23857625,5 5,7.23857625 5,10 C5,12.7614237 7.23857625,15 10,15 C12.7614237,15 15,12.7614237 15,10 C15,7.23857625 12.7614237,5 10,5 Z" id="椭圆形" fill="#DCDCDC" fill-rule="nonzero"></path>
            </g>
        </g>
    </g>
</svg>