<?xml version="1.0" encoding="UTF-8"?>
<svg width="50px" height="50px" viewBox="0 0 50 50" version="1.1" xmlns="http://www.w3.org/2000/svg" xmlns:xlink="http://www.w3.org/1999/xlink">
    <title>关闭</title>
    <g id="我的资产" stroke="none" stroke-width="1" fill="none" fill-rule="evenodd">
        <g id="查看示例" transform="translate(-350, -1322)" fill="#FFFFFF" fill-rule="nonzero">
            <g id="关闭" transform="translate(350, 1322)">
                <rect id="矩形" opacity="0" x="0" y="0" width="50" height="50"></rect>
                <path d="M24.921875,3.28125 C12.8808594,3.28125 3.12011719,13.0419922 3.12011719,25.0830078 C3.12011719,37.1240234 12.8808594,46.8847656 24.921875,46.8847656 C36.9628906,46.8847656 46.7236328,37.1240234 46.7236328,25.0830078 C46.7236328,13.0419922 36.9628906,3.28125 24.921875,3.28125 Z M35.8544922,36.0205078 C34.6777344,37.1972656 32.7539062,37.1972656 31.5771484,36.0205078 L24.921875,29.3652344 L18.2617188,36.0205078 C17.0849609,37.1972656 15.1611328,37.1972656 13.984375,36.0205078 C12.8076172,34.84375 12.8076172,32.9199219 13.984375,31.7431641 L20.6396484,25.0878906 L13.984375,18.4277344 C12.8076172,17.2509766 12.8076172,15.3271484 13.984375,14.1503906 C15.1611328,12.9736328 17.0849609,12.9736328 18.2617188,14.1503906 L24.9169922,20.8056641 L31.5722656,14.1503906 C32.7490234,12.9736328 34.6728516,12.9736328 35.8496094,14.1503906 C37.0263672,15.3271484 37.0263672,17.2509766 35.8496094,18.4277344 L29.1992188,25.0830078 L35.8544922,31.7382813 C37.03125,32.9150391 37.03125,34.84375 35.8544922,36.0205078 Z" id="形状" opacity="0.597260975"></path>
            </g>
        </g>
    </g>
</svg>