<?xml version="1.0" encoding="UTF-8"?>
<svg width="30px" height="30px" viewBox="0 0 30 30" version="1.1" xmlns="http://www.w3.org/2000/svg" xmlns:xlink="http://www.w3.org/1999/xlink">
    <title>图片</title>
    <g id="我的资产" stroke="none" stroke-width="1" fill="none" fill-rule="evenodd">
        <g id="开具资产证明" transform="translate(-540, -783)" fill-rule="nonzero">
            <g id="编组" transform="translate(520, 773)">
                <g id="图片" transform="translate(20, 10)">
                    <rect id="矩形" fill="#000000" opacity="0" x="0" y="0" width="30" height="30"></rect>
                    <path d="M22.5,4.11 L7.5,4.11 C5.42893219,4.11 3.75,5.78893219 3.75,7.86 L3.75,22.86 C3.75,24.9310678 5.42893219,26.61 7.5,26.61 L22.5,26.61 C24.5710678,26.61 26.25,24.9310678 26.25,22.86 L26.25,7.86 C26.25,5.78893219 24.5710678,4.11 22.5,4.11 Z M24.75,22.86 C24.7503679,23.1866127 24.6786633,23.5092832 24.54,23.805 L20.145,16.5 C20.039815,16.3221258 19.8658996,16.1955325 19.6643077,16.1501034 C19.4627158,16.1046742 19.2513121,16.144435 19.08,16.26 L15.345,18.75 L12.69,12.09 C12.5957873,11.8597135 12.3935005,11.6911411 12.15,11.64 C11.9042095,11.5956117 11.6522271,11.6740062 11.475,11.85 L5.475,17.85 C5.28475607,18.0402439 5.21045736,18.3175305 5.28009147,18.5774085 C5.34972558,18.8372866 5.55271344,19.0402744 5.81259147,19.1099085 C6.07246951,19.1795426 6.34975607,19.1052439 6.54,18.915 L11.73,13.695 L14.31,20.145 C14.3941856,20.3540337 14.5679006,20.514135 14.7830952,20.5810199 C14.9982898,20.6479047 15.2321537,20.6144832 15.42,20.49 L19.26,17.925 L23.355,24.75 C23.3946686,24.795623 23.4400409,24.8359539 23.49,24.87 C23.1830635,25.0256544 22.8441417,25.1078173 22.5,25.11 L7.5,25.11 C6.25735931,25.11 5.25,24.1026407 5.25,22.86 L5.25,7.86 C5.25,6.61735931 6.25735931,5.61 7.5,5.61 L22.5,5.61 C23.7426407,5.61 24.75,6.61735931 24.75,7.86 L24.75,22.86 Z" id="形状" fill="#19191E"></path>
                    <path d="M18,10.86 C18,11.6884271 18.6715729,12.36 19.5,12.36 C20.3284271,12.36 21,11.6884271 21,10.86 C21,10.0315729 20.3284271,9.36 19.5,9.36 C18.6715729,9.36 18,10.0315729 18,10.86 L18,10.86 Z" id="路径" fill="#000000"></path>
                </g>
            </g>
        </g>
    </g>
</svg>