<?xml version="1.0" encoding="UTF-8"?>
<svg width="702px" height="150px" viewBox="0 0 702 150" version="1.1" xmlns="http://www.w3.org/2000/svg" xmlns:xlink="http://www.w3.org/1999/xlink">
    <title>蒙版</title>
    <defs>
        <linearGradient x1="100%" y1="41.8383441%" x2="0%" y2="41.8383441%" id="linearGradient-1">
            <stop stop-color="#FF3A1A" offset="0.0464379371%"></stop>
            <stop stop-color="#FF6654" offset="100%"></stop>
        </linearGradient>
        <rect id="path-2" x="0" y="0" width="702" height="150" rx="12"></rect>
        <radialGradient cx="22.6528707%" cy="-55.4729143%" fx="22.6528707%" fy="-55.4729143%" r="128.839722%" gradientTransform="translate(0.226529,-0.554729),scale(0.222822,1.000000),rotate(83.656172),scale(1.000000,1.570619),translate(-0.226529,0.554729)" id="radialGradient-4">
            <stop stop-color="#FFFFFF" offset="0%"></stop>
            <stop stop-color="#FFFFFF" stop-opacity="0" offset="100%"></stop>
        </radialGradient>
        <radialGradient cx="52.3560475%" cy="-15.930382%" fx="52.3560475%" fy="-15.930382%" r="174.957704%" gradientTransform="translate(0.523560,-0.159304),scale(0.210887,1.000000),rotate(82.115208),scale(1.000000,1.437288),translate(-0.523560,0.159304)" id="radialGradient-5">
            <stop stop-color="#FFFFFF" offset="0%"></stop>
            <stop stop-color="#FFFFFF" stop-opacity="0" offset="100%"></stop>
        </radialGradient>
    </defs>
    <g id="页面-1" stroke="none" stroke-width="1" fill="none" fill-rule="evenodd">
        <g id="H5首页-未登录" transform="translate(-24.000000, -294.000000)">
            <g id="路径-21" transform="translate(24.000000, 294.000000)">
                <mask id="mask-3" fill="white">
                    <use xlink:href="#path-2"></use>
                </mask>
                <use id="蒙版" fill="url(#linearGradient-1)" xlink:href="#path-2"></use>
                <path d="M51,209 C208.166391,103.960937 345.833058,51.4414062 464,51.4414062 C558.862995,51.4414062 656.898152,99.9609375 758.105469,197 L51,209 Z" fill="url(#radialGradient-4)" opacity="0.430896577" mask="url(#mask-3)"></path>
                <path d="M-67.5820312,170 C-89.5542228,65.7247977 -83.7104728,11.7872977 -50.0507813,8.1875 C94.1948943,-7.23911962 235.484788,192.21875 439.750413,120.21875 C592.082357,66.5244487 625.734679,-43 733.324219,26 C805.050578,72 799.180787,125.333333 715.714844,186 L-67.5820312,170 Z" fill="url(#radialGradient-5)" opacity="0.23156157" mask="url(#mask-3)"></path>
            </g>
        </g>
    </g>
</svg>