<?xml version="1.0" encoding="UTF-8"?>
<svg width="200px" height="200px" viewBox="0 0 200 200" version="1.1" xmlns="http://www.w3.org/2000/svg" xmlns:xlink="http://www.w3.org/1999/xlink">
    <title>暂无数据插图</title>
    <defs>
        <polygon id="path-1" points="0 0 200 0 200 200 0 200"></polygon>
        <linearGradient x1="73.9824231%" y1="47.1679196%" x2="39.4669779%" y2="54.7116468%" id="linearGradient-3">
            <stop stop-color="#E1E6EC" offset="0%"></stop>
            <stop stop-color="#FFFFFF" offset="100%"></stop>
        </linearGradient>
        <linearGradient x1="49.5050902%" y1="26.1217086%" x2="62.0636185%" y2="96.2515235%" id="linearGradient-4">
            <stop stop-color="#8C96A4" offset="0%"></stop>
            <stop stop-color="#D7DBE1" offset="100%"></stop>
        </linearGradient>
        <linearGradient x1="0%" y1="94.545043%" x2="41.6289894%" y2="34.5537432%" id="linearGradient-5">
            <stop stop-color="#ADB4BE" offset="0%"></stop>
            <stop stop-color="#F3F4F5" offset="100%"></stop>
        </linearGradient>
        <linearGradient x1="42.5531915%" y1="25.0113173%" x2="96.8272108%" y2="86.3023427%" id="linearGradient-6">
            <stop stop-color="#8C96A4" offset="0%"></stop>
            <stop stop-color="#D7DBE1" offset="100%"></stop>
        </linearGradient>
        <linearGradient x1="91.40625%" y1="49.3941426%" x2="25.6515503%" y2="44.8386788%" id="linearGradient-7">
            <stop stop-color="#D7DBE1" offset="0%"></stop>
            <stop stop-color="#E7EBF0" offset="100%"></stop>
        </linearGradient>
        <linearGradient x1="34.4%" y1="40.4224%" x2="61.3240625%" y2="62.355615%" id="linearGradient-8">
            <stop stop-color="#C3CAD2" offset="0%"></stop>
            <stop stop-color="#E0E4E9" offset="100%"></stop>
        </linearGradient>
        <linearGradient x1="31.0077519%" y1="40.5684755%" x2="32.0681928%" y2="55.5105378%" id="linearGradient-9">
            <stop stop-color="#E0E4E9" offset="0%"></stop>
            <stop stop-color="#D7DBE1" offset="100%"></stop>
        </linearGradient>
        <linearGradient x1="39.8356401%" y1="80.8823529%" x2="79.6886658%" y2="47.6573989%" id="linearGradient-10">
            <stop stop-color="#E0E4E9" offset="0%"></stop>
            <stop stop-color="#CBD0D7" offset="100%"></stop>
        </linearGradient>
        <linearGradient x1="72.0930233%" y1="28.3666847%" x2="42.3243702%" y2="69.0045295%" id="linearGradient-11">
            <stop stop-color="#F3F4F5" offset="0%"></stop>
            <stop stop-color="#E8ECF1" offset="100%"></stop>
        </linearGradient>
        <linearGradient x1="64.1025641%" y1="3.85507206%" x2="35.8974359%" y2="96.855077%" id="linearGradient-12">
            <stop stop-color="#D7DBE1" offset="0%"></stop>
            <stop stop-color="#D7DBE1" stop-opacity="0" offset="100%"></stop>
        </linearGradient>
    </defs>
    <g id="页面-1" stroke="none" stroke-width="1" fill="none" fill-rule="evenodd" opacity="0.701474144">
        <g id="分红拆红" transform="translate(-275, -1118)">
            <g id="暂无数据插图" transform="translate(275, 1118)">
                <mask id="mask-2" fill="white">
                    <use xlink:href="#path-1"></use>
                </mask>
                <g id="蒙版"></g>
                <polygon id="路径" fill-opacity="0.599767" fill="url(#linearGradient-3)" mask="url(#mask-2)" points="154.444444 145.555556 12.7083333 210.802951 -27.7907986 163.854167 58.5894097 132.875434"></polygon>
                <polygon id="路径" fill="url(#linearGradient-4)" mask="url(#mask-2)" points="154.444444 85.5555556 154.444444 145.555556 102.222222 162.120226 102.222222 100"></polygon>
                <polygon id="路径" fill="url(#linearGradient-5)" mask="url(#mask-2)" points="102.222222 100 102.222222 73.3333333 154.444444 85.5555556"></polygon>
                <polygon id="路径" fill="url(#linearGradient-6)" mask="url(#mask-2)" points="102.222222 100 50 86.6666667 102.222222 73.3333333"></polygon>
                <polygon id="路径" fill="url(#linearGradient-7)" mask="url(#mask-2)" points="50 86.6666667 31.1111111 73.3333333 83.8888889 61.6666667 102.222222 73.3333333"></polygon>
                <polygon id="路径" fill="url(#linearGradient-8)" mask="url(#mask-2)" points="102.222222 100 117.777778 126.111111 171.666667 108.333333 154.444444 85.5555556"></polygon>
                <polygon id="路径" fill="url(#linearGradient-9)" mask="url(#mask-2)" points="102.222222 73.3333333 122.222222 61.6666667 173.888889 72.2222222 154.444444 85.5555556"></polygon>
                <polygon id="路径" fill="url(#linearGradient-10)" mask="url(#mask-2)" points="50 86.6666667 102.222222 100 102.222222 162.222222 50 145.555556"></polygon>
                <polygon id="路径" fill="url(#linearGradient-11)" mask="url(#mask-2)" points="50 86.6666667 30.5555556 106.666667 85.5555556 126.666667 102.222222 100"></polygon>
                <path d="M125.555556,51.3569632 C133.473379,48.7176886 136.772473,39.4802274 136.112654,34.8614968 C144.030478,36.8409528 151.288483,32.2222222 151.288483,32.2222222 C150.628664,38.1605901 149.046131,44.2304063 145.350115,50.0373259 C140.731385,57.2953311 128.19483,53.9962379 125.555556,51.3569632 Z" id="路径" fill="url(#linearGradient-12)" fill-rule="nonzero" mask="url(#mask-2)" transform="translate(138.422, 43.3333) rotate(11) translate(-138.422, -43.3333)"></path>
            </g>
        </g>
    </g>
</svg>