<?xml version="1.0" encoding="UTF-8"?>
<svg width="12px" height="102px" viewBox="0 0 12 102" version="1.1" xmlns="http://www.w3.org/2000/svg" xmlns:xlink="http://www.w3.org/1999/xlink">
    <title>矩形备份 3</title>
    <defs>
        <linearGradient x1="50%" y1="0%" x2="50%" y2="100%" id="linearGradient-1">
            <stop stop-color="#FFFFFF" offset="0%"></stop>
            <stop stop-color="#FFCCCC" offset="100%"></stop>
        </linearGradient>
    </defs>
    <g id="页面-1" stroke="none" stroke-width="1" fill="none" fill-rule="evenodd">
        <g id="新发基金" transform="translate(-68, -1106)">
            <g id="编组-2" transform="translate(68, 1106)">
                <rect id="矩形备份-3" fill="#FFFFFF" opacity="0" x="0" y="0" width="12" height="102"></rect>
                <path d="M6.5,89 C8.15685425,89 9.5,90.3431458 9.5,92 C9.5,93.6568542 8.15685425,95 6.5,95 C4.84314575,95 3.5,93.6568542 3.5,92 C3.5,90.3431458 4.84314575,89 6.5,89 Z M6.5,77 C8.15685425,77 9.5,78.3431458 9.5,80 C9.5,81.6568542 8.15685425,83 6.5,83 C4.84314575,83 3.5,81.6568542 3.5,80 C3.5,78.3431458 4.84314575,77 6.5,77 Z M6.5,65 C8.15685425,65 9.5,66.3431458 9.5,68 C9.5,69.6568542 8.15685425,71 6.5,71 C4.84314575,71 3.5,69.6568542 3.5,68 C3.5,66.3431458 4.84314575,65 6.5,65 Z M6.5,53 C8.15685425,53 9.5,54.3431458 9.5,56 C9.5,57.6568542 8.15685425,59 6.5,59 C4.84314575,59 3.5,57.6568542 3.5,56 C3.5,54.3431458 4.84314575,53 6.5,53 Z M6.5,41 C8.15685425,41 9.5,42.3431458 9.5,44 C9.5,45.6568542 8.15685425,47 6.5,47 C4.84314575,47 3.5,45.6568542 3.5,44 C3.5,42.3431458 4.84314575,41 6.5,41 Z M6.5,29 C8.15685425,29 9.5,30.3431458 9.5,32 C9.5,33.6568542 8.15685425,35 6.5,35 C4.84314575,35 3.5,33.6568542 3.5,32 C3.5,30.3431458 4.84314575,29 6.5,29 Z M6.5,17 C8.15685425,17 9.5,18.3431458 9.5,20 C9.5,21.6568542 8.15685425,23 6.5,23 C4.84314575,23 3.5,21.6568542 3.5,20 C3.5,18.3431458 4.84314575,17 6.5,17 Z M6.5,5 C8.15685425,5 9.5,6.34314575 9.5,8 C9.5,9.65685425 8.15685425,11 6.5,11 C4.84314575,11 3.5,9.65685425 3.5,8 C3.5,6.34314575 4.84314575,5 6.5,5 Z" id="直线-13" fill="url(#linearGradient-1)" fill-rule="nonzero"></path>
            </g>
        </g>
    </g>
</svg>