<?xml version="1.0" encoding="UTF-8"?>
<svg width="12px" height="138px" viewBox="0 0 12 138" version="1.1" xmlns="http://www.w3.org/2000/svg" xmlns:xlink="http://www.w3.org/1999/xlink">
    <title>矩形</title>
    <defs>
        <linearGradient x1="50%" y1="0%" x2="50%" y2="100%" id="linearGradient-1">
            <stop stop-color="#FFFFFF" offset="0%"></stop>
            <stop stop-color="#FFCCCC" offset="100%"></stop>
        </linearGradient>
    </defs>
    <g id="页面-1" stroke="none" stroke-width="1" fill="none" fill-rule="evenodd">
        <g id="新发基金" transform="translate(-68, -1430)">
            <g id="编组-7" transform="translate(68, 1430)">
                <rect id="矩形" fill="#FFFFFF" opacity="0" x="0" y="0" width="12" height="138"></rect>
                <path d="M6.02822964,124.999024 C7.68507042,125.00573 9.02278939,126.35428 9.01613244,128.011121 C9.00942777,129.667962 7.66087707,131.005681 6.00403629,130.999024 C4.34719551,130.992319 3.00947654,129.643769 3.01613244,127.986928 C3.02283816,126.330087 4.37138886,124.992368 6.02822964,124.999024 Z M6.07661635,112.999121 C7.73345713,113.005827 9.07117609,114.354378 9.06451914,116.011219 C9.05781447,117.668059 7.70926377,119.005778 6.05242299,118.999121 C4.39558221,118.992417 3.05786325,117.643866 3.06451914,115.987025 C3.07122487,114.330185 4.41977556,112.992466 6.07661635,112.999121 Z M6.12500305,100.999219 C7.78184383,101.005925 9.11956279,102.354475 9.11290585,104.011316 C9.10620117,105.668157 7.75765048,107.005876 6.1008097,106.999219 C4.44396892,106.992514 3.10624995,105.643964 3.11290585,103.987123 C3.11961157,102.330282 4.46816227,100.992563 6.12500305,100.999219 Z M6.17338975,88.9993166 C7.83023053,89.0060223 9.1679495,90.354573 9.16129255,92.0114138 C9.15458788,93.6682546 7.80603718,95.0059735 6.1491964,94.9993166 C4.49235562,94.9926119 3.15463665,93.6440612 3.16129255,91.9872205 C3.16799827,90.3303797 4.51654897,88.9926607 6.17338975,88.9993166 Z M6.22177646,76.9994142 C7.87861724,77.0061199 9.2163362,78.3546706 9.20967925,80.0115114 C9.20297458,81.6683521 7.85442388,83.0060711 6.1975831,82.9994142 C4.54074232,82.9927095 3.20302336,81.6441588 3.20967925,79.987318 C3.21638498,78.3304772 4.56493568,76.9927583 6.22177646,76.9994142 Z M6.27016316,64.9995117 C7.92700394,65.0062174 9.2647229,66.3547681 9.25806596,68.0116089 C9.25136128,69.6684497 7.90281059,71.0061687 6.24596981,70.9995117 C4.58912903,70.992807 3.25141006,69.6442563 3.25806596,67.9874156 C3.26477168,66.3305748 4.61332238,64.9928558 6.27016316,64.9995117 Z M6.31854986,52.9996093 C7.97539064,53.006315 9.31310961,54.3548657 9.30645266,56.0117065 C9.29974799,57.6685472 7.95119729,59.0062662 6.29435651,58.9996093 C4.63751573,58.9929046 3.29979677,57.6443539 3.30645266,55.9875131 C3.31315838,54.3306723 4.66170908,52.9929534 6.31854986,52.9996093 Z M6.36693657,40.9997068 C8.02377735,41.0064125 9.36149631,42.3549632 9.35483936,44.011804 C9.34813469,45.6686448 7.99958399,47.0063638 6.34274321,46.9997068 C4.68590243,46.9930021 3.34818347,45.6444514 3.35483936,43.9876107 C3.36154509,42.3307699 4.71009579,40.9930509 6.36693657,40.9997068 Z M6.41532327,28.9998044 C8.07216405,29.0065101 9.40988301,30.3550608 9.40322607,32.0119016 C9.3965214,33.6687423 8.0479707,35.0064613 6.39112992,34.9998044 C4.73428914,34.9930997 3.39657017,33.644549 3.40322607,31.9877082 C3.40993179,30.3308674 4.75848249,28.9931485 6.41532327,28.9998044 Z M6.46370997,16.9999019 C8.12055075,17.0066076 9.45826972,18.3551583 9.45161277,20.0119991 C9.4449081,21.6688399 8.0963574,23.0065589 6.43951662,22.9999019 C4.78267584,22.9931972 3.44495688,21.6446466 3.45161277,19.9878058 C3.45831849,18.330965 4.80686919,16.993246 6.46370997,16.9999019 Z M6.51209668,4.99999947 C8.16893746,5.0067052 9.50665642,6.3552559 9.49999947,8.01209668 C9.4932948,9.66893746 8.1447441,11.0066564 6.48790332,10.9999995 C4.83106254,10.9932948 3.49334358,9.6447441 3.49999947,7.98790332 C3.5067052,6.33106254 4.8552559,4.99334358 6.51209668,4.99999947 Z" id="直线-13备份-2" fill="url(#linearGradient-1)" fill-rule="nonzero"></path>
            </g>
        </g>
    </g>
</svg>