<?xml version="1.0" encoding="UTF-8"?>
<svg width="30px" height="30px" viewBox="0 0 30 30" version="1.1" xmlns="http://www.w3.org/2000/svg" xmlns:xlink="http://www.w3.org/1999/xlink">
    <title>icon/强提醒</title>
    <g id="我的资产" stroke="none" stroke-width="1" fill="none" fill-rule="evenodd">
        <g id="开具资产证明" transform="translate(-60, -539)" fill-rule="nonzero">
            <g id="提醒" transform="translate(60, 539)">
                <rect id="矩形" fill="#000000" opacity="0" x="0" y="0" width="30" height="30"></rect>
                <path d="M15,3 C21.6276,3 27,8.37240001 27,15 C27,21.6276 21.6276,27 15,27 C8.37240001,27 3,21.6276 3,15 C3,8.37240001 8.37240001,3 15,3 Z" id="路径" fill="#EB5858"></path>
                <path d="M15,18.8181818 C14.1213652,18.8181818 13.4090909,19.5304561 13.4090909,20.4090909 C13.4090909,21.2877257 14.1213652,22 15,22 C15.8786348,22 16.5909091,21.2877257 16.5909091,20.4090909 C16.5909091,19.5304561 15.8786348,18.8181818 15,18.8181818 L15,18.8181818 Z M15,8 C14.2970921,8 13.7272727,8.56981941 13.7272727,9.27272728 L13.7272727,15.6363636 C13.7272727,16.3392715 14.2970921,16.9090909 15,16.9090909 C15.7029079,16.9090909 16.2727273,16.3392715 16.2727273,15.6363636 L16.2727273,9.27272728 C16.2727273,8.56981941 15.7029079,8 15,8 L15,8 Z" id="形状结合" fill="#FFFFFF"></path>
            </g>
        </g>
    </g>
</svg>