<?xml version="1.0" encoding="UTF-8"?>
<svg width="60px" height="60px" viewBox="0 0 60 60" version="1.1" xmlns="http://www.w3.org/2000/svg" xmlns:xlink="http://www.w3.org/1999/xlink">
    <title>矩形</title>
    <g id="利活宝" stroke="none" stroke-width="1" fill="none" fill-rule="evenodd">
        <g id="利活宝持仓" transform="translate(-90, -1023)">
            <g id="编组-6" transform="translate(90, 1023)">
                <rect id="矩形" fill="#000000" fill-rule="nonzero" opacity="0" x="0" y="0" width="60" height="60"></rect>
                <path d="M19.4880371,20 L49,20 C51.209139,20 53,21.790861 53,24 L53,49 C53,51.209139 51.209139,53 49,53 L13,53 C10.790861,53 9,51.209139 9,49 L9,24" id="路径" stroke="#444444" stroke-width="4" stroke-linecap="round" stroke-linejoin="round"></path>
                <polyline id="路径-3" stroke="#444444" stroke-width="4" stroke-linecap="round" stroke-linejoin="round" points="4.99998047 7.4 27.3681641 7.4 36.8037754 19.1164019"></polyline>
                <path d="M13.4353517,19.0715374 C15.8192835,19.0715374 19.3951811,19.0715374 24.1630446,19.0715374 C26.9244683,19.0715374 29.1630446,21.3101137 29.1630446,24.0715374 C29.1630446,26.8329612 26.9244683,29.0715374 24.1630446,29.0715374 C13.9036348,29.0715374 7.22503159,29.0715374 4.12723499,29.0715374" id="路径" stroke="#444444" stroke-width="4" stroke-linecap="round" stroke-linejoin="round" transform="translate(16.6451, 24.0715) rotate(44) translate(-16.6451, -24.0715)"></path>
                <polyline id="路径-4" stroke="#DCAD7C" stroke-width="4" stroke-linecap="round" stroke-linejoin="round" points="31.0700684 39.8850098 35.1230469 43.9316406 43.5405273 35.0820313"></polyline>
            </g>
        </g>
    </g>
</svg>