<?xml version="1.0" encoding="UTF-8"?>
<svg width="30px" height="30px" viewBox="0 0 30 30" version="1.1" xmlns="http://www.w3.org/2000/svg" xmlns:xlink="http://www.w3.org/1999/xlink">
    <title>Delete备份</title>
    <g id="页面-1" stroke="none" stroke-width="1" fill="none" fill-rule="evenodd">
        <g id="利活宝-提现" transform="translate(-656, -820)" fill="#CCCCCC">
            <g id="编组" transform="translate(24, 692)">
                <g id="输入框/未输入" transform="translate(100, 108)">
                    <path d="M547,20 C550.978247,20 554.793556,21.5803526 557.606602,24.3933983 C560.419647,27.206444 562,31.0217527 562,35 C562,43.2842712 555.284271,50 547,50 C538.715729,50 532,43.2842712 532,35 C532,26.7157288 538.715729,20 547,20 Z M542.607143,28.4107143 C542.015409,27.8189806 541.056019,27.8189806 540.464286,28.4107143 C539.872552,29.002448 539.872552,29.9618378 540.464286,30.5535714 L544.857143,35 L540.410714,39.3928571 C540.117219,39.6719708 539.951071,40.0592625 539.951071,40.4642857 C539.951071,40.869309 540.117219,41.2566006 540.410714,41.5357143 L540.520276,41.6397298 C540.786928,41.8681504 541.127748,41.9953577 541.482143,41.9953577 C541.887166,41.9953577 542.274458,41.8292094 542.553571,41.5357143 L547,37.1428571 L551.392857,41.5892857 C551.984591,42.1810194 552.943981,42.1810194 553.535714,41.5892857 C554.127448,40.9975521 554.127448,40.0381622 553.535714,39.4464286 L549.142857,35 L553.589286,30.6071429 C554.181019,30.0154092 554.181019,29.0560194 553.589286,28.4642857 C552.997552,27.8725521 552.038162,27.8725521 551.446429,28.4642857 L547,32.8571429 Z" id="Delete备份"></path>
                </g>
            </g>
        </g>
    </g>
</svg>