<?xml version="1.0" encoding="UTF-8"?>
<svg width="60px" height="60px" viewBox="0 0 60 60" version="1.1" xmlns="http://www.w3.org/2000/svg" xmlns:xlink="http://www.w3.org/1999/xlink">
    <title>矩形</title>
    <g id="利活宝" stroke="none" stroke-width="1" fill="none" fill-rule="evenodd">
        <g id="利活宝持仓" transform="translate(-600, -1023)">
            <g id="编组-7" transform="translate(600, 1023)">
                <rect id="矩形" fill="#000000" fill-rule="nonzero" opacity="0" x="0" y="0" width="60" height="60"></rect>
                <path d="M35.3521729,54 L12.5,54 C10.5670034,54 9,52.0300529 9,49.6 L9,14.4 C9,11.9699471 10.5670034,10 12.5,10 L47.5,10 C49.4329966,10 51,11.9699471 51,14.4 L51,26.1728516" id="路径" stroke="#444444" stroke-width="4" stroke-linecap="round" stroke-linejoin="round"></path>
                <line x1="19" y1="23.5" x2="39" y2="23.5" id="直线-3" stroke="#444444" stroke-width="4" stroke-linecap="round" stroke-linejoin="round"></line>
                <line x1="19" y1="34.5" x2="29" y2="34.5" id="直线-3备份" stroke="#444444" stroke-width="4" stroke-linecap="round" stroke-linejoin="round"></line>
                <path d="M45.435,55.375 C45.435,56.4105339 46.2744661,57.25 47.31,57.25 C48.3455339,57.25 49.185,56.4105339 49.185,55.375 C49.185,54.3394661 48.3455339,53.5 47.31,53.5 C46.2744661,53.5 45.435,54.3394661 45.435,55.375 L45.435,55.375 Z M47.0925,33.5 C43.1754204,33.5 40,36.6754204 40,40.5925 C40,41.2828559 40.5596441,41.8425 41.25,41.8425 C41.9403559,41.8425 42.5,41.2828559 42.5,40.5925 C42.5582077,38.0978721 44.5971931,36.1059079 47.0925,36.1059079 C49.5878069,36.1059079 51.6267923,38.0978721 51.685,40.5925 C51.685,43.12875 49.62875,45.49375 47.0925,45.49375 C46.4021441,45.49375 45.8425,46.0533941 45.8425,46.74375 L45.8425,49.1975 C45.8425,49.8878559 46.4021441,50.4475 47.0925,50.4475 C47.7828559,50.4475 48.3425,49.8878559 48.3425,49.1975 L48.3425,47.88375 C51.66375,47.2925 54.185,44.0825 54.185,40.5925 C54.185,36.6754204 51.0095796,33.5 47.0925,33.5 Z" id="形状结合" stroke="#DCAD7C" stroke-width="0.8" fill="#DCAD7C" fill-rule="nonzero"></path>
            </g>
        </g>
    </g>
</svg>