<?xml version="1.0" encoding="UTF-8"?>
<svg width="32px" height="34px" viewBox="0 0 32 34" version="1.1" xmlns="http://www.w3.org/2000/svg" xmlns:xlink="http://www.w3.org/1999/xlink">
    <title>蒙版</title>
    <defs>
        <path d="M27,0 C29.7614237,-5.07265313e-16 32,2.23857625 32,5 L32,25 C32,27.7614237 29.7614237,30 27,30 L26,30 L26,34 C23.2466152,33.2929658 21.2463109,31.95985 19.999087,30.0006525 L5,30 C2.23857625,30 3.38176876e-16,27.7614237 0,25 L0,5 C-3.38176876e-16,2.23857625 2.23857625,5.07265313e-16 5,0 L27,0 Z" id="path-1"></path>
    </defs>
    <g id="页面-1" stroke="none" stroke-width="1" fill="none" fill-rule="evenodd">
        <g id="利活宝持仓备份" transform="translate(-54, -1284)">
            <g id="编组-3" transform="translate(54, 1280)">
                <g id="Q备份-13" transform="translate(0, 4)">
                    <mask id="mask-2" fill="white">
                        <use xlink:href="#path-1"></use>
                    </mask>
                    <use id="蒙版" fill="#EABF78" fill-rule="nonzero" xlink:href="#path-1"></use>
                    <g id="Q" mask="url(#mask-2)" fill="#FFFFFF" fill-rule="nonzero">
                        <g transform="translate(7.876, 6.5249)" id="形状">
                            <path d="M14.7456055,18.1147461 L12.6567383,15.0712891 C14.4086914,13.6787109 15.3745117,11.331543 15.3745117,8.37792969 C15.3745117,3.234375 12.409668,0 7.69287109,0 C2.96484375,0 0,3.234375 0,8.37792969 C0,13.5551758 2.96484375,16.7446289 7.69287109,16.7446289 C8.72607422,16.7446289 9.68066406,16.5986328 10.5454102,16.2841797 L11.8256836,18.1147461 L14.7456055,18.1147461 Z M7.69287109,14.2963867 C4.79541016,14.2963867 2.96484375,11.9941406 2.96484375,8.37792969 C2.96484375,4.76171875 4.79541016,2.44824219 7.69287109,2.44824219 C10.5791016,2.44824219 12.4208984,4.76171875 12.4208984,8.37792969 C12.4208984,10.2421875 11.8706055,11.7358398 10.9160156,12.7016602 L9.96142578,11.3989258 L7.1875,11.3989258 L9.05175781,14.0942383 C8.63623047,14.2177734 8.17578125,14.2963867 7.69287109,14.2963867 Z"></path>
                        </g>
                    </g>
                </g>
            </g>
        </g>
    </g>
</svg>