<?xml version="1.0" encoding="UTF-8"?>
<svg width="702px" height="414px" viewBox="0 0 702 414" version="1.1" xmlns="http://www.w3.org/2000/svg" xmlns:xlink="http://www.w3.org/1999/xlink">
    <title>蒙版</title>
    <defs>
        <linearGradient x1="-7.53427707%" y1="-24.6697889%" x2="89.906374%" y2="49.0960564%" id="linearGradient-1">
            <stop stop-color="#FEECDA" offset="0%"></stop>
            <stop stop-color="#FFFFFF" offset="100%"></stop>
        </linearGradient>
        <linearGradient x1="24.0729612%" y1="31.9564951%" x2="49.6876687%" y2="66.9630252%" id="linearGradient-2">
            <stop stop-color="#FFFFFF" offset="0%"></stop>
            <stop stop-color="#FFFFFF" stop-opacity="0" offset="100%"></stop>
        </linearGradient>
        <rect id="path-3" x="0" y="0" width="702" height="414" rx="12"></rect>
        <linearGradient x1="121.391059%" y1="14.345679%" x2="5.39279514%" y2="68.1698495%" id="linearGradient-5">
            <stop stop-color="#FFF2E8" offset="0%"></stop>
            <stop stop-color="#FFF2E8" stop-opacity="0" offset="100%"></stop>
        </linearGradient>
        <linearGradient x1="1.26797723e-14%" y1="16.5596852%" x2="127.715687%" y2="31.6045101%" id="linearGradient-6">
            <stop stop-color="#FFF2E8" offset="0%"></stop>
            <stop stop-color="#FFF2E8" stop-opacity="0" offset="100%"></stop>
            <stop stop-color="#FFEED5" stop-opacity="0" offset="100%"></stop>
        </linearGradient>
        <radialGradient cx="46.7425659%" cy="0%" fx="46.7425659%" fy="0%" r="50%" gradientTransform="translate(0.467426,0.000000),scale(0.185185,1.000000),rotate(90.000000),scale(1.000000,14.849489),translate(-0.467426,-0.000000)" id="radialGradient-7">
            <stop stop-color="#FFEEDE" offset="0%"></stop>
            <stop stop-color="#FFF7EF" offset="16.7175293%"></stop>
            <stop stop-color="#FFFFFF" stop-opacity="0" offset="100%"></stop>
        </radialGradient>
    </defs>
    <g id="H5" stroke="none" stroke-width="1" fill="none" fill-rule="evenodd">
        <g id="私募详情页-1" transform="translate(-24.000000, -220.000000)">
            <g id="编组-8备份-9" transform="translate(24.000000, 220.000000)">
                <mask id="mask-4" fill="white">
                    <use xlink:href="#path-3"></use>
                </mask>
                <rect stroke="url(#linearGradient-2)" stroke-width="2" x="1" y="1" width="700" height="412" rx="12"></rect>
                <g id="编组-8备份" mask="url(#mask-4)">
                    <g transform="translate(372.000000, 30.000000)" id="编组-2">
                        <path d="M105.409512,0 L254.651535,0 C259.209373,2.75844482e-14 263.521328,2.06686427 266.376052,5.61995247 L351.599542,111.692057 C356.3864,117.649947 355.943889,126.250555 350.570845,131.685706 L190.896786,293.205429 C185.057148,299.112568 175.534504,299.167287 169.627365,293.327649 C169.5946,293.295258 169.561984,293.262717 169.529517,293.230026 L9.46085583,132.05502 C4.07116086,126.628073 3.61283925,118.020337 8.39577517,112.051745 L93.6729832,5.63492264 C96.5273783,2.07294331 100.844946,1.73271447e-14 105.409512,0 Z" id="路径" fill="url(#linearGradient-5)" fill-rule="nonzero"></path>
                        <path d="M214.001785,60.7497143 L146.02109,60.7497143 C141.228295,60.7497143 136.694849,62.9263048 133.697734,66.6663831 L93.5925355,116.713376 C88.4559613,123.12327 89.0908958,132.400585 95.0528644,138.050902 L169.229964,208.350512 C175.331934,214.133511 184.894815,214.122204 190.983092,208.324792 L264.975365,137.867475 C270.919175,132.207628 271.536622,122.938138 266.396007,116.53995 L226.312528,66.6506644 C223.315068,62.9199218 218.787514,60.7497143 214.001785,60.7497143 Z" id="路径" fill="#FFFFFF" fill-rule="nonzero"></path>
                        <path d="M204.757075,87.816 C207.181604,87.816 209.47532,88.9155286 210.993783,90.8056632 L234.186678,119.675442 C234.272429,119.782181 234.355016,119.890498 234.434448,120.000275 L168,120 C166.895431,120 166,120.895431 166,122 L166,122 L166,127 C166,128.104569 166.895431,129 168,129 L168,129 L234.688135,129.000809 C234.348616,129.530377 233.941291,130.027408 233.467014,130.479069 L185.575983,176.086469 C182.491681,179.023698 177.64687,179.029433 174.555624,176.099513 L126.550848,130.600015 C123.530936,127.737706 123.209307,123.038339 125.811089,119.791276 L149.030108,90.8135969 C150.548396,88.9187503 152.845087,87.816 155.273181,87.816 L204.757075,87.816 Z" id="形状结合" fill="url(#linearGradient-6)" fill-rule="nonzero"></path>
                    </g>
                </g>
                <rect id="矩形" fill="url(#radialGradient-7)" opacity="0.697916667" style="mix-blend-mode: multiply;" mask="url(#mask-4)" x="0" y="284" width="702" height="130"></rect>
            </g>
        </g>
    </g>
</svg>