<svg width="750" height="270" viewBox="0 0 750 270" fill="none" xmlns="http://www.w3.org/2000/svg">
<rect width="750" height="270" fill="#0E123E"/>
<mask id="mask0_25_4349" style="mask-type:luminance" maskUnits="userSpaceOnUse" x="0" y="0" width="750" height="270">
<rect width="750" height="270" fill="white"/>
</mask>
<g mask="url(#mask0_25_4349)">
<path fill-rule="evenodd" clip-rule="evenodd" d="M540.41 20C535.845 20 531.527 22.0729 528.673 25.6349L443.396 132.052C438.613 138.02 439.071 146.628 444.461 152.055L604.53 313.23C610.421 319.162 620.019 319.151 625.897 313.205L785.571 151.686C790.944 146.251 791.386 137.65 786.6 131.692L701.376 25.62C698.521 22.0669 694.209 20 689.652 20H540.41ZM581.021 80.7497H649.002C653.788 80.7497 658.315 82.9199 661.313 86.6507L701.396 136.54C706.537 142.938 705.919 152.208 699.975 157.867L625.983 228.325C619.895 234.122 610.332 234.134 604.23 228.351L530.053 158.051C524.091 152.401 523.456 143.123 528.593 136.713L568.698 86.6664C571.695 82.9263 576.228 80.7497 581.021 80.7497Z" fill="url(#paint0_linear_25_4349)"/>
<path fill-rule="evenodd" clip-rule="evenodd" d="M645.994 110.806C644.475 108.915 642.182 107.816 639.757 107.816H590.273C587.845 107.816 585.549 108.919 584.03 110.814L560.811 139.791C558.209 143.038 558.531 147.738 561.551 150.6L609.556 196.099C612.647 199.029 617.492 199.024 620.576 196.086L668.467 150.479C668.942 150.027 669.349 149.53 669.689 149H603C601.896 149 601 148.104 601 147V142C601 140.895 601.896 140 603 140H669.434C669.355 139.89 669.272 139.782 669.187 139.675L645.994 110.806Z" fill="url(#paint1_linear_25_4349)"/>
</g>
<defs>
<linearGradient id="paint0_linear_25_4349" x1="732.722" y1="-152.647" x2="368.25" y2="126.067" gradientUnits="userSpaceOnUse">
<stop stop-color="#3E4B74"/>
<stop offset="1" stop-color="#283355" stop-opacity="0.01"/>
</linearGradient>
<linearGradient id="paint1_linear_25_4349" x1="524.682" y1="102.203" x2="572.155" y2="255.274" gradientUnits="userSpaceOnUse">
<stop stop-color="#3E4B74"/>
<stop offset="1" stop-color="#283355" stop-opacity="0.01"/>
<stop offset="1" stop-color="#FFEED5" stop-opacity="0.01"/>
</linearGradient>
</defs>
</svg>
