<?xml version="1.0" encoding="UTF-8"?>
<svg width="750px" height="1436px" viewBox="0 0 750 1436" version="1.1" xmlns="http://www.w3.org/2000/svg" xmlns:xlink="http://www.w3.org/1999/xlink">
    <title>蒙版</title>
    <defs>
        <linearGradient x1="37.419136%" y1="3.53956302%" x2="61.8357164%" y2="75.7355501%" id="linearGradient-1">
            <stop stop-color="#E6D9FF" offset="0%"></stop>
            <stop stop-color="#FFF6DA" offset="100%"></stop>
        </linearGradient>
        <rect id="path-2" x="0" y="0" width="750" height="1624"></rect>
        <radialGradient cx="83.7420043%" cy="76.4142457%" fx="83.7420043%" fy="76.4142457%" r="85.7101879%" gradientTransform="translate(0.837420,0.764142),rotate(48.169304),scale(1.000000,1.014278),translate(-0.837420,-0.764142)" id="radialGradient-4">
            <stop stop-color="#FFFFFF" stop-opacity="0.719760708" offset="0%"></stop>
            <stop stop-color="#FFFFFF" stop-opacity="0" offset="100%"></stop>
        </radialGradient>
        <linearGradient x1="-12.8897053%" y1="118.011938%" x2="61.2410262%" y2="1.33226763e-13%" id="linearGradient-5">
            <stop stop-color="#FF8C8C" offset="0%"></stop>
            <stop stop-color="#FF8585" stop-opacity="0" offset="100%"></stop>
        </linearGradient>
        <linearGradient x1="26.8301944%" y1="-19.2037515%" x2="96.1250759%" y2="53.8787211%" id="linearGradient-6">
            <stop stop-color="#85A9FF" offset="0%"></stop>
            <stop stop-color="#85A8FF" stop-opacity="0" offset="100%"></stop>
        </linearGradient>
        <linearGradient x1="42.3319318%" y1="-17.8176568%" x2="65.6751559%" y2="114.360045%" id="linearGradient-7">
            <stop stop-color="#FFFFFF" stop-opacity="0" offset="0%"></stop>
            <stop stop-color="#FFFFFF" offset="50.3952317%"></stop>
            <stop stop-color="#FFFFFF" stop-opacity="0" offset="100%"></stop>
        </linearGradient>
    </defs>
    <g id="年报" stroke="none" stroke-width="1" fill="none" fill-rule="evenodd">
        <g id="底图" transform="translate(0.000000, -188.000000)">
            <mask id="mask-3" fill="white">
                <use xlink:href="#path-2"></use>
            </mask>
            <use id="蒙版" fill="url(#linearGradient-1)" xlink:href="#path-2"></use>
            <circle id="椭圆形备份-3" fill="url(#radialGradient-4)" mask="url(#mask-3)" cx="253" cy="510" r="469"></circle>
            <polygon id="多边形" fill="url(#linearGradient-5)" opacity="0.27608817" mask="url(#mask-3)" points="671 610 927.34352 758 927.34352 1054 671 1202 414.65648 1054 414.65648 758"></polygon>
            <circle id="椭圆形" fill="url(#linearGradient-6)" opacity="0.235560826" mask="url(#mask-3)" cx="42.5" cy="1664.5" r="411.5"></circle>
            <path d="M367,128 C184.989583,338 57.3229167,458 -16,488 C-125.984375,533 -35.9,408.917602 139,333.958801 C313.9,259 318.539831,321.27783 235,441 C151.460169,560.72217 58.671875,674 71.2109375,745 C83.75,816 258,762.730544 348,701 C438,639.269456 653.705521,458 681.705521,633 C709.705521,808 546.515625,1058.14062 359,1150 C171.484375,1241.85937 57.296875,1211 120.070313,1187 C182.84375,1163 479,1011 565.96875,1061 C652.9375,1111 590.367188,1162 641.367188,1222 C692.367188,1282 814,1237 814,1322 C814,1407 680.515625,1622.1875 389,1643" id="路径-14" stroke="url(#linearGradient-7)" stroke-width="2" stroke-linecap="round" stroke-linejoin="round" mask="url(#mask-3)"></path>
        </g>
    </g>
</svg>