<?xml version="1.0" encoding="UTF-8"?>
<svg width="456px" height="480px" viewBox="0 0 456 480" version="1.1" xmlns="http://www.w3.org/2000/svg" xmlns:xlink="http://www.w3.org/1999/xlink">
    <title>编组</title>
    <defs>
        <linearGradient x1="19.6795343%" y1="11.3877119%" x2="77.2228133%" y2="114.080155%" id="linearGradient-1">
            <stop stop-color="#FFF8F0" offset="0%"></stop>
            <stop stop-color="#FFDCB2" offset="100%"></stop>
        </linearGradient>
        <path d="M13.7790805,115.315476 C13.7790805,115.315476 34.7567249,76.5080556 29.4256293,26.9567149 C24.0945338,-22.5946259 8.45112397,6.85897515 3.3222509,30.672529 C-1.80662217,54.4860828 0.486015373,118.026085 0.659384335,122.083675 C0.832753297,126.141264 13.7790805,115.315476 13.7790805,115.315476 Z" id="path-2"></path>
        <path d="M51.9521281,134.853105 C52.8548183,68.9465585 45.3918703,27.1940228 29.5632841,9.59549821 C5.82040473,-16.8022886 -3.83624645,16.1634399 1.37349085,49.298844 C4.84664906,71.3891135 15.7428883,103.452531 34.0622086,145.489098 L51.9521281,134.853105 Z" id="path-4"></path>
        <path d="M74.8108978,97.8080783 C73.5117326,100.906851 69.1717296,108.38915 61.7908888,120.254976 C36.9384233,90.3502672 19.8133247,64.3331464 10.4155927,42.2036139 C-2.77776669,11.1362376 -7.19663589,-12.5596726 20.0112958,7.29039275 C47.2192275,27.1404581 68.2385036,75.2151597 74.8108978,97.8080783 Z" id="path-6"></path>
        <path d="M0.17900664,70.8467939 C26.5484257,30.7229984 49.7740877,7.38970472 69.8559924,0.846912885 C99.9788496,-8.96727486 41.1720977,69.4655098 19.6483411,83.6422379 C5.29916998,93.09339 -1.19060816,88.8282419 0.17900664,70.8467939 Z" id="path-8"></path>
        <path d="M73.1826059,0.270772221 C71.4154963,5.18260913 72.5686584,13.0326776 76.6420924,23.8209777 C82.7522433,40.0034279 96.8038082,43.4254523 105.944873,65.9643394 C112.038916,80.9902641 108.485958,95.8310139 95.2859979,110.486589 L0,110.486589 L0,0 L73.1826059,0.270772221 Z" id="path-10"></path>
    </defs>
    <g id="页面-1" stroke="none" stroke-width="1" fill="none" fill-rule="evenodd">
        <g id="1" transform="translate(-214, -922)">
            <g id="编组" transform="translate(214, 922)">
                <rect id="矩形" fill="url(#linearGradient-1)" x="102" y="0" width="354" height="479.757488" rx="12"></rect>
                <g id="编组-13" transform="translate(0, 128.2024)">
                    <g id="编组-10" transform="translate(285.975, 65.6129)">
                        <g id="路径-10" transform="translate(81.8101, 12.7694)">
                            <mask id="mask-3" fill="white">
                                <use xlink:href="#path-2"></use>
                            </mask>
                            <use id="蒙版" fill="#05A3A0" fill-rule="nonzero" xlink:href="#path-2"></use>
                            <path d="M32.4160522,19.5119935 C28.7130725,57.9750751 36.0666651,-9.97272732 20.2305053,69.7710349 C18.396404,79.0067424 18.8476928,88.5532944 18.1562866,97.9444241" id="路径-22" stroke="#007E7C" stroke-width="0.6" mask="url(#mask-3)"></path>
                            <path d="M23.1133178,1.52460894 C24.892873,34.1598702 20.0420508,62.6030004 19.7734741,95.4835073" id="路径-23" stroke="#007E7C" stroke-width="0.6" mask="url(#mask-3)"></path>
                            <path d="M12.349646,2.38338673 C18.2407539,39.2987273 10.3435789,-14.3087066 15.4492553,62.0361661 C19.7798614,126.791459 22.3652622,91.6612468 20.2344116,116.377825" id="路径-24" stroke="#007E7C" stroke-width="0.6" mask="url(#mask-3)"></path>
                            <path d="M5.37894283,16.5698482 C10.8303151,37.1282315 13.9464421,58.232362 9.09964595,79.4777671" id="路径-25" stroke="#007E7C" stroke-width="0.6" mask="url(#mask-3)"></path>
                            <path d="M35.0768444,45.8917312 C28.6372279,64.5734915 23.6099468,76.784783 19.995001,82.5256058 C14.5725823,91.1368399 13.3510554,94.4520182 13.3510554,79.4777671 C13.3510554,64.5035161 4.51875738,27.5537936 -2.48043217,22.0276286 C-9.47962173,16.5014636 -7.05472408,101.581275 -1,116.698262 C5.05472408,131.815248 34.0781616,92.1237813 40.146521,81.6506258 C44.1920939,74.6685222 42.5022017,62.7488907 35.0768444,45.8917312 Z" fill="#097674" fill-rule="nonzero" mask="url(#mask-3)"></path>
                        </g>
                        <g id="路径-11" transform="translate(39.2751, 0)">
                            <mask id="mask-5" fill="white">
                                <use xlink:href="#path-4"></use>
                            </mask>
                            <use id="蒙版" fill="#3A88C0" fill-rule="nonzero" xlink:href="#path-4"></use>
                            <path d="M29.9901491,3.61311318 C40.6102704,51.3716637 45.1308914,101.406144 52.1229616,149.550565" id="路径-26" stroke="#2B6997" stroke-width="0.6" stroke-linecap="round" stroke-linejoin="round" mask="url(#mask-5)"></path>
                            <path d="M9.12686781,-10.0979884 C88.9633594,253.759118 -43.6299651,-191.216403 35.7304737,100.416086 C39.6408354,114.785822 46.6614028,128.233617 52.1268678,142.142384" id="路径-27" stroke="#2B6997" stroke-width="0.6" stroke-linecap="round" stroke-linejoin="round" mask="url(#mask-5)"></path>
                            <path d="M5.17374281,9.7595365 C13.680827,50.8971683 30.4338996,89.6877174 30.0448366,132.453257" id="路径-28" stroke="#2B6997" stroke-width="0.6" stroke-linecap="round" stroke-linejoin="round" mask="url(#mask-5)"></path>
                            <path d="M-13.2637572,16.4654369 C21.7067139,94.4606194 9.61221856,63.2342196 26.4549928,108.736123" id="路径-29" stroke="#115483" stroke-width="0.6" stroke-linecap="round" stroke-linejoin="round" mask="url(#mask-5)"></path>
                            <path d="M52.9930735,99.9787687 C48.6305126,107.517358 45.7968659,111.874873 44.4921333,113.051313 C42.5350344,114.815972 33.6649537,121.846954 33.6649537,124.536461 C33.6649537,127.225967 26.0657136,94.645527 14.1483522,80.7877706 C6.20344458,71.5492663 -3.59603459,67.0568754 -15.2500853,67.3105979 C2.00772718,103.310678 10.6366334,121.310718 10.6366334,121.310718 C10.6366334,121.310718 21.4940553,148.862481 21.4940553,148.862481 C21.4940553,148.862481 47.8573366,150.663091 47.8573366,150.623548 C47.8573366,150.582679 69.2779969,146.789888 69.2779969,146.139493 C69.2779969,145.705896 63.8496891,130.318988 52.9930735,99.9787687 Z" fill="#2B6997" mask="url(#mask-5)"></path>
                        </g>
                        <g id="路径-12" transform="translate(0, 47.5249)">
                            <mask id="mask-7" fill="white">
                                <use xlink:href="#path-6"></use>
                            </mask>
                            <use id="蒙版" fill="#05A3A0" fill-rule="nonzero" xlink:href="#path-6"></use>
                            <path d="M23.3862958,5.87969499 C46.9140691,39.8397782 63.6207178,74.2260633 80.3296552,112.031673" id="路径-30" stroke="#007E7C" stroke-width="0.6" stroke-linecap="round" mask="url(#mask-7)"></path>
                            <path d="M-8.29925107,-6.92567964 C30.4302269,30.1380928 56.366528,73.1609396 86.5855146,117.849453" id="路径-31" stroke="#007E7C" stroke-width="0.6" stroke-linecap="round" mask="url(#mask-7)"></path>
                            <path d="M-4.94378232,9.70213648 C64.72352,86.962727 33.7697491,49.0025524 89.1421552,122.569796" id="路径-32" stroke="#007E7C" stroke-width="0.6" stroke-linecap="round" mask="url(#mask-7)"></path>
                            <path d="M-5.15471982,43.601363 C31.903955,66.7003426 62.1200865,96.9974749 96.7398114,122.95517" id="路径-33" stroke="#007E7C" stroke-width="0.6" stroke-linecap="round" mask="url(#mask-7)"></path>
                            <path d="M28.1714521,90.5250601 C43.9618176,96.6440968 59.7521803,102.763132 75.5425458,108.882169" id="路径-34" stroke="#007E7C" stroke-width="0.6" stroke-linecap="round" mask="url(#mask-7)"></path>
                            <path d="M67.5249677,78.0707481 C68.7775461,82.7507203 68.0317714,86.1398837 65.2876437,88.2382385 C62.5435159,90.3365934 57.4142906,96.8450014 49.8999677,107.763463 C51.7433629,134.323562 60.0470063,145.719106 74.8108978,141.950097 C96.9567351,136.296584 92.2681265,91.2643647 92.2681265,89.7513016 C92.2681265,88.7425929 84.0204069,84.8490751 67.5249677,78.0707481 Z" fill="#097674" fill-rule="nonzero" mask="url(#mask-7)"></path>
                        </g>
                        <g id="路径-18" transform="translate(57.0263, 86.0025)">
                            <mask id="mask-9" fill="white">
                                <use xlink:href="#path-8"></use>
                            </mask>
                            <use id="蒙版" fill="#3A88C0" fill-rule="nonzero" xlink:href="#path-8"></use>
                            <path d="M78.2697393,15.44612 C58.7557095,29.7940161 45.9759504,41.7365374 39.930462,51.273684 C33.8849736,60.8108305 28.836091,67.3352005 24.7838143,70.8467939 L55.0771097,69.2858451 L78.2697393,15.44612 Z" fill="#2B6997" fill-rule="nonzero" mask="url(#mask-9)"></path>
                            <path d="M73.582679,12.9847899 C48.708851,30.1065559 36.5605182,48.9493026 20.2975227,74.5429214" id="路径-13" stroke="#2B6997" stroke-width="0.6" stroke-linecap="round" stroke-linejoin="round" mask="url(#mask-9)"></path>
                            <path d="M78.9967415,3.0824364 C41.0565458,33.2462815 31.3821743,41.6587911 7.61881179,82.0821689" id="路径-20" stroke="#2B6997" stroke-width="0.6" stroke-linecap="round" stroke-linejoin="round" mask="url(#mask-9)"></path>
                            <path d="M60.7281868,3.95784201 C40.2253672,27.1328704 20.320528,46.3188408 8.24478836,74.6779002" id="路径-21" stroke="#2B6997" stroke-width="0.6" stroke-linecap="round" stroke-linejoin="round" mask="url(#mask-9)"></path>
                        </g>
                        <g id="路径-19" transform="translate(29.3511, 152.2298)">
                            <mask id="mask-11" fill="white">
                                <use xlink:href="#path-10"></use>
                            </mask>
                            <use id="蒙版" fill="#FAFF9B" fill-rule="nonzero" xlink:href="#path-10"></use>
                            <path d="M76.6738281,4.61957332 C65.7175842,9.11067349 61.3056814,16.9156835 63.4381196,28.0346034 C66.6367769,44.7129832 102.772639,51.6288646 112.454679,67.2671777 C118.909372,77.6927197 106.982422,56.8101849 76.6738281,4.61957332 Z" fill="#FFE04A" fill-rule="nonzero" mask="url(#mask-11)"></path>
                        </g>
                        <rect id="矩形" fill="#FFE04A" fill-rule="nonzero" x="29.0249677" y="149.996581" width="77" height="5.00790697"></rect>
                        <rect id="矩形备份-11" fill="#FFE04A" fill-rule="nonzero" x="24.0249677" y="262.173698" width="105" height="5.00790697"></rect>
                    </g>
                    <g id="编组-11" transform="translate(179, 25.309)">
                        <rect id="矩形" fill="#FF8888" fill-rule="nonzero" x="0" y="0" width="168" height="318.502883" rx="28"></rect>
                        <rect id="矩形" fill="#FFF5F6" fill-rule="nonzero" x="9" y="18.0284651" width="150" height="288.455442" rx="19"></rect>
                        <rect id="矩形" fill="#E2D6D6" fill-rule="nonzero" x="37" y="214.338418" width="94" height="42.0664186" rx="21.0332093"></rect>
                        <polyline id="路径-3" stroke="#FFFFFF" stroke-width="5" stroke-linecap="round" stroke-linejoin="round" points="76 236.593154 81.9270345 243.114792 94 229.092652"></polyline>
                    </g>
                    <g id="编组-12">
                        <path d="M47.6835937,312.515622 C52.5494826,316.285024 56.9502418,318.668691 61.59653,321.543109 L56.9502418,327.986359 C52.6102388,325.511966 48.1084248,323.711093 43.4447997,322.583741 C43.6470635,321.866861 46.9092124,314.411886 47.6835937,312.515622 Z" id="路径" fill="#FFD0C0" fill-rule="nonzero"></path>
                        <path d="M129.123741,153.298846 C129.811438,157.47872 130.528029,160.366475 131.273516,161.962112 C132.215487,163.962439 133.033211,166.011907 133.726687,168.110516 C133.76136,168.226141 133.755581,168.335986 133.70935,168.440049 C133.674676,168.509425 133.637113,168.581691 133.59666,168.656848 L132.027671,167.806998 L113.451187,159.421234 L129.123741,153.298846 Z" id="路径" fill="#FF5454" fill-rule="nonzero"></path>
                        <path d="M231.140869,44.5068136 L234.41938,51.912794 C235.301237,52.392277 234.47461,54.6362398 234.332695,55.6268119 L233.847262,59.0001956 C233.827105,59.1443589 233.894688,59.2866841 234.019126,59.3621316 C234.143564,59.4375791 234.300957,59.4316576 234.41938,59.3470731 C235.349793,58.711131 236.309101,58.066517 237.297304,57.413231 C239.44708,55.9997052 243.399892,55.2279027 244.882197,57.9595631 C246.624555,61.1941959 242.923127,64.8450816 239.906507,65.1225836 C239.541045,65.1583733 239.225557,65.3939396 239.087299,65.7342636 C238.949041,66.0745876 239.010816,66.4635418 239.247705,66.744236 C241.183659,68.9931585 243.501024,70.2939491 246.199801,70.6466079 L246.199801,72.7018572 L229.903118,77.5581423 C229.232758,75.927818 228.900468,74.5085109 228.906247,73.3002209 C228.912026,72.5775594 228.588404,72.3665422 227.935381,72.6671694 C225.551557,73.7424897 222.899012,72.9620153 222.318226,70.2823866 C221.73744,67.6027578 221.815456,64.8277378 221.858798,62.1394371 C221.884804,60.9166939 221.269344,60.0841878 220.22913,59.5551996 C219.876498,59.3802772 219.622839,59.0540413 219.540138,58.6690705 C219.457436,58.2840997 219.554718,57.8824121 219.804376,57.5779979 C220.885043,56.2483007 222.144857,55.2510279 223.58382,54.5861794 C223.456682,55.4071228 224.009604,45.4229691 224.575943,45.8218782 C224.610617,47.0821998 232.227315,48.9237205 231.140869,44.5068136 Z" id="路径" fill="#FFD0C0" fill-rule="nonzero"></path>
                        <path d="M225.22583,51.0219856 C225.22583,51.0219856 227.897175,51.2384669 228.800537,54.0589279 C229.7039,56.8793889 227.10321,59.3684436 225.22583,58.6722457 C223.348451,57.9760479 223.265564,55.5407178 223.550384,53.309775 C223.835205,51.0788323 225.22583,51.0219856 225.22583,51.0219856 Z" id="路径-35" fill="#FFFFFF"></path>
                        <path d="M120.056544,32.8976632 C120.154786,31.9090623 120.371498,30.8799924 120.706678,29.8104534 C121.099647,28.5674757 121.336585,27.552859 121.41749,26.7666033 C121.804681,23.0145449 121.954934,19.3607685 121.86825,15.805274 C121.686212,8.16529694 117.325983,-0.497968803 108.371476,0.0223474577 C103.066386,0.334537214 97.84798,1.61798399 93.0456597,4.38433211 C85.8450688,8.52951832 80.1498984,12.3972025 75.9601485,15.9873847 C69.874898,21.2021099 63.9110057,27.0180895 58.0684716,33.4353233 C53.1881354,38.7945808 48.6458686,44.9343127 44.0602595,50.6664635 C42.1185271,53.103278 40.7922546,55.9476736 38.8678591,58.5752707 C28.3328052,72.9706872 20.0688847,88.3951737 14.0760976,104.84873 C10.2186382,115.445838 7.60076683,124.958954 8.08619993,136.050362 C8.2248951,139.21851 8.96460267,142.204547 10.3053226,145.008474 C12.073686,148.691156 14.8764843,150.795547 18.7137173,151.321644 C22.094412,151.789929 24.9983422,151.7061 27.4255076,151.070158 C32.5803448,149.717336 37.8478717,147.214036 43.2280885,143.56026" id="路径" stroke="#FCCDA5" stroke-width="0.86684481"></path>
                        <line x1="221.390702" y1="172.403125" x2="219.301606" y2="171.241085" id="路径" stroke="#5F7376" stroke-width="0.86684481"></line>
                        <path d="M219.301606,171.241085 C219.353617,171.212179 219.425854,171.194835 219.518317,171.189053 C219.905508,171.154366 219.905508,171.119678 219.518317,171.08499 C219.437412,171.073428 219.376733,171.024287 219.33628,170.937567 C219.238038,170.752566 219.28138,170.610924 219.466307,170.512642 C226.210359,166.835741 230.752626,161.875392 231.68015,153.81049 C231.824624,152.561731 232.480537,152.165713 233.647888,152.622435 C236.028822,153.564785 238.623577,154.03307 241.432154,154.027289 C241.628639,154.021507 241.709545,153.926116 241.674871,153.741115 L241.640197,153.506972 C241.605523,153.298846 241.484165,153.191892 241.276122,153.186111 C238.351966,153.070485 235.540499,152.553059 232.841722,151.633834 C232.435685,151.496246 232.167915,151.108528 232.18292,150.679921 C232.385184,146.0202 233.153786,141.435635 234.488727,136.926228 C235.624294,133.084559 237.869422,129.841255 238.909636,125.895523 C238.946856,125.750542 238.903397,125.596733 238.795818,125.492698 C238.688239,125.388663 238.533107,125.350424 238.389529,125.392551 C238.031233,125.502395 237.719169,125.70185 237.453337,125.990914 C234.708328,128.974061 231.922867,131.919629 229.096953,134.827619 C221.286681,142.857833 214.14388,150.749296 206.749693,158.788183 C205.287615,160.378038 203.880437,162.04594 202.528159,163.791891" id="路径" stroke="#01888B" stroke-width="0.86684481"></path>
                        <line x1="137.540804" y1="177.450192" x2="133.59666" y2="168.656848" id="路径" stroke="#79A267" stroke-width="0.86684481"></line>
                        <path d="M129.123741,153.298846 C127.794579,149.587257 126.921955,145.864105 126.505869,142.12939" id="路径" stroke="#7CAB9D" stroke-width="0.86684481"></path>
                        <path d="M166.510757,124.768171 C169.868336,124.375043 172.740482,123.412458 175.127195,121.880416" id="路径" stroke="#3B8198" stroke-width="0.86684481"></path>
                        <path d="M228.117418,50.4496651 C227.168258,50.1039332 226.454556,49.8831266 225.976311,49.7872455 C225.498067,49.6913644 224.784365,49.625997 223.835205,49.5911432" id="路径" stroke="#493D3D" stroke-width="1.866845" stroke-linecap="round"></path>
                        <path d="M231.203385,328.758161 C231.278512,328.347689 231.243838,328.026828 231.099364,327.795576 C230.925995,327.506511 230.694837,327.448699 230.405888,327.622137 L229.868444,327.951671" id="路径" stroke="#592B8F" stroke-width="0.86684481"></path>
                        <line x1="219.821713" y1="302.881099" x2="218.590793" y2="306.774799" id="路径" stroke="#8F8E6E" stroke-width="0.86684481"></line>
                        <path d="M175.127195,121.880416 C174.358592,121.076816 174.026302,120.385952 174.130323,119.807823" id="路径" stroke="#3C6F8C" stroke-width="0.86684481"></path>
                        <path d="M166.510757,124.768171 C166.296936,125.045673 166.028214,125.117939 165.704592,124.984969 C165.553338,124.923365 165.384546,124.917225 165.227827,124.967626 C159.131019,126.985296 152.990868,128.916248 146.807375,130.76048 C146.001209,131.003294 145.359744,131.619002 144.501568,131.627674 C143.912113,131.639236 143.331327,131.7433 142.75921,131.939863 C137.893321,133.599094 132.882958,134.885432 127.728121,135.798876 C126.986027,135.930142 126.447277,136.575435 126.453799,137.325137 L126.505869,142.12939" id="路径" stroke="#1C7881" stroke-width="0.86684481"></path>
                        <path d="M126.505869,142.12939 L106.663792,144.45347 C106.443027,144.478102 106.242875,144.594712 106.112517,144.774646 C105.982159,144.954579 105.933677,145.181159 105.978984,145.398711 C106.233259,146.69372 106.863166,147.659196 107.868706,148.295138" id="路径" stroke="#988A88" stroke-width="0.86684481"></path>
                        <line x1="219.301606" y1="171.241085" x2="206.463635" y2="165.482918" id="路径" stroke="#5F616A" stroke-width="0.86684481"></line>
                        <path d="M206.463635,165.482918 C205.804833,164.656194 204.493007,164.092518 202.528159,163.791891" id="路径" stroke="#167492" stroke-width="0.86684481"></path>
                        <path d="M107.868706,148.295138 C109.388574,148.873267 110.9749,149.107409 112.627684,148.997565 C112.916632,148.980221 113.188244,149.038034 113.442518,149.171004 C114.916154,149.91679 116.762534,149.075612 118.34886,149.058268 C118.360418,149.058268 118.360418,149.058268 118.34886,149.058268 C116.846329,149.676867 115.254224,149.951478 113.572545,149.882103 C113.283597,149.87054 113.026433,149.948587 112.801053,150.116245 C109.663075,152.399855 106.302606,154.16893 102.719648,155.423471" id="路径" stroke="#8C817C" stroke-width="0.86684481"></path>
                        <path d="M36.5707204,329.148398 C37.0619324,329.321837 37.3162069,329.174414 37.3335438,328.706129" id="路径" stroke="#A96931" stroke-width="0.86684481"></path>
                        <path d="M120.056544,32.8976632 C116.606502,45.870882 111.549907,58.491442 104.88676,70.7593431 C91.7193872,95.0147528 74.8245818,117.579135 54.0463117,135.451998 C52.4282014,136.84529 48.822127,139.548043 43.2280885,143.56026" id="路径" stroke="#8C817C" stroke-width="0.86684481"></path>
                        <path d="M58.5712416,120.050637 C58.7157158,120.235638 58.837074,120.276107 58.9353165,120.172044 C67.5864277,111.130104 75.4920523,101.481128 82.6521904,91.2251161 C83.727078,89.6930737 84.9377713,87.61759 86.2842702,84.9986648" id="路径" stroke="#F9D6CA" stroke-width="0.86684481"></path>
                        <path d="M86.2842702,84.9986648 C88.1913288,83.1313076 90.1272822,80.5383982 92.0921304,77.2199367 C96.2414276,70.2014485 99.0471153,65.2815692 100.509194,62.4602988 C100.75191,61.9977954 100.841484,61.1941959 100.777915,60.0495001" id="路径" stroke="#EDCABD" stroke-width="0.86684481"></path>
                        <path d="M100.777915,60.0495001 C101.19978,60.1593446 101.520512,60.0032498 101.740113,59.5812155 C104.912765,53.5397655 107.868706,46.4865896 110.607936,38.4216875 C113.061106,31.1979634 115.843678,20.1499148 112.679695,13.4291631 C107.331262,2.02556506 89.569612,14.9987838 83.9697946,19.568895 C77.4569006,24.8876834 71.3167498,30.7961636 65.5493424,37.2943356 C53.7255792,50.6086506 43.1558514,65.3625072 33.8401592,81.5559055 C27.9340566,91.8234798 23.2126419,102.013007 19.675915,112.124486 C17.3007603,118.914613 15.2636749,127.152954 16.095846,134.333318 C16.9626908,141.8172 22.3804708,144.219327 28.9078123,142.155406 C34.6463249,140.342971 39.9427467,136.978259 44.6930562,133.205966 C49.7669879,129.182187 54.3439284,125.028329 58.423878,120.744392 C58.5336784,120.634547 58.5827996,120.403296 58.5712416,120.050637" id="路径" stroke="#DB857D" stroke-width="0.86684481"></path>
                        <path d="M100.777915,60.0495001 C96.6575131,58.3613629 92.6469111,57.4247936 88.7461095,57.2397923" id="路径" stroke="#D09196" stroke-width="0.86684481"></path>
                        <path d="M88.7461095,57.2397923 C86.9199564,57.1588542 85.3885306,57.1733074 84.151832,57.283152 C72.6343539,58.3064406 63.5613783,63.0008496 56.9329049,71.3663788 C45.308516,86.0392973 46.23604,106.32296 58.5712416,120.050637" id="路径" stroke="#DB9EA3" stroke-width="0.86684481"></path>
                        <path d="M88.7461095,57.2397923 C89.4222484,61.8359193 89.5176013,66.4204836 89.0321682,70.9934854 C88.8819151,72.4099019 88.4282664,74.7455438 87.6712219,78.0004111 C87.145336,80.2608962 86.6830188,82.5936474 86.2842702,84.9986648" id="路径" stroke="#EEE3E3" stroke-width="0.86684481"></path>
                        <path d="M246.987329,83.3999064 C246.976857,83.3646241 246.776934,83.3877739 246.431553,83.4642617 C246.086172,83.5407494 245.623633,83.6643077 245.145717,83.8077476 C244.667729,83.9512084 244.213529,84.1028007 243.883092,84.2291571 C243.552655,84.3555136 243.373067,84.4462774 243.383855,84.4814704 C243.394327,84.5167527 243.59425,84.4936029 243.939631,84.4171151 C244.285013,84.3406274 244.747552,84.2170691 245.225467,84.0736292 C245.703456,83.9301684 246.157656,83.7785762 246.488093,83.6522197 C246.818529,83.5258632 246.998118,83.4350994 246.987329,83.3999064" id="路径" stroke="#106F75" stroke-width="0.86684481"></path>
                        <path d="M236.369781,89.013772 C237.207731,89.9908103 238.008117,90.996755 238.770941,92.0316063 C238.817172,92.0952005 238.872073,92.1038724 238.935641,92.0576221 L238.94431,92.0489501 C239.030994,91.9853559 239.042552,91.9101991 238.978983,91.8234798 C238.175707,90.7134717 237.389768,89.658386 236.621166,88.6582225 C236.612602,88.645836 236.599095,88.6377689 236.584132,88.6361058 C236.56917,88.6344427 236.554222,88.6393466 236.543149,88.6495506 L236.387117,88.7969735 C236.306212,88.8605677 236.300433,88.9328339 236.369781,89.013772" id="路径" stroke="#106F75" stroke-width="0.86684481"></path>
                        <path d="M246.832597,105.993426 C246.797924,106.068583 246.766139,106.14374 246.737244,106.218896 C246.673676,106.392335 246.676565,106.562883 246.745913,106.730541 C247.913264,109.72525 248.913025,112.771991 249.745196,115.870763 C249.768312,115.957482 249.823212,115.989279 249.909896,115.966154 L249.918565,115.966154 C250.005249,115.94881 250.039923,115.896779 250.022586,115.810059 C249.300216,112.433785 248.236886,109.161574 246.832597,105.993426" id="路径" stroke="#01888B" stroke-width="0.86684481"></path>
                        <path d="M246.832597,105.993426 C246.81526,105.629205 246.673676,105.25053 246.407843,104.857402 C246.194022,104.527868 246.003316,104.186772 245.835726,103.834113 C244.390985,100.752685 242.769985,97.7753197 240.972726,94.9020176 C240.903379,94.7863918 240.810915,94.7661573 240.695336,94.8413141 L240.695336,94.8413141 C240.602873,94.899127 240.585536,94.9713931 240.643325,95.0581125 C242.689079,98.4806373 244.555685,102.001444 246.243143,105.620533 C246.404954,105.961629 246.601439,106.085927 246.832597,105.993426" id="路径" stroke="#01888B" stroke-width="0.86684481"></path>
                        <path d="M204.452555,119.027348 L210.971228,114.11036 C210.976015,114.11036 210.979896,114.106477 210.979896,114.101688 L210.910548,114.014968 C210.795332,113.862505 210.642178,113.782067 210.563811,113.832858 L204.305191,118.550392 C204.265787,118.575928 204.250925,118.631821 204.263989,118.705336 C204.277053,118.778852 204.316931,118.863729 204.374539,118.940629 L204.443886,119.027348 C204.446568,119.028897 204.449873,119.028897 204.452555,119.027348" id="路径" stroke="#01888B" stroke-width="0.86684481"></path>
                        <path d="M200.404389,121.871744 C199.589555,122.045183 198.896079,122.43831 198.323962,123.051127 C198.087024,123.299723 198.133256,123.371989 198.462657,123.267926 C199.248596,123.013549 199.89584,122.548155 200.404389,121.871744" id="路径" stroke="#01888B" stroke-width="0.86684481"></path>
                        <path d="M200.404389,121.871744 C201.340582,121.553773 202.117853,121.019003 202.736202,120.267435 C202.955803,120.001496 202.906681,119.92923 202.588838,120.050637 C201.698878,120.403296 200.970728,121.010331 200.404389,121.871744" id="路径" stroke="#01888B" stroke-width="0.86684481"></path>
                        <path d="M251.513559,129.182187 C251.626249,127.118266 251.756276,124.282543 251.0628,122.235965 C250.987674,122.016276 250.958779,122.022057 250.976116,122.253309 L251.426875,129.182187 C251.426875,129.206134 251.44628,129.225547 251.470217,129.225547 C251.494154,129.225547 251.513559,129.206134 251.513559,129.182187" id="路径" stroke="#106F75" stroke-width="0.86684481"></path>
                        <path d="M144.614257,141.019382 C143.839876,138.400457 143.87166,135.738172 144.70961,133.032528 C144.7674,132.841745 144.700942,132.717447 144.510236,132.659634 L144.258851,132.581587 C144.143272,132.546899 144.068145,132.587368 144.033471,132.702994 C143.279316,135.573405 143.227306,138.617255 143.998798,141.461651 C144.09704,141.825872 143.961234,142.042671 143.591381,142.112046 L136.517927,143.395493 C136.367674,143.418618 136.304105,143.505338 136.327221,143.655651 L136.361895,143.915809 C136.373453,144.00831 136.425463,144.048779 136.517927,144.037217 C138.95665,143.834871 141.340474,143.360805 143.669397,142.615019 C144.056587,142.48783 144.325309,142.612128 144.475562,142.987912 C148.243448,152.388293 153.268258,161.14695 159.549994,169.263883 C159.636678,169.367947 159.732031,169.3824 159.836052,169.307243 L159.844721,169.298571 C159.954521,169.217633 159.968968,169.122242 159.888063,169.012397 C157.790299,166.011907 155.744545,162.968057 153.750802,159.880847 C150.179401,154.359713 147.341929,148.748969 145.238386,143.048616 C145.173924,142.873909 145.188506,142.679806 145.278344,142.5167 C145.368183,142.353595 145.524416,142.237576 145.706482,142.198766 C153.750802,140.441253 161.919369,138.342644 170.212185,135.902939 C175.124305,134.451835 179.886173,132.81862 184.497787,131.003294 C187.705113,129.737191 190.973118,128.046163 193.989738,126.051618 C194.111096,125.97068 194.131322,125.872398 194.050417,125.756772 L194.041748,125.7481 C193.989738,125.672943 193.92039,125.65849 193.833706,125.70474 C192.41208,126.502559 191.051134,127.248345 189.750867,127.9421 C188.369694,128.682106 186.855605,129.381642 185.2086,130.040709 C172.477539,135.128246 159.162803,138.920773 145.264391,141.418291 C144.929211,141.481886 144.7125,141.348916 144.614257,141.019382" id="路径" stroke="#01888B" stroke-width="0.86684481"></path>
                        <path d="M249.571827,145.771604 C247.757232,152.194619 245.769268,157.923879 243.607935,162.959385 C241.816455,167.127696 239.89206,171.362492 237.834748,175.663773 C237.753843,175.831431 237.800074,175.955729 237.973443,176.036667 L238.172818,176.123386 C238.187473,176.131276 238.205665,176.12753 238.21616,176.114714 C239.897839,172.327968 241.628639,168.518097 243.40856,164.6851 C246.194022,158.672557 248.387139,152.399855 249.987912,145.866995 C249.99947,145.809182 249.979244,145.774495 249.927233,145.762932 L249.710522,145.693557 C249.641175,145.676213 249.594943,145.702229 249.571827,145.771604" id="路径" stroke="#01888B" stroke-width="0.86684481"></path>
                        <path d="M162.723946,173.037217 C162.822482,172.961152 162.447791,172.308992 161.887007,171.580505 C161.617682,171.230636 161.340572,170.909588 161.116639,170.687987 C160.892706,170.466387 160.740292,170.362387 160.692928,170.398866 C160.594392,170.474931 160.969083,171.127091 161.529867,171.855579 C161.799192,172.205447 162.076302,172.526495 162.300235,172.748096 C162.524169,172.969696 162.676582,173.073696 162.723946,173.037217" id="路径" stroke="#01888B" stroke-width="0.86684481"></path>
                        <path d="M120.056544,32.8976632 C116.606502,45.870882 111.549907,58.491442 104.88676,70.7593431 C91.7193872,95.0147528 74.8245818,117.579135 54.0463117,135.451998 C52.4282014,136.84529 48.822127,139.548043 43.2280885,143.56026 C37.8478717,147.214036 32.5803448,149.717336 27.4255076,151.070158 C24.9983422,151.7061 22.094412,151.789929 18.7137173,151.321644 C14.8764843,150.795547 12.073686,148.691156 10.3053226,145.008474 C8.96460267,142.204547 8.2248951,139.21851 8.08619993,136.050362 C7.60076683,124.958954 10.2186382,115.445838 14.0760976,104.84873 C20.0688847,88.3951737 28.3328052,72.9706872 38.8678591,58.5752707 C40.7922546,55.9476736 42.1185271,53.103278 44.0602595,50.6664635 C48.6458686,44.9343127 53.1881354,38.7945808 58.0684716,33.4353233 C63.9110057,27.0180895 69.874898,21.2021099 75.9601485,15.9873847 C80.1498984,12.3972025 85.8450688,8.52951832 93.0456597,4.38433211 C97.84798,1.61798399 103.066386,0.334537214 108.371476,0.0223474577 C117.325983,-0.497968803 121.686212,8.16529694 121.86825,15.805274 C121.954934,19.3607685 121.804681,23.0145449 121.41749,26.7666033 C121.336585,27.552859 121.099647,28.5674757 120.706678,29.8104534 C120.371498,30.8799924 120.154786,31.9090623 120.056544,32.8976632 Z" id="路径" fill="#FF8888" fill-rule="nonzero"></path>
                        <path d="M58.5712416,120.050637 C58.7157158,120.235638 58.837074,120.276107 58.9353165,120.172044 C67.5864277,111.130104 75.4920523,101.481128 82.6521904,91.2251161 C83.727078,89.6930737 84.9377713,87.61759 86.2842702,84.9986648 C88.1913288,83.1313076 90.1272822,80.5383982 92.0921304,77.2199367 C96.2414276,70.2014485 99.0471153,65.2815692 100.509194,62.4602988 C100.75191,61.9977954 100.841484,61.1941959 100.777915,60.0495001 C101.19978,60.1593446 101.520512,60.0032498 101.740113,59.5812155 C104.912765,53.5397655 107.868706,46.4865896 110.607936,38.4216875 C113.061106,31.1979634 115.843678,20.1499148 112.679695,13.4291631 C107.331262,2.02556506 89.569612,14.9987838 83.9697946,19.568895 C77.4569006,24.8876834 71.3167498,30.7961636 65.5493424,37.2943356 C53.7255792,50.6086506 43.1558514,65.3625072 33.8401592,81.5559055 C27.9340566,91.8234798 23.2126419,102.013007 19.675915,112.124486 C17.3007603,118.914613 15.2636749,127.152954 16.095846,134.333318 C16.9626908,141.8172 22.3804708,144.219327 28.9078123,142.155406 C34.6463249,140.342971 39.9427467,136.978259 44.6930562,133.205966 C49.7669879,129.182187 54.3439284,125.028329 58.423878,120.744392 C58.5336784,120.634547 58.5827996,120.403296 58.5712416,120.050637 Z" id="路径" fill="#F8BDA4" fill-rule="nonzero"></path>
                        <path d="M100.777915,60.0495001 C96.6575131,58.3613629 92.6469111,57.4247936 88.7461095,57.2397923 C86.9199564,57.1588542 85.3885306,57.1733074 84.151832,57.283152 C72.6343539,58.3064406 63.5613783,63.0008496 56.9329049,71.3663788 C45.308516,86.0392973 46.23604,106.32296 58.5712416,120.050637 C58.5827996,120.403296 58.5336784,120.634547 58.423878,120.744392 C54.3439284,125.028329 49.7669879,129.182187 44.6930562,133.205966 C39.9427467,136.978259 34.6463249,140.342971 28.9078123,142.155406 C22.3804708,144.219327 16.9626908,141.8172 16.095846,134.333318 C15.2636749,127.152954 17.3007603,118.914613 19.675915,112.124486 C23.2126419,102.013007 27.9340566,91.8234798 33.8401592,81.5559055 C43.1558514,65.3625072 53.7255792,50.6086506 65.5493424,37.2943356 C71.3167498,30.7961636 77.4569006,24.8876834 83.9697946,19.568895 C89.569612,14.9987838 107.331262,2.02556506 112.679695,13.4291631 C115.843678,20.1499148 113.061106,31.1979634 110.607936,38.4216875 C107.868706,46.4865896 104.912765,53.5397655 101.740113,59.5812155 C101.520512,60.0032498 101.19978,60.1593446 100.777915,60.0495001 Z" id="路径" fill="#FF5454" fill-rule="nonzero"></path>
                        <path d="M120.056544,32.8976632 L128.360917,51.4209221 C128.592076,52.1956152 128.181769,52.637884 127.129998,52.7477286 C126.852607,52.776635 126.687907,52.9298393 126.635896,53.2073413 C125.595682,59.364417 124.04403,65.2295375 121.980939,70.8027028 C121.431938,72.2769322 120.819367,73.69913 120.143228,75.0692962 C118.418207,78.5380712 116.901229,82.1542692 114.933491,85.4669494 C113.471413,87.9297797 111.989108,90.401282 110.486577,92.8814562 C108.267455,96.5467952 105.843179,100.018461 103.213749,103.296453 C100.786584,106.32296 98.7494986,109.783063 96.3049962,112.818241 C90.8525423,119.608368 84.654602,129.199531 90.9825691,137.880141 C93.4617452,141.27954 96.5390443,143.551588 99.7897123,146.014418 C101.800792,147.549351 104.175947,148.243106 106.039663,149.968822 C106.349199,150.257609 106.782431,150.377281 107.201235,150.289684 C107.34571,150.260777 107.481515,150.220308 107.608653,150.168276 C107.90338,150.041088 108.001622,149.82718 107.90338,149.526553 C107.753127,149.052487 107.741569,148.642015 107.868706,148.295138 C109.388574,148.873267 110.9749,149.107409 112.627684,148.997565 C112.916632,148.980221 113.188244,149.038034 113.442518,149.171004 C114.916154,149.91679 116.762534,149.075612 118.34886,149.058268 C118.360418,149.058268 118.360418,149.058268 118.34886,149.058268 C116.846329,149.676867 115.254224,149.951478 113.572545,149.882103 C113.283597,149.87054 113.026433,149.948587 112.801053,150.116245 C109.663075,152.399855 106.302606,154.16893 102.719648,155.423471 C99.1366892,154.059086 94.8082442,152.59931 89.7343125,151.044142 C74.3622646,146.338171 58.8601899,143.843543 43.2280885,143.56026 C48.822127,139.548043 52.4282014,136.84529 54.0463117,135.451998 C74.8245818,117.579135 91.7193872,95.0147528 104.88676,70.7593431 C111.549907,58.491442 116.606502,45.870882 120.056544,32.8976632 Z" id="路径" fill="#FF5454" fill-rule="nonzero"></path>
                        <path d="M250.906768,46.3131508 C251.270843,49.209578 257.957353,54.5692691 250.083265,64.8971133 C249.855173,65.1962847 247.520294,68.0305734 248.635635,69.7533984 C248.738242,69.9099046 248.747372,70.1094938 248.65955,70.276243 C248.571728,70.4429922 248.400454,70.5512703 248.210881,70.5598886 L246.199801,70.6466079 C243.501024,70.2939491 241.183659,68.9931585 239.247705,66.744236 C239.010816,66.4635418 238.949041,66.0745876 239.087299,65.7342636 C239.225557,65.3939396 239.541045,65.1583733 239.906507,65.1225836 C242.923127,64.8450816 246.624555,61.1941959 244.882197,57.9595631 C243.399892,55.2279027 239.44708,55.9997052 237.297304,57.413231 C236.309101,58.066517 235.349793,58.711131 234.41938,59.3470731 C234.300957,59.4316576 234.143564,59.4375791 234.019126,59.3621316 C233.894688,59.2866841 233.827105,59.1443589 233.847262,59.0001956 L234.332695,55.6268119 C234.47461,54.6362398 233.983633,53.6608085 233.101776,53.1813254 L227.701332,48.7239495 C227.978723,48.7586372 228.079855,48.6401207 228.004728,48.3684 C227.88337,47.9174593 227.542411,47.7440205 226.981851,47.8480838 C226.132343,47.9983974 225.305951,47.9752722 224.502675,47.7787083 C219.977745,45.7841626 220.480515,40.0346679 226.09767,40.0606837 C229.443691,40.0780276 232.156915,38.768565 235.47693,38.777237 C238.10636,38.777237 240.758905,38.6847363 243.434566,38.499735 C244.156936,38.4477033 244.243621,38.6558298 243.694619,39.1241145 C243.35366,39.4131791 242.969359,39.6415401 242.541716,39.8091975 C242.044725,40.0057615 242.038946,40.213888 242.524379,40.4335771 C245.497656,41.7777274 249.173078,43.4687552 250.906768,46.3131508 Z" id="形状结合" fill="#292455" fill-rule="nonzero"></path>
                        <path d="M240.131887,58.8180849 L239.637785,60.9340377 C239.435522,61.7781063 239.66668,61.919748 240.331261,61.3589627 C240.862926,60.9022406 241.258785,60.2865331 241.518839,59.51184 C241.640197,59.1533999 241.541955,58.8787885 241.224111,58.6880059 L240.903379,58.4972232 C240.493072,58.2486277 240.235908,58.3555816 240.131887,58.8180849 Z" id="路径" fill="#F8BDA4" fill-rule="nonzero"></path>
                        <path d="M226.209926,63.9612377 C226.288685,64.0283556 226.458347,63.9820869 226.681584,63.8326115 C226.904821,63.683136 227.163345,63.4426993 227.400277,63.1642 C227.637196,62.8857077 227.833112,62.5919752 227.944925,62.3476222 C228.056738,62.1032691 228.075287,61.9283123 227.996493,61.8612413 C227.917734,61.7941235 227.748072,61.8403921 227.524835,61.9898676 C227.301598,62.139343 227.043074,62.3797798 226.806142,62.6582791 C226.569223,62.9367714 226.373307,63.2305038 226.261494,63.4748569 C226.149681,63.7192099 226.131132,63.8941667 226.209926,63.9612377 L226.209926,63.9612377 Z" id="路径" fill="#F8BDA4" fill-rule="nonzero"></path>
                        <path d="M128.360917,51.4209221 C129.840332,54.3751622 131.3053,57.3380742 132.75582,60.3096582 C140.488076,76.1503977 149.693968,91.0834744 160.373496,105.108888 C162.286334,107.62375 165.643913,111.557919 170.446233,116.911395 L166.146683,124.291214 C166.04844,124.464653 166.077335,124.612076 166.233367,124.733483 C166.314273,124.797077 166.406736,124.80864 166.510757,124.768171 C166.296936,125.045673 166.028214,125.117939 165.704592,124.984969 C165.553338,124.923365 165.384546,124.917225 165.227827,124.967626 C159.131019,126.985296 152.990868,128.916248 146.807375,130.76048 C146.001209,131.003294 145.359744,131.619002 144.501568,131.627674 C143.912113,131.639236 143.331327,131.7433 142.75921,131.939863 C137.893321,133.599094 132.882958,134.885432 127.728121,135.798876 C126.986027,135.930142 126.447277,136.575435 126.453859,137.325137 L126.505869,142.12939 L106.663792,144.45347 C106.443027,144.478102 106.242875,144.594712 106.112517,144.774646 C105.982159,144.954579 105.933677,145.181159 105.978984,145.398711 C106.233259,146.69372 106.863166,147.659196 107.868706,148.295138 C107.741569,148.642015 107.753127,149.052487 107.90338,149.526553 C108.001622,149.82718 107.90338,150.041088 107.608653,150.168276 C107.481515,150.220308 107.34571,150.260777 107.201235,150.289684 C106.782431,150.377281 106.349199,150.257609 106.039663,149.968822 C104.175947,148.243106 101.800792,147.549351 99.7897123,146.014418 C96.5390443,143.551588 93.4617452,141.27954 90.9825691,137.880141 C84.654602,129.199531 90.8525423,119.608368 96.3049962,112.818241 C98.7494986,109.783063 100.786584,106.32296 103.213749,103.296453 C105.843179,100.018461 108.267455,96.5467952 110.486577,92.8814562 C111.989108,90.401282 113.471413,87.9297797 114.933491,85.4669494 C116.901229,82.1542692 118.418207,78.5380712 120.143228,75.0692962 C120.819367,73.69913 121.431938,72.2769322 121.980939,70.8027028 C124.04403,65.2295375 125.595682,59.364417 126.635896,53.2073413 C126.687907,52.9298393 126.852607,52.776635 127.129998,52.7477286 C128.181769,52.637884 128.592076,52.1956152 128.360917,51.4209221 Z" id="路径" fill="#FF8888" fill-rule="nonzero"></path>
                        <path d="M224.242622,56.4159582 C223.676283,56.0170491 223.300727,55.3902125 223.427864,54.5692691 C223.375854,54.0489528 223.540477,53.7045324 223.609825,53.5021871 C223.683705,53.2993501 223.84993,53.1439765 224.057228,53.08399 C224.264526,53.0240036 224.487995,53.0666106 224.658707,53.1986693 C225.496657,53.8288301 225.776937,54.6006326 225.499547,55.5140767 C225.308841,56.1326749 224.889866,56.4333021 224.242622,56.4159582 Z" id="路径" fill="#5F272B" fill-rule="nonzero"></path>
                        <path d="M88.7461095,57.2397923 C89.4222484,61.8359193 89.5176013,66.4204836 89.0321682,70.9934854 C88.8819151,72.4099019 88.4282664,74.7455438 87.6712219,78.0004111 C87.145336,80.2608962 86.6830188,82.5936474 86.2842702,84.9986648 C84.9377713,87.61759 83.727078,89.6930737 82.6521904,91.2251161 C75.4920523,101.481128 67.5864277,111.130104 58.9353165,120.172044 C58.837074,120.276107 58.7157158,120.235638 58.5712416,120.050637 C46.23604,106.32296 45.308516,86.0392973 56.9329049,71.3663788 C63.5613783,63.0008496 72.6343539,58.3064406 84.151832,57.283152 C85.3885306,57.1733074 86.9199564,57.1588542 88.7461095,57.2397923 Z" id="路径" fill="#FFFFFF" fill-rule="nonzero"></path>
                        <path d="M88.7461095,57.2397923 C92.6469111,57.4247936 96.6575131,58.3613629 100.777915,60.0495001 C100.841484,61.1941959 100.75191,61.9977954 100.509194,62.4602988 C99.0471153,65.2815692 96.2414276,70.2014485 92.0921304,77.2199367 C90.1272822,80.5383982 88.1913288,83.1313076 86.2842702,84.9986648 C86.6830188,82.5936474 87.145336,80.2608962 87.6712219,78.0004111 C88.4282664,74.7455438 88.8819151,72.4099019 89.0321682,70.9934854 C89.5176013,66.4204836 89.4222484,61.8359193 88.7461095,57.2397923 Z" id="路径" fill="#FFC7C7" fill-rule="nonzero"></path>
                        <path d="M240.131887,58.8180849 C240.235908,58.3555816 240.493072,58.2486277 240.903379,58.4972232 L241.224111,58.6880059 C241.541955,58.8787885 241.640197,59.1533999 241.518839,59.51184 C241.258785,60.2865331 240.862926,60.9022406 240.331261,61.3589627 C239.66668,61.919748 239.435522,61.7781063 239.637785,60.9340377 L240.131887,58.8180849 Z" id="路径" fill="#F89B91" fill-rule="nonzero"></path>
                        <path d="M226.209926,63.9612377 C226.131132,63.8941667 226.149681,63.7192099 226.261494,63.4748569 C226.373307,63.2305038 226.569223,62.9367714 226.806142,62.6582791 C227.043074,62.3797798 227.301598,62.139343 227.524835,61.9898676 C227.748072,61.8403921 227.917734,61.7941235 227.996493,61.8612413 C228.075287,61.9283123 228.056738,62.1032691 227.944925,62.3476222 C227.833112,62.5919752 227.637196,62.8857077 227.400277,63.1642 C227.163345,63.4426993 226.904821,63.683136 226.681584,63.8326115 C226.458347,63.9820869 226.288685,64.0283556 226.209926,63.9612377 L226.209926,63.9612377 Z" id="路径" fill="#F89B91" fill-rule="nonzero"></path>
                        <path d="M248.921693,181.985616 C248.309123,181.661864 247.6012,181.427721 246.797924,181.283189 C245.659467,181.080844 244.928428,180.933421 244.604806,180.84092 C236.780087,178.586216 229.042052,175.773618 221.390702,172.403125 L219.301606,171.241085 C219.353617,171.212179 219.425854,171.194835 219.518317,171.189053 C219.905508,171.154366 219.905508,171.119678 219.518317,171.08499 C219.437412,171.073428 219.376733,171.024287 219.33628,170.937567 C219.238038,170.752566 219.28138,170.610924 219.466307,170.512642 C226.210359,166.835741 230.752626,161.875392 231.68015,153.81049 C231.824624,152.561731 232.480537,152.165713 233.647888,152.622435 C236.028822,153.564785 238.623577,154.03307 241.432154,154.027289 C241.628639,154.021507 241.709545,153.926116 241.674871,153.741115 L241.640197,153.506972 C241.605523,153.298846 241.484165,153.191892 241.276122,153.186111 C238.351966,153.070485 235.540499,152.553059 232.841722,151.633834 C232.435685,151.496246 232.167915,151.108528 232.18292,150.679921 C232.385184,146.0202 233.153786,141.435635 234.488727,136.926228 C235.624294,133.084559 237.869422,129.841255 238.909636,125.895523 C238.946856,125.750542 238.903397,125.596733 238.795818,125.492698 C238.688239,125.388663 238.533107,125.350424 238.389529,125.392551 C238.031233,125.502395 237.719169,125.70185 237.453337,125.990914 C234.708328,128.974061 231.922867,131.919629 229.096953,134.827619 C221.286681,142.857833 214.14388,150.749296 206.749693,158.788183 C205.287615,160.378038 203.880437,162.04594 202.528159,163.791891 C200.638437,165.517606 198.809395,167.789654 197.27508,169.350603 C190.687059,176.033776 184.168386,182.679371 177.719061,189.287387 C175.615517,191.44959 173.03232,193.632028 169.969468,195.8347 C169.871226,195.909857 169.787431,195.996576 169.718083,196.094858 C169.648736,196.204703 169.605393,196.320329 169.588056,196.441736 C169.536046,196.765488 169.356898,196.970724 169.050613,197.057444 C166.923953,197.67026 165.496549,198.306203 164.768399,198.96527 C162.58395,200.93669 159.937184,201.933963 156.828101,201.957088 C156.961017,202.159434 156.822322,202.170996 156.412015,201.991776 C156.348447,201.777868 156.198194,201.636227 155.961256,201.566851 C152.973531,200.676532 150.491465,198.936363 148.515059,196.346345 C145.489771,192.391941 142.75921,188.775743 140.713456,184.006177 C140.563203,183.6593 140.450513,183.30375 140.375386,182.939529 L140.202017,182.124367 C140.109554,181.708114 139.959301,181.722567 139.751258,182.167727 C139.658795,182.352728 139.531657,182.367181 139.369846,182.211086 C139.595226,179.759819 138.985545,178.172854 137.540804,177.450192 L133.59666,168.656848 C133.637113,168.581691 133.674676,168.509425 133.70935,168.440049 C133.755581,168.335986 133.76136,168.226141 133.726687,168.110516 C133.033211,166.011907 132.215487,163.962439 131.273516,161.962112 C130.528029,160.366475 129.811438,157.47872 129.123741,153.298846 C127.794579,149.587257 126.921955,145.864105 126.505869,142.12939 L126.453799,137.325137 C126.447277,136.575435 126.986027,135.930142 127.728121,135.798876 C132.882958,134.885432 137.893321,133.599094 142.75921,131.939863 C143.331327,131.7433 143.912113,131.639236 144.501568,131.627674 C145.359744,131.619002 146.001209,131.003294 146.807375,130.76048 C152.990868,128.916248 159.131019,126.985296 165.227827,124.967626 C165.384546,124.917225 165.553338,124.923365 165.704592,124.984969 C166.028214,125.117939 166.296936,125.045673 166.510757,124.768171 C169.868336,124.375043 172.740482,123.412458 175.127195,121.880416 C177.242296,121.099941 179.253376,120.11134 181.160435,118.914613 C181.692099,118.579298 182.726534,118.102342 184.263739,117.483743 C185.500438,116.986552 186.410625,116.220531 186.9943,115.18568 C192.559444,111.890344 197.896318,107.904143 203.004924,103.227078 C203.259198,102.990045 203.548147,102.380119 203.871769,101.397299 C204.409212,101.137141 205.455205,100.405807 207.009747,99.2032987 C207.60498,98.7465767 208.047071,98.197354 208.336019,97.5556306 C209.05839,95.959994 209.725861,94.4308424 210.338431,92.9681755 C211.638698,89.8722938 214.247901,87.2880564 216.493029,84.686475 C220.359157,81.5067646 224.829187,79.1306536 229.903118,77.5581423 L246.199801,72.7018572 C247.060867,72.3318545 247.754342,72.4070113 248.280228,72.9273276 C256.977571,81.4431704 263.025258,91.3783203 266.42329,102.732777 C267.827579,107.415624 268.807113,113.543793 269.361894,121.117285 C269.977354,129.615784 269.708632,139.744607 269.16252,148.980221 C268.509497,159.791237 267.795794,170.790144 267.021413,181.976944 C266.987224,182.443529 266.638729,182.824511 266.180574,182.896169 C260.696335,183.79227 255.246771,183.477189 249.83188,181.950928 C249.681627,181.904678 249.531374,181.893115 249.381121,181.91624 C249.092173,181.968272 248.93903,181.991397 248.921693,181.985616 Z" id="路径" fill="#758DFB" fill-rule="nonzero"></path>
                        <path d="M246.987329,83.3999064 C246.976857,83.3646241 246.776934,83.3877739 246.431553,83.4642617 C246.086172,83.5407494 245.623633,83.6643077 245.145717,83.8077476 C244.667729,83.9512084 244.213529,84.1028007 243.883092,84.2291571 C243.552655,84.3555136 243.373067,84.4462774 243.383855,84.4814704 C243.394327,84.5167527 243.59425,84.4936029 243.939631,84.4171151 C244.285013,84.3406274 244.747552,84.2170691 245.225467,84.0736292 C245.703456,83.9301684 246.157656,83.7785762 246.488093,83.6522197 C246.818529,83.5258632 246.998118,83.4350994 246.987329,83.3999064 L246.987329,83.3999064 Z" id="路径" fill="#009996" fill-rule="nonzero"></path>
                        <path d="M236.369781,89.013772 C237.207731,89.9908103 238.008117,90.996755 238.770941,92.0316063 C238.817172,92.0952005 238.872073,92.1038724 238.935641,92.0576221 L238.94431,92.0489501 C239.030994,91.9853559 239.042552,91.9101991 238.978983,91.8234798 C238.175707,90.7134717 237.389768,89.658386 236.621166,88.6582225 C236.612602,88.645836 236.599095,88.6377689 236.584132,88.6361058 C236.56917,88.6344427 236.554222,88.6393466 236.543149,88.6495506 L236.387117,88.7969735 C236.306212,88.8605677 236.300433,88.9328339 236.369781,89.013772 Z" id="路径" fill="#009996" fill-rule="nonzero"></path>
                        <path d="M246.832597,105.993426 C246.797924,106.068583 246.766139,106.14374 246.737244,106.218896 C246.673676,106.392335 246.676565,106.562883 246.745913,106.730541 C247.913264,109.72525 248.913025,112.771991 249.745196,115.870763 C249.768312,115.957482 249.823212,115.989279 249.909896,115.966154 L249.918565,115.966154 C250.005249,115.94881 250.039923,115.896779 250.022586,115.810059 C249.300216,112.433785 248.236886,109.161574 246.832597,105.993426 C246.81526,105.629205 246.673676,105.25053 246.407843,104.857402 C246.194022,104.527868 246.003316,104.186772 245.835726,103.834113 C244.390985,100.752685 242.769985,97.7753197 240.972726,94.9020176 C240.903379,94.7863918 240.810915,94.7661573 240.695336,94.8413141 L240.695336,94.8413141 C240.602873,94.899127 240.585536,94.9713931 240.643325,95.0581125 C242.689079,98.4806373 244.555685,102.001444 246.243143,105.620533 C246.404954,105.961629 246.601439,106.085927 246.832597,105.993426 Z" id="路径" fill="#009996" fill-rule="nonzero"></path>
                        <path d="M204.452555,119.027348 L210.971228,114.11036 C210.976015,114.11036 210.979896,114.106477 210.979896,114.101688 L210.910548,114.014968 C210.795332,113.862505 210.642178,113.782067 210.563811,113.832858 L204.305191,118.550392 C204.265787,118.575928 204.250925,118.631821 204.263989,118.705336 C204.277053,118.778852 204.316931,118.863729 204.374539,118.940629 L204.443886,119.027348 C204.446568,119.028897 204.449873,119.028897 204.452555,119.027348 L204.452555,119.027348 Z" id="路径" fill="#009996" fill-rule="nonzero"></path>
                        <path d="M200.404389,121.871744 C199.589555,122.045183 198.896079,122.43831 198.323962,123.051127 C198.087024,123.299723 198.133256,123.371989 198.462657,123.267926 C199.248596,123.013549 199.89584,122.548155 200.404389,121.871744 C201.340582,121.553773 202.117853,121.019003 202.736202,120.267435 C202.955803,120.001496 202.906681,119.92923 202.588838,120.050637 C201.698878,120.403296 200.970728,121.010331 200.404389,121.871744 Z" id="路径" fill="#009996" fill-rule="nonzero"></path>
                        <path d="M251.513559,129.182187 C251.626249,127.118266 251.756276,124.282543 251.0628,122.235965 C250.987674,122.016276 250.958779,122.022057 250.976116,122.253309 L251.426875,129.182187 C251.426875,129.206134 251.44628,129.225547 251.470217,129.225547 C251.494154,129.225547 251.513559,129.206134 251.513559,129.182187 L251.513559,129.182187 Z" id="路径" fill="#009996" fill-rule="nonzero"></path>
                        <path d="M144.614257,141.019382 C143.839876,138.400457 143.87166,135.738172 144.70961,133.032528 C144.7674,132.841745 144.700942,132.717447 144.510236,132.659634 L144.258851,132.581587 C144.143272,132.546899 144.068145,132.587368 144.033471,132.702994 C143.279316,135.573405 143.227306,138.617255 143.998798,141.461651 C144.09704,141.825872 143.961234,142.042671 143.591381,142.112046 L136.517927,143.395493 C136.367674,143.418618 136.304105,143.505338 136.327221,143.655651 L136.361895,143.915809 C136.373453,144.00831 136.425463,144.048779 136.517927,144.037217 C138.95665,143.834871 141.340474,143.360805 143.669397,142.615019 C144.056587,142.48783 144.325309,142.612128 144.475562,142.987912 C148.243448,152.388293 153.268258,161.14695 159.549994,169.263883 C159.636678,169.367947 159.732031,169.3824 159.836052,169.307243 L159.844721,169.298571 C159.954521,169.217633 159.968968,169.122242 159.888063,169.012397 C157.790299,166.011907 155.744545,162.968057 153.750802,159.880847 C150.179401,154.359713 147.341929,148.748969 145.238386,143.048616 C145.173924,142.873909 145.188506,142.679806 145.278344,142.5167 C145.368183,142.353595 145.524416,142.237576 145.706482,142.198766 C153.750802,140.441253 161.919369,138.342644 170.212185,135.902939 C175.124305,134.451835 179.886173,132.81862 184.497787,131.003294 C187.705113,129.737191 190.973118,128.046163 193.989738,126.051618 C194.111096,125.97068 194.131322,125.872398 194.050417,125.756772 L194.041748,125.7481 C193.989738,125.672943 193.92039,125.65849 193.833706,125.70474 C192.41208,126.502559 191.051134,127.248345 189.750867,127.9421 C188.369694,128.682106 186.855605,129.381642 185.2086,130.040709 C172.477539,135.128246 159.162803,138.920773 145.264391,141.418291 C144.929211,141.481886 144.7125,141.348916 144.614257,141.019382 Z" id="路径" fill="#009996" fill-rule="nonzero"></path>
                        <path d="M249.571827,145.771604 C247.757232,152.194619 245.769268,157.923879 243.607935,162.959385 C241.816455,167.127696 239.89206,171.362492 237.834748,175.663773 C237.753843,175.831431 237.800074,175.955729 237.973443,176.036667 L238.172818,176.123386 C238.187473,176.131276 238.205665,176.12753 238.21616,176.114714 C239.897839,172.327968 241.628639,168.518097 243.40856,164.6851 C246.194022,158.672557 248.387139,152.399855 249.987912,145.866995 C249.99947,145.809182 249.979244,145.774495 249.927233,145.762932 L249.710522,145.693557 C249.641175,145.676213 249.594943,145.702229 249.571827,145.771604 Z" id="路径" fill="#009996" fill-rule="nonzero"></path>
                        <path d="M162.723946,173.037217 C162.822482,172.961152 162.447791,172.308992 161.887007,171.580505 C161.617682,171.230636 161.340572,170.909588 161.116639,170.687987 C160.892706,170.466387 160.740292,170.362387 160.692928,170.398866 C160.594392,170.474931 160.969083,171.127091 161.529867,171.855579 C161.799192,172.205447 162.076302,172.526495 162.300235,172.748096 C162.524169,172.969696 162.676582,173.073696 162.723946,173.037217 L162.723946,173.037217 Z" id="路径" fill="#009996" fill-rule="nonzero"></path>
                        <path d="M246.987329,83.3999064 C246.998118,83.4350994 246.818529,83.5258632 246.488093,83.6522197 C246.157656,83.7785762 245.703456,83.9301684 245.225467,84.0736292 C244.747552,84.2170691 244.285013,84.3406274 243.939631,84.4171151 C243.59425,84.4936029 243.394327,84.5167527 243.383855,84.4814704 C243.373067,84.4462774 243.552655,84.3555136 243.883092,84.2291571 C244.213529,84.1028007 244.667729,83.9512084 245.145717,83.8077476 C245.623633,83.6643077 246.086172,83.5407494 246.431553,83.4642617 C246.776934,83.3877739 246.976857,83.3646241 246.987329,83.3999064 L246.987329,83.3999064 Z M236.369781,89.013772 C236.300433,88.9328339 236.306212,88.8605677 236.387117,88.7969735 L236.543149,88.6495506 C236.554222,88.6393466 236.56917,88.6344427 236.584132,88.6361058 C236.599095,88.6377689 236.612602,88.645836 236.621166,88.6582225 C237.389768,89.658386 238.175707,90.7134717 238.978983,91.8234798 C239.042552,91.9101991 239.030994,91.9853559 238.94431,92.0489501 L238.935641,92.0576221 C238.872073,92.1038724 238.817172,92.0952005 238.770941,92.0316063 C238.008117,90.996755 237.207731,89.9908103 236.369781,89.013772 Z M246.832597,105.993426 C248.236886,109.161574 249.300216,112.433785 250.022586,115.810059 C250.039923,115.896779 250.005249,115.94881 249.918565,115.966154 C249.823212,115.989279 249.768312,115.957482 249.745196,115.870763 C248.913025,112.771991 247.913264,109.72525 246.745913,106.730541 C246.676565,106.562883 246.673676,106.392335 246.737244,106.218896 C246.766139,106.14374 246.797924,106.068583 246.832597,105.993426 Z M240.972726,94.9020176 C242.769985,97.7753197 244.390985,100.752685 245.835726,103.834113 C246.003316,104.186772 246.194022,104.527868 246.407843,104.857402 C246.673676,105.25053 246.81526,105.629205 246.832597,105.993426 C246.601439,106.085927 246.404954,105.961629 246.243143,105.620533 C244.555685,102.001444 242.689079,98.4806373 240.643325,95.0581125 C240.597094,94.988737 240.598943,94.9286116 240.648873,94.8777362 L240.695336,94.8413141 C240.810915,94.7661573 240.903379,94.7863918 240.972726,94.9020176 Z M204.452555,119.027348 C204.449873,119.028897 204.446568,119.028897 204.443886,119.027348 L204.374539,118.940629 C204.316931,118.863729 204.277053,118.778852 204.263989,118.705336 C204.250925,118.631821 204.265787,118.575928 204.305191,118.550392 L210.563811,113.832858 C210.642178,113.782067 210.795332,113.862505 210.910548,114.014968 L210.979896,114.101688 C210.979896,114.106477 210.976015,114.11036 210.971228,114.11036 L204.452555,119.027348 Z M200.404389,121.871744 C200.970728,121.010331 201.698878,120.403296 202.588838,120.050637 C202.906681,119.92923 202.955803,120.001496 202.736202,120.267435 C202.117853,121.019003 201.340582,121.553773 200.404389,121.871744 Z M200.404389,121.871744 C199.89584,122.548155 199.248596,123.013549 198.462657,123.267926 C198.133256,123.371989 198.087024,123.299723 198.323962,123.051127 C198.896079,122.43831 199.589555,122.045183 200.404389,121.871744 Z M251.0628,122.235965 C251.756276,124.282543 251.626249,127.118266 251.513559,129.182187 C251.513559,129.206134 251.494154,129.225547 251.470217,129.225547 C251.44628,129.225547 251.426875,129.206134 251.426875,129.182187 L250.976116,122.253309 C250.958779,122.022057 250.987674,122.016276 251.0628,122.235965 Z M249.710522,145.693557 L249.927233,145.762932 C249.979244,145.774495 249.99947,145.809182 249.987912,145.866995 C248.387139,152.399855 246.194022,158.672557 243.40856,164.6851 C241.628639,168.518097 239.897839,172.327968 238.21616,176.114714 C238.205665,176.12753 238.187473,176.131276 238.172818,176.123386 L237.973443,176.036667 C237.800074,175.955729 237.753843,175.831431 237.834748,175.663773 C239.89206,171.362492 241.816455,167.127696 243.607935,162.959385 C245.769268,157.923879 247.757232,152.194619 249.571827,145.771604 C249.594943,145.702229 249.641175,145.676213 249.710522,145.693557 Z M238.795818,125.492698 C238.903397,125.596733 238.946856,125.750542 238.909636,125.895523 C237.869422,129.841255 235.624294,133.084559 234.488727,136.926228 C233.153786,141.435635 232.385184,146.0202 232.18292,150.679921 C232.167915,151.108528 232.435685,151.496246 232.841722,151.633834 C235.540499,152.553059 238.351966,153.070485 241.276122,153.186111 C241.484165,153.191892 241.605523,153.298846 241.640197,153.506972 L241.674871,153.741115 C241.709545,153.926116 241.628639,154.021507 241.432154,154.027289 C238.623577,154.03307 236.028822,153.564785 233.647888,152.622435 C232.480537,152.165713 231.824624,152.561731 231.68015,153.81049 C230.752626,161.875392 226.210359,166.835741 219.466307,170.512642 C219.28138,170.610924 219.238038,170.752566 219.33628,170.937567 C219.376733,171.024287 219.437412,171.073428 219.518317,171.08499 C219.905508,171.119678 219.905508,171.154366 219.518317,171.189053 C219.425854,171.194835 219.353617,171.212179 219.301606,171.241085 L206.463635,165.482918 C205.804833,164.656194 204.493007,164.092518 202.528159,163.791891 C203.880437,162.04594 205.287615,160.378038 206.749693,158.788183 C214.14388,150.749296 221.286681,142.857833 229.096953,134.827619 C231.922867,131.919629 234.708328,128.974061 237.453337,125.990914 C237.719169,125.70185 238.031233,125.502395 238.389529,125.392551 C238.533107,125.350424 238.688239,125.388663 238.795818,125.492698 Z M145.264391,141.418291 C159.162803,138.920773 172.477539,135.128246 185.2086,130.040709 C186.855605,129.381642 188.369694,128.682106 189.750867,127.9421 C191.051134,127.248345 192.41208,126.502559 193.833706,125.70474 C193.92039,125.65849 193.989738,125.672943 194.041748,125.7481 L194.050417,125.756772 C194.131322,125.872398 194.111096,125.97068 193.989738,126.051618 C190.973118,128.046163 187.705113,129.737191 184.497787,131.003294 C179.886173,132.81862 175.124305,134.451835 170.212185,135.902939 C161.919369,138.342644 153.750802,140.441253 145.706482,142.198766 C145.524416,142.237576 145.368183,142.353595 145.278344,142.5167 C145.188506,142.679806 145.173924,142.873909 145.238386,143.048616 C147.341929,148.748969 150.179401,154.359713 153.750802,159.880847 C155.744545,162.968057 157.790299,166.011907 159.888063,169.012397 C159.968968,169.122242 159.954521,169.217633 159.844721,169.298571 L159.836052,169.307243 C159.732031,169.3824 159.636678,169.367947 159.549994,169.263883 C153.268258,161.14695 148.243448,152.388293 144.475562,142.987912 C144.325309,142.612128 144.056587,142.48783 143.669397,142.615019 C141.340474,143.360805 138.95665,143.834871 136.517927,144.037217 C136.425463,144.048779 136.373453,144.00831 136.361895,143.915809 L136.327221,143.655651 C136.304105,143.505338 136.367674,143.418618 136.517927,143.395493 L143.591381,142.112046 C143.961234,142.042671 144.09704,141.825872 143.998798,141.461651 C143.227306,138.617255 143.279316,135.573405 144.033471,132.702994 C144.068145,132.587368 144.143272,132.546899 144.258851,132.581587 L144.510236,132.659634 C144.700942,132.717447 144.7674,132.841745 144.70961,133.032528 C143.87166,135.738172 143.839876,138.400457 144.614257,141.019382 C144.7125,141.348916 144.929211,141.481886 145.264391,141.418291 Z" id="形状结合" stroke="#4D66DA" stroke-width="0.5" fill="#4D66DA" fill-rule="nonzero"></path>
                        <path d="M186.9943,115.18568 C186.410625,116.220531 185.500438,116.986552 184.263739,117.483743 C182.726534,118.102342 181.692099,118.579298 181.160435,118.914613 C179.253376,120.11134 177.242296,121.099941 175.127195,121.880416 C174.358592,121.076816 174.026302,120.385952 174.130323,119.807823 L186.9943,115.18568 Z" id="路径" fill="#4D66DA" fill-rule="nonzero"></path>
                        <path d="M170.446233,116.911395 C171.515341,118.455 172.743372,119.420476 174.130323,119.807823 C174.026302,120.385952 174.358592,121.076816 175.127195,121.880416 C172.740482,123.412458 169.868336,124.375043 166.510757,124.768171 C166.406736,124.80864 166.314273,124.797077 166.233367,124.733483 C166.077335,124.612076 166.04844,124.464653 166.146683,124.291214 L170.446233,116.911395 Z" id="路径" fill="#FF5454" fill-rule="nonzero"></path>
                        <path d="M126.505869,142.12939 C126.921955,145.864105 127.794579,149.587257 129.123741,153.298846 L113.451187,159.421234 C107.111661,162.080628 100.266477,163.485482 92.915633,163.635796 C90.7196261,163.682046 89.0379472,163.468138 87.8705962,162.994072 C85.7612738,162.138441 85.7612738,161.28281 87.8705962,160.427179 C92.4822106,158.55404 97.4318944,156.886138 102.719648,155.423471 C106.302606,154.16893 109.663075,152.399855 112.801053,150.116245 C113.026433,149.948587 113.283597,149.87054 113.572545,149.882103 C115.254224,149.951478 116.846329,149.676867 118.34886,149.058268 C118.360418,149.058268 118.360418,149.058268 118.34886,149.058268 C116.762534,149.075612 114.916154,149.91679 113.442518,149.171004 C113.188244,149.038034 112.916632,148.980221 112.627684,148.997565 C110.9749,149.107409 109.388574,148.873267 107.868706,148.295138 C106.863166,147.659196 106.233259,146.69372 105.978984,145.398711 C105.933677,145.181159 105.982159,144.954579 106.112517,144.774646 C106.242875,144.594712 106.443027,144.478102 106.663792,144.45347 L126.505869,142.12939 Z" id="路径" fill="#FFD0C0" fill-rule="nonzero"></path>
                        <path d="M137.644825,179.063173 C137.956889,178.883953 137.922216,178.346293 137.540804,177.450192 C138.927755,178.143947 139.545115,179.634244 139.392884,181.921083 L139.369846,182.211086 C139.531657,182.367181 139.658795,182.352728 139.751258,182.167727 C139.959301,181.722567 140.109554,181.708114 140.202017,182.124367 L140.375386,182.939529 C140.450513,183.30375 140.563203,183.6593 140.713456,184.006177 C142.75921,188.775743 145.489771,192.391941 148.515059,196.346345 C150.491465,198.936363 152.973531,200.676532 155.961256,201.566851 C156.198194,201.636227 156.348447,201.777868 156.412015,201.991776 C145.853846,205.963524 135.310123,209.987303 124.780848,214.063113 C123.29758,214.636425 121.754784,215.19167 120.199093,215.743903 L118.32906,216.406102 C114.900262,217.621017 111.499341,218.850505 108.622861,220.254877 C105.484883,221.7927 103.066386,223.960685 101.36737,226.75883 C87.1742309,250.149937 72.9319706,273.546825 58.6405892,296.949494 C58.1147034,297.810906 57.4327855,297.96122 56.5948355,297.400434 C52.832729,294.897135 49.3855761,292.385164 46.2533769,289.864521 C46.2106013,289.827759 46.1541512,289.810693 46.0969555,289.817232 C46.0397599,289.823771 45.986719,289.853355 45.9499812,289.899208 L45.8026176,290.081319 C45.7506069,290.139132 45.7534964,290.191164 45.811286,290.237414 C50.6945118,294.342131 55.2165522,297.490044 59.3774073,299.681154 C61.8103517,300.964601 64.4513389,302.204688 67.3003689,303.401415 C71.6114771,305.216741 75.9399221,306.552219 80.2857041,307.407851 C80.3319358,307.419413 80.3579412,307.402069 80.3637201,307.355819 L80.4157308,307.130349 C80.4501194,306.984154 80.3656028,306.838112 80.225025,306.800815 C72.7528227,304.794707 65.7400482,302.097734 59.1867015,298.709897 C59.0386933,298.632538 58.929224,298.497665 58.884771,298.3379 C58.8403181,298.178134 58.8649298,298.008026 58.9526534,297.868719 C62.7032019,291.850394 66.3699554,285.869648 69.952914,279.92648 C76.4311342,269.18484 83.0393811,258.347808 89.7776548,247.415386 C91.8118506,244.108487 93.9067256,240.657056 96.0622797,237.061092 C98.0560227,233.736849 100.182682,230.299871 102.442257,226.750158 C103.99391,224.313344 106.499091,221.902545 109.012941,220.931288 C125.199823,214.664368 141.279794,208.579558 157.252855,202.676859 C157.888541,202.439826 157.876983,202.23459 157.218181,202.061152 L156.828101,201.957088 C159.937184,201.933963 162.58395,200.93669 164.768399,198.96527 C165.496549,198.306203 166.923953,197.67026 169.050613,197.057444 C169.356898,196.970724 169.536046,196.765488 169.588056,196.441736 C169.605393,196.320329 169.648736,196.204703 169.718083,196.094858 C169.787431,195.996576 169.871226,195.909857 169.969468,195.8347 C173.03232,193.632028 175.615517,191.44959 177.719061,189.287387 C184.168386,182.679371 190.687059,176.033776 197.27508,169.350603 C198.809395,167.789654 200.638437,165.517606 202.528159,163.791891 C204.377428,164.074834 205.648241,164.590789 206.340597,165.339756 L206.463635,165.482918 L219.301606,171.241085 L221.390702,172.403125 L232.529658,183.000233 C234.870139,185.116185 236.774308,187.584797 238.242165,190.406067 C239.883391,193.562653 240.836921,195.574542 241.102753,196.441736 C241.484165,197.702058 241.807787,200.297858 242.073619,204.229136 C240.912047,206.876968 239.395069,209.582612 237.522684,212.34607 C231.853519,220.728943 221.62764,227.961339 213.849152,233.921851 C206.070665,239.882362 175.97727,259.572905 175.977056,260.300205 C203.098257,274.677011 216.759613,281.930202 216.961125,282.059777 C218.729489,283.213144 221.51206,284.210417 221.746109,286.5952 C222.248879,291.850394 220.896601,297.452466 219.821713,302.881099 L218.590793,306.774799 L213.64111,318.195741 C213.589099,318.305586 213.600657,318.409649 213.675783,318.507931 C213.716236,318.565744 213.774026,318.617775 213.849152,318.664026 C213.606436,318.629338 213.381056,318.6409 213.173013,318.698713 C212.999644,318.744964 212.826276,318.875043 212.652907,319.088951 C211.231281,320.858026 209.659402,322.494131 207.937271,323.997267 C204.903314,326.06697 201.626641,326.298221 198.107251,324.691022 C196.503588,323.96258 194.327807,322.601085 192.29939,321.837955 C178.874854,316.744637 165.88085,311.188815 153.317379,305.170491 C146.082115,301.707497 139.595226,297.839813 133.856713,293.567438 C127.728121,288.997327 122.42303,282.458686 123.03849,274.463159 C123.601939,267.100684 127.624099,260.336573 132.053676,254.222857 C137.052481,247.331557 142.36335,240.394007 147.986284,233.410206 C149.298109,231.855039 150.763077,230.120651 152.381187,228.207044 C164.592141,213.811627 175.733986,200.081059 185.806723,187.01534 C186.217029,186.483461 186.095671,186.295569 185.442648,186.451664 C181.715215,187.336201 178.039793,191.099822 175.525943,193.90953 C170.105274,199.974105 164.465004,206.39423 158.605133,213.169904 C155.056848,217.274621 151.46811,220.197064 147.83892,221.937233 C139.673242,225.851167 132.787605,229.724633 127.182008,233.557629 C125.402087,234.771701 123.812871,236.338431 122.414362,238.257819 C121.726665,239.205951 121.293243,240.3651 121.114095,241.735266 C120.969621,242.827931 120.802031,244.056455 120.611325,245.42084 C121.050526,258.71203 120.41195,271.653451 118.695598,284.245105 C116.875224,297.547857 110.685952,320.953417 97.1978464,327.084477 C86.2929386,332.044825 71.4785609,326.564161 61.59653,321.543109 C56.2856608,319.294186 51.1972818,316.285024 46.3313929,312.515622 L35.1230895,304.259937 C34.8919309,304.086498 34.8514782,303.878372 35.0017313,303.635558 C49.8710092,279.909136 63.9081162,256.347481 77.1130521,232.950594 C81.0774224,225.920543 85.8190635,218.858695 91.3379754,211.76505 C91.7598399,211.22739 92.2221571,210.73598 92.7249271,210.29082 C92.7596009,210.227226 92.7798273,210.157851 92.7856063,210.082694 C92.8087221,209.903474 92.8867382,209.75316 93.0196544,209.631753 C97.3885522,205.503911 100.772136,202.63639 103.170407,201.029191 C106.770703,198.618392 110.607936,196.291422 114.682106,194.048281 C114.924823,193.915311 115.184876,193.837264 115.462266,193.814139 C116.005489,193.762107 116.511149,193.603122 116.979245,193.337182 C121.793123,190.833883 126.78037,188.504022 131.940986,186.3476 C132.778936,186.000723 133.48686,185.437047 134.064756,184.656573 L137.644825,179.063173 Z" id="形状结合" fill="#6F43A3" fill-rule="nonzero"></path>
                        <path d="M132.027671,167.806998 L133.59666,168.656848 L137.540804,177.450192 C137.922216,178.346293 137.956889,178.883953 137.644825,179.063173 C136.593053,179.288643 135.578845,179.777162 134.6022,180.52873 C133.278817,181.552019 132.36574,182.153273 131.86297,182.332493 C128.170211,183.70266 123.792645,181.907568 123.021153,177.875117 C122.518383,175.221504 123.185854,173.331022 125.43965,171.692026 C127.39872,170.258265 129.594726,168.963256 132.027671,167.806998 Z" id="路径" fill="#FFA42D" fill-rule="nonzero"></path>
                        <path d="M162.723946,173.037217 C162.676582,173.073696 162.524169,172.969696 162.300235,172.748096 C162.076302,172.526495 161.799192,172.205447 161.529867,171.855579 C160.969083,171.127091 160.594392,170.474931 160.692928,170.398866 C160.740292,170.362387 160.892706,170.466387 161.116639,170.687987 C161.340572,170.909588 161.617682,171.230636 161.887007,171.580505 C162.447791,172.308992 162.822482,172.961152 162.723946,173.037217 L162.723946,173.037217 Z" id="路径" fill="#01767F" fill-rule="nonzero"></path>
                        <path d="M204.261849,286.317698 C204.397654,286.340823 204.452555,286.413089 204.435218,286.534497 C202.74776,298.183799 198.806505,308.899424 192.611455,318.68137 C192.547886,318.779651 192.464091,318.799886 192.36007,318.742073 L192.178032,318.629338 C192.149137,318.611994 192.143358,318.59176 192.160695,318.568634 C197.38488,310.04701 201.019849,300.877881 203.065603,291.061248 C203.383446,289.529206 203.701289,288.000054 204.019132,286.473793 C204.048027,286.340823 204.128933,286.288792 204.261849,286.317698 Z M156.828101,201.957088 L157.218181,202.061152 C157.876983,202.23459 157.888541,202.439826 157.252855,202.676859 C141.279794,208.579558 125.199823,214.664368 109.012941,220.931288 C106.499091,221.902545 103.99391,224.313344 102.442257,226.750158 C100.182682,230.299871 98.0560227,233.736849 96.0622797,237.061092 C93.9067256,240.657056 91.8118506,244.108487 89.7776548,247.415386 C83.0393811,258.347808 76.4311342,269.18484 69.952914,279.92648 C66.3699554,285.869648 62.7032019,291.850394 58.9526534,297.868719 C58.8649298,298.008026 58.8403181,298.178134 58.884771,298.3379 C58.929224,298.497665 59.0386933,298.632538 59.1867015,298.709897 C65.7400482,302.097734 72.7528227,304.794707 80.225025,306.800815 C80.3656028,306.838112 80.4501194,306.984154 80.4157308,307.130349 L80.3637201,307.355819 C80.3579412,307.402069 80.3319358,307.419413 80.2857041,307.407851 C75.9399221,306.552219 71.6114771,305.216741 67.3003689,303.401415 C64.4513389,302.204688 61.8103517,300.964601 59.3774073,299.681154 C55.2165522,297.490044 50.6945118,294.342131 45.811286,290.237414 C45.7534964,290.191164 45.7506069,290.139132 45.8026176,290.081319 L45.9499812,289.899208 C45.986719,289.853355 46.0397599,289.823771 46.0969555,289.817232 C46.1541512,289.810693 46.2106013,289.827759 46.2533769,289.864521 C49.3855761,292.385164 52.832729,294.897135 56.5948355,297.400434 C57.4327855,297.96122 58.1147034,297.810906 58.6405892,296.949494 C72.9319706,273.546825 87.1742309,250.149937 101.36737,226.75883 C103.066386,223.960685 105.484883,221.7927 108.622861,220.254877 C111.499341,218.850505 114.900262,217.621017 118.32906,216.406102 L120.199093,215.743903 C121.754784,215.19167 123.29758,214.636425 124.780848,214.063113 C135.310123,209.987303 145.853846,205.963524 156.412015,201.991776 C156.822322,202.170996 156.961017,202.159434 156.828101,201.957088 Z M205.224047,178.898406 L205.440758,178.950438 C205.533221,178.973563 205.570784,179.031376 205.553448,179.123876 C203.932448,187.474952 204.608587,194.074297 210.650495,200.84708 C210.927885,201.153489 211.205276,201.153489 211.482666,200.84708 C214.86914,197.106585 218.428982,193.579997 222.162194,190.267316 C222.225763,190.209503 222.283552,190.209503 222.335563,190.267316 L222.612953,190.55349 C222.722754,190.663335 222.722754,190.773179 222.612953,190.883024 L212.063452,201.11591 C211.664703,201.509038 211.687819,201.87615 212.1328,202.217246 L214.776676,204.24648 C214.886477,204.327418 214.906703,204.4257 214.837355,204.541326 L214.707329,204.749452 C214.603307,204.928672 214.470391,204.954688 214.30858,204.8275 L211.595356,202.77225 C211.326987,202.56881 210.954189,202.575982 210.693837,202.789594 C209.855887,203.483349 209.046832,204.20312 208.266672,204.948907 C192.568112,220.072766 176.228088,235.283345 160.728902,251.291742 C156.660511,255.494741 153.253811,259.648599 150.508802,263.753316 C147.596204,268.123973 145.784498,273.439871 150.101385,277.550369 C152.909962,280.221326 156.527595,282.663922 160.954282,284.878156 C168.721212,288.763185 176.43902,292.555712 184.107707,296.255739 C188.701984,298.475755 192.949524,301.033976 197.587144,303.149929 C197.679607,303.196179 197.702723,303.265555 197.656491,303.358056 L197.55247,303.583526 C197.477343,303.751183 197.358875,303.794543 197.197064,303.713605 C193.408952,301.849138 189.759535,299.767873 185.945418,297.929423 C176.814653,293.52986 168.276231,289.364439 160.330154,285.43316 C156.897448,283.733461 153.854823,281.80829 151.202278,279.65765 C146.376842,275.743715 145.475323,271.107119 148.497722,265.747862 C150.809308,261.648926 153.690123,257.784132 157.140165,254.153481 C165.253832,245.620295 173.722906,237.23164 182.547386,228.987518 C191.761947,220.376284 200.68178,211.071295 210.165062,202.130527 C210.45401,201.858806 210.462679,201.578414 210.191067,201.289349 C204.47856,195.192977 202.35479,187.032684 204.989998,179.037157 C205.030451,178.921531 205.108467,178.875281 205.224047,178.898406 Z M89.5904163,282.726389 C89.7750335,282.80606 89.3061059,284.307558 88.5430077,286.080174 C87.779977,287.852619 87.011715,289.225076 86.826915,289.145877 C86.6422978,289.066206 87.1112255,287.564707 87.8743236,285.792092 C88.6373543,284.019647 89.4056164,282.64719 89.5904163,282.726389 Z M114.057978,233.956538 L114.274689,234.025914 C114.293423,234.029367 114.309449,234.04142 114.317968,234.058465 C114.326487,234.07551 114.326511,234.095568 114.318031,234.112633 C112.746153,237.668128 112.133582,241.420186 112.48032,245.368808 C112.497657,245.530685 112.431199,245.64342 112.280946,245.707014 L112.038229,245.811077 C111.928429,245.857328 111.86775,245.82264 111.856192,245.707014 C111.399654,241.671672 111.931319,237.847348 113.451187,234.23404 C113.572545,233.956538 113.774809,233.864038 114.057978,233.956538 Z M185.806723,187.01534 C175.733986,200.081059 164.592141,213.811627 152.381187,228.207044 C150.763077,230.120651 149.298109,231.855039 147.986284,233.410206 L120.611325,245.42084 C120.802031,244.056455 120.969621,242.827931 121.114095,241.735266 C121.293243,240.3651 121.726665,239.205951 122.414362,238.257819 C123.812871,236.338431 125.402087,234.771701 127.182008,233.557629 C132.787605,229.724633 139.673242,225.851167 147.83892,221.937233 C151.46811,220.197064 155.056848,217.274621 158.605133,213.169904 C164.465004,206.39423 170.105274,199.974105 175.525943,193.90953 C178.039793,191.099822 181.715215,187.336201 185.442648,186.451664 C186.095671,186.295569 186.217029,186.483461 185.806723,187.01534 Z M221.390702,172.403125 C229.042052,175.773618 236.780087,178.586216 244.604806,180.84092 C244.928428,180.933421 245.659467,181.080844 246.797924,181.283189 C247.6012,181.427721 248.309123,181.661864 248.921693,181.985616 C247.7659,189.692078 245.483209,197.106585 242.073619,204.229136 C241.807787,200.297858 241.484165,197.702058 241.102753,196.441736 C240.836921,195.574542 239.883391,193.562653 238.242165,190.406067 C236.774308,187.584797 234.870139,185.116185 232.529658,183.000233 L221.390702,172.403125 Z" id="形状结合" fill="#592B8F" fill-rule="nonzero"></path>
                        <path d="M246.780587,338.826281 L251.574238,351.079729 C250.05726,352.458567 247.829469,351.521998 245.705699,350.984337 C243.168733,349.186356 241.313685,346.775557 240.140555,343.751941 C239.487532,342.075367 238.83162,340.450824 238.172818,338.878312 C236.520034,335.132035 234.19689,331.758652 231.203385,328.758161 C231.278512,328.347689 231.243838,328.026828 231.099364,327.795576 C230.925995,327.506511 230.694837,327.448699 230.405888,327.622137 L229.868444,327.951671 C225.976311,327.786904 223.02037,324.465552 221.659424,321.048809 C220.081767,316.417994 219.350727,311.639756 219.466307,306.714096 C219.472086,306.338312 219.321833,306.257373 219.015547,306.471281 L218.590793,306.774799 L219.821713,302.881099 C223.734073,302.025468 227.374821,302.03414 230.743958,302.907115 C233.058433,303.505479 235.875679,310.070135 236.837877,312.212104 C240.773352,320.953417 244.087589,329.824809 246.780587,338.826281 Z" id="路径" fill="#FFA42D" fill-rule="nonzero"></path>
                        <path d="M221.659424,321.048809 L216.284986,319.366453 C215.5395,318.990669 214.727555,318.756526 213.849152,318.664026 C213.774026,318.617775 213.716236,318.565744 213.675783,318.507931 C213.600657,318.409649 213.589099,318.305586 213.64111,318.195741 L218.590793,306.774799 L219.015547,306.471281 C219.321833,306.257373 219.472086,306.338312 219.466307,306.714096 C219.350727,311.639756 220.081767,316.417994 221.659424,321.048809 Z" id="路径" fill="#F89B91" fill-rule="nonzero"></path>
                        <path d="M226.613685,336.283267 C226.736513,336.250057 226.839084,336.165515 226.895167,336.051261 C227.762012,334.34578 228.556619,332.576704 229.27899,330.744035 C229.608391,329.91731 229.44658,329.804575 228.793557,330.405829 L226.158349,332.8253 C225.989211,332.979142 225.728702,332.971477 225.568894,332.807956 L225.360851,332.591158 C225.311663,332.54102 225.284834,332.473112 225.286467,332.40288 C225.2881,332.332647 225.318055,332.266061 225.36952,332.218264 L229.868444,327.951671 L230.405888,327.622137 C230.694837,327.448699 230.925995,327.506511 231.099364,327.795576 C231.243838,328.026828 231.278512,328.347689 231.203385,328.758161 L227.900707,336.684312 C227.861999,336.77698 226.490857,336.316477 226.613685,336.283267 Z" id="路径" fill="#4A4062" fill-rule="nonzero"></path>
                        <path d="M43.4447997,322.583741 C48.1084248,323.711093 52.6102388,325.511966 56.9502418,327.986359 C58.3892042,330.917474 56.8982312,334.264842 55.5112795,337.326036 C54.4768447,339.592302 53.8556059,341.887475 53.6475631,344.211554 C53.6038074,344.670492 53.2240833,345.024299 52.7633814,345.035388 C35.3455797,345.31289 18.1907209,345.601955 1.29880507,345.902582 C0.9925199,345.908363 0.689124217,345.870785 0.388618016,345.789847 C0.0361011272,345.697346 -0.076588698,345.480548 0.0505485407,345.139451 C2.80711504,337.617991 8.2075582,333.683822 16.251878,333.336944 C20.1642376,333.163505 24.0650392,332.95827 27.954283,332.721237 C30.8495446,332.542017 33.5801058,331.770214 36.1459664,330.405829 C36.6660733,330.122546 36.8076579,329.703402 36.5707204,329.148398 C37.0619324,329.321837 37.3162069,329.174414 37.3335438,328.706129 L37.7929716,328.602066 C38.053025,328.544253 38.2235045,328.385268 38.30441,328.12511 L40.064105,322.557726 C40.1450105,322.297568 40.3212689,322.158817 40.5928803,322.141473 C41.4597251,322.072097 42.4103649,322.21952 43.4447997,322.583741 Z" id="路径" fill="#FFA42D" fill-rule="nonzero"></path>
                        <path d="M37.3335438,328.706129 C37.3162069,329.174414 37.0619324,329.321837 36.5707204,329.148398 C31.791516,328.448862 26.8736164,328.246517 21.8170217,328.541363 C21.4982583,328.560007 21.2091194,328.350297 21.1235459,328.03839 L21.0455298,327.778232 C21.0244088,327.696561 21.0415703,327.609713 21.092166,327.542225 C21.1427616,327.474737 21.2212968,327.433938 21.3055833,327.431355 C25.9460925,327.240572 30.6501703,327.399558 35.4178168,327.908311 C35.4998718,327.919123 35.579369,327.878926 35.6206218,327.805767 C35.6618746,327.732608 35.6571318,327.640231 35.6085226,327.570106 C34.8283623,326.489004 34.215792,325.393449 33.7708116,324.283441 C33.5974427,323.838282 33.7476958,323.627265 34.2215709,323.65039 C34.3487082,323.656171 34.4469506,323.713984 34.5162982,323.823829 C35.4987223,325.436809 36.4378042,327.064243 37.3335438,328.706129 Z" id="路径" fill="#592B8F" fill-rule="nonzero"></path>
                        <path d="M155.634766,202.118045 C128.288015,212.308699 112.311817,218.594782 107.706173,220.976292 C103.100528,223.357803 86.7222176,249.014053 58.5712416,297.945042" id="路径-4" stroke="#592B8F" stroke-width="1.3" stroke-linecap="round"></path>
                        <path d="M46.2533769,289.864521 C53.1504855,296.994072 64.5379368,302.749348 80.4157308,307.130349" id="路径-5" stroke="#592B8F" stroke-width="1.3" stroke-linecap="round"></path>
                        <path d="M222.612953,190.55349 C187.83514,224.399749 167.189888,244.855462 160.6772,251.920628 C150.908167,262.518378 142.15625,270.195042 150.101385,277.550369 C158.04652,284.905696 198.084352,302.881099 198.084352,302.881099" id="路径-6" stroke="#592B8F" stroke-width="1.3" stroke-linecap="round"></path>
                        <path d="M204.438338,286.534497 C200.931912,302.405526 196.989618,313.121151 192.611455,318.68137" id="路径-7" stroke="#592B8F" stroke-width="1.3" stroke-linecap="round"></path>
                    </g>
                </g>
            </g>
        </g>
    </g>
</svg>