<?xml version="1.0" encoding="UTF-8"?>
<svg width="648px" height="864px" viewBox="0 0 648 864" version="1.1" xmlns="http://www.w3.org/2000/svg" xmlns:xlink="http://www.w3.org/1999/xlink">
    <title>礼花</title>
    <g id="页面-1" stroke="none" stroke-width="1" fill="none" fill-rule="evenodd">
        <g id="1" transform="translate(-26, -412)">
            <g id="礼花" transform="translate(26, 412)">
                <path d="M23.9298066,252.124346 C23.9298066,252.124346 33.85894,260.668897 33.85894,260.668897 C33.85894,260.668897 23.9298066,281.318637 10.1905548,284.826523 C10.1905548,284.826523 0,273.392435 0,273.392435 C0,273.392435 14.0426176,273.392435 23.9298066,252.124346 Z" id="路径-2" fill="#A1B3FE"></path>
                <path d="M200.728664,831.297822 C200.728664,831.297822 210.657798,839.842374 210.657798,839.842374 C210.657798,839.842374 200.728664,860.492113 186.989413,864 C186.989413,864 176.798858,852.565911 176.798858,852.565911 C176.798858,852.565911 190.841475,852.565911 200.728664,831.297822 Z" id="路径-2备份-3" fill="#A9FE3E"></path>
                <path d="M586.575767,421.69369 C586.575767,421.69369 592.072312,427.576113 592.072312,427.576113 C592.072312,427.576113 585.207695,435.10744 574.49016,442.699982 C574.49016,442.699982 569.60197,436.587277 569.60197,436.587277 C569.60197,436.587277 580.81531,428.601213 586.575767,421.69369 Z" id="路径-2备份-4" fill="#A9FE3E"></path>
                <path d="M473.345158,62.6984672 C473.345158,62.6984672 480.648492,70.5145217 480.648492,70.5145217 C480.648492,70.5145217 478.601883,74.7020626 472.215172,86.705658 C472.215172,86.705658 465.720114,78.5836232 465.720114,78.5836232 C465.720114,78.5836232 469.875269,70.5145217 473.345158,62.6984672 Z" id="路径-2备份-5" fill="#A9FE3E"></path>
                <path d="M367.607656,396.639311 C367.607656,396.639311 373.133595,402.553192 373.133595,402.553192 C373.133595,402.553192 371.585064,405.721621 366.752671,414.803931 C366.752671,414.803931 361.8383,408.658536 361.8383,408.658536 C361.8383,408.658536 364.982225,402.553192 367.607656,396.639311 Z" id="路径-2备份-6" fill="#FF9844"></path>
                <path d="M641.925721,363.157603 C641.925721,363.157603 648,368.384846 648,368.384846 C648,368.384846 641.925721,381.017599 633.520551,383.163595 C633.520551,383.163595 627.286343,376.168639 627.286343,376.168639 C627.286343,376.168639 635.877101,376.168639 641.925721,363.157603 Z" id="路径-2备份-2" fill="#A1B3FE" transform="translate(637.6432, 373.1606) scale(-1, 1) translate(-637.6432, -373.1606)"></path>
                <path d="M243.854405,0 C243.854405,0 257.604387,10.5939935 257.604387,10.5939935 C257.604387,10.5939935 251.675585,28.2486955 236.511197,35.6825628 C236.511197,35.6825628 223.745447,23.317531 223.745447,23.317531 C223.745447,23.317531 237.457386,17.3758099 243.854405,0 Z" id="路径-2备份" fill="#FF7844" transform="translate(240.6749, 17.8413) scale(-1, 1) translate(-240.6749, -17.8413)"></path>
            </g>
        </g>
    </g>
</svg>