<svg xmlns="http://www.w3.org/2000/svg" xmlns:xlink="http://www.w3.org/1999/xlink" width="16" height="16" viewBox="0 0 16 16" fill="none"><g opacity="1"  transform="translate(0 0)  rotate(0)"><mask id="bg-mask-0" fill="white"><use transform="translate(0 0)  rotate(NaN)" xlink:href="#path_0"></use></mask><g mask="url(#bg-mask-0)" ><g opacity="1"  transform="translate(2 2.5)  rotate(0)"><path id="路径" fill-rule="evenodd" style="fill:#FFFFFF" opacity="1" d="M4.63,4.41125zM12.25,4.28125c0,0.07 -0.06,0.13 -0.12,0.13h-7.5c-0.07,0 -0.13,-0.06 -0.13,-0.13v-0.88c0,-0.06 0.06,-0.12 0.13,-0.12h7.5c0.06,0 0.12,0.06 0.12,0.12z"></path><path id="路径" fill-rule="evenodd" style="fill:#FFFFFF" opacity="1" d="M4.5,7.59375zM12.13,6.59375c0.06,0 0.12,0.06 0.12,0.12v0.88c0,0.07 -0.06,0.13 -0.12,0.13h-7.5c-0.07,0 -0.13,-0.06 -0.13,-0.13v-0.88c0,-0.06 0.06,-0.12 0.13,-0.12z"></path><path id="路径" fill-rule="evenodd" style="fill:#FFFFFF" opacity="1" d="M12.38,0zM12.38,1.13h-12.25c-0.07,0 -0.13,-0.06 -0.13,-0.13v-0.88c0,-0.06 0.06,-0.12 0.13,-0.12h12.25c0.06,0 0.12,0.06 0.12,0.12v0.88c0,0.07 -0.06,0.13 -0.12,0.13z"></path><path id="路径" fill-rule="evenodd" style="fill:#FFFFFF" opacity="1" d="M12.38,9.875zM12.5,10.875c0,0.07 -0.06,0.13 -0.12,0.13h-12.25c-0.07,0 -0.13,-0.06 -0.13,-0.13v-0.88c0,-0.06 0.06,-0.12 0.13,-0.12h12.25c0.06,0 0.12,0.06 0.12,0.12z"></path><path id="路径" fill-rule="evenodd" style="fill:#FFFFFF" opacity="1" d="M0.05049,5.60848zM2.49049,7.52848l-2.44,-1.92c-0.07,-0.06 -0.07,-0.16 0,-0.22l2.44,-1.92c0.1,-0.07 0.23,-0.01 0.23,0.11v3.84c0,0.12 -0.13,0.18 -0.23,0.11z"></path></g></g></g><defs><rect id="path_0" x="0" y="0" width="16" height="16" /></defs></svg>